M48
;Layer_Color=9474304
;FILE_FORMAT=4:4
METRIC,LZ
;TYPE=PLATED
T1F00S00C0.2000
T2F00S00C0.4000
T3F00S00C1.0000
T4F00S00C2.1000
%
T01
X-0077372Y-0075213
X-00743978Y-00750391
X-0074373Y-0074428
X-00712956Y-00751677
X-00704759Y-0072178
X-00699591Y-00725051
X-00682966Y-00698827
X-00699342Y-0067394
X-00704759Y-0067678
X-0071374Y-0064643
X-00743482Y-00648169
X-0074373Y-0065428
X-00774504Y-00646883
X-00782701Y-0067678
X-00787869Y-00673509
X-00804494Y-00699733
X-00788118Y-0072462
X-00782701Y-0072178
X-0057061Y-0072462
X-00565193Y-0072178
X-00556212Y-0075213
X-0052647Y-00750391
X-00526222Y-0074428
X-00514847Y-00718994
X-00487251Y-0072178
X-00482083Y-00725051
X-00495448Y-00751677
X-00465458Y-00698827
X-00481834Y-0067394
X-00487251Y-0067678
X-00496232Y-0064643
X-00525974Y-00648169
X-00526222Y-0065428
X-00556996Y-00646883
X-00565193Y-0067678
X-00570361Y-00673509
X-00586987Y-00699733
T02
X-00661318Y-00699196
X-00661257Y-00691948
X-00661196Y-00684699
X-00607843
X-00607904Y-00691948
X-00607964Y-00699196
T03
X-0076943Y-0060928
X-0074373
X-0071803
X-00551922
X-00526222
X-00500522
T04
X-0074373Y-0069928
X-00526222
M30
