G04*
G04 #@! TF.GenerationSoftware,Altium Limited,Altium Designer,19.1.5 (86)*
G04*
G04 Layer_Color=16711935*
%FSAX44Y44*%
%MOMM*%
G71*
G01*
G75*
%ADD16C,0.1000*%
D16*
X-00674448Y-00739280D02*
G03*
X-00664034Y-00706253I-00069282J00040000D01*
G01*
X-00566222Y-00768562D02*
G03*
X-00526222Y-00779280I00040000J00069282D01*
G01*
D02*
G03*
X-00486222Y-00768562I00000000J00080000D01*
G01*
D02*
G03*
X-00456940Y-00739280I-00040000J00069282D01*
G01*
D02*
G03*
X-00456940Y-00659280I-00069282J00040000D01*
G01*
X-00486222Y-00609280D02*
G03*
X-00475139Y-00637713I00042013J00000000D01*
G01*
X-00456940Y-00659280D02*
G03*
X-00475139Y-00637713I-00069282J-00040000D01*
G01*
X-00577305D02*
G03*
X-00595504Y-00659280I00051083J-00061567D01*
G01*
D02*
G03*
X-00602702Y-00675809I00069282J-00040000D01*
G01*
X-00605918Y-00706253D02*
G03*
X-00595504Y-00739280I00079696J00006973D01*
G01*
D02*
G03*
X-00566222Y-00768562I00069282J00040000D01*
G01*
X-00515722Y-00699280D02*
G03*
X-00515722Y-00699280I-00010500J00000000D01*
G01*
X-00568610Y-00724620D02*
G03*
X-00568610Y-00724620I-00002000J00000000D01*
G01*
X-00563193Y-00721780D02*
G03*
X-00563193Y-00721780I-00002000J00000000D01*
G01*
X-00524470Y-00750391D02*
G03*
X-00524470Y-00750391I-00002000J00000000D01*
G01*
X-00524222Y-00744280D02*
G03*
X-00524222Y-00744280I-00002000J00000000D01*
G01*
X-00480083Y-00725051D02*
G03*
X-00480083Y-00725051I-00002000J00000000D01*
G01*
X-00485251Y-00721780D02*
G03*
X-00485251Y-00721780I-00002000J00000000D01*
G01*
X-00479834Y-00673940D02*
G03*
X-00479834Y-00673940I-00002000J00000000D01*
G01*
X-00485251Y-00676780D02*
G03*
X-00485251Y-00676780I-00002000J00000000D01*
G01*
X-00524222Y-00654280D02*
G03*
X-00524222Y-00654280I-00002000J00000000D01*
G01*
X-00523974Y-00648169D02*
G03*
X-00523974Y-00648169I-00002000J00000000D01*
G01*
X-00568361Y-00673509D02*
G03*
X-00568361Y-00673509I-00002000J00000000D01*
G01*
X-00563193Y-00676780D02*
G03*
X-00563193Y-00676780I-00002000J00000000D01*
G01*
X-00577305Y-00637713D02*
G03*
X-00566222Y-00609280I-00030930J00028433D01*
G01*
X-00485251Y-00721780D02*
G03*
X-00485251Y-00721780I-00002000J00000000D01*
G01*
X-00480083Y-00725051D02*
G03*
X-00480083Y-00725051I-00002000J00000000D01*
G01*
X-00524470Y-00750391D02*
G03*
X-00524470Y-00750391I-00002000J00000000D01*
G01*
X-00524222Y-00744280D02*
G03*
X-00524222Y-00744280I-00002000J00000000D01*
G01*
X-00563193Y-00721780D02*
G03*
X-00563193Y-00721780I-00002000J00000000D01*
G01*
X-00568610Y-00724620D02*
G03*
X-00568610Y-00724620I-00002000J00000000D01*
G01*
X-00786118D02*
G03*
X-00786118Y-00724620I-00002000J00000000D01*
G01*
X-00780701Y-00721780D02*
G03*
X-00780701Y-00721780I-00002000J00000000D01*
G01*
X-00741730Y-00744280D02*
G03*
X-00741730Y-00744280I-00002000J00000000D01*
G01*
X-00741978Y-00750391D02*
G03*
X-00741978Y-00750391I-00002000J00000000D01*
G01*
X-00697591Y-00725051D02*
G03*
X-00697591Y-00725051I-00002000J00000000D01*
G01*
X-00702759Y-00721780D02*
G03*
X-00702759Y-00721780I-00002000J00000000D01*
G01*
X-00794813Y-00637713D02*
G03*
X-00783730Y-00609280I-00030930J00028433D01*
G01*
X-00780701Y-00676780D02*
G03*
X-00780701Y-00676780I-00002000J00000000D01*
G01*
X-00785869Y-00673509D02*
G03*
X-00785869Y-00673509I-00002000J00000000D01*
G01*
X-00741482Y-00648169D02*
G03*
X-00741482Y-00648169I-00002000J00000000D01*
G01*
X-00741730Y-00654280D02*
G03*
X-00741730Y-00654280I-00002000J00000000D01*
G01*
X-00702759Y-00676780D02*
G03*
X-00702759Y-00676780I-00002000J00000000D01*
G01*
X-00697342Y-00673940D02*
G03*
X-00697342Y-00673940I-00002000J00000000D01*
G01*
X-00702759Y-00721780D02*
G03*
X-00702759Y-00721780I-00002000J00000000D01*
G01*
X-00697591Y-00725051D02*
G03*
X-00697591Y-00725051I-00002000J00000000D01*
G01*
X-00741730Y-00744280D02*
G03*
X-00741730Y-00744280I-00002000J00000000D01*
G01*
X-00741978Y-00750391D02*
G03*
X-00741978Y-00750391I-00002000J00000000D01*
G01*
X-00780701Y-00721780D02*
G03*
X-00780701Y-00721780I-00002000J00000000D01*
G01*
X-00786118Y-00724620D02*
G03*
X-00786118Y-00724620I-00002000J00000000D01*
G01*
X-00733230Y-00699280D02*
G03*
X-00733230Y-00699280I-00010500J00000000D01*
G01*
X-00813012Y-00739280D02*
G03*
X-00783730Y-00768562I00069282J00040000D01*
G01*
X-00823730Y-00699280D02*
G03*
X-00813012Y-00739280I00080000J00000000D01*
G01*
Y-00659280D02*
G03*
X-00823730Y-00699280I00069282J-00040000D01*
G01*
X-00794813Y-00637713D02*
G03*
X-00813012Y-00659280I00051083J-00061567D01*
G01*
X-00674448D02*
G03*
X-00692647Y-00637713I-00069282J-00040000D01*
G01*
X-00703730Y-00609280D02*
G03*
X-00692647Y-00637713I00042013J00000000D01*
G01*
X-00667024Y-00676559D02*
G03*
X-00674448Y-00659280I-00076706J-00022721D01*
G01*
X-00703730Y-00768562D02*
G03*
X-00674448Y-00739280I-00040000J00069282D01*
G01*
X-00743730Y-00779280D02*
G03*
X-00703730Y-00768562I00000000J00080000D01*
G01*
X-00783730D02*
G03*
X-00743730Y-00779280I00040000J00069282D01*
G01*
X-00667193Y-00676296D02*
X-00602701Y-00676250D01*
X-00664034Y-00706253D02*
X-00605918D01*
X-00566222Y-00609280D02*
X-00486222D01*
X-00783730D02*
X-00703730D01*
M02*
