%FSTAX23Y23*%
%MOIN*%
%SFA1B1*%

%IPPOS*%
%ADD14C,0.009843*%
%ADD41C,0.005905*%
%ADD45C,0.013780*%
%ADD47C,0.007874*%
%LNpcb4-1*%
%LPD*%
G36*
X07176Y04888D02*
X07177Y04888D01*
X07178Y04887*
X07178Y04887*
X07179Y04886*
X07179Y04886*
X0718Y04886*
X0718Y04886*
Y04885*
X0718Y04885*
X07181Y04884*
X07181Y04883*
X07181Y04882*
X07182Y04881*
X07182Y04879*
X07182Y04879*
Y04878*
X07182Y04878*
Y04877*
X07182Y04876*
X07182Y04874*
X07181Y04873*
X07181Y04872*
X07181Y04871*
X07181Y04871*
X07181Y0487*
X0718Y0487*
X0718Y0487*
X0718Y04869*
X0718Y04869*
X0718Y04869*
Y04869*
X07179Y04868*
X07178Y04867*
X07177Y04866*
X07176Y04866*
X07175Y04865*
X07175Y04865*
X07174Y04865*
X07174Y04865*
X07174Y04865*
X07174*
X07173Y04872*
X07174Y04872*
X07174Y04873*
X07175Y04873*
X07175Y04873*
X07175Y04873*
X07176Y04874*
X07176Y04874*
X07176Y04874*
X07176Y04874*
X07176Y04875*
X07176Y04876*
X07177Y04876*
X07177Y04877*
Y04877*
X07177Y04878*
X07176Y04878*
X07176Y04879*
X07176Y04879*
X07176Y04879*
X07176Y0488*
X07176Y0488*
X07176Y0488*
X07175Y0488*
X07175Y0488*
X07175Y04881*
X07174Y04881*
X07174Y04881*
X07174Y04881*
X07174*
X07174*
X07173*
X07173Y04881*
X07172Y04881*
X07172Y0488*
X07172Y0488*
X07171Y0488*
X07171*
X07171Y0488*
X07171Y04879*
X07171Y04879*
X07171Y04878*
X07171Y04877*
X0717Y04876*
X0717Y04875*
X0717Y04874*
X0717Y04874*
Y04874*
X0717Y04873*
Y04873*
X0717Y04872*
X0717Y04871*
X0717Y0487*
X07169Y04869*
X07169Y04868*
X07169Y04867*
X07169Y04867*
X07169Y04866*
X07168Y04866*
X07168Y04865*
X07168Y04865*
X07168Y04865*
X07167Y04865*
X07167Y04864*
X07167Y04864*
Y04864*
X07166Y04863*
X07165Y04863*
X07164Y04862*
X07163Y04862*
X07162Y04862*
X07162Y04862*
X07161*
X07161Y04862*
X07161*
X07161*
X07161*
X0716Y04862*
X07158Y04862*
X07157Y04862*
X07157Y04863*
X07156Y04863*
X07155Y04864*
X07155Y04864*
X07155Y04864*
X07154Y04865*
X07154Y04866*
X07153Y04867*
X07153Y04868*
X07153Y04868*
X07153Y04869*
X07153Y04869*
Y0487*
X07153Y04871*
X07153Y04871*
X07153Y04872*
X07153Y04873*
X07153Y04873*
X07154Y04874*
X07154Y04874*
X07154Y04874*
X07154Y04875*
X07155Y04876*
X07155Y04876*
X07155Y04877*
X07156Y04877*
X07156Y04878*
X07156Y04878*
X07157Y04878*
X07155Y04878*
X07155Y04878*
X07154Y04878*
X07154Y04878*
X07154Y04878*
X07153Y04878*
X07153*
Y04886*
X07154Y04886*
X07155Y04885*
X07156Y04885*
X07156Y04885*
X07157*
X07157Y04885*
X07157*
X07157*
X07158*
X07158Y04885*
X07159Y04885*
X0716Y04886*
X07162Y04886*
X07163Y04886*
X07163Y04886*
X07164Y04886*
X07164Y04886*
X07164Y04886*
X07164Y04886*
X07164*
X07165Y04886*
X07166Y04887*
X07167Y04887*
X07168Y04887*
X07169Y04887*
X07169Y04887*
X0717Y04887*
X0717Y04887*
X07171Y04888*
X07171Y04888*
X07171*
X07172Y04888*
X07172Y04888*
X07172*
X07173Y04888*
X07173Y04888*
X07174Y04888*
X07174*
X07174*
X07174*
X07174*
X07175*
X07176Y04888*
G37*
G36*
X05676D02*
X05677Y04888D01*
X05678Y04887*
X05678Y04887*
X05679Y04886*
X05679Y04886*
X0568Y04886*
X0568Y04886*
Y04885*
X0568Y04885*
X05681Y04884*
X05681Y04883*
X05681Y04882*
X05682Y04881*
X05682Y04879*
X05682Y04879*
Y04878*
X05682Y04878*
Y04877*
X05682Y04876*
X05682Y04874*
X05681Y04873*
X05681Y04872*
X05681Y04871*
X05681Y04871*
X05681Y0487*
X0568Y0487*
X0568Y0487*
X0568Y04869*
X0568Y04869*
X0568Y04869*
Y04869*
X05679Y04868*
X05678Y04867*
X05677Y04866*
X05676Y04866*
X05675Y04865*
X05675Y04865*
X05674Y04865*
X05674Y04865*
X05674Y04865*
X05674*
X05673Y04872*
X05674Y04872*
X05674Y04873*
X05675Y04873*
X05675Y04873*
X05675Y04873*
X05676Y04874*
X05676Y04874*
X05676Y04874*
X05676Y04874*
X05676Y04875*
X05676Y04876*
X05677Y04876*
X05677Y04877*
Y04877*
X05677Y04878*
X05676Y04878*
X05676Y04879*
X05676Y04879*
X05676Y04879*
X05676Y0488*
X05676Y0488*
X05676Y0488*
X05675Y0488*
X05675Y0488*
X05675Y04881*
X05674Y04881*
X05674Y04881*
X05674Y04881*
X05674*
X05674*
X05673*
X05673Y04881*
X05672Y04881*
X05672Y0488*
X05672Y0488*
X05671Y0488*
X05671*
X05671Y0488*
X05671Y04879*
X05671Y04879*
X05671Y04878*
X05671Y04877*
X0567Y04876*
X0567Y04875*
X0567Y04874*
X0567Y04874*
Y04874*
X0567Y04873*
Y04873*
X0567Y04872*
X0567Y04871*
X0567Y0487*
X05669Y04869*
X05669Y04868*
X05669Y04867*
X05669Y04867*
X05669Y04866*
X05668Y04866*
X05668Y04865*
X05668Y04865*
X05668Y04865*
X05667Y04865*
X05667Y04864*
X05667Y04864*
Y04864*
X05666Y04863*
X05665Y04863*
X05664Y04862*
X05663Y04862*
X05662Y04862*
X05662Y04862*
X05661*
X05661Y04862*
X05661*
X05661*
X05661*
X0566Y04862*
X05658Y04862*
X05657Y04862*
X05657Y04863*
X05656Y04863*
X05655Y04864*
X05655Y04864*
X05655Y04864*
X05654Y04865*
X05654Y04866*
X05653Y04867*
X05653Y04868*
X05653Y04868*
X05653Y04869*
X05653Y04869*
Y0487*
X05653Y04871*
X05653Y04871*
X05653Y04872*
X05653Y04873*
X05653Y04873*
X05654Y04874*
X05654Y04874*
X05654Y04874*
X05654Y04875*
X05655Y04876*
X05655Y04876*
X05655Y04877*
X05656Y04877*
X05656Y04878*
X05656Y04878*
X05657Y04878*
X05655Y04878*
X05655Y04878*
X05654Y04878*
X05654Y04878*
X05654Y04878*
X05653Y04878*
X05653*
Y04886*
X05654Y04886*
X05655Y04885*
X05656Y04885*
X05656Y04885*
X05657*
X05657Y04885*
X05657*
X05657*
X05658*
X05658Y04885*
X05659Y04885*
X0566Y04886*
X05662Y04886*
X05663Y04886*
X05663Y04886*
X05664Y04886*
X05664Y04886*
X05664Y04886*
X05664Y04886*
X05664*
X05665Y04886*
X05666Y04887*
X05667Y04887*
X05668Y04887*
X05669Y04887*
X05669Y04887*
X0567Y04887*
X0567Y04887*
X05671Y04888*
X05671Y04888*
X05671*
X05672Y04888*
X05672Y04888*
X05672*
X05673Y04888*
X05673Y04888*
X05674Y04888*
X05674*
X05674*
X05674*
X05674*
X05675*
X05676Y04888*
G37*
G36*
X04176D02*
X04177Y04888D01*
X04178Y04887*
X04178Y04887*
X04179Y04886*
X04179Y04886*
X0418Y04886*
X0418Y04886*
Y04885*
X0418Y04885*
X04181Y04884*
X04181Y04883*
X04181Y04882*
X04182Y04881*
X04182Y04879*
X04182Y04879*
Y04878*
X04182Y04878*
Y04877*
X04182Y04876*
X04182Y04874*
X04181Y04873*
X04181Y04872*
X04181Y04871*
X04181Y04871*
X04181Y0487*
X0418Y0487*
X0418Y0487*
X0418Y04869*
X0418Y04869*
X0418Y04869*
Y04869*
X04179Y04868*
X04178Y04867*
X04177Y04866*
X04176Y04866*
X04175Y04865*
X04175Y04865*
X04174Y04865*
X04174Y04865*
X04174Y04865*
X04174*
X04173Y04872*
X04174Y04872*
X04174Y04873*
X04175Y04873*
X04175Y04873*
X04175Y04873*
X04176Y04874*
X04176Y04874*
X04176Y04874*
X04176Y04874*
X04176Y04875*
X04176Y04876*
X04177Y04876*
X04177Y04877*
Y04877*
X04177Y04878*
X04176Y04878*
X04176Y04879*
X04176Y04879*
X04176Y04879*
X04176Y0488*
X04176Y0488*
X04176Y0488*
X04175Y0488*
X04175Y0488*
X04175Y04881*
X04174Y04881*
X04174Y04881*
X04174Y04881*
X04174*
X04174*
X04173*
X04173Y04881*
X04172Y04881*
X04172Y0488*
X04172Y0488*
X04171Y0488*
X04171*
X04171Y0488*
X04171Y04879*
X04171Y04879*
X04171Y04878*
X04171Y04877*
X0417Y04876*
X0417Y04875*
X0417Y04874*
X0417Y04874*
Y04874*
X0417Y04873*
Y04873*
X0417Y04872*
X0417Y04871*
X0417Y0487*
X04169Y04869*
X04169Y04868*
X04169Y04867*
X04169Y04867*
X04169Y04866*
X04168Y04866*
X04168Y04865*
X04168Y04865*
X04168Y04865*
X04167Y04865*
X04167Y04864*
X04167Y04864*
Y04864*
X04166Y04863*
X04165Y04863*
X04164Y04862*
X04163Y04862*
X04162Y04862*
X04162Y04862*
X04161*
X04161Y04862*
X04161*
X04161*
X04161*
X0416Y04862*
X04158Y04862*
X04157Y04862*
X04157Y04863*
X04156Y04863*
X04155Y04864*
X04155Y04864*
X04155Y04864*
X04154Y04865*
X04154Y04866*
X04153Y04867*
X04153Y04868*
X04153Y04868*
X04153Y04869*
X04153Y04869*
Y0487*
X04153Y04871*
X04153Y04871*
X04153Y04872*
X04153Y04873*
X04153Y04873*
X04154Y04874*
X04154Y04874*
X04154Y04874*
X04154Y04875*
X04155Y04876*
X04155Y04876*
X04155Y04877*
X04156Y04877*
X04156Y04878*
X04156Y04878*
X04157Y04878*
X04155Y04878*
X04155Y04878*
X04154Y04878*
X04154Y04878*
X04154Y04878*
X04153Y04878*
X04153*
Y04886*
X04154Y04886*
X04155Y04885*
X04156Y04885*
X04156Y04885*
X04157*
X04157Y04885*
X04157*
X04157*
X04158*
X04158Y04885*
X04159Y04885*
X0416Y04886*
X04162Y04886*
X04163Y04886*
X04163Y04886*
X04164Y04886*
X04164Y04886*
X04164Y04886*
X04164Y04886*
X04164*
X04165Y04886*
X04166Y04887*
X04167Y04887*
X04168Y04887*
X04169Y04887*
X04169Y04887*
X0417Y04887*
X0417Y04887*
X04171Y04888*
X04171Y04888*
X04171*
X04172Y04888*
X04172Y04888*
X04172*
X04173Y04888*
X04173Y04888*
X04174Y04888*
X04174*
X04174*
X04174*
X04174*
X04175*
X04176Y04888*
G37*
G36*
X07192Y04855D02*
X07185Y04853D01*
Y04861*
X07192Y04862*
Y04855*
G37*
G36*
X05692D02*
X05685Y04853D01*
Y04861*
X05692Y04862*
Y04855*
G37*
G36*
X04192D02*
X04185Y04853D01*
Y04861*
X04192Y04862*
Y04855*
G37*
G36*
X07181Y04852D02*
X07158Y04848D01*
X07157Y04847*
X07156Y04847*
X07155Y04847*
X07154Y04846*
X07153Y04846*
X07152Y04846*
X07152Y04846*
X07151Y04846*
X07151Y04845*
X07151Y04845*
X0715Y04845*
X0715Y04845*
X0715Y04845*
X0715Y04845*
X0715Y04845*
X07149Y04844*
X07149Y04844*
X07149Y04843*
X07149Y04843*
X07149Y04843*
Y04842*
X07149Y04841*
X07149Y04841*
X07149Y0484*
X07149Y0484*
X07149Y04839*
X07149Y04839*
Y04839*
X07143Y04838*
X07143Y04839*
X07142Y0484*
X07142Y04841*
X07142Y04842*
X07142Y04842*
X07142Y04843*
Y04844*
X07142Y04845*
X07142Y04845*
X07142Y04846*
X07143Y04847*
X07143Y04848*
X07143Y04848*
X07143Y04849*
X07144Y04849*
X07144Y0485*
X07144Y0485*
X07145Y0485*
X07145Y04851*
X07145Y04851*
X07145Y04851*
X07145Y04851*
X07145*
X07146Y04851*
X07147Y04852*
X07147Y04852*
X07148Y04852*
X07149Y04853*
X0715Y04853*
X07152Y04854*
X07153Y04854*
X07154Y04854*
X07155Y04854*
X07156Y04855*
X07157Y04855*
X07157Y04855*
X07157Y04855*
X07157*
X07181Y0486*
Y04852*
G37*
G36*
X05681D02*
X05658Y04848D01*
X05657Y04847*
X05656Y04847*
X05655Y04847*
X05654Y04846*
X05653Y04846*
X05652Y04846*
X05652Y04846*
X05651Y04846*
X05651Y04845*
X05651Y04845*
X0565Y04845*
X0565Y04845*
X0565Y04845*
X0565Y04845*
X0565Y04845*
X05649Y04844*
X05649Y04844*
X05649Y04843*
X05649Y04843*
X05649Y04843*
Y04842*
X05649Y04841*
X05649Y04841*
X05649Y0484*
X05649Y0484*
X05649Y04839*
X05649Y04839*
Y04839*
X05643Y04838*
X05643Y04839*
X05642Y0484*
X05642Y04841*
X05642Y04842*
X05642Y04842*
X05642Y04843*
Y04844*
X05642Y04845*
X05642Y04845*
X05642Y04846*
X05643Y04847*
X05643Y04848*
X05643Y04848*
X05643Y04849*
X05644Y04849*
X05644Y0485*
X05644Y0485*
X05645Y0485*
X05645Y04851*
X05645Y04851*
X05645Y04851*
X05645Y04851*
X05645*
X05646Y04851*
X05647Y04852*
X05647Y04852*
X05648Y04852*
X05649Y04853*
X0565Y04853*
X05652Y04854*
X05653Y04854*
X05654Y04854*
X05655Y04854*
X05656Y04855*
X05657Y04855*
X05657Y04855*
X05657Y04855*
X05657*
X05681Y0486*
Y04852*
G37*
G36*
X04181D02*
X04158Y04848D01*
X04157Y04847*
X04156Y04847*
X04155Y04847*
X04154Y04846*
X04153Y04846*
X04152Y04846*
X04152Y04846*
X04151Y04846*
X04151Y04845*
X04151Y04845*
X0415Y04845*
X0415Y04845*
X0415Y04845*
X0415Y04845*
X0415Y04845*
X04149Y04844*
X04149Y04844*
X04149Y04843*
X04149Y04843*
X04149Y04843*
Y04842*
X04149Y04841*
X04149Y04841*
X04149Y0484*
X04149Y0484*
X04149Y04839*
X04149Y04839*
Y04839*
X04143Y04838*
X04143Y04839*
X04142Y0484*
X04142Y04841*
X04142Y04842*
X04142Y04842*
X04142Y04843*
Y04844*
X04142Y04845*
X04142Y04845*
X04142Y04846*
X04143Y04847*
X04143Y04848*
X04143Y04848*
X04143Y04849*
X04144Y04849*
X04144Y0485*
X04144Y0485*
X04145Y0485*
X04145Y04851*
X04145Y04851*
X04145Y04851*
X04145Y04851*
X04145*
X04146Y04851*
X04147Y04852*
X04147Y04852*
X04148Y04852*
X04149Y04853*
X0415Y04853*
X04152Y04854*
X04153Y04854*
X04154Y04854*
X04155Y04854*
X04156Y04855*
X04157Y04855*
X04157Y04855*
X04157Y04855*
X04157*
X04181Y0486*
Y04852*
G37*
G36*
X07171Y04844D02*
X07172Y04844D01*
X07173Y04844*
X07174Y04844*
X07174Y04844*
X07175Y04843*
X07176Y04843*
X07176Y04843*
X07177Y04843*
X07177Y04842*
X07178Y04842*
X07178Y04842*
X07178Y04842*
X07179Y04841*
X07179Y04841*
X07179Y04841*
X07179Y04841*
X0718Y0484*
X0718Y04839*
X07181Y04839*
X07181Y04837*
X07182Y04836*
X07182Y04835*
X07182Y04834*
X07182Y04834*
X07182Y04834*
Y04833*
X07182Y04832*
X07182Y0483*
X07181Y04829*
X07181Y04828*
X07181Y04827*
X0718Y04826*
X0718Y04825*
X07179Y04824*
X07178Y04823*
X07178Y04823*
X07177Y04822*
X07177Y04822*
X07176Y04821*
X07176Y04821*
X07176Y04821*
X07176Y04821*
X07175Y0482*
X07174Y0482*
X07173Y04819*
X07172Y04819*
X07171Y04818*
X07169Y04818*
X07168Y04818*
X07168Y04818*
X07167Y04818*
X07167Y04818*
X07166Y04818*
X07166*
X07166*
X07166*
X07165Y04818*
X07164Y04818*
X07163Y04818*
X07162Y04818*
X07161Y04819*
X0716Y04819*
X07159Y04819*
X07159Y04819*
X07158Y0482*
X07158Y0482*
X07157Y0482*
X07157Y04821*
X07157Y04821*
X07156Y04821*
X07156Y04821*
X07156Y04821*
X07156Y04822*
X07155Y04823*
X07155Y04823*
X07154Y04824*
X07154Y04825*
X07154Y04826*
X07153Y04827*
X07153Y04828*
X07153Y04828*
X07153Y04829*
X07153Y04829*
X07153Y0483*
Y0483*
X07153Y04832*
X07153Y04833*
X07153Y04834*
X07154Y04836*
X07154Y04836*
X07154Y04837*
X07154Y04837*
X07155Y04837*
X07155Y04838*
X07155Y04838*
Y04838*
X07156Y04839*
X07157Y0484*
X07158Y04841*
X07159Y04842*
X07159Y04842*
X0716Y04842*
X0716Y04843*
X0716Y04843*
X07161Y04843*
X07161Y04843*
X07161*
X07162Y04836*
X07161Y04836*
X07161Y04835*
X0716Y04835*
X0716Y04834*
X07159Y04834*
X07159Y04834*
X07159Y04833*
X07158Y04832*
X07158Y04831*
X07158Y04831*
Y0483*
X07158Y0483*
X07158Y04829*
X07159Y04828*
X07159Y04828*
X07159Y04827*
X0716Y04827*
X0716Y04827*
X0716Y04826*
X07161Y04826*
X07161Y04826*
X07162Y04825*
X07163Y04825*
X07163Y04825*
X07164Y04825*
X07164*
X07164*
X07164*
X07165*
X07165Y04825*
X07165*
X07165*
Y04844*
X07167Y04844*
X07168Y04844*
X07168Y04844*
X07169Y04844*
X07169*
X0717*
X0717*
X0717*
X07171Y04844*
G37*
G36*
X05671D02*
X05672Y04844D01*
X05673Y04844*
X05674Y04844*
X05674Y04844*
X05675Y04843*
X05676Y04843*
X05676Y04843*
X05677Y04843*
X05677Y04842*
X05678Y04842*
X05678Y04842*
X05678Y04842*
X05679Y04841*
X05679Y04841*
X05679Y04841*
X05679Y04841*
X0568Y0484*
X0568Y04839*
X05681Y04839*
X05681Y04837*
X05682Y04836*
X05682Y04835*
X05682Y04834*
X05682Y04834*
X05682Y04834*
Y04833*
X05682Y04832*
X05682Y0483*
X05681Y04829*
X05681Y04828*
X05681Y04827*
X0568Y04826*
X0568Y04825*
X05679Y04824*
X05678Y04823*
X05678Y04823*
X05677Y04822*
X05677Y04822*
X05676Y04821*
X05676Y04821*
X05676Y04821*
X05676Y04821*
X05675Y0482*
X05674Y0482*
X05673Y04819*
X05672Y04819*
X05671Y04818*
X05669Y04818*
X05668Y04818*
X05668Y04818*
X05667Y04818*
X05667Y04818*
X05666Y04818*
X05666*
X05666*
X05666*
X05665Y04818*
X05664Y04818*
X05663Y04818*
X05662Y04818*
X05661Y04819*
X0566Y04819*
X05659Y04819*
X05659Y04819*
X05658Y0482*
X05658Y0482*
X05657Y0482*
X05657Y04821*
X05657Y04821*
X05656Y04821*
X05656Y04821*
X05656Y04821*
X05656Y04822*
X05655Y04823*
X05655Y04823*
X05654Y04824*
X05654Y04825*
X05654Y04826*
X05653Y04827*
X05653Y04828*
X05653Y04828*
X05653Y04829*
X05653Y04829*
X05653Y0483*
Y0483*
X05653Y04832*
X05653Y04833*
X05653Y04834*
X05654Y04836*
X05654Y04836*
X05654Y04837*
X05654Y04837*
X05655Y04837*
X05655Y04838*
X05655Y04838*
Y04838*
X05656Y04839*
X05657Y0484*
X05658Y04841*
X05659Y04842*
X05659Y04842*
X0566Y04842*
X0566Y04843*
X0566Y04843*
X05661Y04843*
X05661Y04843*
X05661*
X05662Y04836*
X05661Y04836*
X05661Y04835*
X0566Y04835*
X0566Y04834*
X05659Y04834*
X05659Y04834*
X05659Y04833*
X05658Y04832*
X05658Y04831*
X05658Y04831*
Y0483*
X05658Y0483*
X05658Y04829*
X05659Y04828*
X05659Y04828*
X05659Y04827*
X0566Y04827*
X0566Y04827*
X0566Y04826*
X05661Y04826*
X05661Y04826*
X05662Y04825*
X05663Y04825*
X05663Y04825*
X05664Y04825*
X05664*
X05664*
X05664*
X05665*
X05665Y04825*
X05665*
X05665*
Y04844*
X05667Y04844*
X05668Y04844*
X05668Y04844*
X05669Y04844*
X05669*
X0567*
X0567*
X0567*
X05671Y04844*
G37*
G36*
X04171D02*
X04172Y04844D01*
X04173Y04844*
X04174Y04844*
X04174Y04844*
X04175Y04843*
X04176Y04843*
X04176Y04843*
X04177Y04843*
X04177Y04842*
X04178Y04842*
X04178Y04842*
X04178Y04842*
X04179Y04841*
X04179Y04841*
X04179Y04841*
X04179Y04841*
X0418Y0484*
X0418Y04839*
X04181Y04839*
X04181Y04837*
X04182Y04836*
X04182Y04835*
X04182Y04834*
X04182Y04834*
X04182Y04834*
Y04833*
X04182Y04832*
X04182Y0483*
X04181Y04829*
X04181Y04828*
X04181Y04827*
X0418Y04826*
X0418Y04825*
X04179Y04824*
X04178Y04823*
X04178Y04823*
X04177Y04822*
X04177Y04822*
X04176Y04821*
X04176Y04821*
X04176Y04821*
X04176Y04821*
X04175Y0482*
X04174Y0482*
X04173Y04819*
X04172Y04819*
X04171Y04818*
X04169Y04818*
X04168Y04818*
X04168Y04818*
X04167Y04818*
X04167Y04818*
X04166Y04818*
X04166*
X04166*
X04166*
X04165Y04818*
X04164Y04818*
X04163Y04818*
X04162Y04818*
X04161Y04819*
X0416Y04819*
X04159Y04819*
X04159Y04819*
X04158Y0482*
X04158Y0482*
X04157Y0482*
X04157Y04821*
X04157Y04821*
X04156Y04821*
X04156Y04821*
X04156Y04821*
X04156Y04822*
X04155Y04823*
X04155Y04823*
X04154Y04824*
X04154Y04825*
X04154Y04826*
X04153Y04827*
X04153Y04828*
X04153Y04828*
X04153Y04829*
X04153Y04829*
X04153Y0483*
Y0483*
X04153Y04832*
X04153Y04833*
X04153Y04834*
X04154Y04836*
X04154Y04836*
X04154Y04837*
X04154Y04837*
X04155Y04837*
X04155Y04838*
X04155Y04838*
Y04838*
X04156Y04839*
X04157Y0484*
X04158Y04841*
X04159Y04842*
X04159Y04842*
X0416Y04842*
X0416Y04843*
X0416Y04843*
X04161Y04843*
X04161Y04843*
X04161*
X04162Y04836*
X04161Y04836*
X04161Y04835*
X0416Y04835*
X0416Y04834*
X04159Y04834*
X04159Y04834*
X04159Y04833*
X04158Y04832*
X04158Y04831*
X04158Y04831*
Y0483*
X04158Y0483*
X04158Y04829*
X04159Y04828*
X04159Y04828*
X04159Y04827*
X0416Y04827*
X0416Y04827*
X0416Y04826*
X04161Y04826*
X04161Y04826*
X04162Y04825*
X04163Y04825*
X04163Y04825*
X04164Y04825*
X04164*
X04164*
X04164*
X04165*
X04165Y04825*
X04165*
X04165*
Y04844*
X04167Y04844*
X04168Y04844*
X04168Y04844*
X04169Y04844*
X04169*
X0417*
X0417*
X0417*
X04171Y04844*
G37*
G36*
X07181Y04808D02*
X07176Y04807D01*
X07177Y04807*
X07178Y04806*
X07179Y04805*
X07179Y04805*
X0718Y04804*
X0718Y04804*
X0718Y04804*
X0718Y04803*
X07181Y04803*
X07181Y04802*
X07182Y04801*
X07182Y048*
X07182Y04799*
X07182Y04799*
Y04798*
X07182Y04797*
X07182Y04796*
X07181Y04795*
X07181Y04794*
X07181Y04793*
X0718Y04792*
X0718Y04792*
X0718Y04792*
X0718Y04792*
Y04792*
X07179Y04791*
X07178Y0479*
X07177Y04789*
X07176Y04788*
X07175Y04788*
X07175Y04787*
X07174Y04787*
X07174Y04787*
X07174Y04787*
X07174Y04787*
X07174*
X07172Y04786*
X07171Y04786*
X07169Y04786*
X07168Y04785*
X07167Y04785*
X07166Y04785*
X07166Y04785*
X07165*
X07165Y04785*
X07165*
X07165*
X07165*
X07164Y04785*
X07163Y04785*
X07162Y04785*
X07161Y04786*
X0716Y04786*
X0716Y04786*
X07159Y04786*
X07158Y04786*
X07158Y04787*
X07157Y04787*
X07157Y04787*
X07157Y04787*
X07156Y04787*
X07156Y04788*
X07156Y04788*
X07156*
X07156Y04788*
X07155Y04789*
X07155Y04789*
X07155Y0479*
X07154Y04791*
X07154Y04792*
X07153Y04793*
X07153Y04793*
X07153Y04794*
X07153Y04794*
Y04794*
X07153Y04795*
X07153Y04796*
X07154Y04798*
X07154Y04799*
X07155Y048*
X07155Y04801*
X07156Y04801*
X07156Y04802*
X07156Y04802*
X07156Y04802*
X07156Y04803*
X07156Y04803*
X07157Y04803*
X07155Y04803*
X07154Y04802*
X07153Y04802*
X07152Y04802*
X07152Y04802*
X07151Y04802*
X07151Y04802*
X07151Y04802*
X07151*
X0715Y04801*
X0715Y04801*
X07149Y04801*
X07149Y048*
X07149Y048*
X07149Y048*
X07149Y048*
X07149Y048*
X07148Y04799*
X07148Y04798*
X07148Y04798*
X07148Y04797*
X07148Y04796*
X07148Y04796*
Y04795*
X07148Y04795*
X07148Y04794*
X07148Y04794*
X07148Y04794*
X07148Y04793*
X07148Y04793*
Y04793*
X07148Y04793*
X07149Y04792*
X07149Y04792*
X07149Y04792*
X07149Y04792*
X0715Y04792*
X0715Y04792*
X0715Y04792*
X07151*
X07151*
X07151*
X07152Y04784*
X07152Y04784*
X07151Y04783*
X07151*
X07151*
X0715Y04784*
X07149Y04784*
X07149Y04784*
X07148Y04784*
X07147Y04784*
X07147Y04784*
X07146Y04785*
X07145Y04786*
X07145Y04786*
X07144Y04786*
X07144Y04786*
Y04786*
X07144Y04787*
X07143Y04788*
X07143Y04789*
X07143Y04791*
X07142Y04792*
X07142Y04793*
X07142Y04793*
X07142Y04794*
Y04794*
X07142Y04795*
Y04796*
X07142Y04797*
X07142Y04798*
X07142Y04799*
X07142Y04799*
X07143Y048*
X07143Y048*
Y048*
X07143Y04801*
X07143Y04802*
X07143Y04802*
X07143Y04803*
X07144Y04803*
X07144Y04804*
X07144Y04804*
X07144Y04804*
X07144Y04805*
X07145Y04805*
X07145Y04806*
X07145Y04806*
X07146Y04806*
X07146Y04807*
X07146Y04807*
X07146Y04807*
X07147Y04807*
X07147Y04807*
X07148Y04808*
X07149Y04808*
X07149Y04808*
X0715Y04809*
X0715Y04809*
X0715Y04809*
X07151Y04809*
X07151Y04809*
X07152Y04809*
X07154Y0481*
X07155Y0481*
X07156Y0481*
X07157Y0481*
X07157Y0481*
X07157Y04811*
X07158Y04811*
X07158Y04811*
X07158*
X07181Y04815*
Y04808*
G37*
G36*
X05681D02*
X05676Y04807D01*
X05677Y04807*
X05678Y04806*
X05679Y04805*
X05679Y04805*
X0568Y04804*
X0568Y04804*
X0568Y04804*
X0568Y04803*
X05681Y04803*
X05681Y04802*
X05682Y04801*
X05682Y048*
X05682Y04799*
X05682Y04799*
Y04798*
X05682Y04797*
X05682Y04796*
X05681Y04795*
X05681Y04794*
X05681Y04793*
X0568Y04792*
X0568Y04792*
X0568Y04792*
X0568Y04792*
Y04792*
X05679Y04791*
X05678Y0479*
X05677Y04789*
X05676Y04788*
X05675Y04788*
X05675Y04787*
X05674Y04787*
X05674Y04787*
X05674Y04787*
X05674Y04787*
X05674*
X05672Y04786*
X05671Y04786*
X05669Y04786*
X05668Y04785*
X05667Y04785*
X05666Y04785*
X05666Y04785*
X05665*
X05665Y04785*
X05665*
X05665*
X05665*
X05664Y04785*
X05663Y04785*
X05662Y04785*
X05661Y04786*
X0566Y04786*
X0566Y04786*
X05659Y04786*
X05658Y04786*
X05658Y04787*
X05657Y04787*
X05657Y04787*
X05657Y04787*
X05656Y04787*
X05656Y04788*
X05656Y04788*
X05656*
X05656Y04788*
X05655Y04789*
X05655Y04789*
X05655Y0479*
X05654Y04791*
X05654Y04792*
X05653Y04793*
X05653Y04793*
X05653Y04794*
X05653Y04794*
Y04794*
X05653Y04795*
X05653Y04796*
X05654Y04798*
X05654Y04799*
X05655Y048*
X05655Y04801*
X05656Y04801*
X05656Y04802*
X05656Y04802*
X05656Y04802*
X05656Y04803*
X05656Y04803*
X05657Y04803*
X05655Y04803*
X05654Y04802*
X05653Y04802*
X05652Y04802*
X05652Y04802*
X05651Y04802*
X05651Y04802*
X05651Y04802*
X05651*
X0565Y04801*
X0565Y04801*
X05649Y04801*
X05649Y048*
X05649Y048*
X05649Y048*
X05649Y048*
X05649Y048*
X05648Y04799*
X05648Y04798*
X05648Y04798*
X05648Y04797*
X05648Y04796*
X05648Y04796*
Y04795*
X05648Y04795*
X05648Y04794*
X05648Y04794*
X05648Y04794*
X05648Y04793*
X05648Y04793*
Y04793*
X05648Y04793*
X05649Y04792*
X05649Y04792*
X05649Y04792*
X05649Y04792*
X0565Y04792*
X0565Y04792*
X0565Y04792*
X05651*
X05651*
X05651*
X05652Y04784*
X05652Y04784*
X05651Y04783*
X05651*
X05651*
X0565Y04784*
X05649Y04784*
X05649Y04784*
X05648Y04784*
X05647Y04784*
X05647Y04784*
X05646Y04785*
X05645Y04786*
X05645Y04786*
X05644Y04786*
X05644Y04786*
Y04786*
X05644Y04787*
X05643Y04788*
X05643Y04789*
X05643Y04791*
X05642Y04792*
X05642Y04793*
X05642Y04793*
X05642Y04794*
Y04794*
X05642Y04795*
Y04796*
X05642Y04797*
X05642Y04798*
X05642Y04799*
X05642Y04799*
X05643Y048*
X05643Y048*
Y048*
X05643Y04801*
X05643Y04802*
X05643Y04802*
X05643Y04803*
X05644Y04803*
X05644Y04804*
X05644Y04804*
X05644Y04804*
X05644Y04805*
X05645Y04805*
X05645Y04806*
X05645Y04806*
X05646Y04806*
X05646Y04807*
X05646Y04807*
X05646Y04807*
X05647Y04807*
X05647Y04807*
X05648Y04808*
X05649Y04808*
X05649Y04808*
X0565Y04809*
X0565Y04809*
X0565Y04809*
X05651Y04809*
X05651Y04809*
X05652Y04809*
X05654Y0481*
X05655Y0481*
X05656Y0481*
X05657Y0481*
X05657Y0481*
X05657Y04811*
X05658Y04811*
X05658Y04811*
X05658*
X05681Y04815*
Y04808*
G37*
G36*
X04181D02*
X04176Y04807D01*
X04177Y04807*
X04178Y04806*
X04179Y04805*
X04179Y04805*
X0418Y04804*
X0418Y04804*
X0418Y04804*
X0418Y04803*
X04181Y04803*
X04181Y04802*
X04182Y04801*
X04182Y048*
X04182Y04799*
X04182Y04799*
Y04798*
X04182Y04797*
X04182Y04796*
X04181Y04795*
X04181Y04794*
X04181Y04793*
X0418Y04792*
X0418Y04792*
X0418Y04792*
X0418Y04792*
Y04792*
X04179Y04791*
X04178Y0479*
X04177Y04789*
X04176Y04788*
X04175Y04788*
X04175Y04787*
X04174Y04787*
X04174Y04787*
X04174Y04787*
X04174Y04787*
X04174*
X04172Y04786*
X04171Y04786*
X04169Y04786*
X04168Y04785*
X04167Y04785*
X04166Y04785*
X04166Y04785*
X04165*
X04165Y04785*
X04165*
X04165*
X04165*
X04164Y04785*
X04163Y04785*
X04162Y04785*
X04161Y04786*
X0416Y04786*
X0416Y04786*
X04159Y04786*
X04158Y04786*
X04158Y04787*
X04157Y04787*
X04157Y04787*
X04157Y04787*
X04156Y04787*
X04156Y04788*
X04156Y04788*
X04156*
X04156Y04788*
X04155Y04789*
X04155Y04789*
X04155Y0479*
X04154Y04791*
X04154Y04792*
X04153Y04793*
X04153Y04793*
X04153Y04794*
X04153Y04794*
Y04794*
X04153Y04795*
X04153Y04796*
X04154Y04798*
X04154Y04799*
X04155Y048*
X04155Y04801*
X04156Y04801*
X04156Y04802*
X04156Y04802*
X04156Y04802*
X04156Y04803*
X04156Y04803*
X04157Y04803*
X04155Y04803*
X04154Y04802*
X04153Y04802*
X04152Y04802*
X04152Y04802*
X04151Y04802*
X04151Y04802*
X04151Y04802*
X04151*
X0415Y04801*
X0415Y04801*
X04149Y04801*
X04149Y048*
X04149Y048*
X04149Y048*
X04149Y048*
X04149Y048*
X04148Y04799*
X04148Y04798*
X04148Y04798*
X04148Y04797*
X04148Y04796*
X04148Y04796*
Y04795*
X04148Y04795*
X04148Y04794*
X04148Y04794*
X04148Y04794*
X04148Y04793*
X04148Y04793*
Y04793*
X04148Y04793*
X04149Y04792*
X04149Y04792*
X04149Y04792*
X04149Y04792*
X0415Y04792*
X0415Y04792*
X0415Y04792*
X04151*
X04151*
X04151*
X04152Y04784*
X04152Y04784*
X04151Y04783*
X04151*
X04151*
X0415Y04784*
X04149Y04784*
X04149Y04784*
X04148Y04784*
X04147Y04784*
X04147Y04784*
X04146Y04785*
X04145Y04786*
X04145Y04786*
X04144Y04786*
X04144Y04786*
Y04786*
X04144Y04787*
X04143Y04788*
X04143Y04789*
X04143Y04791*
X04142Y04792*
X04142Y04793*
X04142Y04793*
X04142Y04794*
Y04794*
X04142Y04795*
Y04796*
X04142Y04797*
X04142Y04798*
X04142Y04799*
X04142Y04799*
X04143Y048*
X04143Y048*
Y048*
X04143Y04801*
X04143Y04802*
X04143Y04802*
X04143Y04803*
X04144Y04803*
X04144Y04804*
X04144Y04804*
X04144Y04804*
X04144Y04805*
X04145Y04805*
X04145Y04806*
X04145Y04806*
X04146Y04806*
X04146Y04807*
X04146Y04807*
X04146Y04807*
X04147Y04807*
X04147Y04807*
X04148Y04808*
X04149Y04808*
X04149Y04808*
X0415Y04809*
X0415Y04809*
X0415Y04809*
X04151Y04809*
X04151Y04809*
X04152Y04809*
X04154Y0481*
X04155Y0481*
X04156Y0481*
X04157Y0481*
X04157Y0481*
X04157Y04811*
X04158Y04811*
X04158Y04811*
X04158*
X04181Y04815*
Y04808*
G37*
G36*
X07181Y04774D02*
X07168Y04771D01*
X07167Y04771*
X07166Y0477*
X07166Y0477*
X07165Y0477*
X07165Y0477*
X07164Y0477*
X07164Y0477*
X07164*
X07164Y0477*
X07163Y04769*
X07163Y04769*
X07162Y04769*
X07162Y04769*
X07162Y04769*
X07162Y04769*
X07161Y04769*
X07161Y04768*
X0716Y04767*
X0716Y04767*
X0716Y04767*
X0716Y04767*
X0716Y04767*
X07159Y04766*
X07159Y04766*
X07159Y04765*
X07159Y04765*
X07158Y04765*
Y04765*
X07158Y04764*
X07158Y04764*
X07158Y04764*
Y04763*
X07158Y04763*
X07158Y04762*
X07159Y04762*
X07159Y04762*
X07159Y04761*
X07159Y04761*
X07159Y04761*
X07159Y04761*
X0716Y04761*
X0716Y04761*
X07161Y0476*
X07161Y0476*
X07161*
X07161*
X07161Y0476*
X07162Y04761*
X07162Y04761*
X07163Y04761*
X07164Y04761*
X07164Y04761*
X07165Y04761*
X07165*
X07165*
X07181Y04765*
Y04757*
X07166Y04754*
X07165Y04754*
X07164Y04753*
X07164Y04753*
X07163Y04753*
X07162Y04753*
X07161Y04753*
X07161Y04753*
X0716Y04753*
X0716*
X0716*
X07159Y04753*
X07158Y04753*
X07157Y04753*
X07156Y04754*
X07155Y04754*
X07155Y04754*
X07155Y04755*
X07155Y04755*
X07154Y04755*
X07154Y04756*
X07153Y04757*
X07153Y04758*
X07153Y04758*
X07153Y04759*
X07153Y04759*
Y0476*
X07153Y0476*
X07153Y04761*
X07153Y04762*
X07153Y04763*
X07154Y04765*
X07154Y04765*
X07155Y04766*
X07155Y04767*
X07156Y04767*
X07156Y04768*
X07156Y04768*
X07157Y04768*
X07157Y04769*
X07157Y04769*
X07157Y04769*
X07153Y04768*
Y04775*
X07181Y04781*
Y04774*
G37*
G36*
X05681D02*
X05668Y04771D01*
X05667Y04771*
X05666Y0477*
X05666Y0477*
X05665Y0477*
X05665Y0477*
X05664Y0477*
X05664Y0477*
X05664*
X05664Y0477*
X05663Y04769*
X05663Y04769*
X05662Y04769*
X05662Y04769*
X05662Y04769*
X05662Y04769*
X05661Y04769*
X05661Y04768*
X0566Y04767*
X0566Y04767*
X0566Y04767*
X0566Y04767*
X0566Y04767*
X05659Y04766*
X05659Y04766*
X05659Y04765*
X05659Y04765*
X05658Y04765*
Y04765*
X05658Y04764*
X05658Y04764*
X05658Y04764*
Y04763*
X05658Y04763*
X05658Y04762*
X05659Y04762*
X05659Y04762*
X05659Y04761*
X05659Y04761*
X05659Y04761*
X05659Y04761*
X0566Y04761*
X0566Y04761*
X05661Y0476*
X05661Y0476*
X05661*
X05661*
X05661Y0476*
X05662Y04761*
X05662Y04761*
X05663Y04761*
X05664Y04761*
X05664Y04761*
X05665Y04761*
X05665*
X05665*
X05681Y04765*
Y04757*
X05666Y04754*
X05665Y04754*
X05664Y04753*
X05664Y04753*
X05663Y04753*
X05662Y04753*
X05661Y04753*
X05661Y04753*
X0566Y04753*
X0566*
X0566*
X05659Y04753*
X05658Y04753*
X05657Y04753*
X05656Y04754*
X05655Y04754*
X05655Y04754*
X05655Y04755*
X05655Y04755*
X05654Y04755*
X05654Y04756*
X05653Y04757*
X05653Y04758*
X05653Y04758*
X05653Y04759*
X05653Y04759*
Y0476*
X05653Y0476*
X05653Y04761*
X05653Y04762*
X05653Y04763*
X05654Y04765*
X05654Y04765*
X05655Y04766*
X05655Y04767*
X05656Y04767*
X05656Y04768*
X05656Y04768*
X05657Y04768*
X05657Y04769*
X05657Y04769*
X05657Y04769*
X05653Y04768*
Y04775*
X05681Y04781*
Y04774*
G37*
G36*
X04181D02*
X04168Y04771D01*
X04167Y04771*
X04166Y0477*
X04166Y0477*
X04165Y0477*
X04165Y0477*
X04164Y0477*
X04164Y0477*
X04164*
X04164Y0477*
X04163Y04769*
X04163Y04769*
X04162Y04769*
X04162Y04769*
X04162Y04769*
X04162Y04769*
X04161Y04769*
X04161Y04768*
X0416Y04767*
X0416Y04767*
X0416Y04767*
X0416Y04767*
X0416Y04767*
X04159Y04766*
X04159Y04766*
X04159Y04765*
X04159Y04765*
X04158Y04765*
Y04765*
X04158Y04764*
X04158Y04764*
X04158Y04764*
Y04763*
X04158Y04763*
X04158Y04762*
X04159Y04762*
X04159Y04762*
X04159Y04761*
X04159Y04761*
X04159Y04761*
X04159Y04761*
X0416Y04761*
X0416Y04761*
X04161Y0476*
X04161Y0476*
X04161*
X04161*
X04161Y0476*
X04162Y04761*
X04162Y04761*
X04163Y04761*
X04164Y04761*
X04164Y04761*
X04165Y04761*
X04165*
X04165*
X04181Y04765*
Y04757*
X04166Y04754*
X04165Y04754*
X04164Y04753*
X04164Y04753*
X04163Y04753*
X04162Y04753*
X04161Y04753*
X04161Y04753*
X0416Y04753*
X0416*
X0416*
X04159Y04753*
X04158Y04753*
X04157Y04753*
X04156Y04754*
X04155Y04754*
X04155Y04754*
X04155Y04755*
X04155Y04755*
X04154Y04755*
X04154Y04756*
X04153Y04757*
X04153Y04758*
X04153Y04758*
X04153Y04759*
X04153Y04759*
Y0476*
X04153Y0476*
X04153Y04761*
X04153Y04762*
X04153Y04763*
X04154Y04765*
X04154Y04765*
X04155Y04766*
X04155Y04767*
X04156Y04767*
X04156Y04768*
X04156Y04768*
X04157Y04768*
X04157Y04769*
X04157Y04769*
X04157Y04769*
X04153Y04768*
Y04775*
X04181Y04781*
Y04774*
G37*
G36*
X07183Y04748D02*
X07184Y04748D01*
X07185Y04748*
X07186Y04748*
X07186Y04748*
X07186Y04748*
X07187Y04747*
X07187Y04747*
X07188Y04747*
X07188Y04747*
X07189Y04746*
X07189Y04746*
X0719Y04745*
X0719Y04745*
X0719Y04745*
X0719Y04744*
X0719Y04744*
X07191Y04743*
X07191Y04742*
X07191Y04741*
X07191Y04741*
X07192Y0474*
X07192Y0474*
Y0474*
X07192Y04739*
X07192Y04739*
X07192Y04738*
X07192Y04737*
Y04736*
X07192Y04735*
Y0472*
X07153Y04713*
Y04732*
X07153Y04733*
X07154Y04734*
X07154Y04735*
X07154Y04735*
X07154Y04736*
X07154Y04737*
X07154Y04738*
X07154Y04738*
X07154Y04739*
X07154Y04739*
X07155Y04739*
X07155Y0474*
X07155Y0474*
X07155Y0474*
Y0474*
X07155Y04741*
X07156Y04742*
X07157Y04743*
X07158Y04744*
X07158Y04745*
X07159Y04745*
X07159Y04745*
X07159Y04745*
X07159*
X0716Y04746*
X07162Y04747*
X07163Y04747*
X07164Y04747*
X07165Y04747*
X07165Y04747*
X07165Y04747*
X07165*
X07166*
X07166*
X07166*
X07167Y04747*
X07168Y04747*
X07168Y04747*
X07169Y04747*
X0717Y04746*
X0717Y04746*
X0717Y04746*
X0717Y04746*
X07171Y04745*
X07172Y04744*
X07172Y04744*
X07173Y04743*
X07173Y04742*
X07173Y04742*
X07173Y04741*
X07173Y04741*
Y04741*
X07174Y04742*
X07174Y04744*
X07175Y04745*
X07176Y04745*
X07176Y04746*
X07177Y04746*
X07177Y04747*
X07177Y04747*
X07178Y04747*
X07179Y04748*
X0718Y04748*
X07181Y04748*
X07181Y04748*
X07182Y04748*
X07182*
X07182*
X07182*
X07183*
X07183Y04748*
G37*
G36*
X05683D02*
X05684Y04748D01*
X05685Y04748*
X05686Y04748*
X05686Y04748*
X05686Y04748*
X05687Y04747*
X05687Y04747*
X05688Y04747*
X05688Y04747*
X05689Y04746*
X05689Y04746*
X0569Y04745*
X0569Y04745*
X0569Y04745*
X0569Y04744*
X0569Y04744*
X05691Y04743*
X05691Y04742*
X05691Y04741*
X05691Y04741*
X05692Y0474*
X05692Y0474*
Y0474*
X05692Y04739*
X05692Y04739*
X05692Y04738*
X05692Y04737*
Y04736*
X05692Y04735*
Y0472*
X05653Y04713*
Y04732*
X05653Y04733*
X05654Y04734*
X05654Y04735*
X05654Y04735*
X05654Y04736*
X05654Y04737*
X05654Y04738*
X05654Y04738*
X05654Y04739*
X05654Y04739*
X05655Y04739*
X05655Y0474*
X05655Y0474*
X05655Y0474*
Y0474*
X05655Y04741*
X05656Y04742*
X05657Y04743*
X05658Y04744*
X05658Y04745*
X05659Y04745*
X05659Y04745*
X05659Y04745*
X05659*
X0566Y04746*
X05662Y04747*
X05663Y04747*
X05664Y04747*
X05665Y04747*
X05665Y04747*
X05665Y04747*
X05665*
X05666*
X05666*
X05666*
X05667Y04747*
X05668Y04747*
X05668Y04747*
X05669Y04747*
X0567Y04746*
X0567Y04746*
X0567Y04746*
X0567Y04746*
X05671Y04745*
X05672Y04744*
X05672Y04744*
X05673Y04743*
X05673Y04742*
X05673Y04742*
X05673Y04741*
X05673Y04741*
Y04741*
X05674Y04742*
X05674Y04744*
X05675Y04745*
X05676Y04745*
X05676Y04746*
X05677Y04746*
X05677Y04747*
X05677Y04747*
X05678Y04747*
X05679Y04748*
X0568Y04748*
X05681Y04748*
X05681Y04748*
X05682Y04748*
X05682*
X05682*
X05682*
X05683*
X05683Y04748*
G37*
G36*
X04183D02*
X04184Y04748D01*
X04185Y04748*
X04186Y04748*
X04186Y04748*
X04186Y04748*
X04187Y04747*
X04187Y04747*
X04188Y04747*
X04188Y04747*
X04189Y04746*
X04189Y04746*
X0419Y04745*
X0419Y04745*
X0419Y04745*
X0419Y04744*
X0419Y04744*
X04191Y04743*
X04191Y04742*
X04191Y04741*
X04191Y04741*
X04192Y0474*
X04192Y0474*
Y0474*
X04192Y04739*
X04192Y04739*
X04192Y04738*
X04192Y04737*
Y04736*
X04192Y04735*
Y0472*
X04153Y04713*
Y04732*
X04153Y04733*
X04154Y04734*
X04154Y04735*
X04154Y04735*
X04154Y04736*
X04154Y04737*
X04154Y04738*
X04154Y04738*
X04154Y04739*
X04154Y04739*
X04155Y04739*
X04155Y0474*
X04155Y0474*
X04155Y0474*
Y0474*
X04155Y04741*
X04156Y04742*
X04157Y04743*
X04158Y04744*
X04158Y04745*
X04159Y04745*
X04159Y04745*
X04159Y04745*
X04159*
X0416Y04746*
X04162Y04747*
X04163Y04747*
X04164Y04747*
X04165Y04747*
X04165Y04747*
X04165Y04747*
X04165*
X04166*
X04166*
X04166*
X04167Y04747*
X04168Y04747*
X04168Y04747*
X04169Y04747*
X0417Y04746*
X0417Y04746*
X0417Y04746*
X0417Y04746*
X04171Y04745*
X04172Y04744*
X04172Y04744*
X04173Y04743*
X04173Y04742*
X04173Y04742*
X04173Y04741*
X04173Y04741*
Y04741*
X04174Y04742*
X04174Y04744*
X04175Y04745*
X04176Y04745*
X04176Y04746*
X04177Y04746*
X04177Y04747*
X04177Y04747*
X04178Y04747*
X04179Y04748*
X0418Y04748*
X04181Y04748*
X04181Y04748*
X04182Y04748*
X04182*
X04182*
X04182*
X04183*
X04183Y04748*
G37*
G36*
X07192Y04691D02*
X07153Y04683D01*
Y0469*
X07192Y04698*
Y04691*
G37*
G36*
X05692D02*
X05653Y04683D01*
Y0469*
X05692Y04698*
Y04691*
G37*
G36*
X04192D02*
X04153Y04683D01*
Y0469*
X04192Y04698*
Y04691*
G37*
G36*
X07181Y04684D02*
X07182Y04684D01*
X07182Y04683*
X07182Y04683*
X07182Y04682*
X07182Y04682*
Y04682*
X07182Y04681*
X07182Y0468*
X07181Y04679*
X07181Y04678*
X07181Y04678*
X0718Y04677*
X07179Y04676*
X07178Y04675*
X07178Y04675*
X07177Y04674*
X07177Y04674*
X07177Y04674*
X07176Y04673*
X07176Y04673*
X07176Y04673*
X07181Y04674*
Y04667*
X07153Y04661*
Y04669*
X07162Y04671*
X07163Y04671*
X07164Y04671*
X07165Y04671*
X07166Y04671*
X07166Y04672*
X07167Y04672*
X07168Y04672*
X07168Y04672*
X07168Y04672*
X07169Y04672*
X07169Y04673*
X07169Y04673*
X0717Y04673*
X0717Y04673*
X0717Y04673*
X07171Y04673*
X07172Y04674*
X07172Y04674*
X07173Y04675*
X07173Y04675*
X07174Y04676*
X07174Y04676*
X07174Y04676*
X07174Y04677*
X07175Y04677*
X07175Y04678*
X07175Y04679*
X07175Y04679*
X07175Y0468*
Y0468*
X07175Y04681*
X07175Y04682*
X07175Y04682*
X07175Y04682*
X07175Y04682*
Y04682*
X07181Y04685*
X07181Y04684*
G37*
G36*
X05681D02*
X05682Y04684D01*
X05682Y04683*
X05682Y04683*
X05682Y04682*
X05682Y04682*
Y04682*
X05682Y04681*
X05682Y0468*
X05681Y04679*
X05681Y04678*
X05681Y04678*
X0568Y04677*
X05679Y04676*
X05678Y04675*
X05678Y04675*
X05677Y04674*
X05677Y04674*
X05677Y04674*
X05676Y04673*
X05676Y04673*
X05676Y04673*
X05681Y04674*
Y04667*
X05653Y04661*
Y04669*
X05662Y04671*
X05663Y04671*
X05664Y04671*
X05665Y04671*
X05666Y04671*
X05666Y04672*
X05667Y04672*
X05668Y04672*
X05668Y04672*
X05668Y04672*
X05669Y04672*
X05669Y04673*
X05669Y04673*
X0567Y04673*
X0567Y04673*
X0567Y04673*
X05671Y04673*
X05672Y04674*
X05672Y04674*
X05673Y04675*
X05673Y04675*
X05674Y04676*
X05674Y04676*
X05674Y04676*
X05674Y04677*
X05675Y04677*
X05675Y04678*
X05675Y04679*
X05675Y04679*
X05675Y0468*
Y0468*
X05675Y04681*
X05675Y04682*
X05675Y04682*
X05675Y04682*
X05675Y04682*
Y04682*
X05681Y04685*
X05681Y04684*
G37*
G36*
X04181D02*
X04182Y04684D01*
X04182Y04683*
X04182Y04683*
X04182Y04682*
X04182Y04682*
Y04682*
X04182Y04681*
X04182Y0468*
X04181Y04679*
X04181Y04678*
X04181Y04678*
X0418Y04677*
X04179Y04676*
X04178Y04675*
X04178Y04675*
X04177Y04674*
X04177Y04674*
X04177Y04674*
X04176Y04673*
X04176Y04673*
X04176Y04673*
X04181Y04674*
Y04667*
X04153Y04661*
Y04669*
X04162Y04671*
X04163Y04671*
X04164Y04671*
X04165Y04671*
X04166Y04671*
X04166Y04672*
X04167Y04672*
X04168Y04672*
X04168Y04672*
X04168Y04672*
X04169Y04672*
X04169Y04673*
X04169Y04673*
X0417Y04673*
X0417Y04673*
X0417Y04673*
X04171Y04673*
X04172Y04674*
X04172Y04674*
X04173Y04675*
X04173Y04675*
X04174Y04676*
X04174Y04676*
X04174Y04676*
X04174Y04677*
X04175Y04677*
X04175Y04678*
X04175Y04679*
X04175Y04679*
X04175Y0468*
Y0468*
X04175Y04681*
X04175Y04682*
X04175Y04682*
X04175Y04682*
X04175Y04682*
Y04682*
X04181Y04685*
X04181Y04684*
G37*
G36*
X07176Y04658D02*
X07177Y04658D01*
X07178Y04658*
X07178Y04657*
X07179Y04657*
X07179Y04656*
X0718Y04656*
X0718Y04656*
Y04656*
X0718Y04655*
X07181Y04655*
X07181Y04654*
X07181Y04652*
X07182Y04651*
X07182Y0465*
X07182Y04649*
Y04649*
X07182Y04648*
Y04648*
X07182Y04646*
X07182Y04644*
X07181Y04643*
X07181Y04642*
X07181Y04642*
X07181Y04641*
X07181Y04641*
X0718Y0464*
X0718Y0464*
X0718Y0464*
X0718Y0464*
X0718Y0464*
Y0464*
X07179Y04639*
X07178Y04638*
X07177Y04637*
X07176Y04636*
X07175Y04636*
X07175Y04635*
X07174Y04635*
X07174Y04635*
X07174Y04635*
X07174*
X07173Y04643*
X07174Y04643*
X07174Y04643*
X07175Y04643*
X07175Y04643*
X07175Y04644*
X07176Y04644*
X07176Y04644*
X07176Y04644*
X07176Y04645*
X07176Y04645*
X07176Y04646*
X07177Y04647*
X07177Y04647*
Y04647*
X07177Y04648*
X07176Y04649*
X07176Y04649*
X07176Y04649*
X07176Y0465*
X07176Y0465*
X07176Y0465*
X07176Y0465*
X07175Y04651*
X07175Y04651*
X07175Y04651*
X07174Y04651*
X07174Y04651*
X07174Y04651*
X07174*
X07174*
X07173*
X07173Y04651*
X07172Y04651*
X07172Y04651*
X07172Y04651*
X07171Y04651*
X07171*
X07171Y0465*
X07171Y0465*
X07171Y04649*
X07171Y04649*
X07171Y04648*
X0717Y04646*
X0717Y04645*
X0717Y04645*
X0717Y04644*
Y04644*
X0717Y04644*
Y04643*
X0717Y04642*
X0717Y04641*
X0717Y0464*
X07169Y04639*
X07169Y04639*
X07169Y04638*
X07169Y04637*
X07169Y04637*
X07168Y04636*
X07168Y04636*
X07168Y04635*
X07168Y04635*
X07167Y04635*
X07167Y04635*
X07167Y04635*
Y04635*
X07166Y04634*
X07165Y04633*
X07164Y04633*
X07163Y04632*
X07162Y04632*
X07162Y04632*
X07161*
X07161Y04632*
X07161*
X07161*
X07161*
X0716Y04632*
X07158Y04633*
X07157Y04633*
X07157Y04633*
X07156Y04634*
X07155Y04634*
X07155Y04634*
X07155Y04634*
X07154Y04635*
X07154Y04636*
X07153Y04637*
X07153Y04638*
X07153Y04639*
X07153Y0464*
X07153Y0464*
Y0464*
X07153Y04641*
X07153Y04642*
X07153Y04643*
X07153Y04643*
X07153Y04644*
X07154Y04644*
X07154Y04644*
X07154Y04644*
X07154Y04645*
X07155Y04646*
X07155Y04647*
X07155Y04647*
X07156Y04648*
X07156Y04648*
X07156Y04648*
X07157Y04648*
X07155Y04648*
X07155Y04649*
X07154Y04649*
X07154Y04649*
X07154Y04649*
X07153Y04649*
X07153*
Y04656*
X07154Y04656*
X07155Y04656*
X07156Y04656*
X07156Y04656*
X07157*
X07157Y04656*
X07157*
X07157*
X07158*
X07158Y04656*
X07159Y04656*
X0716Y04656*
X07162Y04656*
X07163Y04656*
X07163Y04656*
X07164Y04656*
X07164Y04657*
X07164Y04657*
X07164Y04657*
X07164*
X07165Y04657*
X07166Y04657*
X07167Y04657*
X07168Y04657*
X07169Y04658*
X07169Y04658*
X0717Y04658*
X0717Y04658*
X07171Y04658*
X07171Y04658*
X07171*
X07172Y04658*
X07172Y04658*
X07172*
X07173Y04658*
X07173Y04658*
X07174Y04658*
X07174*
X07174*
X07174*
X07174*
X07175*
X07176Y04658*
G37*
G36*
X05676D02*
X05677Y04658D01*
X05678Y04658*
X05678Y04657*
X05679Y04657*
X05679Y04656*
X0568Y04656*
X0568Y04656*
Y04656*
X0568Y04655*
X05681Y04655*
X05681Y04654*
X05681Y04652*
X05682Y04651*
X05682Y0465*
X05682Y04649*
Y04649*
X05682Y04648*
Y04648*
X05682Y04646*
X05682Y04644*
X05681Y04643*
X05681Y04642*
X05681Y04642*
X05681Y04641*
X05681Y04641*
X0568Y0464*
X0568Y0464*
X0568Y0464*
X0568Y0464*
X0568Y0464*
Y0464*
X05679Y04639*
X05678Y04638*
X05677Y04637*
X05676Y04636*
X05675Y04636*
X05675Y04635*
X05674Y04635*
X05674Y04635*
X05674Y04635*
X05674*
X05673Y04643*
X05674Y04643*
X05674Y04643*
X05675Y04643*
X05675Y04643*
X05675Y04644*
X05676Y04644*
X05676Y04644*
X05676Y04644*
X05676Y04645*
X05676Y04645*
X05676Y04646*
X05677Y04647*
X05677Y04647*
Y04647*
X05677Y04648*
X05676Y04649*
X05676Y04649*
X05676Y04649*
X05676Y0465*
X05676Y0465*
X05676Y0465*
X05676Y0465*
X05675Y04651*
X05675Y04651*
X05675Y04651*
X05674Y04651*
X05674Y04651*
X05674Y04651*
X05674*
X05674*
X05673*
X05673Y04651*
X05672Y04651*
X05672Y04651*
X05672Y04651*
X05671Y04651*
X05671*
X05671Y0465*
X05671Y0465*
X05671Y04649*
X05671Y04649*
X05671Y04648*
X0567Y04646*
X0567Y04645*
X0567Y04645*
X0567Y04644*
Y04644*
X0567Y04644*
Y04643*
X0567Y04642*
X0567Y04641*
X0567Y0464*
X05669Y04639*
X05669Y04639*
X05669Y04638*
X05669Y04637*
X05669Y04637*
X05668Y04636*
X05668Y04636*
X05668Y04635*
X05668Y04635*
X05667Y04635*
X05667Y04635*
X05667Y04635*
Y04635*
X05666Y04634*
X05665Y04633*
X05664Y04633*
X05663Y04632*
X05662Y04632*
X05662Y04632*
X05661*
X05661Y04632*
X05661*
X05661*
X05661*
X0566Y04632*
X05658Y04633*
X05657Y04633*
X05657Y04633*
X05656Y04634*
X05655Y04634*
X05655Y04634*
X05655Y04634*
X05654Y04635*
X05654Y04636*
X05653Y04637*
X05653Y04638*
X05653Y04639*
X05653Y0464*
X05653Y0464*
Y0464*
X05653Y04641*
X05653Y04642*
X05653Y04643*
X05653Y04643*
X05653Y04644*
X05654Y04644*
X05654Y04644*
X05654Y04644*
X05654Y04645*
X05655Y04646*
X05655Y04647*
X05655Y04647*
X05656Y04648*
X05656Y04648*
X05656Y04648*
X05657Y04648*
X05655Y04648*
X05655Y04649*
X05654Y04649*
X05654Y04649*
X05654Y04649*
X05653Y04649*
X05653*
Y04656*
X05654Y04656*
X05655Y04656*
X05656Y04656*
X05656Y04656*
X05657*
X05657Y04656*
X05657*
X05657*
X05658*
X05658Y04656*
X05659Y04656*
X0566Y04656*
X05662Y04656*
X05663Y04656*
X05663Y04656*
X05664Y04656*
X05664Y04657*
X05664Y04657*
X05664Y04657*
X05664*
X05665Y04657*
X05666Y04657*
X05667Y04657*
X05668Y04657*
X05669Y04658*
X05669Y04658*
X0567Y04658*
X0567Y04658*
X05671Y04658*
X05671Y04658*
X05671*
X05672Y04658*
X05672Y04658*
X05672*
X05673Y04658*
X05673Y04658*
X05674Y04658*
X05674*
X05674*
X05674*
X05674*
X05675*
X05676Y04658*
G37*
G36*
X04176D02*
X04177Y04658D01*
X04178Y04658*
X04178Y04657*
X04179Y04657*
X04179Y04656*
X0418Y04656*
X0418Y04656*
Y04656*
X0418Y04655*
X04181Y04655*
X04181Y04654*
X04181Y04652*
X04182Y04651*
X04182Y0465*
X04182Y04649*
Y04649*
X04182Y04648*
Y04648*
X04182Y04646*
X04182Y04644*
X04181Y04643*
X04181Y04642*
X04181Y04642*
X04181Y04641*
X04181Y04641*
X0418Y0464*
X0418Y0464*
X0418Y0464*
X0418Y0464*
X0418Y0464*
Y0464*
X04179Y04639*
X04178Y04638*
X04177Y04637*
X04176Y04636*
X04175Y04636*
X04175Y04635*
X04174Y04635*
X04174Y04635*
X04174Y04635*
X04174*
X04173Y04643*
X04174Y04643*
X04174Y04643*
X04175Y04643*
X04175Y04643*
X04175Y04644*
X04176Y04644*
X04176Y04644*
X04176Y04644*
X04176Y04645*
X04176Y04645*
X04176Y04646*
X04177Y04647*
X04177Y04647*
Y04647*
X04177Y04648*
X04176Y04649*
X04176Y04649*
X04176Y04649*
X04176Y0465*
X04176Y0465*
X04176Y0465*
X04176Y0465*
X04175Y04651*
X04175Y04651*
X04175Y04651*
X04174Y04651*
X04174Y04651*
X04174Y04651*
X04174*
X04174*
X04173*
X04173Y04651*
X04172Y04651*
X04172Y04651*
X04172Y04651*
X04171Y04651*
X04171*
X04171Y0465*
X04171Y0465*
X04171Y04649*
X04171Y04649*
X04171Y04648*
X0417Y04646*
X0417Y04645*
X0417Y04645*
X0417Y04644*
Y04644*
X0417Y04644*
Y04643*
X0417Y04642*
X0417Y04641*
X0417Y0464*
X04169Y04639*
X04169Y04639*
X04169Y04638*
X04169Y04637*
X04169Y04637*
X04168Y04636*
X04168Y04636*
X04168Y04635*
X04168Y04635*
X04167Y04635*
X04167Y04635*
X04167Y04635*
Y04635*
X04166Y04634*
X04165Y04633*
X04164Y04633*
X04163Y04632*
X04162Y04632*
X04162Y04632*
X04161*
X04161Y04632*
X04161*
X04161*
X04161*
X0416Y04632*
X04158Y04633*
X04157Y04633*
X04157Y04633*
X04156Y04634*
X04155Y04634*
X04155Y04634*
X04155Y04634*
X04154Y04635*
X04154Y04636*
X04153Y04637*
X04153Y04638*
X04153Y04639*
X04153Y0464*
X04153Y0464*
Y0464*
X04153Y04641*
X04153Y04642*
X04153Y04643*
X04153Y04643*
X04153Y04644*
X04154Y04644*
X04154Y04644*
X04154Y04644*
X04154Y04645*
X04155Y04646*
X04155Y04647*
X04155Y04647*
X04156Y04648*
X04156Y04648*
X04156Y04648*
X04157Y04648*
X04155Y04648*
X04155Y04649*
X04154Y04649*
X04154Y04649*
X04154Y04649*
X04153Y04649*
X04153*
Y04656*
X04154Y04656*
X04155Y04656*
X04156Y04656*
X04156Y04656*
X04157*
X04157Y04656*
X04157*
X04157*
X04158*
X04158Y04656*
X04159Y04656*
X0416Y04656*
X04162Y04656*
X04163Y04656*
X04163Y04656*
X04164Y04656*
X04164Y04657*
X04164Y04657*
X04164Y04657*
X04164*
X04165Y04657*
X04166Y04657*
X04167Y04657*
X04168Y04657*
X04169Y04658*
X04169Y04658*
X0417Y04658*
X0417Y04658*
X04171Y04658*
X04171Y04658*
X04171*
X04172Y04658*
X04172Y04658*
X04172*
X04173Y04658*
X04173Y04658*
X04174Y04658*
X04174*
X04174*
X04174*
X04174*
X04175*
X04176Y04658*
G37*
G36*
X07181Y04631D02*
X07182Y04631D01*
X07183Y0463*
X07184Y0463*
X07185Y0463*
X07185Y04629*
X07186Y04629*
X07187Y04629*
X07187Y04628*
X07188Y04628*
X07188Y04627*
X07189Y04627*
X07189Y04627*
X07189Y04627*
X07189Y04627*
X07189Y04626*
X0719Y04626*
X0719Y04625*
X07191Y04624*
X07191Y04623*
X07191Y04622*
X07192Y04622*
X07192Y0462*
X07192Y04619*
X07192Y04619*
X07192Y04618*
X07192Y04617*
X07193Y04617*
Y04616*
X07192Y04615*
X07192Y04614*
X07192Y04612*
X07192Y04611*
X07191Y0461*
X07191Y04609*
X07191Y04609*
X07191Y04608*
X0719Y04607*
X0719Y04607*
X0719Y04607*
X0719Y04606*
X0719Y04606*
X0719Y04606*
X07189Y04605*
X07188Y04604*
X07187Y04603*
X07186Y04602*
X07184Y04601*
X07183Y046*
X07183Y046*
X07182Y04599*
X07182Y04599*
X07182Y04599*
X07181Y04599*
X07181Y04599*
X0718Y04598*
X07179Y04598*
X07177Y04597*
X07175Y04597*
X07174Y04597*
X07173Y04597*
X07172Y04596*
X07172Y04596*
X07171Y04596*
X0717*
X0717Y04596*
X0717*
X07169*
X07169*
X07168Y04596*
X07166Y04596*
X07165Y04597*
X07164Y04597*
X07163Y04597*
X07162Y04597*
X07161Y04598*
X0716Y04598*
X07159Y04599*
X07159Y04599*
X07158Y04599*
X07158Y046*
X07157Y046*
X07157Y046*
X07157Y046*
X07157Y046*
X07156Y04601*
X07156Y04602*
X07155Y04603*
X07154Y04603*
X07154Y04604*
X07154Y04605*
X07153Y04606*
X07153Y04607*
X07153Y04608*
X07153Y04609*
X07153Y04609*
X07153Y0461*
Y0461*
X07153Y04611*
Y04611*
X07153Y04612*
X07153Y04613*
X07153Y04614*
X07153Y04615*
X07153Y04616*
X07154Y04617*
X07154Y04618*
X07154Y04619*
X07155Y0462*
X07155Y0462*
X07155Y04621*
X07156Y04621*
X07156Y04622*
X07156Y04622*
X07156Y04622*
X07156Y04622*
X07157Y04623*
X07158Y04624*
X07159Y04625*
X07161Y04626*
X07162Y04627*
X07163Y04628*
X07164Y04628*
X07164Y04628*
X07165Y04629*
X07165Y04629*
X07166Y04629*
X07166Y04629*
X07166*
X07167Y04621*
X07166Y04621*
X07165Y0462*
X07164Y04619*
X07163Y04619*
X07162Y04618*
X07162Y04618*
X07161Y04617*
X07161Y04617*
Y04617*
X07161Y04616*
X0716Y04615*
X0716Y04614*
X0716Y04613*
X07159Y04613*
X07159Y04612*
X07159Y04612*
Y04612*
X07159Y04611*
X07159Y0461*
X0716Y04609*
X0716Y04608*
X07161Y04608*
X07161Y04607*
X07161Y04607*
X07162Y04606*
X07162Y04606*
X07163Y04605*
X07164Y04605*
X07165Y04604*
X07166Y04604*
X07167Y04604*
X07168Y04604*
X07168*
X07169Y04604*
X07169*
X07169*
X07169*
X07171Y04604*
X07172Y04604*
X07173Y04604*
X07175Y04605*
X07175Y04605*
X07176Y04605*
X07176Y04605*
X07177Y04605*
X07177Y04605*
X07177Y04606*
X07177Y04606*
X07177*
X07179Y04606*
X0718Y04607*
X07181Y04608*
X07182Y04609*
X07183Y04609*
X07183Y0461*
X07184Y0461*
X07184Y0461*
Y0461*
X07184Y04611*
X07185Y04612*
X07185Y04613*
X07185Y04614*
X07186Y04615*
X07186Y04616*
X07186Y04616*
Y04616*
X07186Y04617*
X07185Y04618*
X07185Y04619*
X07185Y0462*
X07185Y0462*
X07184Y04621*
X07184Y04621*
X07184Y04621*
X07184Y04622*
X07183Y04622*
X07182Y04623*
X07181Y04623*
X0718Y04623*
X0718Y04623*
X0718Y04623*
X0718*
X07179Y04623*
X07179*
X0718Y04631*
X07181Y04631*
G37*
G36*
X05681D02*
X05682Y04631D01*
X05683Y0463*
X05684Y0463*
X05685Y0463*
X05685Y04629*
X05686Y04629*
X05687Y04629*
X05687Y04628*
X05688Y04628*
X05688Y04627*
X05689Y04627*
X05689Y04627*
X05689Y04627*
X05689Y04627*
X05689Y04626*
X0569Y04626*
X0569Y04625*
X05691Y04624*
X05691Y04623*
X05691Y04622*
X05692Y04622*
X05692Y0462*
X05692Y04619*
X05692Y04619*
X05692Y04618*
X05692Y04617*
X05693Y04617*
Y04616*
X05692Y04615*
X05692Y04614*
X05692Y04612*
X05692Y04611*
X05691Y0461*
X05691Y04609*
X05691Y04609*
X05691Y04608*
X0569Y04607*
X0569Y04607*
X0569Y04607*
X0569Y04606*
X0569Y04606*
X0569Y04606*
X05689Y04605*
X05688Y04604*
X05687Y04603*
X05686Y04602*
X05684Y04601*
X05683Y046*
X05683Y046*
X05682Y04599*
X05682Y04599*
X05682Y04599*
X05681Y04599*
X05681Y04599*
X0568Y04598*
X05679Y04598*
X05677Y04597*
X05675Y04597*
X05674Y04597*
X05673Y04597*
X05672Y04596*
X05672Y04596*
X05671Y04596*
X0567*
X0567Y04596*
X0567*
X05669*
X05669*
X05668Y04596*
X05666Y04596*
X05665Y04597*
X05664Y04597*
X05663Y04597*
X05662Y04597*
X05661Y04598*
X0566Y04598*
X05659Y04599*
X05659Y04599*
X05658Y04599*
X05658Y046*
X05657Y046*
X05657Y046*
X05657Y046*
X05657Y046*
X05656Y04601*
X05656Y04602*
X05655Y04603*
X05654Y04603*
X05654Y04604*
X05654Y04605*
X05653Y04606*
X05653Y04607*
X05653Y04608*
X05653Y04609*
X05653Y04609*
X05653Y0461*
Y0461*
X05653Y04611*
Y04611*
X05653Y04612*
X05653Y04613*
X05653Y04614*
X05653Y04615*
X05653Y04616*
X05654Y04617*
X05654Y04618*
X05654Y04619*
X05655Y0462*
X05655Y0462*
X05655Y04621*
X05656Y04621*
X05656Y04622*
X05656Y04622*
X05656Y04622*
X05656Y04622*
X05657Y04623*
X05658Y04624*
X05659Y04625*
X05661Y04626*
X05662Y04627*
X05663Y04628*
X05664Y04628*
X05664Y04628*
X05665Y04629*
X05665Y04629*
X05666Y04629*
X05666Y04629*
X05666*
X05667Y04621*
X05666Y04621*
X05665Y0462*
X05664Y04619*
X05663Y04619*
X05662Y04618*
X05662Y04618*
X05661Y04617*
X05661Y04617*
Y04617*
X05661Y04616*
X0566Y04615*
X0566Y04614*
X0566Y04613*
X05659Y04613*
X05659Y04612*
X05659Y04612*
Y04612*
X05659Y04611*
X05659Y0461*
X0566Y04609*
X0566Y04608*
X05661Y04608*
X05661Y04607*
X05661Y04607*
X05662Y04606*
X05662Y04606*
X05663Y04605*
X05664Y04605*
X05665Y04604*
X05666Y04604*
X05667Y04604*
X05668Y04604*
X05668*
X05669Y04604*
X05669*
X05669*
X05669*
X05671Y04604*
X05672Y04604*
X05673Y04604*
X05675Y04605*
X05675Y04605*
X05676Y04605*
X05676Y04605*
X05677Y04605*
X05677Y04605*
X05677Y04606*
X05677Y04606*
X05677*
X05679Y04606*
X0568Y04607*
X05681Y04608*
X05682Y04609*
X05683Y04609*
X05683Y0461*
X05684Y0461*
X05684Y0461*
Y0461*
X05684Y04611*
X05685Y04612*
X05685Y04613*
X05685Y04614*
X05686Y04615*
X05686Y04616*
X05686Y04616*
Y04616*
X05686Y04617*
X05685Y04618*
X05685Y04619*
X05685Y0462*
X05685Y0462*
X05684Y04621*
X05684Y04621*
X05684Y04621*
X05684Y04622*
X05683Y04622*
X05682Y04623*
X05681Y04623*
X0568Y04623*
X0568Y04623*
X0568Y04623*
X0568*
X05679Y04623*
X05679*
X0568Y04631*
X05681Y04631*
G37*
G36*
X04181D02*
X04182Y04631D01*
X04183Y0463*
X04184Y0463*
X04185Y0463*
X04185Y04629*
X04186Y04629*
X04187Y04629*
X04187Y04628*
X04188Y04628*
X04188Y04627*
X04189Y04627*
X04189Y04627*
X04189Y04627*
X04189Y04627*
X04189Y04626*
X0419Y04626*
X0419Y04625*
X04191Y04624*
X04191Y04623*
X04191Y04622*
X04192Y04622*
X04192Y0462*
X04192Y04619*
X04192Y04619*
X04192Y04618*
X04192Y04617*
X04193Y04617*
Y04616*
X04192Y04615*
X04192Y04614*
X04192Y04612*
X04192Y04611*
X04191Y0461*
X04191Y04609*
X04191Y04609*
X04191Y04608*
X0419Y04607*
X0419Y04607*
X0419Y04607*
X0419Y04606*
X0419Y04606*
X0419Y04606*
X04189Y04605*
X04188Y04604*
X04187Y04603*
X04186Y04602*
X04184Y04601*
X04183Y046*
X04183Y046*
X04182Y04599*
X04182Y04599*
X04182Y04599*
X04181Y04599*
X04181Y04599*
X0418Y04598*
X04179Y04598*
X04177Y04597*
X04175Y04597*
X04174Y04597*
X04173Y04597*
X04172Y04596*
X04172Y04596*
X04171Y04596*
X0417*
X0417Y04596*
X0417*
X04169*
X04169*
X04168Y04596*
X04166Y04596*
X04165Y04597*
X04164Y04597*
X04163Y04597*
X04162Y04597*
X04161Y04598*
X0416Y04598*
X04159Y04599*
X04159Y04599*
X04158Y04599*
X04158Y046*
X04157Y046*
X04157Y046*
X04157Y046*
X04157Y046*
X04156Y04601*
X04156Y04602*
X04155Y04603*
X04154Y04603*
X04154Y04604*
X04154Y04605*
X04153Y04606*
X04153Y04607*
X04153Y04608*
X04153Y04609*
X04153Y04609*
X04153Y0461*
Y0461*
X04153Y04611*
Y04611*
X04153Y04612*
X04153Y04613*
X04153Y04614*
X04153Y04615*
X04153Y04616*
X04154Y04617*
X04154Y04618*
X04154Y04619*
X04155Y0462*
X04155Y0462*
X04155Y04621*
X04156Y04621*
X04156Y04622*
X04156Y04622*
X04156Y04622*
X04156Y04622*
X04157Y04623*
X04158Y04624*
X04159Y04625*
X04161Y04626*
X04162Y04627*
X04163Y04628*
X04164Y04628*
X04164Y04628*
X04165Y04629*
X04165Y04629*
X04166Y04629*
X04166Y04629*
X04166*
X04167Y04621*
X04166Y04621*
X04165Y0462*
X04164Y04619*
X04163Y04619*
X04162Y04618*
X04162Y04618*
X04161Y04617*
X04161Y04617*
Y04617*
X04161Y04616*
X0416Y04615*
X0416Y04614*
X0416Y04613*
X04159Y04613*
X04159Y04612*
X04159Y04612*
Y04612*
X04159Y04611*
X04159Y0461*
X0416Y04609*
X0416Y04608*
X04161Y04608*
X04161Y04607*
X04161Y04607*
X04162Y04606*
X04162Y04606*
X04163Y04605*
X04164Y04605*
X04165Y04604*
X04166Y04604*
X04167Y04604*
X04168Y04604*
X04168*
X04169Y04604*
X04169*
X04169*
X04169*
X04171Y04604*
X04172Y04604*
X04173Y04604*
X04175Y04605*
X04175Y04605*
X04176Y04605*
X04176Y04605*
X04177Y04605*
X04177Y04605*
X04177Y04606*
X04177Y04606*
X04177*
X04179Y04606*
X0418Y04607*
X04181Y04608*
X04182Y04609*
X04183Y04609*
X04183Y0461*
X04184Y0461*
X04184Y0461*
Y0461*
X04184Y04611*
X04185Y04612*
X04185Y04613*
X04185Y04614*
X04186Y04615*
X04186Y04616*
X04186Y04616*
Y04616*
X04186Y04617*
X04185Y04618*
X04185Y04619*
X04185Y0462*
X04185Y0462*
X04184Y04621*
X04184Y04621*
X04184Y04621*
X04184Y04622*
X04183Y04622*
X04182Y04623*
X04181Y04623*
X0418Y04623*
X0418Y04623*
X0418Y04623*
X0418*
X04179Y04623*
X04179*
X0418Y04631*
X04181Y04631*
G37*
G36*
X07181Y04572D02*
X07169Y04565D01*
X07167Y04564*
X07165Y04563*
X07164Y04563*
X07163Y04562*
X07162Y04562*
X07161Y04562*
X07161Y04561*
X07161Y04561*
X0716Y04561*
X0716Y04561*
X0716Y04561*
X0716*
X07161Y04561*
X07162Y04561*
X07163Y04561*
X07164Y0456*
X07166Y0456*
X07166Y0456*
X07166Y0456*
X07167Y0456*
X07167*
X07167Y0456*
X07167*
X07181Y04558*
Y04551*
X07153Y04556*
X07152Y04555*
X07152Y04555*
X07151Y04554*
X0715Y04554*
X0715Y04553*
X07149Y04553*
X07149Y04552*
X07149Y04552*
X07149Y04552*
X07148Y04551*
X07148Y04551*
Y0455*
X07148Y0455*
Y0455*
X07148Y04549*
X07148Y04549*
X07148Y04548*
X07148Y04548*
X07149Y04548*
X07149Y04547*
Y04547*
X07143Y04547*
X07143Y04548*
X07142Y04549*
X07142Y0455*
X07142Y0455*
X07142Y04551*
X07142Y04552*
Y04552*
X07142Y04553*
X07142Y04554*
X07142Y04554*
X07143Y04555*
X07143Y04555*
X07143Y04556*
X07143Y04556*
X07143Y04556*
X07143Y04557*
X07144Y04557*
X07144Y04558*
X07145Y04558*
X07145Y04559*
X07145Y04559*
X07145Y04559*
X07145Y04559*
X07146Y0456*
X07147Y0456*
X07148Y04561*
X07149Y04561*
X07149Y04562*
X0715Y04562*
X0715Y04562*
X07151Y04562*
X07151Y04562*
X07151*
X07181Y0458*
Y04572*
G37*
G36*
X05681D02*
X05669Y04565D01*
X05667Y04564*
X05665Y04563*
X05664Y04563*
X05663Y04562*
X05662Y04562*
X05661Y04562*
X05661Y04561*
X05661Y04561*
X0566Y04561*
X0566Y04561*
X0566Y04561*
X0566*
X05661Y04561*
X05662Y04561*
X05663Y04561*
X05664Y0456*
X05666Y0456*
X05666Y0456*
X05666Y0456*
X05667Y0456*
X05667*
X05667Y0456*
X05667*
X05681Y04558*
Y04551*
X05653Y04556*
X05652Y04555*
X05652Y04555*
X05651Y04554*
X0565Y04554*
X0565Y04553*
X05649Y04553*
X05649Y04552*
X05649Y04552*
X05649Y04552*
X05648Y04551*
X05648Y04551*
Y0455*
X05648Y0455*
Y0455*
X05648Y04549*
X05648Y04549*
X05648Y04548*
X05648Y04548*
X05649Y04548*
X05649Y04547*
Y04547*
X05643Y04547*
X05643Y04548*
X05642Y04549*
X05642Y0455*
X05642Y0455*
X05642Y04551*
X05642Y04552*
Y04552*
X05642Y04553*
X05642Y04554*
X05642Y04554*
X05643Y04555*
X05643Y04555*
X05643Y04556*
X05643Y04556*
X05643Y04556*
X05643Y04557*
X05644Y04557*
X05644Y04558*
X05645Y04558*
X05645Y04559*
X05645Y04559*
X05645Y04559*
X05645Y04559*
X05646Y0456*
X05647Y0456*
X05648Y04561*
X05649Y04561*
X05649Y04562*
X0565Y04562*
X0565Y04562*
X05651Y04562*
X05651Y04562*
X05651*
X05681Y0458*
Y04572*
G37*
G36*
X04181D02*
X04169Y04565D01*
X04167Y04564*
X04165Y04563*
X04164Y04563*
X04163Y04562*
X04162Y04562*
X04161Y04562*
X04161Y04561*
X04161Y04561*
X0416Y04561*
X0416Y04561*
X0416Y04561*
X0416*
X04161Y04561*
X04162Y04561*
X04163Y04561*
X04164Y0456*
X04166Y0456*
X04166Y0456*
X04166Y0456*
X04167Y0456*
X04167*
X04167Y0456*
X04167*
X04181Y04558*
Y04551*
X04153Y04556*
X04152Y04555*
X04152Y04555*
X04151Y04554*
X0415Y04554*
X0415Y04553*
X04149Y04553*
X04149Y04552*
X04149Y04552*
X04149Y04552*
X04148Y04551*
X04148Y04551*
Y0455*
X04148Y0455*
Y0455*
X04148Y04549*
X04148Y04549*
X04148Y04548*
X04148Y04548*
X04149Y04548*
X04149Y04547*
Y04547*
X04143Y04547*
X04143Y04548*
X04142Y04549*
X04142Y0455*
X04142Y0455*
X04142Y04551*
X04142Y04552*
Y04552*
X04142Y04553*
X04142Y04554*
X04142Y04554*
X04143Y04555*
X04143Y04555*
X04143Y04556*
X04143Y04556*
X04143Y04556*
X04143Y04557*
X04144Y04557*
X04144Y04558*
X04145Y04558*
X04145Y04559*
X04145Y04559*
X04145Y04559*
X04145Y04559*
X04146Y0456*
X04147Y0456*
X04148Y04561*
X04149Y04561*
X04149Y04562*
X0415Y04562*
X0415Y04562*
X04151Y04562*
X04151Y04562*
X04151*
X04181Y0458*
Y04572*
G37*
G36*
X07172Y04546D02*
X07173Y04546D01*
X07174Y04545*
X07175Y04545*
X07176Y04545*
X07176Y04545*
X07177Y04544*
X07177Y04544*
X07178Y04544*
X07178Y04544*
X07178Y04544*
X07179Y04543*
X07179Y04543*
X07179Y04543*
X07179Y04543*
X0718Y04543*
X0718Y04542*
X0718Y04541*
X07181Y04541*
X07181Y0454*
X07182Y04539*
X07182Y04538*
X07182Y04537*
X07182Y04537*
X07182Y04536*
Y04535*
X07182Y04535*
X07182Y04534*
X07182Y04533*
X07182Y04533*
X07181Y04532*
X07181Y04532*
X07181Y04532*
X07181Y04531*
X07181Y04531*
X0718Y0453*
X0718Y04529*
X0718Y04529*
X07179Y04529*
X07179Y04528*
X07179Y04528*
X07192Y04531*
Y04523*
X07153Y04515*
Y04522*
X07158Y04523*
X07157Y04524*
X07156Y04524*
X07156Y04525*
X07155Y04526*
X07154Y04526*
X07154Y04527*
X07154Y04528*
X07153Y04529*
X07153Y04529*
X07153Y0453*
X07153Y04531*
X07153Y04531*
Y04531*
X07153Y04532*
Y04532*
X07153Y04533*
X07153Y04534*
X07153Y04535*
X07153Y04535*
X07153Y04536*
X07154Y04536*
X07154Y04537*
X07154Y04537*
X07154Y04538*
X07155Y04538*
X07155Y04539*
X07156Y0454*
X07156Y0454*
X07157Y04541*
X07157Y04541*
X07157Y04541*
X07158Y04542*
X07159Y04543*
X0716Y04543*
X07161Y04544*
X07162Y04544*
X07162Y04544*
X07163Y04544*
X07163Y04544*
X07163Y04545*
X07163*
X07164Y04545*
X07166Y04545*
X07167Y04546*
X07168Y04546*
X07169Y04546*
X07169*
X0717Y04546*
X0717*
X0717*
X0717*
X0717*
X07171*
X07172Y04546*
G37*
G36*
X05672D02*
X05673Y04546D01*
X05674Y04545*
X05675Y04545*
X05676Y04545*
X05676Y04545*
X05677Y04544*
X05677Y04544*
X05678Y04544*
X05678Y04544*
X05678Y04544*
X05679Y04543*
X05679Y04543*
X05679Y04543*
X05679Y04543*
X0568Y04543*
X0568Y04542*
X0568Y04541*
X05681Y04541*
X05681Y0454*
X05682Y04539*
X05682Y04538*
X05682Y04537*
X05682Y04537*
X05682Y04536*
Y04535*
X05682Y04535*
X05682Y04534*
X05682Y04533*
X05682Y04533*
X05681Y04532*
X05681Y04532*
X05681Y04532*
X05681Y04531*
X05681Y04531*
X0568Y0453*
X0568Y04529*
X0568Y04529*
X05679Y04529*
X05679Y04528*
X05679Y04528*
X05692Y04531*
Y04523*
X05653Y04515*
Y04522*
X05658Y04523*
X05657Y04524*
X05656Y04524*
X05656Y04525*
X05655Y04526*
X05654Y04526*
X05654Y04527*
X05654Y04528*
X05653Y04529*
X05653Y04529*
X05653Y0453*
X05653Y04531*
X05653Y04531*
Y04531*
X05653Y04532*
Y04532*
X05653Y04533*
X05653Y04534*
X05653Y04535*
X05653Y04535*
X05653Y04536*
X05654Y04536*
X05654Y04537*
X05654Y04537*
X05654Y04538*
X05655Y04538*
X05655Y04539*
X05656Y0454*
X05656Y0454*
X05657Y04541*
X05657Y04541*
X05657Y04541*
X05658Y04542*
X05659Y04543*
X0566Y04543*
X05661Y04544*
X05662Y04544*
X05662Y04544*
X05663Y04544*
X05663Y04544*
X05663Y04545*
X05663*
X05664Y04545*
X05666Y04545*
X05667Y04546*
X05668Y04546*
X05669Y04546*
X05669*
X0567Y04546*
X0567*
X0567*
X0567*
X0567*
X05671*
X05672Y04546*
G37*
G36*
X04172D02*
X04173Y04546D01*
X04174Y04545*
X04175Y04545*
X04176Y04545*
X04176Y04545*
X04177Y04544*
X04177Y04544*
X04178Y04544*
X04178Y04544*
X04178Y04544*
X04179Y04543*
X04179Y04543*
X04179Y04543*
X04179Y04543*
X0418Y04543*
X0418Y04542*
X0418Y04541*
X04181Y04541*
X04181Y0454*
X04182Y04539*
X04182Y04538*
X04182Y04537*
X04182Y04537*
X04182Y04536*
Y04535*
X04182Y04535*
X04182Y04534*
X04182Y04533*
X04182Y04533*
X04181Y04532*
X04181Y04532*
X04181Y04532*
X04181Y04531*
X04181Y04531*
X0418Y0453*
X0418Y04529*
X0418Y04529*
X04179Y04529*
X04179Y04528*
X04179Y04528*
X04192Y04531*
Y04523*
X04153Y04515*
Y04522*
X04158Y04523*
X04157Y04524*
X04156Y04524*
X04156Y04525*
X04155Y04526*
X04154Y04526*
X04154Y04527*
X04154Y04528*
X04153Y04529*
X04153Y04529*
X04153Y0453*
X04153Y04531*
X04153Y04531*
Y04531*
X04153Y04532*
Y04532*
X04153Y04533*
X04153Y04534*
X04153Y04535*
X04153Y04535*
X04153Y04536*
X04154Y04536*
X04154Y04537*
X04154Y04537*
X04154Y04538*
X04155Y04538*
X04155Y04539*
X04156Y0454*
X04156Y0454*
X04157Y04541*
X04157Y04541*
X04157Y04541*
X04158Y04542*
X04159Y04543*
X0416Y04543*
X04161Y04544*
X04162Y04544*
X04162Y04544*
X04163Y04544*
X04163Y04544*
X04163Y04545*
X04163*
X04164Y04545*
X04166Y04545*
X04167Y04546*
X04168Y04546*
X04169Y04546*
X04169*
X0417Y04546*
X0417*
X0417*
X0417*
X0417*
X04171*
X04172Y04546*
G37*
G36*
X07192Y04495D02*
X07177Y04491D01*
X07178Y04491*
X07179Y0449*
X0718Y0449*
X0718Y04489*
X07181Y04488*
X07181Y04488*
X07181Y04487*
X07181Y04486*
X07182Y04485*
X07182Y04484*
X07182Y04484*
X07182Y04483*
Y04483*
X07182Y04482*
X07182Y04481*
X07181Y0448*
X07181Y04479*
X07181Y04478*
X0718Y04477*
X0718Y04476*
X07179Y04476*
X07179Y04475*
X07178Y04474*
X07178Y04474*
X07177Y04474*
X07177Y04473*
X07177Y04473*
X07177Y04473*
X07177Y04473*
X07175Y04472*
X07174Y04472*
X07173Y04471*
X07172Y04471*
X07171Y0447*
X0717Y0447*
X07169Y0447*
X07168Y0447*
X07168Y04469*
X07167Y04469*
X07166Y04469*
X07166Y04469*
X07165Y04469*
X07165*
X07164*
X07164*
X07163Y04469*
X07162Y04469*
X07161Y04469*
X07161Y04469*
X0716Y0447*
X07159Y0447*
X07158Y0447*
X07158Y0447*
X07157Y04471*
X07157Y04471*
X07157Y04471*
X07156Y04471*
X07156Y04471*
X07156Y04472*
X07156Y04472*
X07156*
X07155Y04472*
X07155Y04473*
X07154Y04473*
X07154Y04474*
X07153Y04475*
X07153Y04476*
X07153Y04477*
X07153Y04478*
X07153Y04478*
X07153Y04478*
Y04479*
X07153Y0448*
X07153Y0448*
X07153Y04481*
X07153Y04482*
X07153Y04482*
X07153Y04483*
X07153Y04483*
X07154Y04483*
X07154Y04484*
X07154Y04485*
X07155Y04485*
X07155Y04486*
X07156Y04486*
X07156Y04487*
X07156Y04487*
X07156Y04487*
X07153Y04487*
Y04494*
X07192Y04502*
Y04495*
G37*
G36*
X05692D02*
X05677Y04491D01*
X05678Y04491*
X05679Y0449*
X0568Y0449*
X0568Y04489*
X05681Y04488*
X05681Y04488*
X05681Y04487*
X05681Y04486*
X05682Y04485*
X05682Y04484*
X05682Y04484*
X05682Y04483*
Y04483*
X05682Y04482*
X05682Y04481*
X05681Y0448*
X05681Y04479*
X05681Y04478*
X0568Y04477*
X0568Y04476*
X05679Y04476*
X05679Y04475*
X05678Y04474*
X05678Y04474*
X05677Y04474*
X05677Y04473*
X05677Y04473*
X05677Y04473*
X05677Y04473*
X05675Y04472*
X05674Y04472*
X05673Y04471*
X05672Y04471*
X05671Y0447*
X0567Y0447*
X05669Y0447*
X05668Y0447*
X05668Y04469*
X05667Y04469*
X05666Y04469*
X05666Y04469*
X05665Y04469*
X05665*
X05664*
X05664*
X05663Y04469*
X05662Y04469*
X05661Y04469*
X05661Y04469*
X0566Y0447*
X05659Y0447*
X05658Y0447*
X05658Y0447*
X05657Y04471*
X05657Y04471*
X05657Y04471*
X05656Y04471*
X05656Y04471*
X05656Y04472*
X05656Y04472*
X05656*
X05655Y04472*
X05655Y04473*
X05654Y04473*
X05654Y04474*
X05653Y04475*
X05653Y04476*
X05653Y04477*
X05653Y04478*
X05653Y04478*
X05653Y04478*
Y04479*
X05653Y0448*
X05653Y0448*
X05653Y04481*
X05653Y04482*
X05653Y04482*
X05653Y04483*
X05653Y04483*
X05654Y04483*
X05654Y04484*
X05654Y04485*
X05655Y04485*
X05655Y04486*
X05656Y04486*
X05656Y04487*
X05656Y04487*
X05656Y04487*
X05653Y04487*
Y04494*
X05692Y04502*
Y04495*
G37*
G36*
X04192D02*
X04177Y04491D01*
X04178Y04491*
X04179Y0449*
X0418Y0449*
X0418Y04489*
X04181Y04488*
X04181Y04488*
X04181Y04487*
X04181Y04486*
X04182Y04485*
X04182Y04484*
X04182Y04484*
X04182Y04483*
Y04483*
X04182Y04482*
X04182Y04481*
X04181Y0448*
X04181Y04479*
X04181Y04478*
X0418Y04477*
X0418Y04476*
X04179Y04476*
X04179Y04475*
X04178Y04474*
X04178Y04474*
X04177Y04474*
X04177Y04473*
X04177Y04473*
X04177Y04473*
X04177Y04473*
X04175Y04472*
X04174Y04472*
X04173Y04471*
X04172Y04471*
X04171Y0447*
X0417Y0447*
X04169Y0447*
X04168Y0447*
X04168Y04469*
X04167Y04469*
X04166Y04469*
X04166Y04469*
X04165Y04469*
X04165*
X04164*
X04164*
X04163Y04469*
X04162Y04469*
X04161Y04469*
X04161Y04469*
X0416Y0447*
X04159Y0447*
X04158Y0447*
X04158Y0447*
X04157Y04471*
X04157Y04471*
X04157Y04471*
X04156Y04471*
X04156Y04471*
X04156Y04472*
X04156Y04472*
X04156*
X04155Y04472*
X04155Y04473*
X04154Y04473*
X04154Y04474*
X04153Y04475*
X04153Y04476*
X04153Y04477*
X04153Y04478*
X04153Y04478*
X04153Y04478*
Y04479*
X04153Y0448*
X04153Y0448*
X04153Y04481*
X04153Y04482*
X04153Y04482*
X04153Y04483*
X04153Y04483*
X04154Y04483*
X04154Y04484*
X04154Y04485*
X04155Y04485*
X04155Y04486*
X04156Y04486*
X04156Y04487*
X04156Y04487*
X04156Y04487*
X04153Y04487*
Y04494*
X04192Y04502*
Y04495*
G37*
G36*
X07171Y04466D02*
X07172Y04466D01*
X07173Y04466*
X07174Y04465*
X07174Y04465*
X07175Y04465*
X07176Y04465*
X07176Y04464*
X07177Y04464*
X07177Y04464*
X07178Y04463*
X07178Y04463*
X07178Y04463*
X07179Y04463*
X07179Y04463*
X07179Y04463*
X07179Y04462*
X0718Y04462*
X0718Y04461*
X07181Y0446*
X07181Y04459*
X07182Y04458*
X07182Y04456*
X07182Y04456*
X07182Y04455*
X07182Y04455*
Y04455*
X07182Y04453*
X07182Y04452*
X07181Y04451*
X07181Y04449*
X07181Y04448*
X0718Y04447*
X0718Y04446*
X07179Y04445*
X07178Y04445*
X07178Y04444*
X07177Y04444*
X07177Y04443*
X07176Y04443*
X07176Y04442*
X07176Y04442*
X07176Y04442*
X07175Y04442*
X07174Y04441*
X07173Y04441*
X07172Y04441*
X07171Y0444*
X07169Y0444*
X07168Y04439*
X07168Y04439*
X07167Y04439*
X07167Y04439*
X07166Y04439*
X07166*
X07166*
X07166*
X07165Y04439*
X07164Y04439*
X07163Y0444*
X07162Y0444*
X07161Y0444*
X0716Y0444*
X07159Y04441*
X07159Y04441*
X07158Y04441*
X07158Y04442*
X07157Y04442*
X07157Y04442*
X07157Y04442*
X07156Y04442*
X07156Y04443*
X07156Y04443*
X07156Y04443*
X07155Y04444*
X07155Y04445*
X07154Y04446*
X07154Y04446*
X07154Y04447*
X07153Y04449*
X07153Y04449*
X07153Y0445*
X07153Y0445*
X07153Y04451*
X07153Y04451*
Y04452*
X07153Y04453*
X07153Y04455*
X07153Y04456*
X07154Y04457*
X07154Y04458*
X07154Y04458*
X07154Y04459*
X07155Y04459*
X07155Y04459*
X07155Y04459*
Y04459*
X07156Y0446*
X07157Y04461*
X07158Y04462*
X07159Y04463*
X07159Y04464*
X0716Y04464*
X0716Y04464*
X0716Y04464*
X07161Y04464*
X07161Y04464*
X07161*
X07162Y04458*
X07161Y04457*
X07161Y04457*
X0716Y04456*
X0716Y04456*
X07159Y04455*
X07159Y04455*
X07159Y04454*
X07158Y04453*
X07158Y04452*
X07158Y04452*
Y04452*
X07158Y04451*
X07158Y0445*
X07159Y0445*
X07159Y04449*
X07159Y04449*
X0716Y04448*
X0716Y04448*
X0716Y04448*
X07161Y04447*
X07161Y04447*
X07162Y04447*
X07163Y04447*
X07163Y04446*
X07164Y04446*
X07164*
X07164*
X07164*
X07165*
X07165Y04446*
X07165*
X07165*
Y04465*
X07167Y04466*
X07168Y04466*
X07168Y04466*
X07169Y04466*
X07169*
X0717*
X0717*
X0717*
X07171Y04466*
G37*
G36*
X05671D02*
X05672Y04466D01*
X05673Y04466*
X05674Y04465*
X05674Y04465*
X05675Y04465*
X05676Y04465*
X05676Y04464*
X05677Y04464*
X05677Y04464*
X05678Y04463*
X05678Y04463*
X05678Y04463*
X05679Y04463*
X05679Y04463*
X05679Y04463*
X05679Y04462*
X0568Y04462*
X0568Y04461*
X05681Y0446*
X05681Y04459*
X05682Y04458*
X05682Y04456*
X05682Y04456*
X05682Y04455*
X05682Y04455*
Y04455*
X05682Y04453*
X05682Y04452*
X05681Y04451*
X05681Y04449*
X05681Y04448*
X0568Y04447*
X0568Y04446*
X05679Y04445*
X05678Y04445*
X05678Y04444*
X05677Y04444*
X05677Y04443*
X05676Y04443*
X05676Y04442*
X05676Y04442*
X05676Y04442*
X05675Y04442*
X05674Y04441*
X05673Y04441*
X05672Y04441*
X05671Y0444*
X05669Y0444*
X05668Y04439*
X05668Y04439*
X05667Y04439*
X05667Y04439*
X05666Y04439*
X05666*
X05666*
X05666*
X05665Y04439*
X05664Y04439*
X05663Y0444*
X05662Y0444*
X05661Y0444*
X0566Y0444*
X05659Y04441*
X05659Y04441*
X05658Y04441*
X05658Y04442*
X05657Y04442*
X05657Y04442*
X05657Y04442*
X05656Y04442*
X05656Y04443*
X05656Y04443*
X05656Y04443*
X05655Y04444*
X05655Y04445*
X05654Y04446*
X05654Y04446*
X05654Y04447*
X05653Y04449*
X05653Y04449*
X05653Y0445*
X05653Y0445*
X05653Y04451*
X05653Y04451*
Y04452*
X05653Y04453*
X05653Y04455*
X05653Y04456*
X05654Y04457*
X05654Y04458*
X05654Y04458*
X05654Y04459*
X05655Y04459*
X05655Y04459*
X05655Y04459*
Y04459*
X05656Y0446*
X05657Y04461*
X05658Y04462*
X05659Y04463*
X05659Y04464*
X0566Y04464*
X0566Y04464*
X0566Y04464*
X05661Y04464*
X05661Y04464*
X05661*
X05662Y04458*
X05661Y04457*
X05661Y04457*
X0566Y04456*
X0566Y04456*
X05659Y04455*
X05659Y04455*
X05659Y04454*
X05658Y04453*
X05658Y04452*
X05658Y04452*
Y04452*
X05658Y04451*
X05658Y0445*
X05659Y0445*
X05659Y04449*
X05659Y04449*
X0566Y04448*
X0566Y04448*
X0566Y04448*
X05661Y04447*
X05661Y04447*
X05662Y04447*
X05663Y04447*
X05663Y04446*
X05664Y04446*
X05664*
X05664*
X05664*
X05665*
X05665Y04446*
X05665*
X05665*
Y04465*
X05667Y04466*
X05668Y04466*
X05668Y04466*
X05669Y04466*
X05669*
X0567*
X0567*
X0567*
X05671Y04466*
G37*
G36*
X04171D02*
X04172Y04466D01*
X04173Y04466*
X04174Y04465*
X04174Y04465*
X04175Y04465*
X04176Y04465*
X04176Y04464*
X04177Y04464*
X04177Y04464*
X04178Y04463*
X04178Y04463*
X04178Y04463*
X04179Y04463*
X04179Y04463*
X04179Y04463*
X04179Y04462*
X0418Y04462*
X0418Y04461*
X04181Y0446*
X04181Y04459*
X04182Y04458*
X04182Y04456*
X04182Y04456*
X04182Y04455*
X04182Y04455*
Y04455*
X04182Y04453*
X04182Y04452*
X04181Y04451*
X04181Y04449*
X04181Y04448*
X0418Y04447*
X0418Y04446*
X04179Y04445*
X04178Y04445*
X04178Y04444*
X04177Y04444*
X04177Y04443*
X04176Y04443*
X04176Y04442*
X04176Y04442*
X04176Y04442*
X04175Y04442*
X04174Y04441*
X04173Y04441*
X04172Y04441*
X04171Y0444*
X04169Y0444*
X04168Y04439*
X04168Y04439*
X04167Y04439*
X04167Y04439*
X04166Y04439*
X04166*
X04166*
X04166*
X04165Y04439*
X04164Y04439*
X04163Y0444*
X04162Y0444*
X04161Y0444*
X0416Y0444*
X04159Y04441*
X04159Y04441*
X04158Y04441*
X04158Y04442*
X04157Y04442*
X04157Y04442*
X04157Y04442*
X04156Y04442*
X04156Y04443*
X04156Y04443*
X04156Y04443*
X04155Y04444*
X04155Y04445*
X04154Y04446*
X04154Y04446*
X04154Y04447*
X04153Y04449*
X04153Y04449*
X04153Y0445*
X04153Y0445*
X04153Y04451*
X04153Y04451*
Y04452*
X04153Y04453*
X04153Y04455*
X04153Y04456*
X04154Y04457*
X04154Y04458*
X04154Y04458*
X04154Y04459*
X04155Y04459*
X04155Y04459*
X04155Y04459*
Y04459*
X04156Y0446*
X04157Y04461*
X04158Y04462*
X04159Y04463*
X04159Y04464*
X0416Y04464*
X0416Y04464*
X0416Y04464*
X04161Y04464*
X04161Y04464*
X04161*
X04162Y04458*
X04161Y04457*
X04161Y04457*
X0416Y04456*
X0416Y04456*
X04159Y04455*
X04159Y04455*
X04159Y04454*
X04158Y04453*
X04158Y04452*
X04158Y04452*
Y04452*
X04158Y04451*
X04158Y0445*
X04159Y0445*
X04159Y04449*
X04159Y04449*
X0416Y04448*
X0416Y04448*
X0416Y04448*
X04161Y04447*
X04161Y04447*
X04162Y04447*
X04163Y04447*
X04163Y04446*
X04164Y04446*
X04164*
X04164*
X04164*
X04165*
X04165Y04446*
X04165*
X04165*
Y04465*
X04167Y04466*
X04168Y04466*
X04168Y04466*
X04169Y04466*
X04169*
X0417*
X0417*
X0417*
X04171Y04466*
G37*
G36*
X07176Y04435D02*
X07177Y04435D01*
X07178Y04435*
X07179Y04434*
X07179Y04434*
X0718Y04434*
X0718Y04433*
X0718Y04433*
X07181Y04432*
X07181Y04431*
X07181Y04431*
X07182Y0443*
X07182Y04429*
X07182Y04428*
X07182Y04428*
Y04428*
X07182Y04427*
X07182Y04426*
X07182Y04425*
X07181Y04424*
X07181Y04424*
X07181Y04423*
X07181Y04423*
X07181Y04423*
X07181Y04422*
X0718Y04421*
X07179Y0442*
X07179Y04419*
X07178Y04419*
X07178Y04418*
X07178Y04418*
X07178Y04418*
Y04418*
X07181Y04418*
Y04411*
X07153Y04406*
Y04413*
X07165Y04415*
X07166Y04416*
X07167Y04416*
X07167Y04416*
X07168Y04416*
X07169Y04416*
X07169Y04416*
X0717Y04417*
X0717Y04417*
X0717Y04417*
X07171Y04417*
X07171Y04417*
X07171Y04417*
X07172Y04417*
X07172Y04418*
X07173Y04418*
X07174Y04419*
X07174Y04419*
X07175Y0442*
X07175Y0442*
X07175Y0442*
X07175Y04421*
X07176Y04421*
X07176Y04422*
X07176Y04423*
X07176Y04423*
X07177Y04424*
X07177Y04424*
Y04424*
X07177Y04425*
X07176Y04425*
X07176Y04426*
X07176Y04426*
X07176Y04426*
X07176Y04427*
X07176Y04427*
X07176Y04427*
X07175Y04427*
X07175Y04427*
X07175Y04427*
X07174Y04428*
X07174Y04428*
X07174Y04428*
X07173*
X07173*
X07173*
X07173Y04428*
X07172Y04428*
X07172Y04427*
X07171Y04427*
X0717Y04427*
X0717Y04427*
X0717Y04427*
X07169*
X07169Y04427*
X07169*
X07153Y04423*
Y04431*
X07169Y04434*
X0717Y04434*
X07171Y04435*
X07172Y04435*
X07173Y04435*
X07173Y04435*
X07174Y04435*
X07174Y04435*
X07175*
X07175*
X07176Y04435*
G37*
G36*
X05676D02*
X05677Y04435D01*
X05678Y04435*
X05679Y04434*
X05679Y04434*
X0568Y04434*
X0568Y04433*
X0568Y04433*
X05681Y04432*
X05681Y04431*
X05681Y04431*
X05682Y0443*
X05682Y04429*
X05682Y04428*
X05682Y04428*
Y04428*
X05682Y04427*
X05682Y04426*
X05682Y04425*
X05681Y04424*
X05681Y04424*
X05681Y04423*
X05681Y04423*
X05681Y04423*
X05681Y04422*
X0568Y04421*
X05679Y0442*
X05679Y04419*
X05678Y04419*
X05678Y04418*
X05678Y04418*
X05678Y04418*
Y04418*
X05681Y04418*
Y04411*
X05653Y04406*
Y04413*
X05665Y04415*
X05666Y04416*
X05667Y04416*
X05667Y04416*
X05668Y04416*
X05669Y04416*
X05669Y04416*
X0567Y04417*
X0567Y04417*
X0567Y04417*
X05671Y04417*
X05671Y04417*
X05671Y04417*
X05672Y04417*
X05672Y04418*
X05673Y04418*
X05674Y04419*
X05674Y04419*
X05675Y0442*
X05675Y0442*
X05675Y0442*
X05675Y04421*
X05676Y04421*
X05676Y04422*
X05676Y04423*
X05676Y04423*
X05677Y04424*
X05677Y04424*
Y04424*
X05677Y04425*
X05676Y04425*
X05676Y04426*
X05676Y04426*
X05676Y04426*
X05676Y04427*
X05676Y04427*
X05676Y04427*
X05675Y04427*
X05675Y04427*
X05675Y04427*
X05674Y04428*
X05674Y04428*
X05674Y04428*
X05673*
X05673*
X05673*
X05673Y04428*
X05672Y04428*
X05672Y04427*
X05671Y04427*
X0567Y04427*
X0567Y04427*
X0567Y04427*
X05669*
X05669Y04427*
X05669*
X05653Y04423*
Y04431*
X05669Y04434*
X0567Y04434*
X05671Y04435*
X05672Y04435*
X05673Y04435*
X05673Y04435*
X05674Y04435*
X05674Y04435*
X05675*
X05675*
X05676Y04435*
G37*
G36*
X04176D02*
X04177Y04435D01*
X04178Y04435*
X04179Y04434*
X04179Y04434*
X0418Y04434*
X0418Y04433*
X0418Y04433*
X04181Y04432*
X04181Y04431*
X04181Y04431*
X04182Y0443*
X04182Y04429*
X04182Y04428*
X04182Y04428*
Y04428*
X04182Y04427*
X04182Y04426*
X04182Y04425*
X04181Y04424*
X04181Y04424*
X04181Y04423*
X04181Y04423*
X04181Y04423*
X04181Y04422*
X0418Y04421*
X04179Y0442*
X04179Y04419*
X04178Y04419*
X04178Y04418*
X04178Y04418*
X04178Y04418*
Y04418*
X04181Y04418*
Y04411*
X04153Y04406*
Y04413*
X04165Y04415*
X04166Y04416*
X04167Y04416*
X04167Y04416*
X04168Y04416*
X04169Y04416*
X04169Y04416*
X0417Y04417*
X0417Y04417*
X0417Y04417*
X04171Y04417*
X04171Y04417*
X04171Y04417*
X04172Y04417*
X04172Y04418*
X04173Y04418*
X04174Y04419*
X04174Y04419*
X04175Y0442*
X04175Y0442*
X04175Y0442*
X04175Y04421*
X04176Y04421*
X04176Y04422*
X04176Y04423*
X04176Y04423*
X04177Y04424*
X04177Y04424*
Y04424*
X04177Y04425*
X04176Y04425*
X04176Y04426*
X04176Y04426*
X04176Y04426*
X04176Y04427*
X04176Y04427*
X04176Y04427*
X04175Y04427*
X04175Y04427*
X04175Y04427*
X04174Y04428*
X04174Y04428*
X04174Y04428*
X04173*
X04173*
X04173*
X04173Y04428*
X04172Y04428*
X04172Y04427*
X04171Y04427*
X0417Y04427*
X0417Y04427*
X0417Y04427*
X04169*
X04169Y04427*
X04169*
X04153Y04423*
Y04431*
X04169Y04434*
X0417Y04434*
X04171Y04435*
X04172Y04435*
X04173Y04435*
X04173Y04435*
X04174Y04435*
X04174Y04435*
X04175*
X04175*
X04176Y04435*
G37*
G36*
X07181Y04397D02*
X07176Y04396D01*
X07177Y04395*
X07178Y04395*
X07179Y04394*
X07179Y04393*
X0718Y04393*
X0718Y04393*
X0718Y04392*
X0718Y04392*
X07181Y04391*
X07181Y0439*
X07182Y0439*
X07182Y04389*
X07182Y04388*
X07182Y04388*
Y04387*
X07182Y04386*
X07182Y04385*
X07181Y04384*
X07181Y04383*
X07181Y04382*
X0718Y04381*
X0718Y04381*
X0718Y04381*
X0718Y04381*
Y04381*
X07179Y04379*
X07178Y04378*
X07177Y04378*
X07176Y04377*
X07175Y04376*
X07175Y04376*
X07174Y04376*
X07174Y04376*
X07174Y04376*
X07174Y04376*
X07174*
X07172Y04375*
X07171Y04375*
X07169Y04374*
X07168Y04374*
X07167Y04374*
X07166Y04374*
X07166Y04374*
X07165*
X07165Y04374*
X07165*
X07165*
X07165*
X07164Y04374*
X07163Y04374*
X07162Y04374*
X07161Y04374*
X0716Y04374*
X0716Y04375*
X07159Y04375*
X07158Y04375*
X07158Y04375*
X07157Y04376*
X07157Y04376*
X07157Y04376*
X07156Y04376*
X07156Y04376*
X07156Y04376*
X07156*
X07156Y04377*
X07155Y04377*
X07155Y04378*
X07155Y04379*
X07154Y0438*
X07154Y04381*
X07153Y04382*
X07153Y04382*
X07153Y04382*
X07153Y04383*
Y04383*
X07153Y04384*
X07153Y04385*
X07154Y04386*
X07154Y04388*
X07155Y04389*
X07155Y0439*
X07156Y0439*
X07156Y04391*
X07156Y04391*
X07156Y04391*
X07156Y04391*
X07156Y04392*
X07157Y04392*
X07155Y04391*
X07154Y04391*
X07153Y04391*
X07152Y04391*
X07152Y0439*
X07151Y0439*
X07151Y0439*
X07151Y0439*
X07151*
X0715Y0439*
X0715Y0439*
X07149Y04389*
X07149Y04389*
X07149Y04389*
X07149Y04388*
X07149Y04388*
X07149Y04388*
X07148Y04388*
X07148Y04387*
X07148Y04386*
X07148Y04386*
X07148Y04385*
X07148Y04385*
Y04384*
X07148Y04383*
X07148Y04383*
X07148Y04383*
X07148Y04382*
X07148Y04382*
X07148Y04382*
Y04382*
X07148Y04381*
X07149Y04381*
X07149Y04381*
X07149Y04381*
X07149Y0438*
X0715Y0438*
X0715Y0438*
X0715Y0438*
X07151*
X07151*
X07151*
X07152Y04372*
X07152Y04372*
X07151Y04372*
X07151*
X07151*
X0715Y04372*
X07149Y04372*
X07149Y04372*
X07148Y04373*
X07147Y04373*
X07147Y04373*
X07146Y04374*
X07145Y04374*
X07145Y04375*
X07144Y04375*
X07144Y04375*
Y04375*
X07144Y04376*
X07143Y04376*
X07143Y04378*
X07143Y04379*
X07142Y04381*
X07142Y04381*
X07142Y04382*
X07142Y04383*
Y04383*
X07142Y04384*
Y04385*
X07142Y04386*
X07142Y04387*
X07142Y04387*
X07142Y04388*
X07143Y04388*
X07143Y04389*
Y04389*
X07143Y0439*
X07143Y0439*
X07143Y04391*
X07143Y04392*
X07144Y04392*
X07144Y04392*
X07144Y04393*
X07144Y04393*
X07144Y04393*
X07145Y04394*
X07145Y04394*
X07145Y04395*
X07146Y04395*
X07146Y04395*
X07146Y04395*
X07146Y04395*
X07147Y04396*
X07147Y04396*
X07148Y04397*
X07149Y04397*
X07149Y04397*
X0715Y04397*
X0715Y04397*
X0715Y04397*
X07151Y04398*
X07151Y04398*
X07152Y04398*
X07154Y04398*
X07155Y04399*
X07156Y04399*
X07157Y04399*
X07157Y04399*
X07157Y04399*
X07158Y04399*
X07158Y04399*
X07158*
X07181Y04404*
Y04397*
G37*
G36*
X05681D02*
X05676Y04396D01*
X05677Y04395*
X05678Y04395*
X05679Y04394*
X05679Y04393*
X0568Y04393*
X0568Y04393*
X0568Y04392*
X0568Y04392*
X05681Y04391*
X05681Y0439*
X05682Y0439*
X05682Y04389*
X05682Y04388*
X05682Y04388*
Y04387*
X05682Y04386*
X05682Y04385*
X05681Y04384*
X05681Y04383*
X05681Y04382*
X0568Y04381*
X0568Y04381*
X0568Y04381*
X0568Y04381*
Y04381*
X05679Y04379*
X05678Y04378*
X05677Y04378*
X05676Y04377*
X05675Y04376*
X05675Y04376*
X05674Y04376*
X05674Y04376*
X05674Y04376*
X05674Y04376*
X05674*
X05672Y04375*
X05671Y04375*
X05669Y04374*
X05668Y04374*
X05667Y04374*
X05666Y04374*
X05666Y04374*
X05665*
X05665Y04374*
X05665*
X05665*
X05665*
X05664Y04374*
X05663Y04374*
X05662Y04374*
X05661Y04374*
X0566Y04374*
X0566Y04375*
X05659Y04375*
X05658Y04375*
X05658Y04375*
X05657Y04376*
X05657Y04376*
X05657Y04376*
X05656Y04376*
X05656Y04376*
X05656Y04376*
X05656*
X05656Y04377*
X05655Y04377*
X05655Y04378*
X05655Y04379*
X05654Y0438*
X05654Y04381*
X05653Y04382*
X05653Y04382*
X05653Y04382*
X05653Y04383*
Y04383*
X05653Y04384*
X05653Y04385*
X05654Y04386*
X05654Y04388*
X05655Y04389*
X05655Y0439*
X05656Y0439*
X05656Y04391*
X05656Y04391*
X05656Y04391*
X05656Y04391*
X05656Y04392*
X05657Y04392*
X05655Y04391*
X05654Y04391*
X05653Y04391*
X05652Y04391*
X05652Y0439*
X05651Y0439*
X05651Y0439*
X05651Y0439*
X05651*
X0565Y0439*
X0565Y0439*
X05649Y04389*
X05649Y04389*
X05649Y04389*
X05649Y04388*
X05649Y04388*
X05649Y04388*
X05648Y04388*
X05648Y04387*
X05648Y04386*
X05648Y04386*
X05648Y04385*
X05648Y04385*
Y04384*
X05648Y04383*
X05648Y04383*
X05648Y04383*
X05648Y04382*
X05648Y04382*
X05648Y04382*
Y04382*
X05648Y04381*
X05649Y04381*
X05649Y04381*
X05649Y04381*
X05649Y0438*
X0565Y0438*
X0565Y0438*
X0565Y0438*
X05651*
X05651*
X05651*
X05652Y04372*
X05652Y04372*
X05651Y04372*
X05651*
X05651*
X0565Y04372*
X05649Y04372*
X05649Y04372*
X05648Y04373*
X05647Y04373*
X05647Y04373*
X05646Y04374*
X05645Y04374*
X05645Y04375*
X05644Y04375*
X05644Y04375*
Y04375*
X05644Y04376*
X05643Y04376*
X05643Y04378*
X05643Y04379*
X05642Y04381*
X05642Y04381*
X05642Y04382*
X05642Y04383*
Y04383*
X05642Y04384*
Y04385*
X05642Y04386*
X05642Y04387*
X05642Y04387*
X05642Y04388*
X05643Y04388*
X05643Y04389*
Y04389*
X05643Y0439*
X05643Y0439*
X05643Y04391*
X05643Y04392*
X05644Y04392*
X05644Y04392*
X05644Y04393*
X05644Y04393*
X05644Y04393*
X05645Y04394*
X05645Y04394*
X05645Y04395*
X05646Y04395*
X05646Y04395*
X05646Y04395*
X05646Y04395*
X05647Y04396*
X05647Y04396*
X05648Y04397*
X05649Y04397*
X05649Y04397*
X0565Y04397*
X0565Y04397*
X0565Y04397*
X05651Y04398*
X05651Y04398*
X05652Y04398*
X05654Y04398*
X05655Y04399*
X05656Y04399*
X05657Y04399*
X05657Y04399*
X05657Y04399*
X05658Y04399*
X05658Y04399*
X05658*
X05681Y04404*
Y04397*
G37*
G36*
X04181D02*
X04176Y04396D01*
X04177Y04395*
X04178Y04395*
X04179Y04394*
X04179Y04393*
X0418Y04393*
X0418Y04393*
X0418Y04392*
X0418Y04392*
X04181Y04391*
X04181Y0439*
X04182Y0439*
X04182Y04389*
X04182Y04388*
X04182Y04388*
Y04387*
X04182Y04386*
X04182Y04385*
X04181Y04384*
X04181Y04383*
X04181Y04382*
X0418Y04381*
X0418Y04381*
X0418Y04381*
X0418Y04381*
Y04381*
X04179Y04379*
X04178Y04378*
X04177Y04378*
X04176Y04377*
X04175Y04376*
X04175Y04376*
X04174Y04376*
X04174Y04376*
X04174Y04376*
X04174Y04376*
X04174*
X04172Y04375*
X04171Y04375*
X04169Y04374*
X04168Y04374*
X04167Y04374*
X04166Y04374*
X04166Y04374*
X04165*
X04165Y04374*
X04165*
X04165*
X04165*
X04164Y04374*
X04163Y04374*
X04162Y04374*
X04161Y04374*
X0416Y04374*
X0416Y04375*
X04159Y04375*
X04158Y04375*
X04158Y04375*
X04157Y04376*
X04157Y04376*
X04157Y04376*
X04156Y04376*
X04156Y04376*
X04156Y04376*
X04156*
X04156Y04377*
X04155Y04377*
X04155Y04378*
X04155Y04379*
X04154Y0438*
X04154Y04381*
X04153Y04382*
X04153Y04382*
X04153Y04382*
X04153Y04383*
Y04383*
X04153Y04384*
X04153Y04385*
X04154Y04386*
X04154Y04388*
X04155Y04389*
X04155Y0439*
X04156Y0439*
X04156Y04391*
X04156Y04391*
X04156Y04391*
X04156Y04391*
X04156Y04392*
X04157Y04392*
X04155Y04391*
X04154Y04391*
X04153Y04391*
X04152Y04391*
X04152Y0439*
X04151Y0439*
X04151Y0439*
X04151Y0439*
X04151*
X0415Y0439*
X0415Y0439*
X04149Y04389*
X04149Y04389*
X04149Y04389*
X04149Y04388*
X04149Y04388*
X04149Y04388*
X04148Y04388*
X04148Y04387*
X04148Y04386*
X04148Y04386*
X04148Y04385*
X04148Y04385*
Y04384*
X04148Y04383*
X04148Y04383*
X04148Y04383*
X04148Y04382*
X04148Y04382*
X04148Y04382*
Y04382*
X04148Y04381*
X04149Y04381*
X04149Y04381*
X04149Y04381*
X04149Y0438*
X0415Y0438*
X0415Y0438*
X0415Y0438*
X04151*
X04151*
X04151*
X04152Y04372*
X04152Y04372*
X04151Y04372*
X04151*
X04151*
X0415Y04372*
X04149Y04372*
X04149Y04372*
X04148Y04373*
X04147Y04373*
X04147Y04373*
X04146Y04374*
X04145Y04374*
X04145Y04375*
X04144Y04375*
X04144Y04375*
Y04375*
X04144Y04376*
X04143Y04376*
X04143Y04378*
X04143Y04379*
X04142Y04381*
X04142Y04381*
X04142Y04382*
X04142Y04383*
Y04383*
X04142Y04384*
Y04385*
X04142Y04386*
X04142Y04387*
X04142Y04387*
X04142Y04388*
X04143Y04388*
X04143Y04389*
Y04389*
X04143Y0439*
X04143Y0439*
X04143Y04391*
X04143Y04392*
X04144Y04392*
X04144Y04392*
X04144Y04393*
X04144Y04393*
X04144Y04393*
X04145Y04394*
X04145Y04394*
X04145Y04395*
X04146Y04395*
X04146Y04395*
X04146Y04395*
X04146Y04395*
X04147Y04396*
X04147Y04396*
X04148Y04397*
X04149Y04397*
X04149Y04397*
X0415Y04397*
X0415Y04397*
X0415Y04397*
X04151Y04398*
X04151Y04398*
X04152Y04398*
X04154Y04398*
X04155Y04399*
X04156Y04399*
X04157Y04399*
X04157Y04399*
X04157Y04399*
X04158Y04399*
X04158Y04399*
X04158*
X04181Y04404*
Y04397*
G37*
G36*
X07192Y04366D02*
X07185Y04364D01*
Y04372*
X07192Y04373*
Y04366*
G37*
G36*
X05692D02*
X05685Y04364D01*
Y04372*
X05692Y04373*
Y04366*
G37*
G36*
X04192D02*
X04185Y04364D01*
Y04372*
X04192Y04373*
Y04366*
G37*
G36*
X07181Y04364D02*
X07153Y04358D01*
Y04365*
X07181Y04371*
Y04364*
G37*
G36*
X05681D02*
X05653Y04358D01*
Y04365*
X05681Y04371*
Y04364*
G37*
G36*
X04181D02*
X04153Y04358D01*
Y04365*
X04181Y04371*
Y04364*
G37*
G36*
X07176Y04355D02*
X07177Y04355D01*
X07178Y04354*
X07179Y04353*
X07179Y04353*
X0718Y04352*
X0718Y04352*
X0718Y04352*
Y04352*
X0718Y04351*
X07181Y04351*
X07181Y04349*
X07182Y04348*
X07182Y04347*
X07182Y04346*
X07182Y04345*
X07182Y04345*
Y04344*
X07182Y04343*
X07182Y04341*
X07182Y0434*
X07181Y04339*
X07181Y04338*
X07181Y04338*
X07181Y04337*
X0718Y04336*
X0718Y04335*
X0718Y04335*
X07179Y04335*
X07179Y04334*
X07179Y04334*
X07179Y04334*
X07179Y04334*
X07179Y04334*
X07178Y04333*
X07177Y04332*
X07176Y04332*
X07175Y04331*
X07174Y04331*
X07173Y04331*
X07173Y04331*
X07173*
X07173*
X07173*
X07172Y04331*
X07172Y04331*
X07171Y04332*
X0717Y04332*
X07169Y04332*
X07168Y04333*
X07168Y04333*
X07168Y04334*
X07168Y04334*
X07167Y04334*
X07167Y04334*
X07167Y04335*
X07166Y04336*
X07166Y04337*
X07165Y04338*
X07165Y0434*
X07165Y0434*
X07164Y04341*
X07164Y04341*
X07164Y04342*
X07164Y04342*
Y04342*
X07164Y04343*
X07163Y04344*
X07163Y04344*
X07163Y04345*
X07163Y04345*
X07163Y04345*
X07163Y04345*
X07162Y04346*
X07162Y04346*
X07161Y04346*
X07161*
X07161*
X07161Y04346*
X0716Y04346*
X0716Y04345*
X0716Y04345*
X07159Y04345*
X07159Y04345*
X07159Y04345*
X07159Y04344*
X07159Y04343*
X07158Y04343*
X07158Y04342*
X07158Y04341*
X07158Y04341*
Y04341*
X07158Y0434*
X07158Y04339*
X07158Y04338*
X07159Y04338*
X07159Y04337*
X07159Y04337*
X07159Y04337*
X07159Y04337*
X07159Y04336*
X0716Y04336*
X07161Y04335*
X07161Y04335*
X07162Y04335*
X07162Y04334*
X07162Y04334*
X07162Y04334*
X07161Y04327*
X0716Y04327*
X07158Y04328*
X07157Y04329*
X07157Y0433*
X07156Y0433*
X07155Y04331*
X07155Y04331*
X07155Y04331*
X07155Y04331*
Y04331*
X07155Y04332*
X07154Y04333*
X07154Y04334*
X07153Y04336*
X07153Y04337*
X07153Y04338*
X07153Y04339*
X07153Y04339*
Y0434*
X07153Y0434*
Y04341*
X07153Y04342*
X07153Y04343*
X07153Y04344*
X07153Y04345*
X07153Y04346*
X07154Y04346*
X07154Y04347*
X07154Y04348*
X07154Y04348*
X07155Y04349*
X07155Y04349*
X07155Y0435*
X07155Y0435*
X07155Y0435*
X07156Y0435*
X07156Y0435*
X07156Y04351*
X07157Y04351*
X07157Y04352*
X07158Y04352*
X07159Y04352*
X07159Y04353*
X0716Y04353*
X07161Y04353*
X07161Y04353*
X07162Y04353*
X07162Y04353*
X07162*
X07162*
X07162*
X07163*
X07164Y04353*
X07165Y04353*
X07166Y04353*
X07166Y04352*
X07167Y04352*
X07167Y04351*
X07168Y04351*
X07168Y04351*
Y04351*
X07168Y0435*
X07168Y0435*
X07169Y04349*
X07169Y04348*
X0717Y04346*
X0717Y04345*
X07171Y04345*
X07171Y04344*
X07171Y04344*
X07171Y04344*
X07171Y04344*
Y04343*
X07171Y04343*
X07171Y04342*
X07171Y04342*
X07172Y04341*
X07172Y04341*
X07172Y0434*
X07172Y0434*
X07172Y04339*
X07172Y04339*
Y04339*
X07173Y04339*
X07173Y04339*
X07173Y04338*
X07174Y04338*
X07174Y04338*
X07174Y04338*
X07174*
X07174*
X07175Y04338*
X07175Y04338*
X07175Y04339*
X07176Y04339*
X07176Y04339*
X07176Y04339*
X07176Y04339*
X07176Y0434*
X07176Y0434*
X07177Y04341*
X07177Y04342*
X07177Y04342*
Y04343*
X07177Y04343*
X07177Y04344*
X07176Y04345*
X07176Y04345*
X07176Y04346*
X07176Y04346*
X07176Y04347*
X07176Y04347*
X07175Y04347*
X07175Y04347*
X07175Y04348*
X07174Y04348*
X07174Y04348*
X07174Y04348*
X07174Y04348*
X07173*
X07175Y04355*
X07176Y04355*
G37*
G36*
X05676D02*
X05677Y04355D01*
X05678Y04354*
X05679Y04353*
X05679Y04353*
X0568Y04352*
X0568Y04352*
X0568Y04352*
Y04352*
X0568Y04351*
X05681Y04351*
X05681Y04349*
X05682Y04348*
X05682Y04347*
X05682Y04346*
X05682Y04345*
X05682Y04345*
Y04344*
X05682Y04343*
X05682Y04341*
X05682Y0434*
X05681Y04339*
X05681Y04338*
X05681Y04338*
X05681Y04337*
X0568Y04336*
X0568Y04335*
X0568Y04335*
X05679Y04335*
X05679Y04334*
X05679Y04334*
X05679Y04334*
X05679Y04334*
X05679Y04334*
X05678Y04333*
X05677Y04332*
X05676Y04332*
X05675Y04331*
X05674Y04331*
X05673Y04331*
X05673Y04331*
X05673*
X05673*
X05673*
X05672Y04331*
X05672Y04331*
X05671Y04332*
X0567Y04332*
X05669Y04332*
X05668Y04333*
X05668Y04333*
X05668Y04334*
X05668Y04334*
X05667Y04334*
X05667Y04334*
X05667Y04335*
X05666Y04336*
X05666Y04337*
X05665Y04338*
X05665Y0434*
X05665Y0434*
X05664Y04341*
X05664Y04341*
X05664Y04342*
X05664Y04342*
Y04342*
X05664Y04343*
X05663Y04344*
X05663Y04344*
X05663Y04345*
X05663Y04345*
X05663Y04345*
X05663Y04345*
X05662Y04346*
X05662Y04346*
X05661Y04346*
X05661*
X05661*
X05661Y04346*
X0566Y04346*
X0566Y04345*
X0566Y04345*
X05659Y04345*
X05659Y04345*
X05659Y04345*
X05659Y04344*
X05659Y04343*
X05658Y04343*
X05658Y04342*
X05658Y04341*
X05658Y04341*
Y04341*
X05658Y0434*
X05658Y04339*
X05658Y04338*
X05659Y04338*
X05659Y04337*
X05659Y04337*
X05659Y04337*
X05659Y04337*
X05659Y04336*
X0566Y04336*
X05661Y04335*
X05661Y04335*
X05662Y04335*
X05662Y04334*
X05662Y04334*
X05662Y04334*
X05661Y04327*
X0566Y04327*
X05658Y04328*
X05657Y04329*
X05657Y0433*
X05656Y0433*
X05655Y04331*
X05655Y04331*
X05655Y04331*
X05655Y04331*
Y04331*
X05655Y04332*
X05654Y04333*
X05654Y04334*
X05653Y04336*
X05653Y04337*
X05653Y04338*
X05653Y04339*
X05653Y04339*
Y0434*
X05653Y0434*
Y04341*
X05653Y04342*
X05653Y04343*
X05653Y04344*
X05653Y04345*
X05653Y04346*
X05654Y04346*
X05654Y04347*
X05654Y04348*
X05654Y04348*
X05655Y04349*
X05655Y04349*
X05655Y0435*
X05655Y0435*
X05655Y0435*
X05656Y0435*
X05656Y0435*
X05656Y04351*
X05657Y04351*
X05657Y04352*
X05658Y04352*
X05659Y04352*
X05659Y04353*
X0566Y04353*
X05661Y04353*
X05661Y04353*
X05662Y04353*
X05662Y04353*
X05662*
X05662*
X05662*
X05663*
X05664Y04353*
X05665Y04353*
X05666Y04353*
X05666Y04352*
X05667Y04352*
X05667Y04351*
X05668Y04351*
X05668Y04351*
Y04351*
X05668Y0435*
X05668Y0435*
X05669Y04349*
X05669Y04348*
X0567Y04346*
X0567Y04345*
X05671Y04345*
X05671Y04344*
X05671Y04344*
X05671Y04344*
X05671Y04344*
Y04343*
X05671Y04343*
X05671Y04342*
X05671Y04342*
X05672Y04341*
X05672Y04341*
X05672Y0434*
X05672Y0434*
X05672Y04339*
X05672Y04339*
Y04339*
X05673Y04339*
X05673Y04339*
X05673Y04338*
X05674Y04338*
X05674Y04338*
X05674Y04338*
X05674*
X05674*
X05675Y04338*
X05675Y04338*
X05675Y04339*
X05676Y04339*
X05676Y04339*
X05676Y04339*
X05676Y04339*
X05676Y0434*
X05676Y0434*
X05677Y04341*
X05677Y04342*
X05677Y04342*
Y04343*
X05677Y04343*
X05677Y04344*
X05676Y04345*
X05676Y04345*
X05676Y04346*
X05676Y04346*
X05676Y04347*
X05676Y04347*
X05675Y04347*
X05675Y04347*
X05675Y04348*
X05674Y04348*
X05674Y04348*
X05674Y04348*
X05674Y04348*
X05673*
X05675Y04355*
X05676Y04355*
G37*
G36*
X04176D02*
X04177Y04355D01*
X04178Y04354*
X04179Y04353*
X04179Y04353*
X0418Y04352*
X0418Y04352*
X0418Y04352*
Y04352*
X0418Y04351*
X04181Y04351*
X04181Y04349*
X04182Y04348*
X04182Y04347*
X04182Y04346*
X04182Y04345*
X04182Y04345*
Y04344*
X04182Y04343*
X04182Y04341*
X04182Y0434*
X04181Y04339*
X04181Y04338*
X04181Y04338*
X04181Y04337*
X0418Y04336*
X0418Y04335*
X0418Y04335*
X04179Y04335*
X04179Y04334*
X04179Y04334*
X04179Y04334*
X04179Y04334*
X04179Y04334*
X04178Y04333*
X04177Y04332*
X04176Y04332*
X04175Y04331*
X04174Y04331*
X04173Y04331*
X04173Y04331*
X04173*
X04173*
X04173*
X04172Y04331*
X04172Y04331*
X04171Y04332*
X0417Y04332*
X04169Y04332*
X04168Y04333*
X04168Y04333*
X04168Y04334*
X04168Y04334*
X04167Y04334*
X04167Y04334*
X04167Y04335*
X04166Y04336*
X04166Y04337*
X04165Y04338*
X04165Y0434*
X04165Y0434*
X04164Y04341*
X04164Y04341*
X04164Y04342*
X04164Y04342*
Y04342*
X04164Y04343*
X04163Y04344*
X04163Y04344*
X04163Y04345*
X04163Y04345*
X04163Y04345*
X04163Y04345*
X04162Y04346*
X04162Y04346*
X04161Y04346*
X04161*
X04161*
X04161Y04346*
X0416Y04346*
X0416Y04345*
X0416Y04345*
X04159Y04345*
X04159Y04345*
X04159Y04345*
X04159Y04344*
X04159Y04343*
X04158Y04343*
X04158Y04342*
X04158Y04341*
X04158Y04341*
Y04341*
X04158Y0434*
X04158Y04339*
X04158Y04338*
X04159Y04338*
X04159Y04337*
X04159Y04337*
X04159Y04337*
X04159Y04337*
X04159Y04336*
X0416Y04336*
X04161Y04335*
X04161Y04335*
X04162Y04335*
X04162Y04334*
X04162Y04334*
X04162Y04334*
X04161Y04327*
X0416Y04327*
X04158Y04328*
X04157Y04329*
X04157Y0433*
X04156Y0433*
X04155Y04331*
X04155Y04331*
X04155Y04331*
X04155Y04331*
Y04331*
X04155Y04332*
X04154Y04333*
X04154Y04334*
X04153Y04336*
X04153Y04337*
X04153Y04338*
X04153Y04339*
X04153Y04339*
Y0434*
X04153Y0434*
Y04341*
X04153Y04342*
X04153Y04343*
X04153Y04344*
X04153Y04345*
X04153Y04346*
X04154Y04346*
X04154Y04347*
X04154Y04348*
X04154Y04348*
X04155Y04349*
X04155Y04349*
X04155Y0435*
X04155Y0435*
X04155Y0435*
X04156Y0435*
X04156Y0435*
X04156Y04351*
X04157Y04351*
X04157Y04352*
X04158Y04352*
X04159Y04352*
X04159Y04353*
X0416Y04353*
X04161Y04353*
X04161Y04353*
X04162Y04353*
X04162Y04353*
X04162*
X04162*
X04162*
X04163*
X04164Y04353*
X04165Y04353*
X04166Y04353*
X04166Y04352*
X04167Y04352*
X04167Y04351*
X04168Y04351*
X04168Y04351*
Y04351*
X04168Y0435*
X04168Y0435*
X04169Y04349*
X04169Y04348*
X0417Y04346*
X0417Y04345*
X04171Y04345*
X04171Y04344*
X04171Y04344*
X04171Y04344*
X04171Y04344*
Y04343*
X04171Y04343*
X04171Y04342*
X04171Y04342*
X04172Y04341*
X04172Y04341*
X04172Y0434*
X04172Y0434*
X04172Y04339*
X04172Y04339*
Y04339*
X04173Y04339*
X04173Y04339*
X04173Y04338*
X04174Y04338*
X04174Y04338*
X04174Y04338*
X04174*
X04174*
X04175Y04338*
X04175Y04338*
X04175Y04339*
X04176Y04339*
X04176Y04339*
X04176Y04339*
X04176Y04339*
X04176Y0434*
X04176Y0434*
X04177Y04341*
X04177Y04342*
X04177Y04342*
Y04343*
X04177Y04343*
X04177Y04344*
X04176Y04345*
X04176Y04345*
X04176Y04346*
X04176Y04346*
X04176Y04347*
X04176Y04347*
X04175Y04347*
X04175Y04347*
X04175Y04348*
X04174Y04348*
X04174Y04348*
X04174Y04348*
X04174Y04348*
X04173*
X04175Y04355*
X04176Y04355*
G37*
G36*
X07171Y04326D02*
X07172Y04326D01*
X07173Y04325*
X07174Y04325*
X07174Y04325*
X07175Y04325*
X07176Y04324*
X07176Y04324*
X07177Y04324*
X07177Y04324*
X07178Y04323*
X07178Y04323*
X07178Y04323*
X07179Y04323*
X07179Y04323*
X07179Y04323*
X07179Y04322*
X0718Y04321*
X0718Y04321*
X07181Y0432*
X07181Y04319*
X07182Y04317*
X07182Y04316*
X07182Y04316*
X07182Y04315*
X07182Y04315*
Y04315*
X07182Y04313*
X07182Y04312*
X07181Y0431*
X07181Y04309*
X07181Y04308*
X0718Y04307*
X0718Y04306*
X07179Y04305*
X07178Y04305*
X07178Y04304*
X07177Y04303*
X07177Y04303*
X07176Y04303*
X07176Y04302*
X07176Y04302*
X07176Y04302*
X07175Y04302*
X07174Y04301*
X07173Y04301*
X07172Y043*
X07171Y043*
X07169Y04299*
X07168Y04299*
X07168Y04299*
X07167Y04299*
X07167Y04299*
X07166Y04299*
X07166*
X07166*
X07166*
X07165Y04299*
X07164Y04299*
X07163Y04299*
X07162Y043*
X07161Y043*
X0716Y043*
X07159Y043*
X07159Y04301*
X07158Y04301*
X07158Y04301*
X07157Y04302*
X07157Y04302*
X07157Y04302*
X07156Y04302*
X07156Y04302*
X07156Y04303*
X07156Y04303*
X07155Y04304*
X07155Y04305*
X07154Y04305*
X07154Y04306*
X07154Y04307*
X07153Y04308*
X07153Y04309*
X07153Y0431*
X07153Y0431*
X07153Y04311*
X07153Y04311*
Y04312*
X07153Y04313*
X07153Y04315*
X07153Y04316*
X07154Y04317*
X07154Y04318*
X07154Y04318*
X07154Y04318*
X07155Y04319*
X07155Y04319*
X07155Y04319*
Y04319*
X07156Y0432*
X07157Y04321*
X07158Y04322*
X07159Y04323*
X07159Y04324*
X0716Y04324*
X0716Y04324*
X0716Y04324*
X07161Y04324*
X07161Y04324*
X07161*
X07162Y04318*
X07161Y04317*
X07161Y04317*
X0716Y04316*
X0716Y04316*
X07159Y04315*
X07159Y04315*
X07159Y04314*
X07158Y04313*
X07158Y04312*
X07158Y04312*
Y04312*
X07158Y04311*
X07158Y0431*
X07159Y0431*
X07159Y04309*
X07159Y04308*
X0716Y04308*
X0716Y04308*
X0716Y04308*
X07161Y04307*
X07161Y04307*
X07162Y04307*
X07163Y04306*
X07163Y04306*
X07164Y04306*
X07164*
X07164*
X07164*
X07165*
X07165Y04306*
X07165*
X07165*
Y04325*
X07167Y04325*
X07168Y04326*
X07168Y04326*
X07169Y04326*
X07169*
X0717*
X0717*
X0717*
X07171Y04326*
G37*
G36*
X05671D02*
X05672Y04326D01*
X05673Y04325*
X05674Y04325*
X05674Y04325*
X05675Y04325*
X05676Y04324*
X05676Y04324*
X05677Y04324*
X05677Y04324*
X05678Y04323*
X05678Y04323*
X05678Y04323*
X05679Y04323*
X05679Y04323*
X05679Y04323*
X05679Y04322*
X0568Y04321*
X0568Y04321*
X05681Y0432*
X05681Y04319*
X05682Y04317*
X05682Y04316*
X05682Y04316*
X05682Y04315*
X05682Y04315*
Y04315*
X05682Y04313*
X05682Y04312*
X05681Y0431*
X05681Y04309*
X05681Y04308*
X0568Y04307*
X0568Y04306*
X05679Y04305*
X05678Y04305*
X05678Y04304*
X05677Y04303*
X05677Y04303*
X05676Y04303*
X05676Y04302*
X05676Y04302*
X05676Y04302*
X05675Y04302*
X05674Y04301*
X05673Y04301*
X05672Y043*
X05671Y043*
X05669Y04299*
X05668Y04299*
X05668Y04299*
X05667Y04299*
X05667Y04299*
X05666Y04299*
X05666*
X05666*
X05666*
X05665Y04299*
X05664Y04299*
X05663Y04299*
X05662Y043*
X05661Y043*
X0566Y043*
X05659Y043*
X05659Y04301*
X05658Y04301*
X05658Y04301*
X05657Y04302*
X05657Y04302*
X05657Y04302*
X05656Y04302*
X05656Y04302*
X05656Y04303*
X05656Y04303*
X05655Y04304*
X05655Y04305*
X05654Y04305*
X05654Y04306*
X05654Y04307*
X05653Y04308*
X05653Y04309*
X05653Y0431*
X05653Y0431*
X05653Y04311*
X05653Y04311*
Y04312*
X05653Y04313*
X05653Y04315*
X05653Y04316*
X05654Y04317*
X05654Y04318*
X05654Y04318*
X05654Y04318*
X05655Y04319*
X05655Y04319*
X05655Y04319*
Y04319*
X05656Y0432*
X05657Y04321*
X05658Y04322*
X05659Y04323*
X05659Y04324*
X0566Y04324*
X0566Y04324*
X0566Y04324*
X05661Y04324*
X05661Y04324*
X05661*
X05662Y04318*
X05661Y04317*
X05661Y04317*
X0566Y04316*
X0566Y04316*
X05659Y04315*
X05659Y04315*
X05659Y04314*
X05658Y04313*
X05658Y04312*
X05658Y04312*
Y04312*
X05658Y04311*
X05658Y0431*
X05659Y0431*
X05659Y04309*
X05659Y04308*
X0566Y04308*
X0566Y04308*
X0566Y04308*
X05661Y04307*
X05661Y04307*
X05662Y04307*
X05663Y04306*
X05663Y04306*
X05664Y04306*
X05664*
X05664*
X05664*
X05665*
X05665Y04306*
X05665*
X05665*
Y04325*
X05667Y04325*
X05668Y04326*
X05668Y04326*
X05669Y04326*
X05669*
X0567*
X0567*
X0567*
X05671Y04326*
G37*
G36*
X04171D02*
X04172Y04326D01*
X04173Y04325*
X04174Y04325*
X04174Y04325*
X04175Y04325*
X04176Y04324*
X04176Y04324*
X04177Y04324*
X04177Y04324*
X04178Y04323*
X04178Y04323*
X04178Y04323*
X04179Y04323*
X04179Y04323*
X04179Y04323*
X04179Y04322*
X0418Y04321*
X0418Y04321*
X04181Y0432*
X04181Y04319*
X04182Y04317*
X04182Y04316*
X04182Y04316*
X04182Y04315*
X04182Y04315*
Y04315*
X04182Y04313*
X04182Y04312*
X04181Y0431*
X04181Y04309*
X04181Y04308*
X0418Y04307*
X0418Y04306*
X04179Y04305*
X04178Y04305*
X04178Y04304*
X04177Y04303*
X04177Y04303*
X04176Y04303*
X04176Y04302*
X04176Y04302*
X04176Y04302*
X04175Y04302*
X04174Y04301*
X04173Y04301*
X04172Y043*
X04171Y043*
X04169Y04299*
X04168Y04299*
X04168Y04299*
X04167Y04299*
X04167Y04299*
X04166Y04299*
X04166*
X04166*
X04166*
X04165Y04299*
X04164Y04299*
X04163Y04299*
X04162Y043*
X04161Y043*
X0416Y043*
X04159Y043*
X04159Y04301*
X04158Y04301*
X04158Y04301*
X04157Y04302*
X04157Y04302*
X04157Y04302*
X04156Y04302*
X04156Y04302*
X04156Y04303*
X04156Y04303*
X04155Y04304*
X04155Y04305*
X04154Y04305*
X04154Y04306*
X04154Y04307*
X04153Y04308*
X04153Y04309*
X04153Y0431*
X04153Y0431*
X04153Y04311*
X04153Y04311*
Y04312*
X04153Y04313*
X04153Y04315*
X04153Y04316*
X04154Y04317*
X04154Y04318*
X04154Y04318*
X04154Y04318*
X04155Y04319*
X04155Y04319*
X04155Y04319*
Y04319*
X04156Y0432*
X04157Y04321*
X04158Y04322*
X04159Y04323*
X04159Y04324*
X0416Y04324*
X0416Y04324*
X0416Y04324*
X04161Y04324*
X04161Y04324*
X04161*
X04162Y04318*
X04161Y04317*
X04161Y04317*
X0416Y04316*
X0416Y04316*
X04159Y04315*
X04159Y04315*
X04159Y04314*
X04158Y04313*
X04158Y04312*
X04158Y04312*
Y04312*
X04158Y04311*
X04158Y0431*
X04159Y0431*
X04159Y04309*
X04159Y04308*
X0416Y04308*
X0416Y04308*
X0416Y04308*
X04161Y04307*
X04161Y04307*
X04162Y04307*
X04163Y04306*
X04163Y04306*
X04164Y04306*
X04164*
X04164*
X04164*
X04165*
X04165Y04306*
X04165*
X04165*
Y04325*
X04167Y04325*
X04168Y04326*
X04168Y04326*
X04169Y04326*
X04169*
X0417*
X0417*
X0417*
X04171Y04326*
G37*
G36*
X07178Y04296D02*
X07179Y04296D01*
X0718Y04296*
X0718Y04296*
X07181Y04296*
X07181Y04295*
X07181Y04295*
X07182Y04295*
X07183Y04295*
X07184Y04295*
X07184Y04294*
X07185Y04294*
X07185Y04294*
X07185Y04294*
X07185Y04294*
X07186Y04293*
X07187Y04293*
X07187Y04292*
X07188Y04292*
X07188Y04292*
X07188Y04291*
X07189Y04291*
X07189Y04291*
X07189Y0429*
X0719Y0429*
X0719Y04289*
X0719Y04289*
X0719Y04288*
X07191Y04288*
X07191Y04288*
X07191Y04288*
X07191Y04286*
X07191Y04285*
X07191Y04285*
X07192Y04284*
X07192Y04284*
X07192Y04283*
Y04283*
X07192Y04283*
Y04283*
X07192Y04282*
Y04281*
X07192Y0428*
Y04267*
X07153Y0426*
Y04275*
X07153Y04276*
Y04276*
X07154Y04277*
X07154Y04278*
X07154Y04278*
X07154Y04279*
Y04279*
X07154Y0428*
X07154Y0428*
X07154Y0428*
Y0428*
X07154Y04281*
Y04281*
X07154Y04282*
X07155Y04284*
X07155Y04285*
X07156Y04286*
X07156Y04287*
X07157Y04287*
X07157Y04287*
X07157Y04288*
X07157Y04288*
Y04288*
X07158Y04289*
X0716Y0429*
X07161Y04291*
X07162Y04292*
X07163Y04293*
X07164Y04293*
X07164Y04293*
X07164Y04293*
X07165Y04294*
X07165Y04294*
X07165*
X07167Y04294*
X07169Y04295*
X0717Y04295*
X07172Y04296*
X07173Y04296*
X07174Y04296*
X07174Y04296*
X07175*
X07175Y04296*
X07176*
X07176*
X07176*
X07177*
X07178Y04296*
G37*
G36*
X05678D02*
X05679Y04296D01*
X0568Y04296*
X0568Y04296*
X05681Y04296*
X05681Y04295*
X05681Y04295*
X05682Y04295*
X05683Y04295*
X05684Y04295*
X05684Y04294*
X05685Y04294*
X05685Y04294*
X05685Y04294*
X05685Y04294*
X05686Y04293*
X05687Y04293*
X05687Y04292*
X05688Y04292*
X05688Y04292*
X05688Y04291*
X05689Y04291*
X05689Y04291*
X05689Y0429*
X0569Y0429*
X0569Y04289*
X0569Y04289*
X0569Y04288*
X05691Y04288*
X05691Y04288*
X05691Y04288*
X05691Y04286*
X05691Y04285*
X05691Y04285*
X05692Y04284*
X05692Y04284*
X05692Y04283*
Y04283*
X05692Y04283*
Y04283*
X05692Y04282*
Y04281*
X05692Y0428*
Y04267*
X05653Y0426*
Y04275*
X05653Y04276*
Y04276*
X05654Y04277*
X05654Y04278*
X05654Y04278*
X05654Y04279*
Y04279*
X05654Y0428*
X05654Y0428*
X05654Y0428*
Y0428*
X05654Y04281*
Y04281*
X05654Y04282*
X05655Y04284*
X05655Y04285*
X05656Y04286*
X05656Y04287*
X05657Y04287*
X05657Y04287*
X05657Y04288*
X05657Y04288*
Y04288*
X05658Y04289*
X0566Y0429*
X05661Y04291*
X05662Y04292*
X05663Y04293*
X05664Y04293*
X05664Y04293*
X05664Y04293*
X05665Y04294*
X05665Y04294*
X05665*
X05667Y04294*
X05669Y04295*
X0567Y04295*
X05672Y04296*
X05673Y04296*
X05674Y04296*
X05674Y04296*
X05675*
X05675Y04296*
X05676*
X05676*
X05676*
X05677*
X05678Y04296*
G37*
G36*
X04178D02*
X04179Y04296D01*
X0418Y04296*
X0418Y04296*
X04181Y04296*
X04181Y04295*
X04181Y04295*
X04182Y04295*
X04183Y04295*
X04184Y04295*
X04184Y04294*
X04185Y04294*
X04185Y04294*
X04185Y04294*
X04185Y04294*
X04186Y04293*
X04187Y04293*
X04187Y04292*
X04188Y04292*
X04188Y04292*
X04188Y04291*
X04189Y04291*
X04189Y04291*
X04189Y0429*
X0419Y0429*
X0419Y04289*
X0419Y04289*
X0419Y04288*
X04191Y04288*
X04191Y04288*
X04191Y04288*
X04191Y04286*
X04191Y04285*
X04191Y04285*
X04192Y04284*
X04192Y04284*
X04192Y04283*
Y04283*
X04192Y04283*
Y04283*
X04192Y04282*
Y04281*
X04192Y0428*
Y04267*
X04153Y0426*
Y04275*
X04153Y04276*
Y04276*
X04154Y04277*
X04154Y04278*
X04154Y04278*
X04154Y04279*
Y04279*
X04154Y0428*
X04154Y0428*
X04154Y0428*
Y0428*
X04154Y04281*
Y04281*
X04154Y04282*
X04155Y04284*
X04155Y04285*
X04156Y04286*
X04156Y04287*
X04157Y04287*
X04157Y04287*
X04157Y04288*
X04157Y04288*
Y04288*
X04158Y04289*
X0416Y0429*
X04161Y04291*
X04162Y04292*
X04163Y04293*
X04164Y04293*
X04164Y04293*
X04164Y04293*
X04165Y04294*
X04165Y04294*
X04165*
X04167Y04294*
X04169Y04295*
X0417Y04295*
X04172Y04296*
X04173Y04296*
X04174Y04296*
X04174Y04296*
X04175*
X04175Y04296*
X04176*
X04176*
X04176*
X04177*
X04178Y04296*
G37*
%LNpcb4-2*%
%LPC*%
G36*
X07166Y04879D02*
X07165Y04879D01*
X07164Y04879*
X07164Y04879*
X07163Y04878*
X07162Y04878*
X07162Y04878*
X07162Y04878*
X07161Y04878*
X07161Y04878*
X07161Y04877*
X0716Y04877*
X0716Y04877*
X0716Y04876*
X0716Y04876*
X07159Y04876*
X07159Y04876*
X07159Y04875*
X07159Y04875*
X07159Y04874*
X07159Y04874*
X07159Y04873*
X07158Y04873*
X07158Y04873*
Y04872*
X07158Y04872*
X07159Y04871*
X07159Y04871*
X07159Y0487*
X07159Y0487*
X07159Y0487*
X07159Y0487*
X07159Y0487*
X0716Y04869*
X0716Y04869*
X0716Y04869*
X07161Y04869*
X07161Y04869*
X07161Y04869*
X07161*
X07161*
X07162Y04869*
X07163Y04869*
X07163Y04869*
X07163Y04869*
X07164Y0487*
X07164Y0487*
X07164Y0487*
X07164Y0487*
X07164Y0487*
X07165Y04871*
X07165Y04871*
X07165Y04872*
X07165Y04873*
X07166Y04874*
X07166Y04876*
X07166Y04876*
X07166Y04877*
X07166Y04877*
Y04877*
X07166Y04877*
Y04877*
X07166Y04878*
X07166Y04879*
X07166Y04879*
Y04879*
X07166Y04879*
Y04879*
G37*
G36*
X05666D02*
X05665Y04879D01*
X05664Y04879*
X05664Y04879*
X05663Y04878*
X05662Y04878*
X05662Y04878*
X05662Y04878*
X05661Y04878*
X05661Y04878*
X05661Y04877*
X0566Y04877*
X0566Y04877*
X0566Y04876*
X0566Y04876*
X05659Y04876*
X05659Y04876*
X05659Y04875*
X05659Y04875*
X05659Y04874*
X05659Y04874*
X05659Y04873*
X05658Y04873*
X05658Y04873*
Y04872*
X05658Y04872*
X05659Y04871*
X05659Y04871*
X05659Y0487*
X05659Y0487*
X05659Y0487*
X05659Y0487*
X05659Y0487*
X0566Y04869*
X0566Y04869*
X0566Y04869*
X05661Y04869*
X05661Y04869*
X05661Y04869*
X05661*
X05661*
X05662Y04869*
X05663Y04869*
X05663Y04869*
X05663Y04869*
X05664Y0487*
X05664Y0487*
X05664Y0487*
X05664Y0487*
X05664Y0487*
X05665Y04871*
X05665Y04871*
X05665Y04872*
X05665Y04873*
X05666Y04874*
X05666Y04876*
X05666Y04876*
X05666Y04877*
X05666Y04877*
Y04877*
X05666Y04877*
Y04877*
X05666Y04878*
X05666Y04879*
X05666Y04879*
Y04879*
X05666Y04879*
Y04879*
G37*
G36*
X04166D02*
X04165Y04879D01*
X04164Y04879*
X04164Y04879*
X04163Y04878*
X04162Y04878*
X04162Y04878*
X04162Y04878*
X04161Y04878*
X04161Y04878*
X04161Y04877*
X0416Y04877*
X0416Y04877*
X0416Y04876*
X0416Y04876*
X04159Y04876*
X04159Y04876*
X04159Y04875*
X04159Y04875*
X04159Y04874*
X04159Y04874*
X04159Y04873*
X04158Y04873*
X04158Y04873*
Y04872*
X04158Y04872*
X04159Y04871*
X04159Y04871*
X04159Y0487*
X04159Y0487*
X04159Y0487*
X04159Y0487*
X04159Y0487*
X0416Y04869*
X0416Y04869*
X0416Y04869*
X04161Y04869*
X04161Y04869*
X04161Y04869*
X04161*
X04161*
X04162Y04869*
X04163Y04869*
X04163Y04869*
X04163Y04869*
X04164Y0487*
X04164Y0487*
X04164Y0487*
X04164Y0487*
X04164Y0487*
X04165Y04871*
X04165Y04871*
X04165Y04872*
X04165Y04873*
X04166Y04874*
X04166Y04876*
X04166Y04876*
X04166Y04877*
X04166Y04877*
Y04877*
X04166Y04877*
Y04877*
X04166Y04878*
X04166Y04879*
X04166Y04879*
Y04879*
X04166Y04879*
Y04879*
G37*
G36*
X07171Y04838D02*
X07171D01*
X0717*
X0717*
X0717*
X0717*
X0717*
X0717*
X0717*
Y04826*
X07171Y04826*
X07172Y04826*
X07173Y04827*
X07173Y04827*
X07174Y04828*
X07174Y04828*
X07175Y04828*
X07175Y04828*
X07175Y04829*
X07176Y0483*
X07176Y0483*
X07176Y04831*
X07176Y04832*
X07177Y04832*
Y04832*
X07177Y04833*
X07176Y04834*
X07176Y04835*
X07176Y04835*
X07176Y04836*
X07175Y04836*
X07175Y04836*
X07175Y04836*
X07174Y04837*
X07174Y04837*
X07173Y04837*
X07172Y04837*
X07171Y04837*
X07171Y04838*
G37*
G36*
X05671D02*
X05671D01*
X0567*
X0567*
X0567*
X0567*
X0567*
X0567*
X0567*
Y04826*
X05671Y04826*
X05672Y04826*
X05673Y04827*
X05673Y04827*
X05674Y04828*
X05674Y04828*
X05675Y04828*
X05675Y04828*
X05675Y04829*
X05676Y0483*
X05676Y0483*
X05676Y04831*
X05676Y04832*
X05677Y04832*
Y04832*
X05677Y04833*
X05676Y04834*
X05676Y04835*
X05676Y04835*
X05676Y04836*
X05675Y04836*
X05675Y04836*
X05675Y04836*
X05674Y04837*
X05674Y04837*
X05673Y04837*
X05672Y04837*
X05671Y04837*
X05671Y04838*
G37*
G36*
X04171D02*
X04171D01*
X0417*
X0417*
X0417*
X0417*
X0417*
X0417*
X0417*
Y04826*
X04171Y04826*
X04172Y04826*
X04173Y04827*
X04173Y04827*
X04174Y04828*
X04174Y04828*
X04175Y04828*
X04175Y04828*
X04175Y04829*
X04176Y0483*
X04176Y0483*
X04176Y04831*
X04176Y04832*
X04177Y04832*
Y04832*
X04177Y04833*
X04176Y04834*
X04176Y04835*
X04176Y04835*
X04176Y04836*
X04175Y04836*
X04175Y04836*
X04175Y04836*
X04174Y04837*
X04174Y04837*
X04173Y04837*
X04172Y04837*
X04171Y04837*
X04171Y04838*
G37*
G36*
X0717Y04805D02*
X0717D01*
X0717*
X0717*
X07169Y04805*
X07168Y04805*
X07167Y04805*
X07166Y04805*
X07166Y04804*
X07165Y04804*
X07165Y04804*
X07165Y04804*
X07165*
X07164Y04804*
X07163Y04803*
X07162Y04803*
X07161Y04802*
X07161Y04802*
X07161Y04802*
X0716Y04801*
X0716Y04801*
X0716Y04801*
X0716Y048*
X07159Y04799*
X07159Y04799*
X07159Y04798*
X07159Y04798*
Y04797*
X07159Y04797*
X07159Y04796*
X07159Y04795*
X0716Y04795*
X0716Y04794*
X0716Y04794*
X0716Y04794*
X07161Y04794*
X07161Y04793*
X07162Y04793*
X07163Y04793*
X07164Y04793*
X07164Y04792*
X07165Y04792*
X07165*
X07165*
X07165*
X07165*
X07166Y04792*
X07167Y04793*
X07168Y04793*
X07168Y04793*
X07169Y04793*
X0717Y04793*
X0717Y04793*
X0717Y04793*
X07171Y04794*
X07172Y04794*
X07173Y04795*
X07174Y04795*
X07174Y04795*
X07175Y04796*
X07175Y04796*
X07175Y04796*
X07175Y04797*
X07176Y04797*
X07176Y04798*
X07176Y04799*
X07177Y04799*
X07177Y04799*
Y048*
X07177Y04801*
X07176Y04801*
X07176Y04802*
X07176Y04802*
X07175Y04803*
X07175Y04803*
X07175Y04803*
X07175Y04804*
X07174Y04804*
X07173Y04804*
X07172Y04805*
X07172Y04805*
X07171Y04805*
X0717Y04805*
G37*
G36*
X0567D02*
X0567D01*
X0567*
X0567*
X05669Y04805*
X05668Y04805*
X05667Y04805*
X05666Y04805*
X05666Y04804*
X05665Y04804*
X05665Y04804*
X05665Y04804*
X05665*
X05664Y04804*
X05663Y04803*
X05662Y04803*
X05661Y04802*
X05661Y04802*
X05661Y04802*
X0566Y04801*
X0566Y04801*
X0566Y04801*
X0566Y048*
X05659Y04799*
X05659Y04799*
X05659Y04798*
X05659Y04798*
Y04797*
X05659Y04797*
X05659Y04796*
X05659Y04795*
X0566Y04795*
X0566Y04794*
X0566Y04794*
X0566Y04794*
X05661Y04794*
X05661Y04793*
X05662Y04793*
X05663Y04793*
X05664Y04793*
X05664Y04792*
X05665Y04792*
X05665*
X05665*
X05665*
X05665*
X05666Y04792*
X05667Y04793*
X05668Y04793*
X05668Y04793*
X05669Y04793*
X0567Y04793*
X0567Y04793*
X0567Y04793*
X05671Y04794*
X05672Y04794*
X05673Y04795*
X05674Y04795*
X05674Y04795*
X05675Y04796*
X05675Y04796*
X05675Y04796*
X05675Y04797*
X05676Y04797*
X05676Y04798*
X05676Y04799*
X05677Y04799*
X05677Y04799*
Y048*
X05677Y04801*
X05676Y04801*
X05676Y04802*
X05676Y04802*
X05675Y04803*
X05675Y04803*
X05675Y04803*
X05675Y04804*
X05674Y04804*
X05673Y04804*
X05672Y04805*
X05672Y04805*
X05671Y04805*
X0567Y04805*
G37*
G36*
X0417D02*
X0417D01*
X0417*
X0417*
X04169Y04805*
X04168Y04805*
X04167Y04805*
X04166Y04805*
X04166Y04804*
X04165Y04804*
X04165Y04804*
X04165Y04804*
X04165*
X04164Y04804*
X04163Y04803*
X04162Y04803*
X04161Y04802*
X04161Y04802*
X04161Y04802*
X0416Y04801*
X0416Y04801*
X0416Y04801*
X0416Y048*
X04159Y04799*
X04159Y04799*
X04159Y04798*
X04159Y04798*
Y04797*
X04159Y04797*
X04159Y04796*
X04159Y04795*
X0416Y04795*
X0416Y04794*
X0416Y04794*
X0416Y04794*
X04161Y04794*
X04161Y04793*
X04162Y04793*
X04163Y04793*
X04164Y04793*
X04164Y04792*
X04165Y04792*
X04165*
X04165*
X04165*
X04165*
X04166Y04792*
X04167Y04793*
X04168Y04793*
X04168Y04793*
X04169Y04793*
X0417Y04793*
X0417Y04793*
X0417Y04793*
X04171Y04794*
X04172Y04794*
X04173Y04795*
X04174Y04795*
X04174Y04795*
X04175Y04796*
X04175Y04796*
X04175Y04796*
X04175Y04797*
X04176Y04797*
X04176Y04798*
X04176Y04799*
X04177Y04799*
X04177Y04799*
Y048*
X04177Y04801*
X04176Y04801*
X04176Y04802*
X04176Y04802*
X04175Y04803*
X04175Y04803*
X04175Y04803*
X04175Y04804*
X04174Y04804*
X04173Y04804*
X04172Y04805*
X04172Y04805*
X04171Y04805*
X0417Y04805*
G37*
G36*
X07182Y04741D02*
X07182D01*
X07182*
X07181Y04741*
X0718Y04741*
X0718Y0474*
X0718Y0474*
X07179Y0474*
X07179Y0474*
X07179Y0474*
X07179Y0474*
X07178Y04739*
X07178Y04739*
X07178Y04739*
X07177Y04738*
X07177Y04738*
X07177Y04737*
X07177Y04737*
X07177Y04737*
X07177Y04736*
X07177Y04735*
X07176Y04734*
X07176Y04733*
Y04733*
X07176Y04732*
Y04725*
X07185Y04727*
Y04735*
X07185Y04736*
Y04737*
X07185Y04737*
Y04737*
X07185Y04737*
Y04737*
X07185Y04738*
X07185Y04738*
X07185Y04739*
X07184Y04739*
X07184Y04739*
X07184Y0474*
X07184Y0474*
X07184Y0474*
X07184Y0474*
X07183Y0474*
X07183Y0474*
X07182Y04741*
X07182Y04741*
X07182Y04741*
G37*
G36*
X07166Y04739D02*
X07165D01*
X07165*
X07165Y04739*
X07164Y04739*
X07164Y04739*
X07163Y04739*
X07163Y04739*
X07162Y04739*
X07162Y04738*
X07162Y04738*
X07162Y04738*
X07161Y04738*
X07161Y04737*
X07161Y04737*
X0716Y04736*
X0716Y04736*
X0716Y04736*
X0716Y04736*
X0716Y04735*
X0716Y04735*
X0716Y04734*
X0716Y04733*
X0716Y04732*
Y04731*
X0716Y0473*
Y04722*
X0717Y04724*
Y04733*
X0717Y04734*
X07169Y04735*
X07169Y04736*
X07169Y04737*
X07169Y04737*
X07169Y04738*
X07168Y04738*
X07168Y04738*
X07168Y04738*
X07167Y04739*
X07167Y04739*
X07166Y04739*
X07166Y04739*
X07166Y04739*
G37*
G36*
X05682Y04741D02*
X05682D01*
X05682*
X05681Y04741*
X0568Y04741*
X0568Y0474*
X0568Y0474*
X05679Y0474*
X05679Y0474*
X05679Y0474*
X05679Y0474*
X05678Y04739*
X05678Y04739*
X05678Y04739*
X05677Y04738*
X05677Y04738*
X05677Y04737*
X05677Y04737*
X05677Y04737*
X05677Y04736*
X05677Y04735*
X05676Y04734*
X05676Y04733*
Y04733*
X05676Y04732*
Y04725*
X05685Y04727*
Y04735*
X05685Y04736*
Y04737*
X05685Y04737*
Y04737*
X05685Y04737*
Y04737*
X05685Y04738*
X05685Y04738*
X05685Y04739*
X05684Y04739*
X05684Y04739*
X05684Y0474*
X05684Y0474*
X05684Y0474*
X05684Y0474*
X05683Y0474*
X05683Y0474*
X05682Y04741*
X05682Y04741*
X05682Y04741*
G37*
G36*
X05666Y04739D02*
X05665D01*
X05665*
X05665Y04739*
X05664Y04739*
X05664Y04739*
X05663Y04739*
X05663Y04739*
X05662Y04739*
X05662Y04738*
X05662Y04738*
X05662Y04738*
X05661Y04738*
X05661Y04737*
X05661Y04737*
X0566Y04736*
X0566Y04736*
X0566Y04736*
X0566Y04736*
X0566Y04735*
X0566Y04735*
X0566Y04734*
X0566Y04733*
X0566Y04732*
Y04731*
X0566Y0473*
Y04722*
X0567Y04724*
Y04733*
X0567Y04734*
X05669Y04735*
X05669Y04736*
X05669Y04737*
X05669Y04737*
X05669Y04738*
X05668Y04738*
X05668Y04738*
X05668Y04738*
X05667Y04739*
X05667Y04739*
X05666Y04739*
X05666Y04739*
X05666Y04739*
G37*
G36*
X04182Y04741D02*
X04182D01*
X04182*
X04181Y04741*
X0418Y04741*
X0418Y0474*
X0418Y0474*
X04179Y0474*
X04179Y0474*
X04179Y0474*
X04179Y0474*
X04178Y04739*
X04178Y04739*
X04178Y04739*
X04177Y04738*
X04177Y04738*
X04177Y04737*
X04177Y04737*
X04177Y04737*
X04177Y04736*
X04177Y04735*
X04176Y04734*
X04176Y04733*
Y04733*
X04176Y04732*
Y04725*
X04185Y04727*
Y04735*
X04185Y04736*
Y04737*
X04185Y04737*
Y04737*
X04185Y04737*
Y04737*
X04185Y04738*
X04185Y04738*
X04185Y04739*
X04184Y04739*
X04184Y04739*
X04184Y0474*
X04184Y0474*
X04184Y0474*
X04184Y0474*
X04183Y0474*
X04183Y0474*
X04182Y04741*
X04182Y04741*
X04182Y04741*
G37*
G36*
X04166Y04739D02*
X04165D01*
X04165*
X04165Y04739*
X04164Y04739*
X04164Y04739*
X04163Y04739*
X04163Y04739*
X04162Y04739*
X04162Y04738*
X04162Y04738*
X04162Y04738*
X04161Y04738*
X04161Y04737*
X04161Y04737*
X0416Y04736*
X0416Y04736*
X0416Y04736*
X0416Y04736*
X0416Y04735*
X0416Y04735*
X0416Y04734*
X0416Y04733*
X0416Y04732*
Y04731*
X0416Y0473*
Y04722*
X0417Y04724*
Y04733*
X0417Y04734*
X04169Y04735*
X04169Y04736*
X04169Y04737*
X04169Y04737*
X04169Y04738*
X04168Y04738*
X04168Y04738*
X04168Y04738*
X04167Y04739*
X04167Y04739*
X04166Y04739*
X04166Y04739*
X04166Y04739*
G37*
G36*
X07166Y0465D02*
X07165Y0465D01*
X07164Y04649*
X07164Y04649*
X07163Y04649*
X07162Y04649*
X07162Y04648*
X07162Y04648*
X07161Y04648*
X07161Y04648*
X07161Y04648*
X0716Y04647*
X0716Y04647*
X0716Y04647*
X0716Y04646*
X07159Y04646*
X07159Y04646*
X07159Y04646*
X07159Y04645*
X07159Y04645*
X07159Y04644*
X07159Y04644*
X07158Y04643*
X07158Y04643*
Y04643*
X07158Y04642*
X07159Y04642*
X07159Y04641*
X07159Y04641*
X07159Y04641*
X07159Y0464*
X07159Y0464*
X07159Y0464*
X0716Y0464*
X0716Y0464*
X0716Y0464*
X07161Y04639*
X07161Y04639*
X07161Y04639*
X07161*
X07161*
X07162Y04639*
X07163Y04639*
X07163Y0464*
X07163Y0464*
X07164Y0464*
X07164Y0464*
X07164Y0464*
X07164Y04641*
X07164Y04641*
X07165Y04641*
X07165Y04642*
X07165Y04642*
X07165Y04644*
X07166Y04645*
X07166Y04646*
X07166Y04647*
X07166Y04647*
X07166Y04647*
Y04648*
X07166Y04648*
Y04648*
X07166Y04649*
X07166Y04649*
X07166Y04649*
Y0465*
X07166Y0465*
Y0465*
G37*
G36*
X05666D02*
X05665Y0465D01*
X05664Y04649*
X05664Y04649*
X05663Y04649*
X05662Y04649*
X05662Y04648*
X05662Y04648*
X05661Y04648*
X05661Y04648*
X05661Y04648*
X0566Y04647*
X0566Y04647*
X0566Y04647*
X0566Y04646*
X05659Y04646*
X05659Y04646*
X05659Y04646*
X05659Y04645*
X05659Y04645*
X05659Y04644*
X05659Y04644*
X05658Y04643*
X05658Y04643*
Y04643*
X05658Y04642*
X05659Y04642*
X05659Y04641*
X05659Y04641*
X05659Y04641*
X05659Y0464*
X05659Y0464*
X05659Y0464*
X0566Y0464*
X0566Y0464*
X0566Y0464*
X05661Y04639*
X05661Y04639*
X05661Y04639*
X05661*
X05661*
X05662Y04639*
X05663Y04639*
X05663Y0464*
X05663Y0464*
X05664Y0464*
X05664Y0464*
X05664Y0464*
X05664Y04641*
X05664Y04641*
X05665Y04641*
X05665Y04642*
X05665Y04642*
X05665Y04644*
X05666Y04645*
X05666Y04646*
X05666Y04647*
X05666Y04647*
X05666Y04647*
Y04648*
X05666Y04648*
Y04648*
X05666Y04649*
X05666Y04649*
X05666Y04649*
Y0465*
X05666Y0465*
Y0465*
G37*
G36*
X04166D02*
X04165Y0465D01*
X04164Y04649*
X04164Y04649*
X04163Y04649*
X04162Y04649*
X04162Y04648*
X04162Y04648*
X04161Y04648*
X04161Y04648*
X04161Y04648*
X0416Y04647*
X0416Y04647*
X0416Y04647*
X0416Y04646*
X04159Y04646*
X04159Y04646*
X04159Y04646*
X04159Y04645*
X04159Y04645*
X04159Y04644*
X04159Y04644*
X04158Y04643*
X04158Y04643*
Y04643*
X04158Y04642*
X04159Y04642*
X04159Y04641*
X04159Y04641*
X04159Y04641*
X04159Y0464*
X04159Y0464*
X04159Y0464*
X0416Y0464*
X0416Y0464*
X0416Y0464*
X04161Y04639*
X04161Y04639*
X04161Y04639*
X04161*
X04161*
X04162Y04639*
X04163Y04639*
X04163Y0464*
X04163Y0464*
X04164Y0464*
X04164Y0464*
X04164Y0464*
X04164Y04641*
X04164Y04641*
X04165Y04641*
X04165Y04642*
X04165Y04642*
X04165Y04644*
X04166Y04645*
X04166Y04646*
X04166Y04647*
X04166Y04647*
X04166Y04647*
Y04648*
X04166Y04648*
Y04648*
X04166Y04649*
X04166Y04649*
X04166Y04649*
Y0465*
X04166Y0465*
Y0465*
G37*
G36*
X07171Y04539D02*
X0717D01*
X0717*
X0717*
X07169Y04538*
X07168Y04538*
X07167Y04538*
X07166Y04538*
X07165Y04538*
X07165Y04538*
X07164Y04537*
X07164Y04537*
X07164Y04537*
X07164*
X07163Y04537*
X07162Y04536*
X07161Y04536*
X07161Y04536*
X0716Y04535*
X0716Y04535*
X0716Y04535*
X0716Y04534*
X07159Y04534*
X07159Y04533*
X07159Y04533*
X07159Y04532*
X07158Y04532*
X07158Y04531*
Y04531*
X07158Y0453*
X07159Y04529*
X07159Y04529*
X07159Y04528*
X0716Y04528*
X0716Y04527*
X0716Y04527*
X0716Y04527*
X07161Y04527*
X07162Y04526*
X07162Y04526*
X07163Y04526*
X07164Y04526*
X07164Y04526*
X07165*
X07165*
X07165*
X07166Y04526*
X07167Y04526*
X07169Y04526*
X07169Y04526*
X0717Y04526*
X07171Y04527*
X07171Y04527*
X07172Y04527*
X07172Y04527*
X07173Y04528*
X07173Y04528*
X07174Y04528*
X07174Y04528*
X07174Y04528*
X07174Y04528*
X07174Y04529*
X07175Y04529*
X07175Y0453*
X07176Y04531*
X07176Y04532*
X07176Y04532*
X07177Y04533*
X07177Y04533*
Y04533*
X07177Y04534*
X07176Y04535*
X07176Y04535*
X07176Y04536*
X07175Y04536*
X07175Y04537*
X07175Y04537*
X07175Y04537*
X07174Y04537*
X07173Y04538*
X07173Y04538*
X07172Y04538*
X07171Y04538*
X07171Y04539*
G37*
G36*
X05671D02*
X0567D01*
X0567*
X0567*
X05669Y04538*
X05668Y04538*
X05667Y04538*
X05666Y04538*
X05665Y04538*
X05665Y04538*
X05664Y04537*
X05664Y04537*
X05664Y04537*
X05664*
X05663Y04537*
X05662Y04536*
X05661Y04536*
X05661Y04536*
X0566Y04535*
X0566Y04535*
X0566Y04535*
X0566Y04534*
X05659Y04534*
X05659Y04533*
X05659Y04533*
X05659Y04532*
X05658Y04532*
X05658Y04531*
Y04531*
X05658Y0453*
X05659Y04529*
X05659Y04529*
X05659Y04528*
X0566Y04528*
X0566Y04527*
X0566Y04527*
X0566Y04527*
X05661Y04527*
X05662Y04526*
X05662Y04526*
X05663Y04526*
X05664Y04526*
X05664Y04526*
X05665*
X05665*
X05665*
X05666Y04526*
X05667Y04526*
X05669Y04526*
X05669Y04526*
X0567Y04526*
X05671Y04527*
X05671Y04527*
X05672Y04527*
X05672Y04527*
X05673Y04528*
X05673Y04528*
X05674Y04528*
X05674Y04528*
X05674Y04528*
X05674Y04528*
X05674Y04529*
X05675Y04529*
X05675Y0453*
X05676Y04531*
X05676Y04532*
X05676Y04532*
X05677Y04533*
X05677Y04533*
Y04533*
X05677Y04534*
X05676Y04535*
X05676Y04535*
X05676Y04536*
X05675Y04536*
X05675Y04537*
X05675Y04537*
X05675Y04537*
X05674Y04537*
X05673Y04538*
X05673Y04538*
X05672Y04538*
X05671Y04538*
X05671Y04539*
G37*
G36*
X04171D02*
X0417D01*
X0417*
X0417*
X04169Y04538*
X04168Y04538*
X04167Y04538*
X04166Y04538*
X04165Y04538*
X04165Y04538*
X04164Y04537*
X04164Y04537*
X04164Y04537*
X04164*
X04163Y04537*
X04162Y04536*
X04161Y04536*
X04161Y04536*
X0416Y04535*
X0416Y04535*
X0416Y04535*
X0416Y04534*
X04159Y04534*
X04159Y04533*
X04159Y04533*
X04159Y04532*
X04158Y04532*
X04158Y04531*
Y04531*
X04158Y0453*
X04159Y04529*
X04159Y04529*
X04159Y04528*
X0416Y04528*
X0416Y04527*
X0416Y04527*
X0416Y04527*
X04161Y04527*
X04162Y04526*
X04162Y04526*
X04163Y04526*
X04164Y04526*
X04164Y04526*
X04165*
X04165*
X04165*
X04166Y04526*
X04167Y04526*
X04169Y04526*
X04169Y04526*
X0417Y04526*
X04171Y04527*
X04171Y04527*
X04172Y04527*
X04172Y04527*
X04173Y04528*
X04173Y04528*
X04174Y04528*
X04174Y04528*
X04174Y04528*
X04174Y04528*
X04174Y04529*
X04175Y04529*
X04175Y0453*
X04176Y04531*
X04176Y04532*
X04176Y04532*
X04177Y04533*
X04177Y04533*
Y04533*
X04177Y04534*
X04176Y04535*
X04176Y04535*
X04176Y04536*
X04175Y04536*
X04175Y04537*
X04175Y04537*
X04175Y04537*
X04174Y04537*
X04173Y04538*
X04173Y04538*
X04172Y04538*
X04171Y04538*
X04171Y04539*
G37*
G36*
X0717Y04489D02*
X0717D01*
X0717*
X0717*
X0717*
X07169Y04489*
X07168Y04489*
X07167Y04489*
X07166Y04489*
X07165Y04489*
X07165Y04488*
X07164Y04488*
X07164Y04488*
X07164Y04488*
X07164*
X07163Y04488*
X07162Y04487*
X07161Y04487*
X07161Y04486*
X0716Y04486*
X0716Y04486*
X0716Y04485*
X0716Y04485*
X07159Y04485*
X07159Y04484*
X07159Y04483*
X07159Y04483*
X07158Y04482*
X07158Y04482*
Y04482*
X07158Y04481*
X07159Y0448*
X07159Y04479*
X07159Y04479*
X0716Y04478*
X0716Y04478*
X0716Y04478*
X0716Y04478*
X07161Y04477*
X07161Y04477*
X07162Y04477*
X07163Y04477*
X07164Y04476*
X07164Y04476*
X07165*
X07165*
X07165*
X07166Y04476*
X07168Y04477*
X07169Y04477*
X0717Y04477*
X07171Y04478*
X07171Y04478*
X07172Y04478*
X07172Y04478*
X07172Y04478*
X07173Y04478*
X07173Y04478*
X07173*
X07173Y04479*
X07174Y04479*
X07174Y0448*
X07175Y0448*
X07175Y04481*
X07176Y04481*
X07176Y04482*
X07176Y04483*
X07176Y04483*
X07176Y04484*
Y04484*
X07176Y04485*
X07176Y04485*
X07176Y04486*
X07175Y04487*
X07175Y04487*
X07175Y04487*
X07175Y04488*
X07175Y04488*
X07174Y04488*
X07173Y04489*
X07172Y04489*
X07171Y04489*
X07171Y04489*
X0717Y04489*
G37*
G36*
X0567D02*
X0567D01*
X0567*
X0567*
X0567*
X05669Y04489*
X05668Y04489*
X05667Y04489*
X05666Y04489*
X05665Y04489*
X05665Y04488*
X05664Y04488*
X05664Y04488*
X05664Y04488*
X05664*
X05663Y04488*
X05662Y04487*
X05661Y04487*
X05661Y04486*
X0566Y04486*
X0566Y04486*
X0566Y04485*
X0566Y04485*
X05659Y04485*
X05659Y04484*
X05659Y04483*
X05659Y04483*
X05658Y04482*
X05658Y04482*
Y04482*
X05658Y04481*
X05659Y0448*
X05659Y04479*
X05659Y04479*
X0566Y04478*
X0566Y04478*
X0566Y04478*
X0566Y04478*
X05661Y04477*
X05661Y04477*
X05662Y04477*
X05663Y04477*
X05664Y04476*
X05664Y04476*
X05665*
X05665*
X05665*
X05666Y04476*
X05668Y04477*
X05669Y04477*
X0567Y04477*
X05671Y04478*
X05671Y04478*
X05672Y04478*
X05672Y04478*
X05672Y04478*
X05673Y04478*
X05673Y04478*
X05673*
X05673Y04479*
X05674Y04479*
X05674Y0448*
X05675Y0448*
X05675Y04481*
X05676Y04481*
X05676Y04482*
X05676Y04483*
X05676Y04483*
X05676Y04484*
Y04484*
X05676Y04485*
X05676Y04485*
X05676Y04486*
X05675Y04487*
X05675Y04487*
X05675Y04487*
X05675Y04488*
X05675Y04488*
X05674Y04488*
X05673Y04489*
X05672Y04489*
X05671Y04489*
X05671Y04489*
X0567Y04489*
G37*
G36*
X0417D02*
X0417D01*
X0417*
X0417*
X0417*
X04169Y04489*
X04168Y04489*
X04167Y04489*
X04166Y04489*
X04165Y04489*
X04165Y04488*
X04164Y04488*
X04164Y04488*
X04164Y04488*
X04164*
X04163Y04488*
X04162Y04487*
X04161Y04487*
X04161Y04486*
X0416Y04486*
X0416Y04486*
X0416Y04485*
X0416Y04485*
X04159Y04485*
X04159Y04484*
X04159Y04483*
X04159Y04483*
X04158Y04482*
X04158Y04482*
Y04482*
X04158Y04481*
X04159Y0448*
X04159Y04479*
X04159Y04479*
X0416Y04478*
X0416Y04478*
X0416Y04478*
X0416Y04478*
X04161Y04477*
X04161Y04477*
X04162Y04477*
X04163Y04477*
X04164Y04476*
X04164Y04476*
X04165*
X04165*
X04165*
X04166Y04476*
X04168Y04477*
X04169Y04477*
X0417Y04477*
X04171Y04478*
X04171Y04478*
X04172Y04478*
X04172Y04478*
X04172Y04478*
X04173Y04478*
X04173Y04478*
X04173*
X04173Y04479*
X04174Y04479*
X04174Y0448*
X04175Y0448*
X04175Y04481*
X04176Y04481*
X04176Y04482*
X04176Y04483*
X04176Y04483*
X04176Y04484*
Y04484*
X04176Y04485*
X04176Y04485*
X04176Y04486*
X04175Y04487*
X04175Y04487*
X04175Y04487*
X04175Y04488*
X04175Y04488*
X04174Y04488*
X04173Y04489*
X04172Y04489*
X04171Y04489*
X04171Y04489*
X0417Y04489*
G37*
G36*
X07171Y04459D02*
X07171D01*
X0717*
X0717*
X0717*
X0717*
X0717*
X0717*
X0717*
Y04447*
X07171Y04447*
X07172Y04448*
X07173Y04448*
X07173Y04449*
X07174Y04449*
X07174Y04449*
X07175Y0445*
X07175Y0445*
X07175Y0445*
X07176Y04451*
X07176Y04452*
X07176Y04452*
X07176Y04453*
X07177Y04453*
Y04454*
X07177Y04455*
X07176Y04455*
X07176Y04456*
X07176Y04457*
X07176Y04457*
X07175Y04457*
X07175Y04458*
X07175Y04458*
X07174Y04458*
X07174Y04458*
X07173Y04459*
X07172Y04459*
X07171Y04459*
X07171Y04459*
G37*
G36*
X05671D02*
X05671D01*
X0567*
X0567*
X0567*
X0567*
X0567*
X0567*
X0567*
Y04447*
X05671Y04447*
X05672Y04448*
X05673Y04448*
X05673Y04449*
X05674Y04449*
X05674Y04449*
X05675Y0445*
X05675Y0445*
X05675Y0445*
X05676Y04451*
X05676Y04452*
X05676Y04452*
X05676Y04453*
X05677Y04453*
Y04454*
X05677Y04455*
X05676Y04455*
X05676Y04456*
X05676Y04457*
X05676Y04457*
X05675Y04457*
X05675Y04458*
X05675Y04458*
X05674Y04458*
X05674Y04458*
X05673Y04459*
X05672Y04459*
X05671Y04459*
X05671Y04459*
G37*
G36*
X04171D02*
X04171D01*
X0417*
X0417*
X0417*
X0417*
X0417*
X0417*
X0417*
Y04447*
X04171Y04447*
X04172Y04448*
X04173Y04448*
X04173Y04449*
X04174Y04449*
X04174Y04449*
X04175Y0445*
X04175Y0445*
X04175Y0445*
X04176Y04451*
X04176Y04452*
X04176Y04452*
X04176Y04453*
X04177Y04453*
Y04454*
X04177Y04455*
X04176Y04455*
X04176Y04456*
X04176Y04457*
X04176Y04457*
X04175Y04457*
X04175Y04458*
X04175Y04458*
X04174Y04458*
X04174Y04458*
X04173Y04459*
X04172Y04459*
X04171Y04459*
X04171Y04459*
G37*
G36*
X0717Y04394D02*
X0717D01*
X0717*
X0717*
X07169Y04394*
X07168Y04394*
X07167Y04394*
X07166Y04393*
X07166Y04393*
X07165Y04393*
X07165Y04393*
X07165Y04393*
X07165*
X07164Y04392*
X07163Y04392*
X07162Y04392*
X07161Y04391*
X07161Y04391*
X07161Y0439*
X0716Y0439*
X0716Y0439*
X0716Y04389*
X0716Y04389*
X07159Y04388*
X07159Y04387*
X07159Y04387*
X07159Y04386*
Y04386*
X07159Y04385*
X07159Y04385*
X07159Y04384*
X0716Y04384*
X0716Y04383*
X0716Y04383*
X0716Y04383*
X07161Y04383*
X07161Y04382*
X07162Y04382*
X07163Y04381*
X07164Y04381*
X07164Y04381*
X07165Y04381*
X07165*
X07165*
X07165*
X07165*
X07166Y04381*
X07167Y04381*
X07168Y04381*
X07168Y04382*
X07169Y04382*
X0717Y04382*
X0717Y04382*
X0717Y04382*
X07171Y04382*
X07172Y04383*
X07173Y04383*
X07174Y04384*
X07174Y04384*
X07175Y04384*
X07175Y04385*
X07175Y04385*
X07175Y04385*
X07176Y04386*
X07176Y04387*
X07176Y04387*
X07177Y04388*
X07177Y04388*
Y04388*
X07177Y04389*
X07176Y0439*
X07176Y04391*
X07176Y04391*
X07175Y04392*
X07175Y04392*
X07175Y04392*
X07175Y04392*
X07174Y04393*
X07173Y04393*
X07172Y04393*
X07172Y04394*
X07171Y04394*
X0717Y04394*
G37*
G36*
X0567D02*
X0567D01*
X0567*
X0567*
X05669Y04394*
X05668Y04394*
X05667Y04394*
X05666Y04393*
X05666Y04393*
X05665Y04393*
X05665Y04393*
X05665Y04393*
X05665*
X05664Y04392*
X05663Y04392*
X05662Y04392*
X05661Y04391*
X05661Y04391*
X05661Y0439*
X0566Y0439*
X0566Y0439*
X0566Y04389*
X0566Y04389*
X05659Y04388*
X05659Y04387*
X05659Y04387*
X05659Y04386*
Y04386*
X05659Y04385*
X05659Y04385*
X05659Y04384*
X0566Y04384*
X0566Y04383*
X0566Y04383*
X0566Y04383*
X05661Y04383*
X05661Y04382*
X05662Y04382*
X05663Y04381*
X05664Y04381*
X05664Y04381*
X05665Y04381*
X05665*
X05665*
X05665*
X05665*
X05666Y04381*
X05667Y04381*
X05668Y04381*
X05668Y04382*
X05669Y04382*
X0567Y04382*
X0567Y04382*
X0567Y04382*
X05671Y04382*
X05672Y04383*
X05673Y04383*
X05674Y04384*
X05674Y04384*
X05675Y04384*
X05675Y04385*
X05675Y04385*
X05675Y04385*
X05676Y04386*
X05676Y04387*
X05676Y04387*
X05677Y04388*
X05677Y04388*
Y04388*
X05677Y04389*
X05676Y0439*
X05676Y04391*
X05676Y04391*
X05675Y04392*
X05675Y04392*
X05675Y04392*
X05675Y04392*
X05674Y04393*
X05673Y04393*
X05672Y04393*
X05672Y04394*
X05671Y04394*
X0567Y04394*
G37*
G36*
X0417D02*
X0417D01*
X0417*
X0417*
X04169Y04394*
X04168Y04394*
X04167Y04394*
X04166Y04393*
X04166Y04393*
X04165Y04393*
X04165Y04393*
X04165Y04393*
X04165*
X04164Y04392*
X04163Y04392*
X04162Y04392*
X04161Y04391*
X04161Y04391*
X04161Y0439*
X0416Y0439*
X0416Y0439*
X0416Y04389*
X0416Y04389*
X04159Y04388*
X04159Y04387*
X04159Y04387*
X04159Y04386*
Y04386*
X04159Y04385*
X04159Y04385*
X04159Y04384*
X0416Y04384*
X0416Y04383*
X0416Y04383*
X0416Y04383*
X04161Y04383*
X04161Y04382*
X04162Y04382*
X04163Y04381*
X04164Y04381*
X04164Y04381*
X04165Y04381*
X04165*
X04165*
X04165*
X04165*
X04166Y04381*
X04167Y04381*
X04168Y04381*
X04168Y04382*
X04169Y04382*
X0417Y04382*
X0417Y04382*
X0417Y04382*
X04171Y04382*
X04172Y04383*
X04173Y04383*
X04174Y04384*
X04174Y04384*
X04175Y04384*
X04175Y04385*
X04175Y04385*
X04175Y04385*
X04176Y04386*
X04176Y04387*
X04176Y04387*
X04177Y04388*
X04177Y04388*
Y04388*
X04177Y04389*
X04176Y0439*
X04176Y04391*
X04176Y04391*
X04175Y04392*
X04175Y04392*
X04175Y04392*
X04175Y04392*
X04174Y04393*
X04173Y04393*
X04172Y04393*
X04172Y04394*
X04171Y04394*
X0417Y04394*
G37*
G36*
X07171Y04319D02*
X07171D01*
X0717*
X0717*
X0717*
X0717*
X0717*
X0717*
X0717*
Y04307*
X07171Y04307*
X07172Y04308*
X07173Y04308*
X07173Y04309*
X07174Y04309*
X07174Y04309*
X07175Y04309*
X07175Y0431*
X07175Y0431*
X07176Y04311*
X07176Y04312*
X07176Y04312*
X07176Y04313*
X07177Y04313*
Y04314*
X07177Y04315*
X07176Y04315*
X07176Y04316*
X07176Y04316*
X07176Y04317*
X07175Y04317*
X07175Y04317*
X07175Y04317*
X07174Y04318*
X07174Y04318*
X07173Y04319*
X07172Y04319*
X07171Y04319*
X07171Y04319*
G37*
G36*
X05671D02*
X05671D01*
X0567*
X0567*
X0567*
X0567*
X0567*
X0567*
X0567*
Y04307*
X05671Y04307*
X05672Y04308*
X05673Y04308*
X05673Y04309*
X05674Y04309*
X05674Y04309*
X05675Y04309*
X05675Y0431*
X05675Y0431*
X05676Y04311*
X05676Y04312*
X05676Y04312*
X05676Y04313*
X05677Y04313*
Y04314*
X05677Y04315*
X05676Y04315*
X05676Y04316*
X05676Y04316*
X05676Y04317*
X05675Y04317*
X05675Y04317*
X05675Y04317*
X05674Y04318*
X05674Y04318*
X05673Y04319*
X05672Y04319*
X05671Y04319*
X05671Y04319*
G37*
G36*
X04171D02*
X04171D01*
X0417*
X0417*
X0417*
X0417*
X0417*
X0417*
X0417*
Y04307*
X04171Y04307*
X04172Y04308*
X04173Y04308*
X04173Y04309*
X04174Y04309*
X04174Y04309*
X04175Y04309*
X04175Y0431*
X04175Y0431*
X04176Y04311*
X04176Y04312*
X04176Y04312*
X04176Y04313*
X04177Y04313*
Y04314*
X04177Y04315*
X04176Y04315*
X04176Y04316*
X04176Y04316*
X04176Y04317*
X04175Y04317*
X04175Y04317*
X04175Y04317*
X04174Y04318*
X04174Y04318*
X04173Y04319*
X04172Y04319*
X04171Y04319*
X04171Y04319*
G37*
G36*
X07177Y04288D02*
X07177D01*
X07176*
X07176*
X07176*
X07174Y04288*
X07173Y04288*
X07171Y04288*
X0717Y04287*
X0717Y04287*
X07169Y04287*
X07169Y04287*
X07168Y04287*
X07168Y04287*
X07168Y04287*
X07168Y04286*
X07168*
X07167Y04286*
X07165Y04285*
X07164Y04285*
X07164Y04284*
X07163Y04283*
X07163Y04283*
X07162Y04283*
X07162Y04283*
X07162Y04282*
X07161Y04281*
X07161Y04281*
X07161Y0428*
X0716Y0428*
X0716Y04279*
X0716Y04279*
Y04279*
X0716Y04278*
X0716Y04277*
X0716Y04276*
X0716Y04275*
Y04274*
X0716Y04274*
Y04269*
X07186Y04274*
Y0428*
X07185Y04281*
X07185Y04282*
X07185Y04282*
X07185Y04283*
X07185Y04283*
X07185Y04283*
Y04283*
X07185Y04284*
X07184Y04285*
X07184Y04285*
X07183Y04286*
X07183Y04286*
X07183Y04287*
X07182Y04287*
X07182Y04287*
X07181Y04287*
X0718Y04288*
X07179Y04288*
X07178Y04288*
X07178Y04288*
X07177*
X07177Y04288*
G37*
G36*
X05677D02*
X05677D01*
X05676*
X05676*
X05676*
X05674Y04288*
X05673Y04288*
X05671Y04288*
X0567Y04287*
X0567Y04287*
X05669Y04287*
X05669Y04287*
X05668Y04287*
X05668Y04287*
X05668Y04287*
X05668Y04286*
X05668*
X05667Y04286*
X05665Y04285*
X05664Y04285*
X05664Y04284*
X05663Y04283*
X05663Y04283*
X05662Y04283*
X05662Y04283*
X05662Y04282*
X05661Y04281*
X05661Y04281*
X05661Y0428*
X0566Y0428*
X0566Y04279*
X0566Y04279*
Y04279*
X0566Y04278*
X0566Y04277*
X0566Y04276*
X0566Y04275*
Y04274*
X0566Y04274*
Y04269*
X05686Y04274*
Y0428*
X05685Y04281*
X05685Y04282*
X05685Y04282*
X05685Y04283*
X05685Y04283*
X05685Y04283*
Y04283*
X05685Y04284*
X05684Y04285*
X05684Y04285*
X05683Y04286*
X05683Y04286*
X05683Y04287*
X05682Y04287*
X05682Y04287*
X05681Y04287*
X0568Y04288*
X05679Y04288*
X05678Y04288*
X05678Y04288*
X05677*
X05677Y04288*
G37*
G36*
X04177D02*
X04177D01*
X04176*
X04176*
X04176*
X04174Y04288*
X04173Y04288*
X04171Y04288*
X0417Y04287*
X0417Y04287*
X04169Y04287*
X04169Y04287*
X04168Y04287*
X04168Y04287*
X04168Y04287*
X04168Y04286*
X04168*
X04167Y04286*
X04165Y04285*
X04164Y04285*
X04164Y04284*
X04163Y04283*
X04163Y04283*
X04162Y04283*
X04162Y04283*
X04162Y04282*
X04161Y04281*
X04161Y04281*
X04161Y0428*
X0416Y0428*
X0416Y04279*
X0416Y04279*
Y04279*
X0416Y04278*
X0416Y04277*
X0416Y04276*
X0416Y04275*
Y04274*
X0416Y04274*
Y04269*
X04186Y04274*
Y0428*
X04185Y04281*
X04185Y04282*
X04185Y04282*
X04185Y04283*
X04185Y04283*
X04185Y04283*
Y04283*
X04185Y04284*
X04184Y04285*
X04184Y04285*
X04183Y04286*
X04183Y04286*
X04183Y04287*
X04182Y04287*
X04182Y04287*
X04181Y04287*
X0418Y04288*
X04179Y04288*
X04178Y04288*
X04178Y04288*
X04177*
X04177Y04288*
G37*
%LNpcb4-3*%
%LPD*%
G54D14*
X03993Y05757D02*
D01*
X03993Y05757*
X03993Y05758*
X03993Y05758*
X03993Y05758*
X03993Y05759*
X03993Y05759*
X03993Y05759*
X03992Y0576*
X03992Y0576*
X03992Y0576*
X03992Y0576*
X03992Y05761*
X03991Y05761*
X03991Y05761*
X03991Y05761*
X0399Y05761*
X0399Y05762*
X0399Y05762*
X03989Y05762*
X03989Y05762*
X03989Y05762*
X03988Y05762*
X03988*
X03988Y05762*
X03987Y05762*
X03987Y05762*
X03987Y05762*
X03986Y05762*
X03986Y05761*
X03986Y05761*
X03985Y05761*
X03985Y05761*
X03985Y05761*
X03985Y0576*
X03984Y0576*
X03984Y0576*
X03984Y0576*
X03984Y05759*
X03984Y05759*
X03984Y05759*
X03984Y05758*
X03983Y05758*
X03983Y05758*
X03983Y05757*
X03983Y05757*
X03983Y05757*
X03983Y05756*
X03983Y05756*
X03984Y05756*
X03984Y05755*
X03984Y05755*
X03984Y05755*
X03984Y05754*
X03984Y05754*
X03984Y05754*
X03985Y05754*
X03985Y05753*
X03985Y05753*
X03985Y05753*
X03986Y05753*
X03986Y05753*
X03986Y05752*
X03987Y05752*
X03987Y05752*
X03987Y05752*
X03988Y05752*
X03988Y05752*
X03988*
X03989Y05752*
X03989Y05752*
X03989Y05752*
X0399Y05752*
X0399Y05752*
X0399Y05753*
X03991Y05753*
X03991Y05753*
X03991Y05753*
X03992Y05753*
X03992Y05754*
X03992Y05754*
X03992Y05754*
X03992Y05754*
X03993Y05755*
X03993Y05755*
X03993Y05755*
X03993Y05756*
X03993Y05756*
X03993Y05756*
X03993Y05757*
X03993Y05757*
X05493D02*
D01*
X05493Y05757*
X05493Y05758*
X05493Y05758*
X05493Y05758*
X05493Y05759*
X05493Y05759*
X05493Y05759*
X05492Y0576*
X05492Y0576*
X05492Y0576*
X05492Y0576*
X05492Y05761*
X05491Y05761*
X05491Y05761*
X05491Y05761*
X0549Y05761*
X0549Y05762*
X0549Y05762*
X05489Y05762*
X05489Y05762*
X05489Y05762*
X05488Y05762*
X05488*
X05488Y05762*
X05487Y05762*
X05487Y05762*
X05487Y05762*
X05486Y05762*
X05486Y05761*
X05486Y05761*
X05485Y05761*
X05485Y05761*
X05485Y05761*
X05485Y0576*
X05484Y0576*
X05484Y0576*
X05484Y0576*
X05484Y05759*
X05484Y05759*
X05484Y05759*
X05484Y05758*
X05483Y05758*
X05483Y05758*
X05483Y05757*
X05483Y05757*
X05483Y05757*
X05483Y05756*
X05483Y05756*
X05484Y05756*
X05484Y05755*
X05484Y05755*
X05484Y05755*
X05484Y05754*
X05484Y05754*
X05484Y05754*
X05485Y05754*
X05485Y05753*
X05485Y05753*
X05485Y05753*
X05486Y05753*
X05486Y05753*
X05486Y05752*
X05487Y05752*
X05487Y05752*
X05487Y05752*
X05488Y05752*
X05488Y05752*
X05488*
X05489Y05752*
X05489Y05752*
X05489Y05752*
X0549Y05752*
X0549Y05752*
X0549Y05753*
X05491Y05753*
X05491Y05753*
X05491Y05753*
X05492Y05753*
X05492Y05754*
X05492Y05754*
X05492Y05754*
X05492Y05754*
X05493Y05755*
X05493Y05755*
X05493Y05755*
X05493Y05756*
X05493Y05756*
X05493Y05756*
X05493Y05757*
X05493Y05757*
X06993D02*
D01*
X06993Y05757*
X06993Y05758*
X06993Y05758*
X06993Y05758*
X06993Y05759*
X06993Y05759*
X06993Y05759*
X06992Y0576*
X06992Y0576*
X06992Y0576*
X06992Y0576*
X06992Y05761*
X06991Y05761*
X06991Y05761*
X06991Y05761*
X0699Y05761*
X0699Y05762*
X0699Y05762*
X06989Y05762*
X06989Y05762*
X06989Y05762*
X06988Y05762*
X06988*
X06988Y05762*
X06987Y05762*
X06987Y05762*
X06987Y05762*
X06986Y05762*
X06986Y05761*
X06986Y05761*
X06985Y05761*
X06985Y05761*
X06985Y05761*
X06985Y0576*
X06984Y0576*
X06984Y0576*
X06984Y0576*
X06984Y05759*
X06984Y05759*
X06984Y05759*
X06984Y05758*
X06983Y05758*
X06983Y05758*
X06983Y05757*
X06983Y05757*
X06983Y05757*
X06983Y05756*
X06983Y05756*
X06984Y05756*
X06984Y05755*
X06984Y05755*
X06984Y05755*
X06984Y05754*
X06984Y05754*
X06984Y05754*
X06985Y05754*
X06985Y05753*
X06985Y05753*
X06985Y05753*
X06986Y05753*
X06986Y05753*
X06986Y05752*
X06987Y05752*
X06987Y05752*
X06987Y05752*
X06988Y05752*
X06988Y05752*
X06988*
X06989Y05752*
X06989Y05752*
X06989Y05752*
X0699Y05752*
X0699Y05752*
X0699Y05753*
X06991Y05753*
X06991Y05753*
X06991Y05753*
X06992Y05753*
X06992Y05754*
X06992Y05754*
X06992Y05754*
X06992Y05754*
X06993Y05755*
X06993Y05755*
X06993Y05755*
X06993Y05756*
X06993Y05756*
X06993Y05756*
X06993Y05757*
X06993Y05757*
G54D41*
X04044Y05613D02*
X04075D01*
X04044D02*
Y056D01*
X04045Y05595*
X04047Y05594*
X0405Y05592*
X04053*
X04056Y05594*
X04057Y05595*
X04059Y056*
Y05613*
Y05603D02*
X04075Y05592D01*
X0405Y05585D02*
X04048Y05582D01*
X04044Y05577*
X04075*
X04044Y05559D02*
Y05542D01*
X04056Y05551*
Y05547*
X04057Y05544*
X04059Y05542*
X04063Y05541*
X04066*
X04071Y05542*
X04074Y05545*
X04075Y0555*
Y05554*
X04074Y05559*
X04072Y0556*
X04069Y05562*
X03835Y05631D02*
X03832Y05632D01*
X03829Y05635*
X03828Y05638*
Y05644*
X03829Y05647*
X03832Y0565*
X03835Y05652*
X0384Y05653*
X03847*
X03852Y05652*
X03855Y0565*
X03858Y05647*
X03859Y05644*
Y05638*
X03858Y05635*
X03855Y05632*
X03852Y05631*
X03834Y05622D02*
X03832Y05619D01*
X03828Y05614*
X03859*
X03828Y05578D02*
X03859Y05593D01*
X03828Y05599D02*
Y05578D01*
X03897Y05746D02*
Y05723D01*
X03896Y05719*
X03893Y05716*
X03888Y05714*
X03885*
X03881Y05716*
X03878Y05719*
X03876Y05723*
Y05746*
X03853D02*
X03868Y05725D01*
X03845*
X03853Y05746D02*
Y05714D01*
X05544Y05613D02*
X05575D01*
X05544D02*
Y056D01*
X05545Y05595*
X05547Y05594*
X0555Y05592*
X05553*
X05556Y05594*
X05557Y05595*
X05559Y056*
Y05613*
Y05603D02*
X05575Y05592D01*
X0555Y05585D02*
X05548Y05582D01*
X05544Y05577*
X05575*
X05544Y05559D02*
Y05542D01*
X05556Y05551*
Y05547*
X05557Y05544*
X05559Y05542*
X05563Y05541*
X05566*
X05571Y05542*
X05574Y05545*
X05575Y0555*
Y05554*
X05574Y05559*
X05572Y0556*
X05569Y05562*
X05335Y05631D02*
X05332Y05632D01*
X05329Y05635*
X05328Y05638*
Y05644*
X05329Y05647*
X05332Y0565*
X05335Y05652*
X0534Y05653*
X05347*
X05352Y05652*
X05355Y0565*
X05358Y05647*
X05359Y05644*
Y05638*
X05358Y05635*
X05355Y05632*
X05352Y05631*
X05334Y05622D02*
X05332Y05619D01*
X05328Y05614*
X05359*
X05328Y05578D02*
X05359Y05593D01*
X05328Y05599D02*
Y05578D01*
X05397Y05746D02*
Y05723D01*
X05396Y05719*
X05393Y05716*
X05388Y05714*
X05385*
X05381Y05716*
X05378Y05719*
X05376Y05723*
Y05746*
X05353D02*
X05368Y05725D01*
X05345*
X05353Y05746D02*
Y05714D01*
X07044Y05613D02*
X07075D01*
X07044D02*
Y056D01*
X07045Y05595*
X07047Y05594*
X0705Y05592*
X07053*
X07056Y05594*
X07057Y05595*
X07059Y056*
Y05613*
Y05603D02*
X07075Y05592D01*
X0705Y05585D02*
X07048Y05582D01*
X07044Y05577*
X07075*
X07044Y05559D02*
Y05542D01*
X07056Y05551*
Y05547*
X07057Y05544*
X07059Y05542*
X07063Y05541*
X07066*
X07071Y05542*
X07074Y05545*
X07075Y0555*
Y05554*
X07074Y05559*
X07072Y0556*
X07069Y05562*
X06835Y05631D02*
X06832Y05632D01*
X06829Y05635*
X06828Y05638*
Y05644*
X06829Y05647*
X06832Y0565*
X06835Y05652*
X0684Y05653*
X06847*
X06852Y05652*
X06855Y0565*
X06858Y05647*
X06859Y05644*
Y05638*
X06858Y05635*
X06855Y05632*
X06852Y05631*
X06834Y05622D02*
X06832Y05619D01*
X06828Y05614*
X06859*
X06828Y05578D02*
X06859Y05593D01*
X06828Y05599D02*
Y05578D01*
X06897Y05746D02*
Y05723D01*
X06896Y05719*
X06893Y05716*
X06888Y05714*
X06885*
X06881Y05716*
X06878Y05719*
X06876Y05723*
Y05746*
X06853D02*
X06868Y05725D01*
X06845*
X06853Y05746D02*
Y05714D01*
G54D45*
X06829Y05876D02*
D01*
X0685Y05869*
X06871Y05863*
X06893Y05859*
X06915Y05856*
X06936Y05855*
X06958Y05855*
X0698Y05857*
X07002Y0586*
X07024Y05865*
X07045Y05871*
X07063Y05878*
X0533Y05876D02*
D01*
X0535Y05869*
X05371Y05863*
X05393Y05859*
X05415Y05856*
X05437Y05854*
X05459Y05855*
X05481Y05856*
X05502Y0586*
X05524Y05864*
X05545Y05871*
X05563Y05877*
X03829Y05876D02*
D01*
X0385Y05869*
X03871Y05863*
X03893Y05859*
X03915Y05856*
X03937Y05855*
X03959Y05855*
X0398Y05857*
X04002Y0586*
X04024Y05865*
X04045Y05871*
X04063Y05878*
X05329Y05876D02*
D01*
X0535Y05869*
X05371Y05863*
X05393Y05859*
X05415Y05856*
X05437Y05855*
X05459Y05855*
X0548Y05857*
X05502Y0586*
X05524Y05865*
X05545Y05871*
X05563Y05878*
X06829Y05876D02*
D01*
X0685Y05869*
X06871Y05863*
X06893Y05859*
X06915Y05856*
X06937Y05855*
X06959Y05855*
X0698Y05857*
X07002Y0586*
X07024Y05865*
X07045Y05871*
X07063Y05878*
G54D47*
X03919Y05745D02*
X03959D01*
X03919Y05714D02*
Y05745D01*
Y05627D02*
X03959D01*
X03919D02*
Y05659D01*
X05419Y05745D02*
X05459D01*
X05419Y05714D02*
Y05745D01*
Y05627D02*
X05459D01*
X05419D02*
Y05659D01*
X06919Y05745D02*
X06959D01*
X06919Y05714D02*
Y05745D01*
Y05627D02*
X06959D01*
X06919D02*
Y05659D01*
M02*