%FSTAX23Y23*%
%MOIN*%
%SFA1B1*%

%IPPOS*%
%AMD18*
4,1,8,-0.007400,0.017300,-0.007400,-0.017300,0.000000,-0.024700,0.000000,-0.024700,0.007400,-0.017300,0.007400,0.017300,0.000000,0.024700,0.000000,0.024700,-0.007400,0.017300,0.0*
1,1,0.014795,0.000000,0.017300*
1,1,0.014795,0.000000,-0.017300*
1,1,0.014795,0.000000,-0.017300*
1,1,0.014795,0.000000,0.017300*
%
%ADD15R,0.164567X0.164567*%
%ADD16O,0.011811X0.027559*%
%ADD17O,0.027559X0.011811*%
G04~CAMADD=18~8~0.0~0.0~494.9~148.0~74.0~0.0~15~0.0~0.0~0.0~0.0~0~0.0~0.0~0.0~0.0~0~0.0~0.0~0.0~90.0~148.0~494.0*
%ADD18D18*%
%ADD19R,0.014795X0.049492*%
%ADD20R,0.025591X0.027559*%
%ADD21R,0.027559X0.025591*%
%ADD22R,0.029134X0.030709*%
%ADD23R,0.029527X0.023622*%
%ADD24R,0.102362X0.053150*%
%ADD25R,0.052165X0.032480*%
%ADD28R,0.031496X0.031496*%
%ADD29R,0.030709X0.029134*%
%ADD30R,0.032480X0.052165*%
%ADD31R,0.011811X0.024803*%
%ADD32R,0.024803X0.011811*%
%ADD33R,0.072835X0.072835*%
%ADD49R,0.027559X0.013780*%
%ADD50R,0.059842X0.078740*%
%LNpcb4-1*%
%LPD*%
G54D15*
X04014Y05162D03*
X05514D03*
X07014D03*
G54D16*
X03937Y05281D03*
X03963D03*
X03989D03*
X04014D03*
X0404D03*
X04065D03*
X04091D03*
Y05044D03*
X04065D03*
X0404D03*
X04014D03*
X03989D03*
X03963D03*
X03937D03*
X05437Y05281D03*
X05463D03*
X05489D03*
X05514D03*
X0554D03*
X05565D03*
X05591D03*
Y05044D03*
X05565D03*
X0554D03*
X05514D03*
X05489D03*
X05463D03*
X05437D03*
X06937Y05281D03*
X06963D03*
X06989D03*
X07014D03*
X0704D03*
X07065D03*
X07091D03*
Y05044D03*
X07065D03*
X0704D03*
X07014D03*
X06989D03*
X06963D03*
X06937D03*
G54D17*
X04132Y05239D03*
Y05214D03*
Y05188D03*
Y05162D03*
Y05137D03*
Y05111D03*
Y05086D03*
X03896D03*
Y05111D03*
Y05137D03*
Y05162D03*
Y05188D03*
Y05214D03*
Y05239D03*
X05632D03*
Y05214D03*
Y05188D03*
Y05162D03*
Y05137D03*
Y05111D03*
Y05086D03*
X05396D03*
Y05111D03*
Y05137D03*
Y05162D03*
Y05188D03*
Y05214D03*
Y05239D03*
X07132D03*
Y05214D03*
Y05188D03*
Y05162D03*
Y05137D03*
Y05111D03*
Y05086D03*
X06896D03*
Y05111D03*
Y05137D03*
Y05162D03*
Y05188D03*
Y05214D03*
Y05239D03*
G54D18*
X04155Y04492D03*
X04175Y04445D03*
X05655Y04492D03*
X05675Y04445D03*
X07155Y04492D03*
X07175Y04445D03*
G54D19*
X04135Y04445D03*
X05635D03*
X07135D03*
G54D20*
X03857Y04942D03*
Y04979D03*
X03893Y04714D03*
Y04676D03*
X03845Y04675D03*
Y04713D03*
X04128Y04537D03*
Y04575D03*
X03904Y05352D03*
Y05389D03*
X0395D03*
Y05352D03*
X03757Y05353D03*
Y0539D03*
X03805Y05389D03*
Y05352D03*
X05357Y04942D03*
Y04979D03*
X05393Y04714D03*
Y04676D03*
X05345Y04675D03*
Y04713D03*
X05628Y04537D03*
Y04575D03*
X05404Y05352D03*
Y05389D03*
X0545D03*
Y05352D03*
X05257Y05353D03*
Y0539D03*
X05305Y05389D03*
Y05352D03*
X06857Y04942D03*
Y04979D03*
X06893Y04714D03*
Y04676D03*
X06845Y04675D03*
Y04713D03*
X07128Y04537D03*
Y04575D03*
X06904Y05352D03*
Y05389D03*
X0695D03*
Y05352D03*
X06757Y05353D03*
Y0539D03*
X06805Y05389D03*
Y05352D03*
G54D21*
X04175Y04344D03*
X04138D03*
X04175Y04385D03*
X04138D03*
X03944Y0472D03*
Y04666D03*
X03797Y05245D03*
X03835D03*
X03835Y05197D03*
X03797D03*
X0387Y05574D03*
X03833D03*
X0387Y0562D03*
X03833D03*
X05675Y04344D03*
X05638D03*
X05675Y04385D03*
X05638D03*
X05444Y0472D03*
Y04666D03*
X05297Y05245D03*
X05335D03*
X05335Y05197D03*
X05297D03*
X0537Y05574D03*
X05333D03*
X0537Y0562D03*
X05333D03*
X07175Y04344D03*
X07138D03*
X07175Y04385D03*
X07138D03*
X06944Y0472D03*
Y04666D03*
X06797Y05245D03*
X06835D03*
X06835Y05197D03*
X06797D03*
X0687Y05574D03*
X06833D03*
X0687Y0562D03*
X06833D03*
G54D22*
X03741Y04493D03*
Y04455D03*
X04144Y04693D03*
Y04654D03*
X04097Y04693D03*
Y04654D03*
X03855Y05352D03*
Y05391D03*
X03998Y05353D03*
Y05391D03*
X04048Y05353D03*
Y05391D03*
X041Y05353D03*
Y05391D03*
X05241Y04493D03*
Y04455D03*
X05644Y04693D03*
Y04654D03*
X05597Y04693D03*
Y04654D03*
X05355Y05352D03*
Y05391D03*
X05498Y05353D03*
Y05391D03*
X05548Y05353D03*
Y05391D03*
X056Y05353D03*
Y05391D03*
X06741Y04493D03*
Y04455D03*
X07144Y04693D03*
Y04654D03*
X07097Y04693D03*
Y04654D03*
X06855Y05352D03*
Y05391D03*
X06998Y05353D03*
Y05391D03*
X07048Y05353D03*
Y05391D03*
X071Y05353D03*
Y05391D03*
G54D23*
X03991Y0454D03*
X04078Y04577D03*
Y04502D03*
X05491Y0454D03*
X05578Y04577D03*
Y04502D03*
X06991Y0454D03*
X07078Y04577D03*
Y04502D03*
G54D24*
X03909Y04601D03*
Y04504D03*
X05409Y04601D03*
Y04504D03*
X06909Y04601D03*
Y04504D03*
G54D25*
X04018Y04695D03*
Y04632D03*
X03924Y04865D03*
Y04802D03*
X05518Y04695D03*
Y04632D03*
X05424Y04865D03*
Y04802D03*
X07018Y04695D03*
Y04632D03*
X06924Y04865D03*
Y04802D03*
G54D28*
X03844Y05087D03*
X03785D03*
X03845Y05141D03*
X03786D03*
X05344Y05087D03*
X05285D03*
X05345Y05141D03*
X05286D03*
X06844Y05087D03*
X06785D03*
X06845Y05141D03*
X06786D03*
G54D29*
X03835Y05294D03*
X03796D03*
X03982Y0499D03*
X03944D03*
X03982Y04938D03*
X03944D03*
X041Y05521D03*
X04138D03*
X041Y05575D03*
X04138D03*
X03868Y05526D03*
X0383D03*
X0387Y05668D03*
X03831D03*
X05335Y05294D03*
X05296D03*
X05482Y0499D03*
X05444D03*
X05482Y04938D03*
X05444D03*
X056Y05521D03*
X05638D03*
X056Y05575D03*
X05638D03*
X05368Y05526D03*
X0533D03*
X0537Y05668D03*
X05331D03*
X06835Y05294D03*
X06796D03*
X06982Y0499D03*
X06944D03*
X06982Y04938D03*
X06944D03*
X071Y05521D03*
X07138D03*
X071Y05575D03*
X07138D03*
X06868Y05526D03*
X0683D03*
X0687Y05668D03*
X06831D03*
G54D30*
X04164Y04958D03*
X04101D03*
X05664D03*
X05601D03*
X07164D03*
X07101D03*
G54D31*
X03955Y0554D03*
X03975D03*
X03994D03*
X04014D03*
Y05649D03*
X03994D03*
X03975D03*
X03955D03*
X05455Y0554D03*
X05475D03*
X05494D03*
X05514D03*
Y05649D03*
X05494D03*
X05475D03*
X05455D03*
X06955Y0554D03*
X06975D03*
X06994D03*
X07014D03*
Y05649D03*
X06994D03*
X06975D03*
X06955D03*
G54D32*
X04039Y05565D03*
Y05585D03*
Y05604D03*
Y05624D03*
X0393D03*
Y05604D03*
Y05585D03*
Y05565D03*
X05539D03*
Y05585D03*
Y05604D03*
Y05624D03*
X0543D03*
Y05604D03*
Y05585D03*
Y05565D03*
X07039D03*
Y05585D03*
Y05604D03*
Y05624D03*
X0693D03*
Y05604D03*
Y05585D03*
Y05565D03*
G54D33*
X03985Y05595D03*
X05485D03*
X06985D03*
G54D49*
X04133Y04789D03*
Y04827D03*
X04133Y04864D03*
X04011D03*
X04011Y04827D03*
Y04789D03*
X05633D03*
Y04827D03*
X05633Y04864D03*
X05511D03*
X05511Y04827D03*
Y04789D03*
X07133D03*
Y04827D03*
X07133Y04864D03*
X07011D03*
X07011Y04827D03*
Y04789D03*
G54D50*
X04072Y04827D03*
X05572D03*
X07072D03*
M02*