%FSTAX23Y23*%
%MOIN*%
%SFA1B1*%

%IPPOS*%
%ADD10C,0.003937*%
%LNpcb4-1*%
%LPD*%
G54D10*
X07125Y06563D02*
D01*
X07097Y06575*
X07068Y06584*
X07039Y06592*
X07009Y06598*
X06979Y06601*
X06949Y06602*
X06919Y06602*
X06889Y06599*
X06859Y06594*
X0683Y06587*
X06801Y06578*
X06773Y06567*
X06764Y06563*
X06823Y05901D02*
D01*
X06824Y05902*
X06825Y05904*
X06826Y05906*
X06826Y05908*
X06827Y0591*
X06827Y05912*
X06827Y05914*
Y05916*
X06827Y05918*
X06827Y05921*
X06826Y05923*
X06826Y05925*
X06825Y05926*
X06824Y05928*
X06823Y0593*
X06822Y05932*
X06821Y05934*
X0682Y05935*
X06818Y05937*
X06817Y05938*
X06815Y05939*
X06813Y0594*
X06812Y05941*
X0681Y05942*
X06808Y05943*
X06806Y05944*
X06804Y05944*
X06802Y05945*
X068Y05945*
X06798Y05945*
X06796Y05945*
X06794Y05945*
X06792Y05944*
X0679Y05944*
X06788Y05943*
X06786Y05942*
X06784Y05941*
X06782Y0594*
X0678Y05939*
X06779Y05938*
X06777Y05937*
X06776Y05935*
X06774Y05934*
X06773Y05932*
X06772Y0593*
X06513Y06129D02*
D01*
X06517Y06099*
X06523Y06069*
X06531Y0604*
X06541Y06012*
X06553Y05984*
X06567Y05957*
X06583Y05931*
X066Y05906*
X06619Y05883*
X0664Y05861*
X06662Y05841*
X06686Y05822*
X06694Y05816*
X07195D02*
D01*
X07219Y05835*
X07242Y05855*
X07263Y05876*
X07283Y05899*
X07301Y05923*
X07317Y05949*
X07332Y05975*
X07344Y06003*
X07355Y06031*
X07363Y0606*
X0737Y0609*
X07375Y06119*
X07376Y06129*
X07238Y06199D02*
D01*
X07236Y06199*
X07234Y06199*
X07232Y06198*
X0723Y06198*
X07228Y06197*
X07226Y06196*
X07224Y06195*
X07222Y06194*
X0722Y06193*
X07219Y06192*
X07217Y06191*
X07216Y06189*
X07214Y06188*
X07213Y06186*
X07212Y06184*
X07211Y06182*
X0721Y0618*
X0721Y06179*
X07209Y06177*
X07209Y06175*
X07208Y06172*
X07208Y0617*
Y06168*
X07208Y06166*
X07209Y06164*
X07209Y06162*
X0721Y0616*
X0721Y06158*
X07211Y06156*
X07212Y06155*
X07213Y06153*
X07214Y06151*
X07216Y0615*
X07217Y06148*
X07219Y06147*
X0722Y06146*
X07222Y06144*
X07224Y06143*
X07226Y06142*
X07228Y06142*
X0723Y06141*
X07232Y06141*
X07234Y0614*
X07236Y0614*
X07238Y0614*
X07221Y05836D02*
D01*
X07243Y05856*
X07265Y05878*
X07284Y05901*
X07302Y05925*
X07318Y05951*
X07333Y05977*
X07345Y06005*
X07356Y06033*
X07364Y06062*
X0737Y06092*
X07375Y06122*
X07376Y06129*
X06694Y06523D02*
D01*
X0667Y06504*
X06647Y06484*
X06626Y06463*
X06606Y0644*
X06588Y06415*
X06572Y0639*
X06557Y06363*
X06545Y06336*
X06534Y06308*
X06525Y06279*
X06519Y06249*
X06514Y06219*
X06513Y0621*
X06651Y0614D02*
D01*
X06653Y0614*
X06655Y0614*
X06657Y06141*
X06659Y06141*
X06661Y06142*
X06663Y06142*
X06665Y06143*
X06667Y06144*
X06668Y06146*
X0667Y06147*
X06672Y06148*
X06673Y0615*
X06674Y06151*
X06676Y06153*
X06677Y06155*
X06678Y06156*
X06678Y06158*
X06679Y0616*
X0668Y06162*
X0668Y06164*
X0668Y06166*
X06681Y06168*
Y0617*
X0668Y06172*
X0668Y06175*
X0668Y06177*
X06679Y06179*
X06678Y0618*
X06678Y06182*
X06677Y06184*
X06676Y06186*
X06674Y06188*
X06673Y06189*
X06672Y06191*
X0667Y06192*
X06668Y06193*
X06667Y06194*
X06665Y06195*
X06663Y06196*
X06661Y06197*
X06659Y06198*
X06657Y06198*
X06655Y06199*
X06653Y06199*
X06651Y06199*
X06513Y06129D02*
D01*
X06517Y06099*
X06523Y06069*
X06531Y0604*
X06541Y06012*
X06553Y05984*
X06567Y05957*
X06583Y05931*
X066Y05906*
X06619Y05883*
X0664Y05861*
X06662Y05841*
X06668Y05836*
X06772Y06409D02*
D01*
X06773Y06407*
X06774Y06405*
X06776Y06404*
X06777Y06402*
X06779Y06401*
X0678Y064*
X06782Y06398*
X06784Y06397*
X06786Y06396*
X06788Y06396*
X0679Y06395*
X06792Y06395*
X06794Y06394*
X06796Y06394*
X06798Y06394*
X068Y06394*
X06802Y06394*
X06804Y06395*
X06806Y06395*
X06808Y06396*
X0681Y06396*
X06812Y06397*
X06813Y06398*
X06815Y064*
X06817Y06401*
X06818Y06402*
X0682Y06404*
X06821Y06405*
X06822Y06407*
X06823Y06409*
X06824Y0641*
X06825Y06412*
X06826Y06414*
X06826Y06416*
X06827Y06418*
X06827Y0642*
X06827Y06422*
Y06424*
X06827Y06427*
X06827Y06429*
X06826Y06431*
X06826Y06433*
X06825Y06434*
X06824Y06436*
X06823Y06438*
X07376Y0621D02*
D01*
X07372Y0624*
X07366Y0627*
X07358Y06299*
X07348Y06327*
X07336Y06355*
X07322Y06382*
X07306Y06408*
X07289Y06432*
X07269Y06456*
X07249Y06478*
X07226Y06498*
X07203Y06517*
X07195Y06523*
X07065Y06438D02*
D01*
X07064Y06436*
X07064Y06434*
X07063Y06433*
X07062Y06431*
X07062Y06429*
X07062Y06427*
X07062Y06424*
Y06422*
X07062Y0642*
X07062Y06418*
X07062Y06416*
X07063Y06414*
X07064Y06412*
X07064Y0641*
X07065Y06409*
X07067Y06407*
X07068Y06405*
X07069Y06404*
X07071Y06402*
X07072Y06401*
X07074Y064*
X07075Y06398*
X07077Y06397*
X07079Y06396*
X07081Y06396*
X07083Y06395*
X07085Y06395*
X07087Y06394*
X07089Y06394*
X07091Y06394*
X07093Y06394*
X07095Y06394*
X07097Y06395*
X07099Y06395*
X07101Y06396*
X07103Y06396*
X07105Y06397*
X07107Y06398*
X07108Y064*
X0711Y06401*
X07112Y06402*
X07113Y06404*
X07114Y06405*
X07116Y06407*
X07117Y06409*
Y0593D02*
D01*
X07116Y05932*
X07114Y05934*
X07113Y05935*
X07112Y05937*
X0711Y05938*
X07108Y05939*
X07107Y0594*
X07105Y05941*
X07103Y05942*
X07101Y05943*
X07099Y05944*
X07097Y05944*
X07095Y05945*
X07093Y05945*
X07091Y05945*
X07089Y05945*
X07087Y05945*
X07085Y05944*
X07083Y05944*
X07081Y05943*
X07079Y05942*
X07077Y05941*
X07075Y0594*
X07074Y05939*
X07072Y05938*
X07071Y05937*
X07069Y05935*
X07068Y05934*
X07067Y05932*
X07065Y0593*
X07064Y05928*
X07064Y05926*
X07063Y05925*
X07062Y05923*
X07062Y05921*
X07062Y05918*
X07062Y05916*
Y05914*
X07062Y05912*
X07062Y0591*
X07062Y05908*
X07063Y05906*
X07064Y05904*
X07064Y05902*
X07065Y05901*
X05617Y0593D02*
D01*
X05616Y05932*
X05615Y05933*
X05613Y05935*
X05612Y05937*
X0561Y05938*
X05609Y05939*
X05607Y0594*
X05605Y05941*
X05603Y05942*
X05601Y05943*
X05599Y05944*
X05597Y05944*
X05595Y05945*
X05593Y05945*
X05591Y05945*
X05589Y05945*
X05587Y05945*
X05585Y05944*
X05583Y05944*
X05581Y05943*
X05579Y05942*
X05577Y05941*
X05576Y0594*
X05574Y05939*
X05572Y05938*
X05571Y05937*
X05569Y05935*
X05568Y05933*
X05567Y05932*
X05566Y0593*
X05565Y05928*
X05564Y05926*
X05563Y05924*
X05563Y05922*
X05562Y0592*
X05562Y05918*
X05562Y05916*
Y05914*
X05562Y05912*
X05562Y0591*
X05563Y05908*
X05563Y05906*
X05564Y05904*
X05565Y05902*
X05566Y05901*
Y06438D02*
D01*
X05565Y06436*
X05564Y06434*
X05563Y06432*
X05563Y0643*
X05562Y06428*
X05562Y06426*
X05562Y06424*
Y06422*
X05562Y0642*
X05562Y06418*
X05563Y06416*
X05563Y06414*
X05564Y06412*
X05565Y0641*
X05566Y06409*
X05567Y06407*
X05568Y06405*
X05569Y06404*
X05571Y06402*
X05572Y06401*
X05574Y06399*
X05576Y06398*
X05577Y06397*
X05579Y06396*
X05581Y06396*
X05583Y06395*
X05585Y06394*
X05587Y06394*
X05589Y06394*
X05591Y06394*
X05593Y06394*
X05595Y06394*
X05597Y06394*
X05599Y06395*
X05601Y06396*
X05603Y06396*
X05605Y06397*
X05607Y06398*
X05609Y06399*
X0561Y06401*
X05612Y06402*
X05613Y06404*
X05615Y06405*
X05616Y06407*
X05617Y06409*
X05758Y06199D02*
D01*
X05755Y06221*
X05751Y06242*
X05745Y06263*
X05738Y06284*
X05729Y06304*
X05719Y06324*
X05708Y06343*
X05695Y0636*
X05681Y06377*
X05666Y06393*
X0565Y06408*
X05633Y06422*
X05627Y06426*
X05576Y06456D02*
D01*
X05556Y06464*
X05535Y06471*
X05513Y06477*
X05492Y06481*
X0547Y06483*
X05448Y06484*
X05426Y06484*
X05404Y06482*
X05383Y06478*
X05361Y06473*
X0534Y06466*
X0532Y06458*
X05313Y06456*
X05272Y06409D02*
D01*
X05274Y06407*
X05275Y06405*
X05276Y06404*
X05278Y06402*
X05279Y06401*
X05281Y06399*
X05282Y06398*
X05284Y06397*
X05286Y06396*
X05288Y06396*
X0529Y06395*
X05292Y06394*
X05294Y06394*
X05296Y06394*
X05298Y06394*
X053Y06394*
X05302Y06394*
X05304Y06394*
X05306Y06395*
X05308Y06396*
X0531Y06396*
X05312Y06397*
X05314Y06398*
X05315Y06399*
X05317Y06401*
X05319Y06402*
X0532Y06404*
X05321Y06405*
X05323Y06407*
X05324Y06409*
X05325Y0641*
X05325Y06412*
X05326Y06414*
X05327Y06416*
X05327Y06418*
X05327Y0642*
X05328Y06422*
Y06424*
X05327Y06426*
X05327Y06428*
X05327Y0643*
X05326Y06432*
X05325Y06434*
X05325Y06436*
X05324Y06438*
X05131Y0614D02*
D01*
X05134Y06118*
X05138Y06096*
X05144Y06075*
X05151Y06054*
X0516Y06034*
X0517Y06015*
X05182Y05996*
X05194Y05978*
X05208Y05961*
X05223Y05945*
X0524Y0593*
X05244Y05927*
X05151Y0614D02*
D01*
X05153Y0614*
X05155Y0614*
X05158Y0614*
X0516Y06141*
X05161Y06142*
X05163Y06142*
X05165Y06143*
X05167Y06144*
X05169Y06145*
X0517Y06147*
X05172Y06148*
X05173Y0615*
X05175Y06151*
X05176Y06153*
X05177Y06155*
X05178Y06156*
X05179Y06158*
X05179Y0616*
X0518Y06162*
X0518Y06164*
X05181Y06166*
X05181Y06168*
Y0617*
X05181Y06172*
X0518Y06174*
X0518Y06176*
X05179Y06178*
X05179Y0618*
X05178Y06182*
X05177Y06184*
X05176Y06186*
X05175Y06187*
X05173Y06189*
X05172Y06191*
X0517Y06192*
X05169Y06193*
X05167Y06194*
X05165Y06195*
X05163Y06196*
X05161Y06197*
X0516Y06198*
X05158Y06198*
X05155Y06199*
X05153Y06199*
X05151Y06199*
X05262Y06426D02*
D01*
X05245Y06413*
X05228Y06398*
X05213Y06383*
X05199Y06366*
X05185Y06348*
X05174Y0633*
X05163Y0631*
X05154Y0629*
X05146Y0627*
X0514Y06249*
X05135Y06227*
X05132Y06206*
X05131Y06199*
X05646Y05927D02*
D01*
X05662Y05942*
X05678Y05957*
X05692Y05974*
X05705Y05992*
X05717Y0601*
X05727Y0603*
X05736Y0605*
X05744Y0607*
X0575Y06091*
X05755Y06113*
X05758Y06135*
X05758Y0614*
X05738Y06199D02*
D01*
X05736Y06199*
X05734Y06199*
X05732Y06198*
X0573Y06198*
X05728Y06197*
X05726Y06196*
X05724Y06195*
X05722Y06194*
X05721Y06193*
X05719Y06192*
X05717Y06191*
X05716Y06189*
X05715Y06187*
X05714Y06186*
X05712Y06184*
X05711Y06182*
X05711Y0618*
X0571Y06178*
X05709Y06176*
X05709Y06174*
X05709Y06172*
X05708Y0617*
Y06168*
X05709Y06166*
X05709Y06164*
X05709Y06162*
X0571Y0616*
X05711Y06158*
X05711Y06156*
X05712Y06155*
X05714Y06153*
X05715Y06151*
X05716Y0615*
X05717Y06148*
X05719Y06147*
X05721Y06145*
X05722Y06144*
X05724Y06143*
X05726Y06142*
X05728Y06142*
X0573Y06141*
X05732Y0614*
X05734Y0614*
X05736Y0614*
X05738Y0614*
X05627Y05912D02*
D01*
X05645Y05926*
X05661Y0594*
X05676Y05956*
X05691Y05973*
X05704Y0599*
X05716Y06009*
X05726Y06028*
X05735Y06048*
X05743Y06069*
X05749Y0609*
X05754Y06111*
X05758Y06133*
X05758Y0614*
X05131D02*
D01*
X05134Y06118*
X05138Y06096*
X05144Y06075*
X05151Y06054*
X0516Y06034*
X0517Y06015*
X05182Y05996*
X05194Y05978*
X05208Y05961*
X05223Y05945*
X0524Y0593*
X05257Y05916*
X05262Y05912*
X05324Y05901D02*
D01*
X05325Y05902*
X05325Y05904*
X05326Y05906*
X05327Y05908*
X05327Y0591*
X05327Y05912*
X05328Y05914*
Y05916*
X05327Y05918*
X05327Y0592*
X05327Y05922*
X05326Y05924*
X05325Y05926*
X05325Y05928*
X05324Y0593*
X05323Y05932*
X05321Y05933*
X0532Y05935*
X05319Y05937*
X05317Y05938*
X05315Y05939*
X05314Y0594*
X05312Y05941*
X0531Y05942*
X05308Y05943*
X05306Y05944*
X05304Y05944*
X05302Y05945*
X053Y05945*
X05298Y05945*
X05296Y05945*
X05294Y05945*
X05292Y05944*
X0529Y05944*
X05288Y05943*
X05286Y05942*
X05284Y05941*
X05282Y0594*
X05281Y05939*
X05279Y05938*
X05278Y05937*
X05276Y05935*
X05275Y05933*
X05274Y05932*
X05272Y0593*
X07117Y0593D02*
D01*
X07116Y05932*
X07114Y05934*
X07113Y05935*
X07112Y05937*
X0711Y05938*
X07108Y05939*
X07107Y0594*
X07105Y05941*
X07103Y05942*
X07101Y05943*
X07099Y05944*
X07097Y05944*
X07095Y05945*
X07093Y05945*
X07091Y05945*
X07089Y05945*
X07087Y05945*
X07085Y05944*
X07083Y05944*
X07081Y05943*
X07079Y05942*
X07077Y05941*
X07075Y0594*
X07074Y05939*
X07072Y05938*
X07071Y05937*
X07069Y05935*
X07068Y05934*
X07067Y05932*
X07065Y0593*
X07064Y05928*
X07064Y05926*
X07063Y05925*
X07062Y05923*
X07062Y05921*
X07062Y05918*
X07062Y05916*
Y05914*
X07062Y05912*
X07062Y0591*
X07062Y05908*
X07063Y05906*
X07064Y05904*
X07064Y05902*
X07065Y05901*
Y06438D02*
D01*
X07064Y06436*
X07064Y06434*
X07063Y06433*
X07062Y06431*
X07062Y06429*
X07062Y06427*
X07062Y06424*
Y06422*
X07062Y0642*
X07062Y06418*
X07062Y06416*
X07063Y06414*
X07064Y06412*
X07064Y0641*
X07065Y06409*
X07067Y06407*
X07068Y06405*
X07069Y06404*
X07071Y06402*
X07072Y06401*
X07074Y064*
X07075Y06398*
X07077Y06397*
X07079Y06396*
X07081Y06396*
X07083Y06395*
X07085Y06395*
X07087Y06394*
X07089Y06394*
X07091Y06394*
X07093Y06394*
X07095Y06394*
X07097Y06395*
X07099Y06395*
X07101Y06396*
X07103Y06396*
X07105Y06397*
X07107Y06398*
X07108Y064*
X0711Y06401*
X07112Y06402*
X07113Y06404*
X07114Y06405*
X07116Y06407*
X07117Y06409*
X07117*
X07258Y06199D02*
D01*
X07255Y06221*
X07251Y06242*
X07245Y06263*
X07238Y06284*
X07229Y06304*
X07219Y06324*
X07207Y06343*
X07195Y06361*
X07181Y06378*
X07166Y06394*
X07149Y06408*
X07132Y06422*
X07127Y06426*
X07076Y06456D02*
D01*
X07055Y06464*
X07034Y06471*
X07013Y06477*
X06992Y06481*
X0697Y06483*
X06948Y06484*
X06926Y06484*
X06904Y06482*
X06882Y06478*
X06861Y06473*
X0684Y06467*
X06819Y06459*
X06813Y06456*
X06772Y06409D02*
D01*
X06773Y06407*
X06774Y06405*
X06776Y06404*
X06777Y06402*
X06779Y06401*
X0678Y064*
X06782Y06398*
X06784Y06397*
X06786Y06396*
X06788Y06396*
X0679Y06395*
X06792Y06395*
X06794Y06394*
X06796Y06394*
X06798Y06394*
X068Y06394*
X06802Y06394*
X06804Y06395*
X06806Y06395*
X06808Y06396*
X0681Y06396*
X06812Y06397*
X06813Y06398*
X06815Y064*
X06817Y06401*
X06818Y06402*
X0682Y06404*
X06821Y06405*
X06822Y06407*
X06823Y06409*
X06824Y0641*
X06825Y06412*
X06826Y06414*
X06826Y06416*
X06827Y06418*
X06827Y0642*
X06827Y06422*
Y06424*
X06827Y06427*
X06827Y06429*
X06826Y06431*
X06826Y06433*
X06825Y06434*
X06824Y06436*
X06823Y06438*
X06631Y0614D02*
D01*
X06634Y06118*
X06638Y06097*
X06644Y06075*
X06651Y06055*
X0666Y06034*
X0667Y06015*
X06681Y05996*
X06694Y05978*
X06708Y05961*
X06723Y05945*
X06739Y0593*
X06743Y05927*
X06651Y0614D02*
D01*
X06653Y0614*
X06655Y0614*
X06657Y06141*
X06659Y06141*
X06661Y06142*
X06663Y06142*
X06665Y06143*
X06667Y06144*
X06668Y06146*
X0667Y06147*
X06672Y06148*
X06673Y0615*
X06674Y06151*
X06676Y06153*
X06677Y06155*
X06678Y06156*
X06678Y06158*
X06679Y0616*
X0668Y06162*
X0668Y06164*
X0668Y06166*
X06681Y06168*
Y0617*
X0668Y06172*
X0668Y06175*
X0668Y06177*
X06679Y06179*
X06678Y0618*
X06678Y06182*
X06677Y06184*
X06676Y06186*
X06674Y06188*
X06673Y06189*
X06672Y06191*
X0667Y06192*
X06668Y06193*
X06667Y06194*
X06665Y06195*
X06663Y06196*
X06661Y06197*
X06659Y06198*
X06657Y06198*
X06655Y06199*
X06653Y06199*
X06651Y06199*
X06762Y06426D02*
D01*
X06745Y06413*
X06728Y06398*
X06713Y06383*
X06698Y06366*
X06685Y06348*
X06673Y0633*
X06663Y06311*
X06654Y06291*
X06646Y0627*
X0664Y06249*
X06635Y06227*
X06632Y06206*
X06631Y06199*
X07145Y05927D02*
D01*
X07162Y05942*
X07177Y05957*
X07191Y05974*
X07205Y05992*
X07216Y0601*
X07227Y0603*
X07236Y0605*
X07243Y0607*
X0725Y06092*
X07254Y06113*
X07257Y06135*
X07258Y0614*
X07238Y06199D02*
D01*
X07236Y06199*
X07234Y06199*
X07232Y06198*
X0723Y06198*
X07228Y06197*
X07226Y06196*
X07224Y06195*
X07222Y06194*
X0722Y06193*
X07219Y06192*
X07217Y06191*
X07216Y06189*
X07214Y06188*
X07213Y06186*
X07212Y06184*
X07211Y06182*
X0721Y0618*
X0721Y06179*
X07209Y06177*
X07209Y06175*
X07208Y06172*
X07208Y0617*
Y06168*
X07208Y06166*
X07209Y06164*
X07209Y06162*
X0721Y0616*
X0721Y06158*
X07211Y06156*
X07212Y06155*
X07213Y06153*
X07214Y06151*
X07216Y0615*
X07217Y06148*
X07219Y06147*
X0722Y06146*
X07222Y06144*
X07224Y06143*
X07226Y06142*
X07228Y06142*
X0723Y06141*
X07232Y06141*
X07234Y0614*
X07236Y0614*
X07238Y0614*
X07127Y05913D02*
D01*
X07144Y05926*
X07161Y0594*
X07176Y05956*
X0719Y05973*
X07204Y0599*
X07215Y06009*
X07226Y06028*
X07235Y06048*
X07243Y06069*
X07249Y0609*
X07254Y06111*
X07257Y06133*
X07258Y0614*
X06631D02*
D01*
X06634Y06118*
X06638Y06097*
X06644Y06075*
X06651Y06055*
X0666Y06034*
X0667Y06015*
X06681Y05996*
X06694Y05978*
X06708Y05961*
X06723Y05945*
X06739Y0593*
X06757Y05917*
X06762Y05913*
X06823Y05901D02*
D01*
X06824Y05902*
X06825Y05904*
X06826Y05906*
X06826Y05908*
X06827Y0591*
X06827Y05912*
X06827Y05914*
Y05916*
X06827Y05918*
X06827Y05921*
X06826Y05923*
X06826Y05925*
X06825Y05926*
X06824Y05928*
X06823Y0593*
X06822Y05932*
X06821Y05934*
X0682Y05935*
X06818Y05937*
X06817Y05938*
X06815Y05939*
X06813Y0594*
X06812Y05941*
X0681Y05942*
X06808Y05943*
X06806Y05944*
X06804Y05944*
X06802Y05945*
X068Y05945*
X06798Y05945*
X06796Y05945*
X06794Y05945*
X06792Y05944*
X0679Y05944*
X06788Y05943*
X06786Y05942*
X06784Y05941*
X06782Y0594*
X0678Y05939*
X06779Y05938*
X06777Y05937*
X06776Y05935*
X06774Y05934*
X06773Y05932*
X06772Y0593*
X06772*
X05617Y0593D02*
D01*
X05616Y05932*
X05615Y05933*
X05613Y05935*
X05612Y05937*
X0561Y05938*
X05609Y05939*
X05607Y0594*
X05605Y05941*
X05603Y05942*
X05601Y05943*
X05599Y05944*
X05597Y05944*
X05595Y05945*
X05593Y05945*
X05591Y05945*
X05589Y05945*
X05587Y05945*
X05585Y05944*
X05583Y05944*
X05581Y05943*
X05579Y05942*
X05577Y05941*
X05576Y0594*
X05574Y05939*
X05572Y05938*
X05571Y05937*
X05569Y05935*
X05568Y05933*
X05567Y05932*
X05566Y0593*
X05565Y05928*
X05564Y05926*
X05563Y05924*
X05563Y05922*
X05562Y0592*
X05562Y05918*
X05562Y05916*
Y05914*
X05562Y05912*
X05562Y0591*
X05563Y05908*
X05563Y05906*
X05564Y05904*
X05565Y05902*
X05566Y05901*
Y06438D02*
D01*
X05565Y06436*
X05564Y06434*
X05563Y06432*
X05563Y0643*
X05562Y06428*
X05562Y06426*
X05562Y06424*
Y06422*
X05562Y0642*
X05562Y06418*
X05563Y06416*
X05563Y06414*
X05564Y06412*
X05565Y0641*
X05566Y06409*
X05567Y06407*
X05568Y06405*
X05569Y06404*
X05571Y06402*
X05572Y06401*
X05574Y06399*
X05576Y06398*
X05577Y06397*
X05579Y06396*
X05581Y06396*
X05583Y06395*
X05585Y06394*
X05587Y06394*
X05589Y06394*
X05591Y06394*
X05593Y06394*
X05595Y06394*
X05597Y06394*
X05599Y06395*
X05601Y06396*
X05603Y06396*
X05605Y06397*
X05607Y06398*
X05609Y06399*
X0561Y06401*
X05612Y06402*
X05613Y06404*
X05615Y06405*
X05616Y06407*
X05617Y06409*
X05758Y06199D02*
D01*
X05755Y06221*
X05751Y06242*
X05745Y06263*
X05738Y06284*
X05729Y06304*
X05719Y06324*
X05708Y06343*
X05695Y0636*
X05681Y06377*
X05666Y06393*
X0565Y06408*
X05633Y06422*
X05627Y06426*
X05576Y06456D02*
D01*
X05556Y06464*
X05535Y06471*
X05513Y06477*
X05492Y06481*
X0547Y06483*
X05448Y06484*
X05426Y06484*
X05404Y06482*
X05383Y06478*
X05361Y06473*
X0534Y06466*
X0532Y06458*
X05313Y06456*
X05272Y06409D02*
D01*
X05274Y06407*
X05275Y06405*
X05276Y06404*
X05278Y06402*
X05279Y06401*
X05281Y06399*
X05282Y06398*
X05284Y06397*
X05286Y06396*
X05288Y06396*
X0529Y06395*
X05292Y06394*
X05294Y06394*
X05296Y06394*
X05298Y06394*
X053Y06394*
X05302Y06394*
X05304Y06394*
X05306Y06395*
X05308Y06396*
X0531Y06396*
X05312Y06397*
X05314Y06398*
X05315Y06399*
X05317Y06401*
X05319Y06402*
X0532Y06404*
X05321Y06405*
X05323Y06407*
X05324Y06409*
X05325Y0641*
X05325Y06412*
X05326Y06414*
X05327Y06416*
X05327Y06418*
X05327Y0642*
X05328Y06422*
Y06424*
X05327Y06426*
X05327Y06428*
X05327Y0643*
X05326Y06432*
X05325Y06434*
X05325Y06436*
X05324Y06438*
X05131Y0614D02*
D01*
X05134Y06118*
X05138Y06096*
X05144Y06075*
X05151Y06054*
X0516Y06034*
X0517Y06015*
X05182Y05996*
X05194Y05978*
X05208Y05961*
X05223Y05945*
X0524Y0593*
X05244Y05927*
X05151Y0614D02*
D01*
X05153Y0614*
X05155Y0614*
X05158Y0614*
X0516Y06141*
X05161Y06142*
X05163Y06142*
X05165Y06143*
X05167Y06144*
X05169Y06145*
X0517Y06147*
X05172Y06148*
X05173Y0615*
X05175Y06151*
X05176Y06153*
X05177Y06155*
X05178Y06156*
X05179Y06158*
X05179Y0616*
X0518Y06162*
X0518Y06164*
X05181Y06166*
X05181Y06168*
Y0617*
X05181Y06172*
X0518Y06174*
X0518Y06176*
X05179Y06178*
X05179Y0618*
X05178Y06182*
X05177Y06184*
X05176Y06186*
X05175Y06187*
X05173Y06189*
X05172Y06191*
X0517Y06192*
X05169Y06193*
X05167Y06194*
X05165Y06195*
X05163Y06196*
X05161Y06197*
X0516Y06198*
X05158Y06198*
X05155Y06199*
X05153Y06199*
X05151Y06199*
X05262Y06426D02*
D01*
X05245Y06413*
X05228Y06398*
X05213Y06383*
X05199Y06366*
X05185Y06348*
X05174Y0633*
X05163Y0631*
X05154Y0629*
X05146Y0627*
X0514Y06249*
X05135Y06227*
X05132Y06206*
X05131Y06199*
X05646Y05927D02*
D01*
X05662Y05942*
X05678Y05957*
X05692Y05974*
X05705Y05992*
X05717Y0601*
X05727Y0603*
X05736Y0605*
X05744Y0607*
X0575Y06091*
X05755Y06113*
X05758Y06135*
X05758Y0614*
X05738Y06199D02*
D01*
X05736Y06199*
X05734Y06199*
X05732Y06198*
X0573Y06198*
X05728Y06197*
X05726Y06196*
X05724Y06195*
X05722Y06194*
X05721Y06193*
X05719Y06192*
X05717Y06191*
X05716Y06189*
X05715Y06187*
X05714Y06186*
X05712Y06184*
X05711Y06182*
X05711Y0618*
X0571Y06178*
X05709Y06176*
X05709Y06174*
X05709Y06172*
X05708Y0617*
Y06168*
X05709Y06166*
X05709Y06164*
X05709Y06162*
X0571Y0616*
X05711Y06158*
X05711Y06156*
X05712Y06155*
X05714Y06153*
X05715Y06151*
X05716Y0615*
X05717Y06148*
X05719Y06147*
X05721Y06145*
X05722Y06144*
X05724Y06143*
X05726Y06142*
X05728Y06142*
X0573Y06141*
X05732Y0614*
X05734Y0614*
X05736Y0614*
X05738Y0614*
X05627Y05912D02*
D01*
X05645Y05926*
X05661Y0594*
X05676Y05956*
X05691Y05973*
X05704Y0599*
X05716Y06009*
X05726Y06028*
X05735Y06048*
X05743Y06069*
X05749Y0609*
X05754Y06111*
X05758Y06133*
X05758Y0614*
X05131D02*
D01*
X05134Y06118*
X05138Y06096*
X05144Y06075*
X05151Y06054*
X0516Y06034*
X0517Y06015*
X05182Y05996*
X05194Y05978*
X05208Y05961*
X05223Y05945*
X0524Y0593*
X05257Y05916*
X05262Y05912*
X05324Y05901D02*
D01*
X05325Y05902*
X05325Y05904*
X05326Y05906*
X05327Y05908*
X05327Y0591*
X05327Y05912*
X05328Y05914*
Y05916*
X05327Y05918*
X05327Y0592*
X05327Y05922*
X05326Y05924*
X05325Y05926*
X05325Y05928*
X05324Y0593*
X05323Y05932*
X05321Y05933*
X0532Y05935*
X05319Y05937*
X05317Y05938*
X05315Y05939*
X05314Y0594*
X05312Y05941*
X0531Y05942*
X05308Y05943*
X05306Y05944*
X05304Y05944*
X05302Y05945*
X053Y05945*
X05298Y05945*
X05296Y05945*
X05294Y05945*
X05292Y05944*
X0529Y05944*
X05288Y05943*
X05286Y05942*
X05284Y05941*
X05282Y0594*
X05281Y05939*
X05279Y05938*
X05278Y05937*
X05276Y05935*
X05275Y05933*
X05274Y05932*
X05272Y0593*
X03822Y059D02*
D01*
X03823Y05902*
X03824Y05904*
X03825Y05906*
X03825Y05908*
X03826Y0591*
X03826Y05912*
X03826Y05914*
Y05916*
X03826Y05918*
X03826Y0592*
X03825Y05922*
X03825Y05924*
X03824Y05926*
X03823Y05928*
X03822Y0593*
X03821Y05931*
X0382Y05933*
X03818Y05935*
X03817Y05936*
X03815Y05937*
X03814Y05939*
X03812Y0594*
X0381Y05941*
X03808Y05942*
X03807Y05943*
X03805Y05943*
X03803Y05944*
X03801Y05944*
X03799Y05944*
X03796Y05944*
X03794Y05944*
X03792Y05944*
X0379Y05944*
X03788Y05943*
X03786Y05943*
X03784Y05942*
X03783Y05941*
X03781Y0594*
X03779Y05939*
X03777Y05937*
X03776Y05936*
X03775Y05935*
X03773Y05933*
X03772Y05931*
X03771Y0593*
X0363Y06139D02*
D01*
X03632Y06117*
X03637Y06096*
X03643Y06075*
X0365Y06054*
X03659Y06034*
X03669Y06014*
X0368Y05996*
X03693Y05978*
X03707Y05961*
X03722Y05945*
X03738Y0593*
X03755Y05916*
X03761Y05912*
X04125D02*
D01*
X04143Y05925*
X04159Y0594*
X04175Y05956*
X04189Y05972*
X04202Y0599*
X04214Y06008*
X04225Y06028*
X04234Y06048*
X04242Y06068*
X04248Y06089*
X04253Y06111*
X04256Y06133*
X04257Y06139*
X04236Y06198D02*
D01*
X04234Y06198*
X04232Y06198*
X0423Y06198*
X04228Y06197*
X04226Y06197*
X04224Y06196*
X04223Y06195*
X04221Y06194*
X04219Y06193*
X04217Y06191*
X04216Y0619*
X04214Y06189*
X04213Y06187*
X04212Y06185*
X04211Y06184*
X0421Y06182*
X04209Y0618*
X04208Y06178*
X04208Y06176*
X04207Y06174*
X04207Y06172*
X04207Y0617*
Y06168*
X04207Y06166*
X04207Y06164*
X04208Y06162*
X04208Y0616*
X04209Y06158*
X0421Y06156*
X04211Y06154*
X04212Y06152*
X04213Y06151*
X04214Y06149*
X04216Y06148*
X04217Y06146*
X04219Y06145*
X04221Y06144*
X04223Y06143*
X04224Y06142*
X04226Y06141*
X04228Y0614*
X0423Y0614*
X04232Y0614*
X04234Y06139*
X04236Y06139*
X04144Y05926D02*
D01*
X04161Y05941*
X04176Y05957*
X0419Y05974*
X04203Y05991*
X04215Y0601*
X04225Y06029*
X04234Y06049*
X04242Y0607*
X04248Y06091*
X04253Y06112*
X04256Y06134*
X04257Y06139*
X03761Y06426D02*
D01*
X03743Y06412*
X03727Y06398*
X03711Y06382*
X03697Y06365*
X03684Y06348*
X03672Y06329*
X03662Y0631*
X03652Y0629*
X03645Y06269*
X03638Y06248*
X03634Y06227*
X0363Y06205*
X0363Y06198*
X0365Y06139D02*
D01*
X03652Y06139*
X03654Y0614*
X03656Y0614*
X03658Y0614*
X0366Y06141*
X03662Y06142*
X03664Y06143*
X03665Y06144*
X03667Y06145*
X03669Y06146*
X0367Y06148*
X03672Y06149*
X03673Y06151*
X03674Y06152*
X03675Y06154*
X03676Y06156*
X03677Y06158*
X03678Y0616*
X03678Y06162*
X03679Y06164*
X03679Y06166*
X03679Y06168*
Y0617*
X03679Y06172*
X03679Y06174*
X03678Y06176*
X03678Y06178*
X03677Y0618*
X03676Y06182*
X03675Y06184*
X03674Y06185*
X03673Y06187*
X03672Y06189*
X0367Y0619*
X03669Y06191*
X03667Y06193*
X03665Y06194*
X03664Y06195*
X03662Y06196*
X0366Y06197*
X03658Y06197*
X03656Y06198*
X03654Y06198*
X03652Y06198*
X0365Y06198*
X0363Y06139D02*
D01*
X03632Y06117*
X03637Y06096*
X03643Y06075*
X0365Y06054*
X03659Y06034*
X03669Y06014*
X0368Y05996*
X03693Y05978*
X03707Y05961*
X03722Y05945*
X03738Y0593*
X03742Y05926*
X03771Y06408D02*
D01*
X03772Y06406*
X03773Y06405*
X03775Y06403*
X03776Y06402*
X03777Y064*
X03779Y06399*
X03781Y06398*
X03783Y06397*
X03784Y06396*
X03786Y06395*
X03788Y06394*
X0379Y06394*
X03792Y06394*
X03794Y06393*
X03796Y06393*
X03799Y06393*
X03801Y06394*
X03803Y06394*
X03805Y06394*
X03807Y06395*
X03808Y06396*
X0381Y06397*
X03812Y06398*
X03814Y06399*
X03815Y064*
X03817Y06402*
X03818Y06403*
X0382Y06405*
X03821Y06406*
X03822Y06408*
X03823Y0641*
X03824Y06412*
X03825Y06414*
X03825Y06416*
X03826Y06418*
X03826Y0642*
X03826Y06422*
Y06424*
X03826Y06426*
X03826Y06428*
X03825Y0643*
X03825Y06432*
X03824Y06434*
X03823Y06436*
X03822Y06438*
X04074Y06455D02*
D01*
X04054Y06464*
X04033Y06471*
X04012Y06476*
X0399Y0648*
X03968Y06483*
X03947Y06484*
X03925Y06483*
X03903Y06481*
X03881Y06478*
X0386Y06473*
X03839Y06466*
X03818Y06458*
X03812Y06455*
X04257Y06198D02*
D01*
X04254Y0622*
X0425Y06242*
X04244Y06263*
X04236Y06284*
X04228Y06304*
X04218Y06323*
X04206Y06342*
X04193Y0636*
X04179Y06377*
X04164Y06393*
X04148Y06408*
X04131Y06422*
X04125Y06426*
X04064Y06438D02*
D01*
X04063Y06436*
X04062Y06434*
X04062Y06432*
X04061Y0643*
X04061Y06428*
X0406Y06426*
X0406Y06424*
Y06422*
X0406Y0642*
X04061Y06418*
X04061Y06416*
X04062Y06414*
X04062Y06412*
X04063Y0641*
X04064Y06408*
X04065Y06406*
X04067Y06405*
X04068Y06403*
X04069Y06402*
X04071Y064*
X04072Y06399*
X04074Y06398*
X04076Y06397*
X04078Y06396*
X0408Y06395*
X04082Y06394*
X04084Y06394*
X04086Y06394*
X04088Y06393*
X0409Y06393*
X04092Y06393*
X04094Y06394*
X04096Y06394*
X04098Y06394*
X041Y06395*
X04102Y06396*
X04104Y06397*
X04105Y06398*
X04107Y06399*
X04109Y064*
X0411Y06402*
X04112Y06403*
X04113Y06405*
X04114Y06406*
X04115Y06408*
Y0593D02*
D01*
X04114Y05931*
X04113Y05933*
X04112Y05935*
X0411Y05936*
X04109Y05937*
X04107Y05939*
X04105Y0594*
X04104Y05941*
X04102Y05942*
X041Y05943*
X04098Y05943*
X04096Y05944*
X04094Y05944*
X04092Y05944*
X0409Y05944*
X04088Y05944*
X04086Y05944*
X04084Y05944*
X04082Y05943*
X0408Y05943*
X04078Y05942*
X04076Y05941*
X04074Y0594*
X04072Y05939*
X04071Y05937*
X04069Y05936*
X04068Y05935*
X04067Y05933*
X04065Y05931*
X04064Y0593*
X04063Y05928*
X04062Y05926*
X04062Y05924*
X04061Y05922*
X04061Y0592*
X0406Y05918*
X0406Y05916*
Y05914*
X0406Y05912*
X04061Y0591*
X04061Y05908*
X04062Y05906*
X04062Y05904*
X04063Y05902*
X04064Y059*
X05713Y05645D02*
X06677D01*
X05713Y0424D02*
X06677D01*
X04212Y0424D02*
X05176D01*
X04212Y05645D02*
X05176D01*
X06694Y05816D02*
X06762Y05913D01*
X07127D02*
X07195Y05816D01*
X07258Y0614D02*
X07376Y06129D01*
X07258Y06199D02*
X07376Y0621D01*
X07127Y06426D02*
X07195Y06523D01*
X07076Y06456D02*
X07125Y06563D01*
X06764D02*
X06813Y06456D01*
X06694Y06523D02*
X06762Y06426D01*
X06513Y0621D02*
X06631Y06199D01*
X06513Y06129D02*
X06631Y0614D01*
X06762Y05913D02*
X06772Y0593D01*
X07238Y0614D02*
X07258D01*
X06631D02*
X06651D01*
X07238Y06199D02*
X07258D01*
X07238Y0614D02*
X07258D01*
X06631Y06199D02*
X06651D01*
X06631Y0614D02*
X06651D01*
X06762Y06426D02*
X06772Y06409D01*
X06813Y06456D02*
X06823Y06438D01*
X07115Y06407D02*
X07127Y06426D01*
X07065Y06437D02*
X07076Y06456D01*
X07117Y0593D02*
X07127Y05913D01*
X05617Y0593D02*
X05627Y05912D01*
X05565Y06437D02*
X05576Y06456D01*
X05616Y06406D02*
X05627Y06426D01*
X05313Y06456D02*
X05324Y06438D01*
X05262Y06426D02*
X05272Y06409D01*
X05131Y0614D02*
X05151D01*
X05131Y06199D02*
X05151D01*
X05738Y0614D02*
X05758D01*
X05738Y06199D02*
X05758D01*
X05131Y0614D02*
X05151D01*
X05738D02*
X05758D01*
X05262Y05912D02*
X05272Y0593D01*
X06676Y0424D02*
X07213D01*
Y05645D02*
Y0424D01*
X07065Y05901D02*
X07213Y05645D01*
X07117Y0593D02*
X07127Y05913D01*
X07065Y06437D02*
X07076Y06456D01*
X07115Y06407D02*
X07127Y06426D01*
X06813Y06456D02*
X06823Y06438D01*
X06762Y06426D02*
X06772Y06409D01*
X06631Y0614D02*
X06651D01*
X06631Y06199D02*
X06651D01*
X07238Y0614D02*
X07258D01*
X07238Y06199D02*
X07258D01*
X06631Y0614D02*
X06651D01*
X07238D02*
X07258D01*
X06762Y05913D02*
X06772Y0593D01*
X06676Y05645D02*
X06823Y05901D01*
X05176Y0424D02*
X05713D01*
X05566Y05901D02*
X05713Y05645D01*
X05617Y0593D02*
X05627Y05912D01*
X05565Y06437D02*
X05576Y06456D01*
X05616Y06406D02*
X05627Y06426D01*
X05313Y06456D02*
X05324Y06438D01*
X05262Y06426D02*
X05272Y06409D01*
X05131Y0614D02*
X05151D01*
X05131Y06199D02*
X05151D01*
X05738Y0614D02*
X05758D01*
X05738Y06199D02*
X05758D01*
X05131Y0614D02*
X05151D01*
X05738D02*
X05758D01*
X05262Y05912D02*
X05272Y0593D01*
X05176Y05645D02*
X05324Y05901D01*
X03675Y05645D02*
X03822Y059D01*
X03761Y05912D02*
X03771Y0593D01*
X04236Y06139D02*
X04257D01*
X0363D02*
X0365D01*
X04236Y06198D02*
X04257D01*
X04236Y06139D02*
X04257D01*
X0363Y06198D02*
X0365D01*
X0363Y06139D02*
X0365D01*
X03761Y06426D02*
X03771Y06408D01*
X03812Y06455D02*
X03822Y06438D01*
X04114Y06406D02*
X04125Y06426D01*
X04063Y06436D02*
X04074Y06455D01*
X03675Y05645D02*
Y0424D01*
X04115Y0593D02*
X04125Y05912D01*
X04064Y059D02*
X04212Y05645D01*
X03675Y0424D02*
X04212D01*
X04117Y0593D02*
D01*
X04116Y05932*
X04114Y05934*
X04113Y05935*
X04112Y05937*
X0411Y05938*
X04109Y05939*
X04107Y05941*
X04105Y05942*
X04103Y05942*
X04101Y05943*
X04099Y05944*
X04097Y05944*
X04095Y05945*
X04093Y05945*
X04091Y05945*
X04089Y05945*
X04087Y05945*
X04085Y05944*
X04083Y05944*
X04081Y05943*
X04079Y05942*
X04077Y05942*
X04076Y05941*
X04074Y05939*
X04072Y05938*
X04071Y05937*
X04069Y05935*
X04068Y05934*
X04067Y05932*
X04066Y0593*
X04065Y05928*
X04064Y05927*
X04063Y05925*
X04063Y05923*
X04062Y05921*
X04062Y05919*
X04062Y05917*
Y05914*
X04062Y05912*
X04062Y0591*
X04063Y05908*
X04063Y05906*
X04064Y05904*
X04065Y05903*
X04066Y05901*
Y06438D02*
D01*
X04065Y06436*
X04064Y06435*
X04063Y06433*
X04063Y06431*
X04062Y06429*
X04062Y06427*
X04062Y06425*
Y06422*
X04062Y0642*
X04062Y06418*
X04063Y06416*
X04063Y06414*
X04064Y06412*
X04065Y06411*
X04066Y06409*
X04067Y06407*
X04068Y06405*
X04069Y06404*
X04071Y06402*
X04072Y06401*
X04074Y064*
X04076Y06398*
X04077Y06397*
X04079Y06397*
X04081Y06396*
X04083Y06395*
X04085Y06395*
X04087Y06394*
X04089Y06394*
X04091Y06394*
X04093Y06394*
X04095Y06394*
X04097Y06395*
X04099Y06395*
X04101Y06396*
X04103Y06397*
X04105Y06397*
X04107Y06398*
X04109Y064*
X0411Y06401*
X04112Y06402*
X04113Y06404*
X04114Y06405*
X04116Y06407*
X04117Y06409*
X04258Y06199D02*
D01*
X04255Y06221*
X04251Y06242*
X04245Y06264*
X04238Y06284*
X04229Y06304*
X04219Y06324*
X04208Y06343*
X04195Y06361*
X04181Y06378*
X04166Y06394*
X0415Y06409*
X04132Y06422*
X04127Y06426*
X04076Y06456D02*
D01*
X04055Y06464*
X04035Y06471*
X04013Y06477*
X03992Y06481*
X0397Y06483*
X03948Y06484*
X03926Y06484*
X03904Y06482*
X03882Y06478*
X03861Y06473*
X0384Y06467*
X0382Y06459*
X03813Y06456*
X03772Y06409D02*
D01*
X03773Y06407*
X03775Y06405*
X03776Y06404*
X03777Y06402*
X03779Y06401*
X0378Y064*
X03782Y06398*
X03784Y06397*
X03786Y06397*
X03788Y06396*
X0379Y06395*
X03792Y06395*
X03794Y06394*
X03796Y06394*
X03798Y06394*
X038Y06394*
X03802Y06394*
X03804Y06395*
X03806Y06395*
X03808Y06396*
X0381Y06397*
X03812Y06397*
X03813Y06398*
X03815Y064*
X03817Y06401*
X03818Y06402*
X0382Y06404*
X03821Y06405*
X03822Y06407*
X03823Y06409*
X03824Y06411*
X03825Y06412*
X03826Y06414*
X03826Y06416*
X03827Y06418*
X03827Y0642*
X03827Y06422*
Y06425*
X03827Y06427*
X03827Y06429*
X03826Y06431*
X03826Y06433*
X03825Y06435*
X03824Y06436*
X03823Y06438*
X03631Y0614D02*
D01*
X03634Y06118*
X03638Y06097*
X03644Y06075*
X03651Y06055*
X0366Y06035*
X0367Y06015*
X03681Y05996*
X03694Y05978*
X03708Y05961*
X03723Y05945*
X03739Y0593*
X03743Y05927*
X03651Y0614D02*
D01*
X03653Y0614*
X03655Y0614*
X03657Y06141*
X03659Y06141*
X03661Y06142*
X03663Y06143*
X03665Y06143*
X03667Y06144*
X03669Y06146*
X0367Y06147*
X03672Y06148*
X03673Y0615*
X03674Y06151*
X03676Y06153*
X03677Y06155*
X03678Y06157*
X03679Y06158*
X03679Y0616*
X0368Y06162*
X0368Y06164*
X03681Y06166*
X03681Y06168*
Y06171*
X03681Y06173*
X0368Y06175*
X0368Y06177*
X03679Y06179*
X03679Y06181*
X03678Y06182*
X03677Y06184*
X03676Y06186*
X03674Y06188*
X03673Y06189*
X03672Y06191*
X0367Y06192*
X03669Y06193*
X03667Y06195*
X03665Y06196*
X03663Y06196*
X03661Y06197*
X03659Y06198*
X03657Y06198*
X03655Y06199*
X03653Y06199*
X03651Y06199*
X03762Y06426D02*
D01*
X03745Y06413*
X03728Y06398*
X03713Y06383*
X03698Y06366*
X03685Y06348*
X03673Y0633*
X03663Y06311*
X03654Y06291*
X03646Y0627*
X0364Y06249*
X03635Y06228*
X03632Y06206*
X03631Y06199*
X04146Y05927D02*
D01*
X04162Y05942*
X04177Y05957*
X04192Y05974*
X04205Y05992*
X04216Y06011*
X04227Y0603*
X04236Y0605*
X04244Y06071*
X0425Y06092*
X04254Y06113*
X04258Y06135*
X04258Y0614*
X04238Y06199D02*
D01*
X04236Y06199*
X04234Y06199*
X04232Y06198*
X0423Y06198*
X04228Y06197*
X04226Y06196*
X04224Y06196*
X04222Y06195*
X0422Y06193*
X04219Y06192*
X04217Y06191*
X04216Y06189*
X04215Y06188*
X04213Y06186*
X04212Y06184*
X04211Y06182*
X0421Y06181*
X0421Y06179*
X04209Y06177*
X04209Y06175*
X04208Y06173*
X04208Y06171*
Y06168*
X04208Y06166*
X04209Y06164*
X04209Y06162*
X0421Y0616*
X0421Y06158*
X04211Y06157*
X04212Y06155*
X04213Y06153*
X04215Y06151*
X04216Y0615*
X04217Y06148*
X04219Y06147*
X0422Y06146*
X04222Y06144*
X04224Y06143*
X04226Y06143*
X04228Y06142*
X0423Y06141*
X04232Y06141*
X04234Y0614*
X04236Y0614*
X04238Y0614*
X04127Y05913D02*
D01*
X04144Y05926*
X04161Y05941*
X04176Y05956*
X04191Y05973*
X04204Y05991*
X04216Y06009*
X04226Y06028*
X04235Y06048*
X04243Y06069*
X04249Y0609*
X04254Y06111*
X04257Y06133*
X04258Y0614*
X03631D02*
D01*
X03634Y06118*
X03638Y06097*
X03644Y06075*
X03651Y06055*
X0366Y06035*
X0367Y06015*
X03681Y05996*
X03694Y05978*
X03708Y05961*
X03723Y05945*
X03739Y0593*
X03757Y05917*
X03762Y05913*
X03823Y05901D02*
D01*
X03824Y05903*
X03825Y05904*
X03826Y05906*
X03826Y05908*
X03827Y0591*
X03827Y05912*
X03827Y05914*
Y05917*
X03827Y05919*
X03827Y05921*
X03826Y05923*
X03826Y05925*
X03825Y05927*
X03824Y05928*
X03823Y0593*
X03822Y05932*
X03821Y05934*
X0382Y05935*
X03818Y05937*
X03817Y05938*
X03815Y05939*
X03813Y05941*
X03812Y05942*
X0381Y05942*
X03808Y05943*
X03806Y05944*
X03804Y05944*
X03802Y05945*
X038Y05945*
X03798Y05945*
X03796Y05945*
X03794Y05945*
X03792Y05944*
X0379Y05944*
X03788Y05943*
X03786Y05942*
X03784Y05942*
X03782Y05941*
X0378Y05939*
X03779Y05938*
X03777Y05937*
X03776Y05935*
X03775Y05934*
X03773Y05932*
X03772Y0593*
X03676Y0424D02*
X04213D01*
Y05645D02*
Y0424D01*
X04066Y05901D02*
X04213Y05645D01*
X04117Y0593D02*
X04127Y05913D01*
X03676Y05645D02*
Y0424D01*
X04065Y06437D02*
X04076Y06456D01*
X04116Y06407D02*
X04127Y06426D01*
X03813Y06456D02*
X03823Y06438D01*
X03762Y06426D02*
X03772Y06409D01*
X03631Y0614D02*
X03651D01*
X03631Y06199D02*
X03651D01*
X04238Y0614D02*
X04258D01*
X04238Y06199D02*
X04258D01*
X03631Y0614D02*
X03651D01*
X04238D02*
X04258D01*
X03762Y05913D02*
X03772Y0593D01*
X03676Y05645D02*
X03823Y05901D01*
X04117Y04833D02*
Y04853D01*
X04113Y04857*
X04105*
X04101Y04853*
Y04833*
X04093Y04837D02*
X04089Y04833D01*
X04081*
X04077Y04837*
Y04841*
X04081Y04845*
X04085*
X04081*
X04077Y04849*
Y04853*
X04081Y04857*
X04089*
X04093Y04853*
X05617Y0593D02*
D01*
X05616Y05932*
X05614Y05934*
X05613Y05935*
X05612Y05937*
X0561Y05938*
X05609Y05939*
X05607Y05941*
X05605Y05942*
X05603Y05942*
X05601Y05943*
X05599Y05944*
X05597Y05944*
X05595Y05945*
X05593Y05945*
X05591Y05945*
X05589Y05945*
X05587Y05945*
X05585Y05944*
X05583Y05944*
X05581Y05943*
X05579Y05942*
X05577Y05942*
X05576Y05941*
X05574Y05939*
X05572Y05938*
X05571Y05937*
X05569Y05935*
X05568Y05934*
X05567Y05932*
X05566Y0593*
X05565Y05928*
X05564Y05927*
X05563Y05925*
X05563Y05923*
X05562Y05921*
X05562Y05919*
X05562Y05917*
Y05914*
X05562Y05912*
X05562Y0591*
X05563Y05908*
X05563Y05906*
X05564Y05904*
X05565Y05903*
X05566Y05901*
Y06438D02*
D01*
X05565Y06436*
X05564Y06435*
X05563Y06433*
X05563Y06431*
X05562Y06429*
X05562Y06427*
X05562Y06425*
Y06422*
X05562Y0642*
X05562Y06418*
X05563Y06416*
X05563Y06414*
X05564Y06412*
X05565Y06411*
X05566Y06409*
X05567Y06407*
X05568Y06405*
X05569Y06404*
X05571Y06402*
X05572Y06401*
X05574Y064*
X05576Y06398*
X05577Y06397*
X05579Y06397*
X05581Y06396*
X05583Y06395*
X05585Y06395*
X05587Y06394*
X05589Y06394*
X05591Y06394*
X05593Y06394*
X05595Y06394*
X05597Y06395*
X05599Y06395*
X05601Y06396*
X05603Y06397*
X05605Y06397*
X05607Y06398*
X05609Y064*
X0561Y06401*
X05612Y06402*
X05613Y06404*
X05614Y06405*
X05616Y06407*
X05617Y06409*
X05758Y06199D02*
D01*
X05755Y06221*
X05751Y06242*
X05745Y06264*
X05738Y06284*
X05729Y06304*
X05719Y06324*
X05708Y06343*
X05695Y06361*
X05681Y06378*
X05666Y06394*
X0565Y06409*
X05632Y06422*
X05627Y06426*
X05576Y06456D02*
D01*
X05555Y06464*
X05535Y06471*
X05513Y06477*
X05492Y06481*
X0547Y06483*
X05448Y06484*
X05426Y06484*
X05404Y06482*
X05382Y06478*
X05361Y06473*
X0534Y06467*
X0532Y06459*
X05313Y06456*
X05272Y06409D02*
D01*
X05273Y06407*
X05275Y06405*
X05276Y06404*
X05277Y06402*
X05279Y06401*
X0528Y064*
X05282Y06398*
X05284Y06397*
X05286Y06397*
X05288Y06396*
X0529Y06395*
X05292Y06395*
X05294Y06394*
X05296Y06394*
X05298Y06394*
X053Y06394*
X05302Y06394*
X05304Y06395*
X05306Y06395*
X05308Y06396*
X0531Y06397*
X05312Y06397*
X05313Y06398*
X05315Y064*
X05317Y06401*
X05318Y06402*
X0532Y06404*
X05321Y06405*
X05322Y06407*
X05323Y06409*
X05324Y06411*
X05325Y06412*
X05326Y06414*
X05326Y06416*
X05327Y06418*
X05327Y0642*
X05327Y06422*
Y06425*
X05327Y06427*
X05327Y06429*
X05326Y06431*
X05326Y06433*
X05325Y06435*
X05324Y06436*
X05323Y06438*
X05131Y0614D02*
D01*
X05134Y06118*
X05138Y06097*
X05144Y06075*
X05151Y06055*
X0516Y06035*
X0517Y06015*
X05181Y05996*
X05194Y05978*
X05208Y05961*
X05223Y05945*
X05239Y0593*
X05243Y05927*
X05151Y0614D02*
D01*
X05153Y0614*
X05155Y0614*
X05157Y06141*
X05159Y06141*
X05161Y06142*
X05163Y06143*
X05165Y06143*
X05167Y06144*
X05169Y06146*
X0517Y06147*
X05172Y06148*
X05173Y0615*
X05174Y06151*
X05176Y06153*
X05177Y06155*
X05178Y06157*
X05179Y06158*
X05179Y0616*
X0518Y06162*
X0518Y06164*
X05181Y06166*
X05181Y06168*
Y06171*
X05181Y06173*
X0518Y06175*
X0518Y06177*
X05179Y06179*
X05179Y06181*
X05178Y06182*
X05177Y06184*
X05176Y06186*
X05174Y06188*
X05173Y06189*
X05172Y06191*
X0517Y06192*
X05169Y06193*
X05167Y06195*
X05165Y06196*
X05163Y06196*
X05161Y06197*
X05159Y06198*
X05157Y06198*
X05155Y06199*
X05153Y06199*
X05151Y06199*
X05262Y06426D02*
D01*
X05245Y06413*
X05228Y06398*
X05213Y06383*
X05198Y06366*
X05185Y06348*
X05173Y0633*
X05163Y06311*
X05154Y06291*
X05146Y0627*
X0514Y06249*
X05135Y06228*
X05132Y06206*
X05131Y06199*
X05646Y05927D02*
D01*
X05662Y05942*
X05677Y05957*
X05692Y05974*
X05705Y05992*
X05716Y06011*
X05727Y0603*
X05736Y0605*
X05744Y06071*
X0575Y06092*
X05754Y06113*
X05758Y06135*
X05758Y0614*
X05738Y06199D02*
D01*
X05736Y06199*
X05734Y06199*
X05732Y06198*
X0573Y06198*
X05728Y06197*
X05726Y06196*
X05724Y06196*
X05722Y06195*
X0572Y06193*
X05719Y06192*
X05717Y06191*
X05716Y06189*
X05715Y06188*
X05713Y06186*
X05712Y06184*
X05711Y06182*
X0571Y06181*
X0571Y06179*
X05709Y06177*
X05709Y06175*
X05708Y06173*
X05708Y06171*
Y06168*
X05708Y06166*
X05709Y06164*
X05709Y06162*
X0571Y0616*
X0571Y06158*
X05711Y06157*
X05712Y06155*
X05713Y06153*
X05715Y06151*
X05716Y0615*
X05717Y06148*
X05719Y06147*
X0572Y06146*
X05722Y06144*
X05724Y06143*
X05726Y06143*
X05728Y06142*
X0573Y06141*
X05732Y06141*
X05734Y0614*
X05736Y0614*
X05738Y0614*
X05627Y05913D02*
D01*
X05644Y05926*
X05661Y05941*
X05676Y05956*
X05691Y05973*
X05704Y05991*
X05716Y06009*
X05726Y06028*
X05735Y06048*
X05743Y06069*
X05749Y0609*
X05754Y06111*
X05757Y06133*
X05758Y0614*
X05131D02*
D01*
X05134Y06118*
X05138Y06097*
X05144Y06075*
X05151Y06055*
X0516Y06035*
X0517Y06015*
X05181Y05996*
X05194Y05978*
X05208Y05961*
X05223Y05945*
X05239Y0593*
X05257Y05917*
X05262Y05913*
X05323Y05901D02*
D01*
X05324Y05903*
X05325Y05904*
X05326Y05906*
X05326Y05908*
X05327Y0591*
X05327Y05912*
X05327Y05914*
Y05917*
X05327Y05919*
X05327Y05921*
X05326Y05923*
X05326Y05925*
X05325Y05927*
X05324Y05928*
X05323Y0593*
X05322Y05932*
X05321Y05934*
X0532Y05935*
X05318Y05937*
X05317Y05938*
X05315Y05939*
X05313Y05941*
X05312Y05942*
X0531Y05942*
X05308Y05943*
X05306Y05944*
X05304Y05944*
X05302Y05945*
X053Y05945*
X05298Y05945*
X05296Y05945*
X05294Y05945*
X05292Y05944*
X0529Y05944*
X05288Y05943*
X05286Y05942*
X05284Y05942*
X05282Y05941*
X0528Y05939*
X05279Y05938*
X05277Y05937*
X05276Y05935*
X05275Y05934*
X05273Y05932*
X05272Y0593*
X05176Y0424D02*
X05713D01*
Y05645D02*
Y0424D01*
X05566Y05901D02*
X05713Y05645D01*
X05617Y0593D02*
X05627Y05913D01*
X05176Y05645D02*
Y0424D01*
X05565Y06437D02*
X05576Y06456D01*
X05616Y06407D02*
X05627Y06426D01*
X05313Y06456D02*
X05323Y06438D01*
X05262Y06426D02*
X05272Y06409D01*
X05131Y0614D02*
X05151D01*
X05131Y06199D02*
X05151D01*
X05738Y0614D02*
X05758D01*
X05738Y06199D02*
X05758D01*
X05131Y0614D02*
X05151D01*
X05738D02*
X05758D01*
X05262Y05913D02*
X05272Y0593D01*
X05176Y05645D02*
X05323Y05901D01*
X05617Y04833D02*
Y04853D01*
X05613Y04857*
X05605*
X05601Y04853*
Y04833*
X05593Y04837D02*
X05589Y04833D01*
X05581*
X05577Y04837*
Y04841*
X05581Y04845*
X05585*
X05581*
X05577Y04849*
Y04853*
X05581Y04857*
X05589*
X05593Y04853*
X07117Y0593D02*
D01*
X07116Y05932*
X07114Y05934*
X07113Y05935*
X07112Y05937*
X0711Y05938*
X07109Y05939*
X07107Y05941*
X07105Y05942*
X07103Y05942*
X07101Y05943*
X07099Y05944*
X07097Y05944*
X07095Y05945*
X07093Y05945*
X07091Y05945*
X07089Y05945*
X07087Y05945*
X07085Y05944*
X07083Y05944*
X07081Y05943*
X07079Y05942*
X07077Y05942*
X07076Y05941*
X07074Y05939*
X07072Y05938*
X07071Y05937*
X07069Y05935*
X07068Y05934*
X07067Y05932*
X07066Y0593*
X07065Y05928*
X07064Y05927*
X07063Y05925*
X07063Y05923*
X07062Y05921*
X07062Y05919*
X07062Y05917*
Y05914*
X07062Y05912*
X07062Y0591*
X07063Y05908*
X07063Y05906*
X07064Y05904*
X07065Y05903*
X07066Y05901*
Y06438D02*
D01*
X07065Y06436*
X07064Y06435*
X07063Y06433*
X07063Y06431*
X07062Y06429*
X07062Y06427*
X07062Y06425*
Y06422*
X07062Y0642*
X07062Y06418*
X07063Y06416*
X07063Y06414*
X07064Y06412*
X07065Y06411*
X07066Y06409*
X07067Y06407*
X07068Y06405*
X07069Y06404*
X07071Y06402*
X07072Y06401*
X07074Y064*
X07076Y06398*
X07077Y06397*
X07079Y06397*
X07081Y06396*
X07083Y06395*
X07085Y06395*
X07087Y06394*
X07089Y06394*
X07091Y06394*
X07093Y06394*
X07095Y06394*
X07097Y06395*
X07099Y06395*
X07101Y06396*
X07103Y06397*
X07105Y06397*
X07107Y06398*
X07109Y064*
X0711Y06401*
X07112Y06402*
X07113Y06404*
X07114Y06405*
X07116Y06407*
X07117Y06409*
X07258Y06199D02*
D01*
X07255Y06221*
X07251Y06242*
X07245Y06264*
X07238Y06284*
X07229Y06304*
X07219Y06324*
X07208Y06343*
X07195Y06361*
X07181Y06378*
X07166Y06394*
X0715Y06409*
X07132Y06422*
X07127Y06426*
X07076Y06456D02*
D01*
X07055Y06464*
X07035Y06471*
X07013Y06477*
X06992Y06481*
X0697Y06483*
X06948Y06484*
X06926Y06484*
X06904Y06482*
X06882Y06478*
X06861Y06473*
X0684Y06467*
X0682Y06459*
X06813Y06456*
X06772Y06409D02*
D01*
X06773Y06407*
X06775Y06405*
X06776Y06404*
X06777Y06402*
X06779Y06401*
X0678Y064*
X06782Y06398*
X06784Y06397*
X06786Y06397*
X06788Y06396*
X0679Y06395*
X06792Y06395*
X06794Y06394*
X06796Y06394*
X06798Y06394*
X068Y06394*
X06802Y06394*
X06804Y06395*
X06806Y06395*
X06808Y06396*
X0681Y06397*
X06812Y06397*
X06813Y06398*
X06815Y064*
X06817Y06401*
X06818Y06402*
X0682Y06404*
X06821Y06405*
X06822Y06407*
X06823Y06409*
X06824Y06411*
X06825Y06412*
X06826Y06414*
X06826Y06416*
X06827Y06418*
X06827Y0642*
X06827Y06422*
Y06425*
X06827Y06427*
X06827Y06429*
X06826Y06431*
X06826Y06433*
X06825Y06435*
X06824Y06436*
X06823Y06438*
X06631Y0614D02*
D01*
X06634Y06118*
X06638Y06097*
X06644Y06075*
X06651Y06055*
X0666Y06035*
X0667Y06015*
X06681Y05996*
X06694Y05978*
X06708Y05961*
X06723Y05945*
X06739Y0593*
X06743Y05927*
X06651Y0614D02*
D01*
X06653Y0614*
X06655Y0614*
X06657Y06141*
X06659Y06141*
X06661Y06142*
X06663Y06143*
X06665Y06143*
X06667Y06144*
X06669Y06146*
X0667Y06147*
X06672Y06148*
X06673Y0615*
X06674Y06151*
X06676Y06153*
X06677Y06155*
X06678Y06157*
X06679Y06158*
X06679Y0616*
X0668Y06162*
X0668Y06164*
X06681Y06166*
X06681Y06168*
Y06171*
X06681Y06173*
X0668Y06175*
X0668Y06177*
X06679Y06179*
X06679Y06181*
X06678Y06182*
X06677Y06184*
X06676Y06186*
X06674Y06188*
X06673Y06189*
X06672Y06191*
X0667Y06192*
X06669Y06193*
X06667Y06195*
X06665Y06196*
X06663Y06196*
X06661Y06197*
X06659Y06198*
X06657Y06198*
X06655Y06199*
X06653Y06199*
X06651Y06199*
X06762Y06426D02*
D01*
X06745Y06413*
X06728Y06398*
X06713Y06383*
X06698Y06366*
X06685Y06348*
X06673Y0633*
X06663Y06311*
X06654Y06291*
X06646Y0627*
X0664Y06249*
X06635Y06228*
X06632Y06206*
X06631Y06199*
X07146Y05927D02*
D01*
X07162Y05942*
X07177Y05957*
X07192Y05974*
X07205Y05992*
X07216Y06011*
X07227Y0603*
X07236Y0605*
X07244Y06071*
X0725Y06092*
X07254Y06113*
X07258Y06135*
X07258Y0614*
X07238Y06199D02*
D01*
X07236Y06199*
X07234Y06199*
X07232Y06198*
X0723Y06198*
X07228Y06197*
X07226Y06196*
X07224Y06196*
X07222Y06195*
X0722Y06193*
X07219Y06192*
X07217Y06191*
X07216Y06189*
X07215Y06188*
X07213Y06186*
X07212Y06184*
X07211Y06182*
X0721Y06181*
X0721Y06179*
X07209Y06177*
X07209Y06175*
X07208Y06173*
X07208Y06171*
Y06168*
X07208Y06166*
X07209Y06164*
X07209Y06162*
X0721Y0616*
X0721Y06158*
X07211Y06157*
X07212Y06155*
X07213Y06153*
X07215Y06151*
X07216Y0615*
X07217Y06148*
X07219Y06147*
X0722Y06146*
X07222Y06144*
X07224Y06143*
X07226Y06143*
X07228Y06142*
X0723Y06141*
X07232Y06141*
X07234Y0614*
X07236Y0614*
X07238Y0614*
X07127Y05913D02*
D01*
X07144Y05926*
X07161Y05941*
X07176Y05956*
X07191Y05973*
X07204Y05991*
X07216Y06009*
X07226Y06028*
X07235Y06048*
X07243Y06069*
X07249Y0609*
X07254Y06111*
X07257Y06133*
X07258Y0614*
X06631D02*
D01*
X06634Y06118*
X06638Y06097*
X06644Y06075*
X06651Y06055*
X0666Y06035*
X0667Y06015*
X06681Y05996*
X06694Y05978*
X06708Y05961*
X06723Y05945*
X06739Y0593*
X06757Y05917*
X06762Y05913*
X06823Y05901D02*
D01*
X06824Y05903*
X06825Y05904*
X06826Y05906*
X06826Y05908*
X06827Y0591*
X06827Y05912*
X06827Y05914*
Y05917*
X06827Y05919*
X06827Y05921*
X06826Y05923*
X06826Y05925*
X06825Y05927*
X06824Y05928*
X06823Y0593*
X06822Y05932*
X06821Y05934*
X0682Y05935*
X06818Y05937*
X06817Y05938*
X06815Y05939*
X06813Y05941*
X06812Y05942*
X0681Y05942*
X06808Y05943*
X06806Y05944*
X06804Y05944*
X06802Y05945*
X068Y05945*
X06798Y05945*
X06796Y05945*
X06794Y05945*
X06792Y05944*
X0679Y05944*
X06788Y05943*
X06786Y05942*
X06784Y05942*
X06782Y05941*
X0678Y05939*
X06779Y05938*
X06777Y05937*
X06776Y05935*
X06775Y05934*
X06773Y05932*
X06772Y0593*
X06676Y0424D02*
X07213D01*
Y05645D02*
Y0424D01*
X07066Y05901D02*
X07213Y05645D01*
X07117Y0593D02*
X07127Y05913D01*
X06676Y05645D02*
Y0424D01*
X07065Y06437D02*
X07076Y06456D01*
X07116Y06407D02*
X07127Y06426D01*
X06813Y06456D02*
X06823Y06438D01*
X06762Y06426D02*
X06772Y06409D01*
X06631Y0614D02*
X06651D01*
X06631Y06199D02*
X06651D01*
X07238Y0614D02*
X07258D01*
X07238Y06199D02*
X07258D01*
X06631Y0614D02*
X06651D01*
X07238D02*
X07258D01*
X06762Y05913D02*
X06772Y0593D01*
X06676Y05645D02*
X06823Y05901D01*
X07117Y04833D02*
Y04853D01*
X07113Y04857*
X07105*
X07101Y04853*
Y04833*
X07093Y04837D02*
X07089Y04833D01*
X07081*
X07077Y04837*
Y04841*
X07081Y04845*
X07085*
X07081*
X07077Y04849*
Y04853*
X07081Y04857*
X07089*
X07093Y04853*
M02*