%FSTAX23Y23*%
%MOIN*%
%SFA1B1*%

%IPPOS*%
%ADD10C,0.003937*%
%ADD60C,0.003937*%
%LNpcb4-1*%
%LPD*%
G54D10*
X04212Y04242D02*
D01*
X04212Y04242*
X04212Y04242*
X04212Y04242*
X04212Y04242*
X04212Y04242*
X04211Y04242*
X04211Y04242*
X04211Y04242*
X04211Y04242*
X04211Y04242*
X05713Y04242D02*
D01*
X05713*
X05713*
X05713*
X05713Y04242*
X05713Y04242*
X06676Y04242D02*
D01*
X06676Y04242*
X06675Y04242*
X06675Y04242*
X06675Y04242*
X06675Y04242*
X06675Y04242*
X07068Y05937D02*
D01*
X07067Y05935*
X07065Y05933*
X07064Y05932*
X07063Y0593*
X07062Y05928*
X07061Y05926*
X07061Y05923*
X0706Y05921*
X0706Y05919*
X0706Y05917*
X0706Y05915*
X0706Y05913*
X0706Y0591*
X0706Y05908*
X07061Y05906*
X07062Y05904*
X07063Y05902*
X07064Y059*
X07064Y059*
X07118Y05931D02*
D01*
X07117Y05933*
X07116Y05935*
X07114Y05936*
X07113Y05938*
X07111Y0594*
X0711Y05941*
X07108Y05942*
X07106Y05943*
X07104Y05944*
X07102Y05945*
X071Y05946*
X07098Y05946*
X07095Y05947*
X07093Y05947*
X07091Y05947*
X07089Y05947*
X07087Y05947*
X07084Y05946*
X07082Y05946*
X0708Y05945*
X07078Y05944*
X07076Y05943*
X07074Y05942*
X07073Y05941*
X07071Y0594*
X07069Y05938*
X07068Y05937*
X07127Y05916D02*
D01*
X07131Y05918*
X07134Y05921*
X07138Y05923*
X07141Y05926*
X07144Y05929*
D01*
X07161Y05943*
X07176Y05959*
X0719Y05975*
X07203Y05993*
X07215Y06011*
X07225Y06031*
X07234Y06051*
X07241Y06071*
X07248Y06092*
X07252Y06113*
X07255Y06135*
X07256Y06138*
X07215Y06191D02*
D01*
X07213Y06189*
X07212Y06187*
X07211Y06186*
X0721Y06184*
X07209Y06182*
X07208Y0618*
X07207Y06178*
X07207Y06175*
X07206Y06173*
X07206Y06171*
X07206Y06169*
X07206Y06167*
X07207Y06164*
X07207Y06162*
X07208Y0616*
X07208Y06158*
X07209Y06156*
X0721Y06154*
X07211Y06152*
X07213Y0615*
X07214Y06149*
X07215Y06147*
X07217Y06146*
X07219Y06144*
X07221Y06143*
X07222Y06142*
X07224Y06141*
X07226Y0614*
X07229Y06139*
X07231Y06139*
X07233Y06138*
X07235Y06138*
X07237Y06138*
X07238Y06138*
Y06201D02*
D01*
X07235Y06201*
X07233Y06201*
X07231Y062*
X07229Y062*
X07227Y06199*
X07225Y06198*
X07223Y06197*
X07221Y06196*
X07219Y06195*
X07217Y06194*
X07216Y06192*
X07215Y06191*
X07238Y06201D02*
D01*
X07238*
X07238Y06201*
X07238*
X07238*
X07238*
Y06201*
D01*
X07238*
X07238*
X07238Y06201*
X07238*
X07238Y06201*
Y06201*
X07256D02*
D01*
X07253Y06223*
X07248Y06244*
X07242Y06265*
X07235Y06286*
X07226Y06306*
X07216Y06325*
X07205Y06343*
X07192Y06361*
X07178Y06378*
X07163Y06394*
X07146Y06408*
X07129Y06422*
X07127Y06423*
X07117Y06405D02*
D01*
X07117Y06405*
X07117Y06405*
X07117Y06406*
X07117Y06406*
X07117Y06405D02*
D01*
X07117Y06405*
X07117Y06405*
X07117Y06405*
X07114Y06402D02*
D01*
X07116Y06404*
X07117Y06405*
X07063Y06437D02*
D01*
X07062Y06435*
X07061Y06433*
X07061Y06431*
X0706Y06429*
X0706Y06427*
X0706Y06425*
X0706Y06423*
X0706Y0642*
X0706Y06418*
X0706Y06416*
X07061Y06414*
X07062Y06412*
X07063Y0641*
X07064Y06408*
X07065Y06406*
X07066Y06404*
X07067Y06403*
X07069Y06401*
X07071Y06399*
X07072Y06398*
X07074Y06397*
X07076Y06396*
X07078Y06395*
X0708Y06394*
X07082Y06393*
X07084Y06393*
X07086Y06392*
X07089Y06392*
X07091Y06392*
X07093Y06392*
X07095Y06392*
X07097Y06393*
X07099Y06393*
X07102Y06394*
X07104Y06395*
X07106Y06395*
X07108Y06397*
X07109Y06398*
X07111Y06399*
X07113Y06401*
X07114Y06402*
X07063Y06438D02*
D01*
X07063Y06438*
X07063Y06438*
X07063Y06438*
X07063Y06437*
X07073Y06455D02*
D01*
X07053Y06463*
X07032Y0647*
X07011Y06475*
X06989Y06479*
X06967Y06482*
X06946Y06482*
X06924Y06482*
X06902Y0648*
X0688Y06476*
X06859Y06471*
X06838Y06464*
X06818Y06456*
X06816Y06455*
X06825Y06439D02*
D01*
X06825Y06439*
X06825Y06439*
X06825Y06439*
X06825Y06439*
X06825Y06439*
X06825Y06439D02*
D01*
X06825Y06439*
X06825Y06439*
X06825Y06439*
X06825Y06439*
X06825Y06439*
X06829Y06423D02*
D01*
X06829Y06426*
X06829Y06428*
X06829Y0643*
X06828Y06432*
X06827Y06434*
X06827Y06436*
X06826Y06438*
X06825Y06439*
X06821Y06402D02*
D01*
X06822Y06404*
X06824Y06405*
X06825Y06407*
X06826Y06409*
X06827Y06411*
X06828Y06413*
X06828Y06415*
X06829Y06417*
X06829Y0642*
X06829Y06422*
X06829Y06423*
X0677Y06408D02*
D01*
X06772Y06406*
X06773Y06404*
X06774Y06402*
X06776Y06401*
X06777Y06399*
X06779Y06398*
X06781Y06397*
X06783Y06396*
X06785Y06395*
X06787Y06394*
X06789Y06393*
X06791Y06393*
X06793Y06392*
X06796Y06392*
X06798Y06392*
X068Y06392*
X06802Y06392*
X06804Y06393*
X06806Y06393*
X06809Y06394*
X06811Y06395*
X06813Y06396*
X06814Y06397*
X06816Y06398*
X06818Y06399*
X0682Y06401*
X06821Y06402*
X06761Y06423D02*
D01*
X06744Y0641*
X06728Y06395*
X06713Y0638*
X06698Y06363*
X06686Y06345*
X06674Y06327*
X06664Y06308*
X06655Y06288*
X06647Y06267*
X06641Y06246*
X06636Y06225*
X06633Y06203*
X06633Y06201*
X06651D02*
D01*
X06651*
X06651*
X06651Y06201*
X06651*
X06651Y06201*
Y06201*
X06651D02*
D01*
X06651*
X06651Y06201*
X06651*
X06651*
X06651Y06201*
X06683Y06169D02*
D01*
X06683Y06172*
X06682Y06174*
X06682Y06176*
X06681Y06178*
X06681Y0618*
X0668Y06182*
X06679Y06184*
X06678Y06186*
X06677Y06188*
X06675Y0619*
X06674Y06191*
X06672Y06193*
X0667Y06194*
X06669Y06196*
X06667Y06197*
X06665Y06198*
X06663Y06199*
X06661Y06199*
X06659Y062*
X06657Y062*
X06654Y06201*
X06652Y06201*
X06651Y06201*
X06674Y06148D02*
D01*
X06676Y0615*
X06677Y06151*
X06678Y06153*
X06679Y06155*
X0668Y06157*
X06681Y06159*
X06682Y06161*
X06682Y06163*
X06682Y06166*
X06683Y06168*
X06683Y06169*
X06651Y06138D02*
D01*
X06653Y06138*
X06655Y06138*
X06658Y06139*
X0666Y06139*
X06662Y0614*
X06664Y06141*
X06666Y06142*
X06668Y06143*
X0667Y06144*
X06671Y06145*
X06673Y06147*
X06674Y06148*
X06633Y06138D02*
D01*
X06636Y06116*
X0664Y06095*
X06646Y06074*
X06654Y06053*
X06663Y06033*
X06673Y06014*
X06684Y05995*
X06697Y05978*
X06711Y05961*
X06726Y05945*
X06742Y0593*
X06745Y05929*
D01*
X06748Y05926*
X06751Y05923*
X06755Y05921*
X06758Y05918*
X06761Y05915*
X0677Y05931D02*
D01*
X0677Y05931*
X0677Y05931*
X0677Y05931*
X0677Y05931*
X0677Y05931*
X0677Y05931D02*
D01*
X0677Y05931*
X0677Y05931*
X0677Y05931*
X0677Y05931*
X0677Y05931*
X06775Y05937D02*
D01*
X06773Y05935*
X06772Y05933*
X06771Y05932*
X0677Y05931*
X06829Y05915D02*
D01*
X06829Y05918*
X06829Y0592*
X06829Y05922*
X06828Y05924*
X06827Y05926*
X06827Y05928*
X06826Y0593*
X06824Y05932*
X06823Y05934*
X06822Y05936*
X0682Y05937*
X06819Y05939*
X06817Y0594*
X06815Y05942*
X06813Y05943*
X06812Y05944*
X0681Y05945*
X06807Y05945*
X06805Y05946*
X06803Y05946*
X06801Y05947*
X06799Y05947*
X06797*
X06794Y05947*
X06792Y05946*
X0679Y05946*
X06788Y05945*
X06786Y05945*
X06784Y05944*
X06782Y05943*
X0678Y05942*
X06778Y0594*
X06777Y05939*
X06775Y05937*
X06775Y05937*
X06825Y059D02*
D01*
X06826Y05902*
X06827Y05904*
X06828Y05906*
X06828Y05908*
X06829Y0591*
X06829Y05912*
X06829Y05914*
X06829Y05915*
X06679Y05645D02*
D01*
X06679Y05645*
X06679Y05645*
X06679Y05645*
X06679Y05646*
X06679Y05646*
X06679Y05646*
X06679Y05646*
X06679Y05646*
X06679Y05646*
X06679Y05646*
X06677Y05643D02*
D01*
X06677Y05643*
X06677Y05643*
X06678Y05643*
X06678Y05643*
X06678Y05643*
X06678Y05643*
X06678Y05643*
X06678Y05643*
X06678Y05643*
X06678Y05643*
X06679Y05644*
X06679Y05644*
X06679Y05644*
X06679Y05644*
X06679Y05644*
X06679Y05644*
X06679Y05644*
X06679Y05644*
X06679Y05644*
X06679Y05645*
X06679Y05645*
X06679Y05645*
X06679Y05645*
X05712Y05644D02*
D01*
X05712Y05644*
X05712Y05644*
X05712Y05644*
X05712Y05644*
X05712Y05643*
X05712Y05643*
X05712Y05643*
X05712Y05643*
X05712Y05643*
X05713Y05643*
X05713Y05643*
X05713Y05643*
X05713Y05643*
X05713Y05643*
X05713Y05643*
X05564Y059D02*
D01*
X05564Y059*
X05564Y059*
X05564Y05899*
X05564Y05899*
X05564Y05899*
X05564Y05899*
X05609Y05941D02*
D01*
X05607Y05943*
X05605Y05944*
X05603Y05945*
X05601Y05945*
X05599Y05946*
X05597Y05946*
X05594Y05947*
X05592Y05947*
X0559Y05947*
X05588Y05947*
X05586Y05946*
X05584Y05946*
X05581Y05945*
X05579Y05944*
X05577Y05944*
X05575Y05942*
X05574Y05941*
X05572Y0594*
X0557Y05939*
X05569Y05937*
X05567Y05935*
X05566Y05934*
X05565Y05932*
X05563Y0593*
X05562Y05928*
X05562Y05926*
X05561Y05924*
X0556Y05922*
X0556Y05919*
X0556Y05917*
X0556Y05915*
X0556Y05913*
X0556Y05911*
X05561Y05909*
X05561Y05906*
X05562Y05904*
X05563Y05902*
X05564Y059*
X05564Y059*
X05619Y05931D02*
D01*
X05617Y05933*
X05616Y05935*
X05615Y05936*
X05613Y05938*
X05612Y05939*
X0561Y05941*
X05609Y05941*
X05619Y05931D02*
D01*
X05619Y05931*
X05619Y05931*
X05619Y05931*
X05619Y05931*
X05619Y05931*
X05628Y05915D02*
D01*
X05631Y05918*
X05635Y0592*
X05638Y05923*
X05641Y05926*
X05645Y05928*
X05645Y05928*
D01*
X05645Y05928*
X05645Y05928*
X05645Y05928*
X05645Y05928*
X05645Y05928*
X05645Y05928D02*
D01*
X05661Y05943*
X05676Y05959*
X0569Y05975*
X05703Y05993*
X05715Y06011*
X05725Y06031*
X05734Y0605*
X05742Y06071*
X05748Y06092*
X05753Y06113*
X05756Y06135*
X05756Y06138*
X05738Y06138D02*
D01*
X05738*
X05738*
X05738*
X05738*
X05738*
Y06138*
D01*
X05738*
X05738*
X05738*
X05738*
X05738*
Y06138*
X05721Y06143D02*
D01*
X05722Y06142*
X05724Y06141*
X05726Y0614*
X05728Y06139*
X05731Y06139*
X05733Y06138*
X05735Y06138*
X05737Y06138*
X05738Y06138*
Y06201D02*
D01*
X05736Y06201*
X05734Y062*
X05731Y062*
X05729Y062*
X05727Y06199*
X05725Y06198*
X05723Y06197*
X05721Y06196*
X05719Y06195*
X05718Y06193*
X05716Y06192*
X05715Y0619*
X05713Y06189*
X05712Y06187*
X05711Y06185*
X0571Y06183*
X05709Y06181*
X05708Y06179*
X05707Y06177*
X05707Y06175*
X05707Y06173*
X05706Y0617*
Y06168*
X05707Y06166*
X05707Y06164*
X05707Y06162*
X05708Y0616*
X05709Y06157*
X0571Y06155*
X05711Y06154*
X05712Y06152*
X05713Y0615*
X05715Y06148*
X05716Y06147*
X05718Y06145*
X05719Y06144*
X05721Y06143*
X05738Y06201D02*
D01*
X05738*
X05738*
X05738*
X05738*
X05738*
X05738D02*
D01*
X05738*
X05738*
X05738*
X05738*
X05738*
X05756D02*
D01*
X05753Y06222*
X05749Y06244*
X05743Y06265*
X05735Y06285*
X05727Y06305*
X05716Y06325*
X05705Y06343*
X05692Y06361*
X05678Y06378*
X05663Y06394*
X05647Y06408*
X0563Y06422*
X05628Y06423*
X05617Y06405D02*
D01*
X05617Y06405*
X05617Y06405*
X05617Y06405*
X05617Y06405*
X05617Y06405*
X05617Y06405*
X05574Y06397D02*
D01*
X05576Y06396*
X05578Y06395*
X0558Y06394*
X05582Y06393*
X05584Y06393*
X05586Y06392*
X05588Y06392*
X0559Y06392*
X05593Y06392*
X05595Y06392*
X05597Y06392*
X05599Y06393*
X05601Y06393*
X05603Y06394*
X05605Y06395*
X05607Y06396*
X05609Y06397*
X05611Y06399*
X05613Y064*
X05614Y06402*
X05616Y06403*
X05617Y06405*
X05563Y06437D02*
D01*
X05562Y06435*
X05561Y06433*
X05561Y06431*
X0556Y06429*
X0556Y06427*
X0556Y06425*
X0556Y06422*
X0556Y0642*
X0556Y06418*
X05561Y06416*
X05561Y06414*
X05562Y06412*
X05563Y0641*
X05564Y06408*
X05565Y06406*
X05566Y06404*
X05568Y06402*
X05569Y06401*
X05571Y06399*
X05573Y06398*
X05574Y06397*
X05563Y06437D02*
D01*
X05563*
Y06437*
X05563Y06437*
Y06437*
X05563*
X05563Y06438D02*
D01*
X05563Y06438*
X05563Y06438*
X05563Y06437*
X05563Y06437*
X05573Y06455D02*
D01*
X05553Y06463*
X05532Y0647*
X05511Y06475*
X05489Y06479*
X05468Y06481*
X05446Y06482*
X05424Y06482*
X05402Y06479*
X05381Y06476*
X0536Y0647*
X05339Y06464*
X05318Y06456*
X05316Y06455*
X0533Y06423D02*
D01*
X05329Y06425*
X05329Y06428*
X05329Y0643*
X05328Y06432*
X05328Y06434*
X05327Y06436*
X05326Y06438*
X05325Y06439*
X05281Y06397D02*
D01*
X05282Y06396*
X05284Y06395*
X05286Y06394*
X05288Y06393*
X05291Y06393*
X05293Y06392*
X05295Y06392*
X05297Y06392*
X05299Y06392*
X05301Y06392*
X05304Y06392*
X05306Y06393*
X05308Y06393*
X0531Y06394*
X05312Y06395*
X05314Y06396*
X05316Y06397*
X05318Y06399*
X05319Y064*
X05321Y06402*
X05322Y06403*
X05324Y06405*
X05325Y06407*
X05326Y06409*
X05327Y06411*
X05328Y06413*
X05328Y06415*
X05329Y06417*
X05329Y06419*
X05329Y06421*
X0533Y06423*
X05271Y06408D02*
D01*
X05272Y06406*
X05273Y06404*
X05275Y06402*
X05276Y06401*
X05278Y06399*
X0528Y06398*
X05281Y06397*
X05262Y06423D02*
D01*
X05244Y0641*
X05228Y06395*
X05213Y0638*
X05199Y06363*
X05186Y06345*
X05174Y06327*
X05164Y06308*
X05155Y06288*
X05147Y06267*
X05141Y06246*
X05137Y06225*
X05134Y06203*
X05133Y06201*
X05151D02*
D01*
X05151*
X05151*
X05151*
X05151*
X05151*
X05151D02*
D01*
X05151*
X05151*
X05151*
X05151*
X05151*
X05169Y06195D02*
D01*
X05167Y06197*
X05165Y06198*
X05163Y06199*
X05161Y06199*
X05159Y062*
X05157Y062*
X05154Y06201*
X05152Y06201*
X05151Y06201*
X05183Y06169D02*
D01*
X05183Y06171*
X05183Y06174*
X05182Y06176*
X05182Y06178*
X05181Y0618*
X0518Y06182*
X05179Y06184*
X05178Y06186*
X05177Y06188*
X05176Y0619*
X05174Y06191*
X05172Y06193*
X05171Y06194*
X05169Y06195*
X05169Y06195*
X05151Y06138D02*
D01*
X05154Y06138*
X05156Y06138*
X05158Y06138*
X0516Y06139*
X05162Y0614*
X05164Y0614*
X05166Y06141*
X05168Y06143*
X0517Y06144*
X05172Y06145*
X05173Y06147*
X05175Y06148*
X05176Y0615*
X05177Y06152*
X05179Y06154*
X0518Y06155*
X05181Y06157*
X05181Y0616*
X05182Y06162*
X05182Y06164*
X05183Y06166*
X05183Y06168*
X05183Y06169*
X05133Y06138D02*
D01*
X05136Y06116*
X05141Y06095*
X05147Y06074*
X05154Y06053*
X05163Y06033*
X05173Y06014*
X05185Y05995*
X05197Y05978*
X05211Y05961*
X05226Y05945*
X05243Y0593*
X05245Y05928*
X05245Y05928D02*
D01*
X05245Y05928*
X05245Y05928*
X05245Y05928*
X05245Y05928*
X05245Y05928*
X05245Y05928*
D01*
X05248Y05926*
X05251Y05923*
X05255Y0592*
X05258Y05918*
X05262Y05915*
X05262Y05915*
X05271Y05931D02*
D01*
X05271Y05931*
X05271Y05931*
X05271Y05931*
X05271Y05931*
X05271Y05931*
X05271Y05931*
X05271Y05931D02*
D01*
X05271Y05931*
X05271Y05931*
X05271Y05931*
X05271Y05931*
X05271Y05931*
X05316Y05941D02*
D01*
X05314Y05943*
X05312Y05944*
X0531Y05945*
X05308Y05945*
X05305Y05946*
X05303Y05946*
X05301Y05947*
X05299Y05947*
X05297Y05947*
X05295Y05947*
X05292Y05946*
X0529Y05946*
X05288Y05945*
X05286Y05944*
X05284Y05944*
X05282Y05942*
X0528Y05941*
X05278Y0594*
X05277Y05939*
X05275Y05937*
X05274Y05935*
X05272Y05934*
X05271Y05932*
X05271Y05931*
X0533Y05915D02*
D01*
X05329Y05917*
X05329Y0592*
X05329Y05922*
X05328Y05924*
X05328Y05926*
X05327Y05928*
X05326Y0593*
X05325Y05932*
X05324Y05934*
X05322Y05936*
X05321Y05937*
X05319Y05939*
X05317Y0594*
X05316Y05941*
X05316Y05941*
X05325Y059D02*
D01*
X05326Y05901*
X05327Y05903*
X05328Y05906*
X05329Y05908*
X05329Y0591*
X05329Y05912*
X0533Y05914*
X0533Y05915*
X05177Y05643D02*
D01*
X05177Y05643*
X05177Y05644*
X05178Y05644*
X05178Y05644*
X05178Y05644*
X05178Y05644*
X05178Y05644*
X05176Y05643D02*
D01*
X05176Y05643*
X05176Y05643*
X05176Y05643*
X05176Y05643*
X05176Y05643*
X05176Y05643*
X05177Y05643*
X05177Y05643*
X05177Y05643*
X05177Y05643*
X05177Y05643*
X05177Y05643*
X05177Y05643*
X05177Y05643*
X0421Y05644D02*
D01*
X0421Y05643*
X0421Y05643*
X0421Y05643*
X0421Y05643*
X0421Y05643*
X04211Y05643*
X04211Y05643*
X04211Y05643*
X04211Y05643*
X04211Y05643*
X04211Y05643*
X04211Y05643*
X04211Y05643*
X04212Y05643*
X04212Y05643*
X04117Y05931D02*
D01*
X04116Y05932*
X04115Y05934*
X04113Y05936*
X04112Y05937*
X0411Y05939*
X04108Y0594*
X04106Y05942*
X04105Y05943*
X04103Y05944*
X04101Y05944*
X04098Y05945*
X04096Y05946*
X04094Y05946*
X04092Y05946*
X0409Y05946*
X04088Y05946*
X04085Y05946*
X04083Y05946*
X04081Y05945*
X04079Y05944*
X04077Y05944*
X04075Y05943*
X04073Y05942*
X04071Y0594*
X0407Y05939*
X04068Y05937*
X04066Y05936*
X04065Y05934*
X04064Y05932*
X04062Y05931*
X04061Y05929*
X04061Y05927*
X0406Y05925*
X04059Y05922*
X04059Y0592*
X04058Y05918*
X04058Y05916*
Y05914*
X04058Y05912*
X04059Y05909*
X04059Y05907*
X0406Y05905*
X04061Y05903*
X04061Y05901*
X04062Y05899*
X04126Y05915D02*
D01*
X0413Y05917*
X04133Y0592*
X04136Y05923*
X0414Y05925*
X04143Y05928*
D01*
X04159Y05942*
X04175Y05958*
X04189Y05975*
X04202Y05992*
X04213Y06011*
X04224Y0603*
X04233Y0605*
X0424Y0607*
X04246Y06091*
X04251Y06113*
X04254Y06134*
X04255Y06137*
X04236Y062D02*
D01*
X04234Y062*
X04232Y062*
X0423Y062*
X04228Y06199*
X04226Y06198*
X04224Y06198*
X04222Y06197*
X0422Y06196*
X04218Y06194*
X04216Y06193*
X04215Y06191*
X04213Y0619*
X04212Y06188*
X0421Y06186*
X04209Y06185*
X04208Y06183*
X04207Y06181*
X04206Y06179*
X04206Y06176*
X04205Y06174*
X04205Y06172*
X04205Y0617*
Y06168*
X04205Y06166*
X04205Y06163*
X04206Y06161*
X04206Y06159*
X04207Y06157*
X04208Y06155*
X04209Y06153*
X0421Y06151*
X04212Y06149*
X04213Y06148*
X04215Y06146*
X04216Y06145*
X04218Y06143*
X0422Y06142*
X04222Y06141*
X04224Y0614*
X04226Y06139*
X04228Y06139*
X0423Y06138*
X04232Y06138*
X04234Y06137*
X04236Y06137*
X04255Y062D02*
D01*
X04252Y06222*
X04247Y06243*
X04241Y06264*
X04234Y06285*
X04225Y06305*
X04215Y06324*
X04203Y06343*
X0419Y06361*
X04177Y06377*
X04161Y06393*
X04145Y06408*
X04128Y06421*
X04126Y06423*
X04115Y06404D02*
D01*
X04115Y06404*
X04116Y06405*
X04116Y06405*
X04116Y06405*
X04116Y06405*
X04116Y06405*
X04062Y06437D02*
D01*
X04061Y06435*
X0406Y06433*
X04059Y06431*
X04059Y06429*
X04058Y06426*
X04058Y06424*
X04058Y06422*
X04058Y0642*
X04059Y06418*
X04059Y06415*
X0406Y06413*
X0406Y06411*
X04061Y06409*
X04062Y06407*
X04064Y06405*
X04065Y06404*
X04066Y06402*
X04068Y064*
X04069Y06399*
X04071Y06397*
X04073Y06396*
X04075Y06395*
X04077Y06394*
X04079Y06393*
X04081Y06393*
X04083Y06392*
X04085Y06392*
X04087Y06391*
X0409Y06391*
X04092Y06391*
X04094Y06392*
X04096Y06392*
X04098Y06392*
X041Y06393*
X04102Y06394*
X04104Y06395*
X04106Y06396*
X04108Y06397*
X0411Y06399*
X04111Y064*
X04113Y06402*
X04114Y06403*
X04115Y06404*
X04062Y06437D02*
D01*
X04062Y06437*
X04062Y06437*
X04062Y06437*
X04062Y06437*
X04072Y06454D02*
D01*
X04051Y06463*
X04031Y06469*
X04009Y06475*
X03988Y06479*
X03966Y06481*
X03944Y06482*
X03922Y06481*
X03901Y06479*
X03879Y06475*
X03858Y0647*
X03837Y06463*
X03817Y06455*
X03815Y06454*
X03828Y06423D02*
D01*
X03828Y06425*
X03828Y06427*
X03827Y06429*
X03827Y06432*
X03826Y06434*
X03825Y06436*
X03824Y06438*
X03824Y06439*
X03769Y06407D02*
D01*
X0377Y06405*
X03772Y06403*
X03773Y06402*
X03775Y064*
X03776Y06399*
X03778Y06397*
X0378Y06396*
X03782Y06395*
X03784Y06394*
X03786Y06393*
X03788Y06393*
X0379Y06392*
X03792Y06392*
X03794Y06391*
X03796Y06391*
X03799Y06391*
X03801Y06392*
X03803Y06392*
X03805Y06393*
X03807Y06393*
X03809Y06394*
X03811Y06395*
X03813Y06396*
X03815Y06397*
X03817Y06399*
X03818Y064*
X0382Y06402*
X03821Y06403*
X03823Y06405*
X03824Y06407*
X03825Y06409*
X03826Y06411*
X03826Y06413*
X03827Y06415*
X03827Y06417*
X03828Y0642*
X03828Y06422*
X03828Y06423*
X0376Y06423D02*
D01*
X03743Y06409*
X03727Y06395*
X03711Y06379*
X03697Y06362*
X03684Y06345*
X03673Y06326*
X03662Y06307*
X03653Y06287*
X03646Y06267*
X0364Y06246*
X03635Y06224*
X03632Y06203*
X03632Y062*
X03681Y06169D02*
D01*
X03681Y06171*
X03681Y06173*
X03681Y06175*
X0368Y06178*
X03679Y0618*
X03679Y06182*
X03678Y06184*
X03677Y06186*
X03675Y06187*
X03674Y06189*
X03672Y06191*
X03671Y06192*
X03669Y06194*
X03667Y06195*
X03666Y06196*
X03664Y06197*
X03662Y06198*
X0366Y06199*
X03657Y06199*
X03655Y062*
X03653Y062*
X03651Y062*
X0365Y062*
Y06137D02*
D01*
X03652Y06137*
X03654Y06138*
X03656Y06138*
X03659Y06139*
X03661Y06139*
X03663Y0614*
X03665Y06141*
X03667Y06142*
X03668Y06143*
X0367Y06145*
X03672Y06146*
X03673Y06148*
X03675Y06149*
X03676Y06151*
X03677Y06153*
X03678Y06155*
X03679Y06157*
X0368Y06159*
X0368Y06161*
X03681Y06163*
X03681Y06166*
X03681Y06168*
X03681Y06169*
X03632Y06137D02*
D01*
X03635Y06116*
X03639Y06094*
X03645Y06073*
X03652Y06053*
X03661Y06033*
X03671Y06013*
X03683Y05995*
X03696Y05977*
X0371Y0596*
X03725Y05945*
X03741Y0593*
X03743Y05928*
D01*
X03747Y05925*
X0375Y05923*
X03753Y0592*
X03757Y05917*
X0376Y05915*
X03828Y05915D02*
D01*
X03828Y05917*
X03828Y05919*
X03827Y05921*
X03827Y05923*
X03826Y05926*
X03825Y05928*
X03824Y0593*
X03823Y05932*
X03822Y05933*
X03821Y05935*
X03819Y05937*
X03818Y05938*
X03816Y0594*
X03814Y05941*
X03812Y05942*
X0381Y05943*
X03808Y05944*
X03806Y05945*
X03804Y05945*
X03802Y05946*
X038Y05946*
X03798Y05946*
X03795*
X03793Y05946*
X03791Y05946*
X03789Y05945*
X03787Y05945*
X03785Y05944*
X03783Y05943*
X03781Y05942*
X03779Y05941*
X03777Y0594*
X03775Y05938*
X03774Y05937*
X03772Y05935*
X03771Y05933*
X0377Y05932*
X03769Y05931*
X03824Y05899D02*
D01*
X03825Y05901*
X03826Y05903*
X03826Y05905*
X03827Y05907*
X03827Y05909*
X03828Y05912*
X03828Y05914*
X03828Y05915*
X03676Y04242D02*
X04211D01*
X04212Y04242D02*
X05713D01*
X05713D02*
X06675D01*
X06676Y04242D02*
X07211D01*
Y05645D02*
Y04242D01*
X07064Y059D02*
X07211Y05645D01*
X07064Y059D02*
D01*
X07118Y05931D02*
D01*
X07127Y05916*
X07238Y06138D02*
X07256D01*
X07238Y06201D02*
X07238D01*
X07238D02*
X07238D01*
X07256D01*
X07117Y06406D02*
X07127Y06423D01*
X07063Y06437D02*
D01*
X07063Y06438D02*
D01*
X07073Y06455D01*
X06816D02*
X06825Y06439D01*
D01*
X06825Y06439D02*
X06825Y06439D01*
X06825Y06439*
X06825Y06439D02*
D01*
X0677Y06408D02*
D01*
X06761Y06423D02*
X0677Y06408D01*
X06633Y06201D02*
D01*
X06651D01*
X06651D02*
X06651D01*
X06633Y06138D02*
X06745Y05929D01*
X0677Y05931D02*
X0677Y05931D01*
Y05931D02*
X0677Y05931D01*
X0677Y05931D02*
X0677Y05931D01*
X06829Y05915D02*
X06829Y05915D01*
X06825Y059D02*
X06825Y059D01*
X06679Y05646D02*
X06825Y059D01*
X05713Y05643D02*
X06677D01*
X05712Y05644D02*
D01*
X05564Y05899D02*
X05712Y05644D01*
X05564Y059D02*
X05564Y05899D01*
X05564Y059D02*
X05564Y05899D01*
X05564Y059D02*
D01*
X05609Y05941D02*
D01*
X05619Y05931D02*
X05619Y05931D01*
D01*
X05619Y05931D01*
X05628Y05915*
D01*
X05645Y05928D02*
X05645Y05928D01*
X05738Y06138D02*
X05756Y06138D01*
X05738D02*
X05738Y06138D01*
X05738D02*
Y06138D01*
Y06138D02*
X05756D01*
Y06138D02*
Y06138D01*
X05738Y06138D02*
X05756D01*
X05721Y06143D02*
D01*
X05738Y06201D02*
X05738D01*
X05756*
X05738D02*
X05756D01*
X05738D02*
X05756D01*
X05628Y06423D02*
D01*
X05617Y06405D02*
X05628Y06423D01*
X05617Y06405D02*
D01*
X05574Y06397D02*
D01*
X05563Y06437D02*
Y06437D01*
Y06437D02*
D01*
X05563Y06438D02*
D01*
X05573Y06455D01*
X05316D02*
X05325Y06439D01*
D01*
X0533Y06423D02*
D01*
X05271Y06408D02*
D01*
X05262Y06423D02*
X05271Y06408D01*
X05133Y06201D02*
X05151D01*
X05133D02*
X05151D01*
X05133D02*
D01*
X05151D01*
X05169Y06195D02*
D01*
X05133Y06138D02*
X05151D01*
X05245Y05928D02*
X05245Y05928D01*
X05262Y05915D02*
X05271Y05931D01*
X05271Y05931D02*
X05271Y05931D01*
X05271Y05931D01*
X0533Y05915D02*
D01*
X05178Y05644D02*
X05325Y059D01*
X04212Y05643D02*
X05176D01*
X0421Y05644D02*
D01*
X04062Y05899D02*
X0421Y05644D01*
X04062Y05899D02*
X04062D01*
X04117Y05931D02*
D01*
X04126Y05915*
X04236Y06137D02*
X04255D01*
X04236Y062D02*
X04255D01*
X04116Y06405D02*
X04126Y06423D01*
X04115Y06404D02*
D01*
X04062Y06437D02*
D01*
X04062Y06437D02*
D01*
X04072Y06454D01*
X03815D02*
X03824Y06439D01*
D01*
X03769Y06407D02*
D01*
X0376Y06423D02*
X03769Y06407D01*
X03632Y062D02*
X0365D01*
X03632Y06137D02*
X0365D01*
X0376Y05915D02*
X03769Y05931D01*
X03676Y05644D02*
X03824Y05899D01*
X03676Y05644D02*
Y04242D01*
X04118Y05931D02*
D01*
X04117Y05933*
X04116Y05935*
X04115Y05937*
X04113Y05938*
X04111Y0594*
X0411Y05941*
X04108Y05942*
X04106Y05943*
X04104Y05944*
X04102Y05945*
X041Y05946*
X04098Y05946*
X04096Y05947*
X04093Y05947*
X04091Y05947*
X04089Y05947*
X04087Y05947*
X04085Y05946*
X04082Y05946*
X0408Y05945*
X04078Y05944*
X04076Y05943*
X04074Y05942*
X04073Y05941*
X04071Y0594*
X04069Y05938*
X04068Y05937*
X04066Y05935*
X04065Y05933*
X04064Y05931*
X04063Y05929*
X04062Y05927*
X04061Y05925*
X04061Y05923*
X0406Y05921*
X0406Y05919*
X0406Y05917*
Y05914*
X0406Y05912*
X0406Y0591*
X04061Y05908*
X04061Y05906*
X04062Y05904*
X04063Y05902*
X04064Y059*
X04127Y05916D02*
D01*
X04131Y05918*
X04134Y05921*
X04138Y05923*
X04141Y05926*
X04144Y05929*
X04144Y05929*
D01*
X04161Y05943*
X04176Y05959*
X0419Y05975*
X04203Y05993*
X04215Y06012*
X04225Y06031*
X04234Y06051*
X04242Y06071*
X04248Y06092*
X04252Y06113*
X04256Y06135*
X04256Y06138*
X04238Y06201D02*
D01*
X04236Y06201*
X04233Y06201*
X04231Y062*
X04229Y062*
X04227Y06199*
X04225Y06198*
X04223Y06197*
X04221Y06196*
X04219Y06195*
X04218Y06194*
X04216Y06192*
X04214Y06191*
X04213Y06189*
X04212Y06187*
X04211Y06185*
X04209Y06183*
X04209Y06181*
X04208Y06179*
X04207Y06177*
X04207Y06175*
X04206Y06173*
X04206Y06171*
Y06168*
X04206Y06166*
X04207Y06164*
X04207Y06162*
X04208Y0616*
X04209Y06158*
X04209Y06156*
X04211Y06154*
X04212Y06152*
X04213Y0615*
X04214Y06148*
X04216Y06147*
X04218Y06145*
X04219Y06144*
X04221Y06143*
X04223Y06142*
X04225Y06141*
X04227Y0614*
X04229Y06139*
X04231Y06139*
X04233Y06138*
X04236Y06138*
X04238Y06138*
X04256Y06201D02*
D01*
X04253Y06223*
X04248Y06244*
X04243Y06265*
X04235Y06286*
X04226Y06306*
X04216Y06325*
X04205Y06344*
X04192Y06361*
X04178Y06378*
X04163Y06394*
X04147Y06408*
X04129Y06422*
X04127Y06423*
X04117Y06405D02*
D01*
X04117Y06405*
X04117Y06405*
X04117Y06405*
X04117Y06405*
X04117Y06406*
X04117Y06406*
X04063Y06438D02*
D01*
X04062Y06436*
X04061Y06433*
X04061Y06431*
X0406Y06429*
X0406Y06427*
X0406Y06425*
X0406Y06423*
X0406Y0642*
X0406Y06418*
X04061Y06416*
X04061Y06414*
X04062Y06412*
X04063Y0641*
X04064Y06408*
X04065Y06406*
X04066Y06404*
X04068Y06403*
X04069Y06401*
X04071Y064*
X04072Y06398*
X04074Y06397*
X04076Y06396*
X04078Y06395*
X0408Y06394*
X04082Y06393*
X04084Y06393*
X04087Y06392*
X04089Y06392*
X04091Y06392*
X04093Y06392*
X04095Y06392*
X04097Y06393*
X041Y06393*
X04102Y06394*
X04104Y06395*
X04106Y06396*
X04108Y06397*
X04109Y06398*
X04111Y06399*
X04113Y06401*
X04114Y06402*
X04116Y06404*
X04117Y06405*
X04063Y06438D02*
D01*
X04063Y06438*
X04063Y06438*
X04063Y06438*
X04063Y06438*
X04073Y06455D02*
D01*
X04053Y06463*
X04032Y0647*
X04011Y06475*
X03989Y06479*
X03968Y06482*
X03946Y06482*
X03924Y06482*
X03902Y0648*
X03881Y06476*
X03859Y06471*
X03839Y06464*
X03818Y06456*
X03816Y06455*
X03829Y06424D02*
D01*
X03829Y06426*
X03829Y06428*
X03829Y0643*
X03828Y06432*
X03827Y06434*
X03827Y06436*
X03826Y06438*
X03825Y06439*
X03771Y06408D02*
D01*
X03772Y06406*
X03773Y06404*
X03774Y06402*
X03776Y06401*
X03778Y06399*
X03779Y06398*
X03781Y06397*
X03783Y06396*
X03785Y06395*
X03787Y06394*
X03789Y06393*
X03791Y06393*
X03793Y06392*
X03796Y06392*
X03798Y06392*
X038Y06392*
X03802Y06392*
X03804Y06393*
X03807Y06393*
X03809Y06394*
X03811Y06395*
X03813Y06396*
X03815Y06397*
X03816Y06398*
X03818Y06399*
X0382Y06401*
X03821Y06402*
X03823Y06404*
X03824Y06406*
X03825Y06408*
X03826Y0641*
X03827Y06412*
X03828Y06414*
X03828Y06416*
X03829Y06418*
X03829Y0642*
X03829Y06422*
X03829Y06424*
X03762Y06423D02*
D01*
X03744Y0641*
X03728Y06395*
X03713Y0638*
X03699Y06363*
X03686Y06346*
X03674Y06327*
X03664Y06308*
X03655Y06288*
X03647Y06267*
X03641Y06246*
X03636Y06225*
X03633Y06203*
X03633Y06201*
X03683Y0617D02*
D01*
X03683Y06172*
X03682Y06174*
X03682Y06176*
X03681Y06178*
X03681Y0618*
X0368Y06182*
X03679Y06184*
X03678Y06186*
X03677Y06188*
X03675Y0619*
X03674Y06191*
X03672Y06193*
X03671Y06194*
X03669Y06196*
X03667Y06197*
X03665Y06198*
X03663Y06199*
X03661Y06199*
X03659Y062*
X03657Y06201*
X03654Y06201*
X03652Y06201*
X03651Y06201*
Y06138D02*
D01*
X03653Y06138*
X03656Y06138*
X03658Y06139*
X0366Y06139*
X03662Y0614*
X03664Y06141*
X03666Y06142*
X03668Y06143*
X0367Y06144*
X03671Y06145*
X03673Y06147*
X03675Y06148*
X03676Y0615*
X03677Y06152*
X03678Y06154*
X0368Y06156*
X0368Y06158*
X03681Y0616*
X03682Y06162*
X03682Y06164*
X03683Y06166*
X03683Y06168*
X03683Y0617*
X03633Y06138D02*
D01*
X03636Y06116*
X03641Y06095*
X03646Y06074*
X03654Y06053*
X03663Y06033*
X03673Y06014*
X03684Y05995*
X03697Y05978*
X03711Y05961*
X03726Y05945*
X03742Y05931*
X03745Y05929*
D01*
X03748Y05926*
X03751Y05923*
X03755Y05921*
X03758Y05918*
X03762Y05916*
X03762Y05916*
X03829Y05915D02*
D01*
X03829Y05918*
X03829Y0592*
X03829Y05922*
X03828Y05924*
X03827Y05926*
X03827Y05928*
X03826Y0593*
X03825Y05932*
X03823Y05934*
X03822Y05936*
X03821Y05937*
X03819Y05939*
X03817Y0594*
X03815Y05942*
X03814Y05943*
X03812Y05944*
X0381Y05945*
X03808Y05945*
X03805Y05946*
X03803Y05947*
X03801Y05947*
X03799Y05947*
X03797*
X03795Y05947*
X03792Y05947*
X0379Y05946*
X03788Y05945*
X03786Y05945*
X03784Y05944*
X03782Y05943*
X0378Y05942*
X03778Y0594*
X03777Y05939*
X03775Y05937*
X03774Y05936*
X03772Y05934*
X03771Y05932*
X03771Y05931*
X03825Y059D02*
D01*
X03826Y05902*
X03827Y05904*
X03828Y05906*
X03828Y05908*
X03829Y0591*
X03829Y05912*
X03829Y05914*
X03829Y05915*
X03678Y04242D02*
X04211D01*
Y05645D02*
Y04242D01*
X04064Y059D02*
X04211Y05645D01*
X04064Y059D02*
D01*
X04118Y05931D02*
D01*
X04127Y05916*
X04238Y06138D02*
X04256D01*
X04238Y06201D02*
X04256D01*
X04117Y06406D02*
X04127Y06423D01*
X04117Y06405D02*
D01*
X04063Y06438D02*
D01*
X04063Y06438D02*
D01*
X04073Y06455D01*
X03816D02*
X03825Y06439D01*
D01*
X03771Y06408D02*
D01*
X03762Y06423D02*
X03771Y06408D01*
X03633Y06201D02*
X03651D01*
X03633Y06138D02*
X03651D01*
X03762Y05916D02*
X03771Y05931D01*
X03678Y05645D02*
X03825Y059D01*
X03678Y05645D02*
Y04242D01*
X05618Y05931D02*
D01*
X05617Y05933*
X05616Y05935*
X05615Y05937*
X05613Y05938*
X05611Y0594*
X0561Y05941*
X05608Y05942*
X05606Y05943*
X05604Y05944*
X05602Y05945*
X056Y05946*
X05598Y05946*
X05596Y05947*
X05593Y05947*
X05591Y05947*
X05589Y05947*
X05587Y05947*
X05585Y05946*
X05582Y05946*
X0558Y05945*
X05578Y05944*
X05576Y05943*
X05574Y05942*
X05573Y05941*
X05571Y0594*
X05569Y05938*
X05568Y05937*
X05566Y05935*
X05565Y05933*
X05564Y05931*
X05563Y05929*
X05562Y05927*
X05561Y05925*
X05561Y05923*
X0556Y05921*
X0556Y05919*
X0556Y05917*
Y05914*
X0556Y05912*
X0556Y0591*
X05561Y05908*
X05561Y05906*
X05562Y05904*
X05563Y05902*
X05564Y059*
X05627Y05916D02*
D01*
X05631Y05918*
X05634Y05921*
X05638Y05923*
X05641Y05926*
X05644Y05929*
X05644Y05929*
D01*
X05661Y05943*
X05676Y05959*
X0569Y05975*
X05703Y05993*
X05715Y06012*
X05725Y06031*
X05734Y06051*
X05742Y06071*
X05748Y06092*
X05752Y06113*
X05756Y06135*
X05756Y06138*
X05738Y06201D02*
D01*
X05736Y06201*
X05733Y06201*
X05731Y062*
X05729Y062*
X05727Y06199*
X05725Y06198*
X05723Y06197*
X05721Y06196*
X05719Y06195*
X05718Y06194*
X05716Y06192*
X05714Y06191*
X05713Y06189*
X05712Y06187*
X05711Y06185*
X05709Y06183*
X05709Y06181*
X05708Y06179*
X05707Y06177*
X05707Y06175*
X05706Y06173*
X05706Y06171*
Y06168*
X05706Y06166*
X05707Y06164*
X05707Y06162*
X05708Y0616*
X05709Y06158*
X05709Y06156*
X05711Y06154*
X05712Y06152*
X05713Y0615*
X05714Y06148*
X05716Y06147*
X05718Y06145*
X05719Y06144*
X05721Y06143*
X05723Y06142*
X05725Y06141*
X05727Y0614*
X05729Y06139*
X05731Y06139*
X05733Y06138*
X05736Y06138*
X05738Y06138*
X05756Y06201D02*
D01*
X05753Y06223*
X05748Y06244*
X05743Y06265*
X05735Y06286*
X05726Y06306*
X05716Y06325*
X05705Y06344*
X05692Y06361*
X05678Y06378*
X05663Y06394*
X05647Y06408*
X05629Y06422*
X05627Y06423*
X05617Y06405D02*
D01*
X05617Y06405*
X05617Y06405*
X05617Y06405*
X05617Y06405*
X05617Y06406*
X05617Y06406*
X05563Y06438D02*
D01*
X05562Y06436*
X05561Y06433*
X05561Y06431*
X0556Y06429*
X0556Y06427*
X0556Y06425*
X0556Y06423*
X0556Y0642*
X0556Y06418*
X05561Y06416*
X05561Y06414*
X05562Y06412*
X05563Y0641*
X05564Y06408*
X05565Y06406*
X05566Y06404*
X05568Y06403*
X05569Y06401*
X05571Y064*
X05572Y06398*
X05574Y06397*
X05576Y06396*
X05578Y06395*
X0558Y06394*
X05582Y06393*
X05584Y06393*
X05587Y06392*
X05589Y06392*
X05591Y06392*
X05593Y06392*
X05595Y06392*
X05597Y06393*
X056Y06393*
X05602Y06394*
X05604Y06395*
X05606Y06396*
X05608Y06397*
X05609Y06398*
X05611Y06399*
X05613Y06401*
X05614Y06402*
X05616Y06404*
X05617Y06405*
X05563Y06438D02*
D01*
X05563Y06438*
X05563Y06438*
X05563Y06438*
X05563Y06438*
X05573Y06455D02*
D01*
X05553Y06463*
X05532Y0647*
X05511Y06475*
X05489Y06479*
X05468Y06482*
X05446Y06482*
X05424Y06482*
X05402Y0648*
X05381Y06476*
X05359Y06471*
X05339Y06464*
X05318Y06456*
X05316Y06455*
X05329Y06424D02*
D01*
X05329Y06426*
X05329Y06428*
X05329Y0643*
X05328Y06432*
X05327Y06434*
X05327Y06436*
X05326Y06438*
X05325Y06439*
X05271Y06408D02*
D01*
X05272Y06406*
X05273Y06404*
X05274Y06402*
X05276Y06401*
X05278Y06399*
X05279Y06398*
X05281Y06397*
X05283Y06396*
X05285Y06395*
X05287Y06394*
X05289Y06393*
X05291Y06393*
X05293Y06392*
X05296Y06392*
X05298Y06392*
X053Y06392*
X05302Y06392*
X05304Y06393*
X05307Y06393*
X05309Y06394*
X05311Y06395*
X05313Y06396*
X05315Y06397*
X05316Y06398*
X05318Y06399*
X0532Y06401*
X05321Y06402*
X05323Y06404*
X05324Y06406*
X05325Y06408*
X05326Y0641*
X05327Y06412*
X05328Y06414*
X05328Y06416*
X05329Y06418*
X05329Y0642*
X05329Y06422*
X05329Y06424*
X05262Y06423D02*
D01*
X05244Y0641*
X05228Y06395*
X05213Y0638*
X05199Y06363*
X05186Y06346*
X05174Y06327*
X05164Y06308*
X05155Y06288*
X05147Y06267*
X05141Y06246*
X05136Y06225*
X05133Y06203*
X05133Y06201*
X05183Y0617D02*
D01*
X05183Y06172*
X05182Y06174*
X05182Y06176*
X05181Y06178*
X05181Y0618*
X0518Y06182*
X05179Y06184*
X05178Y06186*
X05177Y06188*
X05175Y0619*
X05174Y06191*
X05172Y06193*
X05171Y06194*
X05169Y06196*
X05167Y06197*
X05165Y06198*
X05163Y06199*
X05161Y06199*
X05159Y062*
X05157Y06201*
X05154Y06201*
X05152Y06201*
X05151Y06201*
Y06138D02*
D01*
X05153Y06138*
X05156Y06138*
X05158Y06139*
X0516Y06139*
X05162Y0614*
X05164Y06141*
X05166Y06142*
X05168Y06143*
X0517Y06144*
X05171Y06145*
X05173Y06147*
X05175Y06148*
X05176Y0615*
X05177Y06152*
X05178Y06154*
X0518Y06156*
X0518Y06158*
X05181Y0616*
X05182Y06162*
X05182Y06164*
X05183Y06166*
X05183Y06168*
X05183Y0617*
X05133Y06138D02*
D01*
X05136Y06116*
X05141Y06095*
X05146Y06074*
X05154Y06053*
X05163Y06033*
X05173Y06014*
X05184Y05995*
X05197Y05978*
X05211Y05961*
X05226Y05945*
X05242Y05931*
X05245Y05929*
D01*
X05248Y05926*
X05251Y05923*
X05255Y05921*
X05258Y05918*
X05262Y05916*
X05262Y05916*
X05329Y05915D02*
D01*
X05329Y05918*
X05329Y0592*
X05329Y05922*
X05328Y05924*
X05327Y05926*
X05327Y05928*
X05326Y0593*
X05325Y05932*
X05323Y05934*
X05322Y05936*
X05321Y05937*
X05319Y05939*
X05317Y0594*
X05315Y05942*
X05314Y05943*
X05312Y05944*
X0531Y05945*
X05308Y05945*
X05305Y05946*
X05303Y05947*
X05301Y05947*
X05299Y05947*
X05297*
X05295Y05947*
X05292Y05947*
X0529Y05946*
X05288Y05945*
X05286Y05945*
X05284Y05944*
X05282Y05943*
X0528Y05942*
X05278Y0594*
X05277Y05939*
X05275Y05937*
X05274Y05936*
X05272Y05934*
X05271Y05932*
X05271Y05931*
X05325Y059D02*
D01*
X05326Y05902*
X05327Y05904*
X05328Y05906*
X05328Y05908*
X05329Y0591*
X05329Y05912*
X05329Y05914*
X05329Y05915*
X05178Y04242D02*
X05711D01*
Y05645D02*
Y04242D01*
X05564Y059D02*
X05711Y05645D01*
X05564Y059D02*
D01*
X05618Y05931D02*
D01*
X05627Y05916*
X05738Y06138D02*
X05756D01*
X05738Y06201D02*
X05756D01*
X05617Y06406D02*
X05627Y06423D01*
X05617Y06405D02*
D01*
X05563Y06438D02*
D01*
X05563Y06438D02*
D01*
X05573Y06455D01*
X05316D02*
X05325Y06439D01*
D01*
X05271Y06408D02*
D01*
X05262Y06423D02*
X05271Y06408D01*
X05133Y06201D02*
X05151D01*
X05133Y06138D02*
X05151D01*
X05262Y05916D02*
X05271Y05931D01*
X05178Y05645D02*
X05325Y059D01*
X05178Y05645D02*
Y04242D01*
X07118Y05931D02*
D01*
X07117Y05933*
X07116Y05935*
X07115Y05937*
X07113Y05938*
X07111Y0594*
X0711Y05941*
X07108Y05942*
X07106Y05943*
X07104Y05944*
X07102Y05945*
X071Y05946*
X07098Y05946*
X07096Y05947*
X07093Y05947*
X07091Y05947*
X07089Y05947*
X07087Y05947*
X07085Y05946*
X07082Y05946*
X0708Y05945*
X07078Y05944*
X07076Y05943*
X07074Y05942*
X07073Y05941*
X07071Y0594*
X07069Y05938*
X07068Y05937*
X07066Y05935*
X07065Y05933*
X07064Y05931*
X07063Y05929*
X07062Y05927*
X07061Y05925*
X07061Y05923*
X0706Y05921*
X0706Y05919*
X0706Y05917*
Y05914*
X0706Y05912*
X0706Y0591*
X07061Y05908*
X07061Y05906*
X07062Y05904*
X07063Y05902*
X07064Y059*
X07127Y05916D02*
D01*
X07131Y05918*
X07134Y05921*
X07138Y05923*
X07141Y05926*
X07144Y05929*
X07144Y05929*
D01*
X07161Y05943*
X07176Y05959*
X0719Y05975*
X07203Y05993*
X07215Y06012*
X07225Y06031*
X07234Y06051*
X07242Y06071*
X07248Y06092*
X07252Y06113*
X07256Y06135*
X07256Y06138*
X07238Y06201D02*
D01*
X07236Y06201*
X07233Y06201*
X07231Y062*
X07229Y062*
X07227Y06199*
X07225Y06198*
X07223Y06197*
X07221Y06196*
X07219Y06195*
X07218Y06194*
X07216Y06192*
X07214Y06191*
X07213Y06189*
X07212Y06187*
X07211Y06185*
X07209Y06183*
X07209Y06181*
X07208Y06179*
X07207Y06177*
X07207Y06175*
X07206Y06173*
X07206Y06171*
Y06168*
X07206Y06166*
X07207Y06164*
X07207Y06162*
X07208Y0616*
X07209Y06158*
X07209Y06156*
X07211Y06154*
X07212Y06152*
X07213Y0615*
X07214Y06148*
X07216Y06147*
X07218Y06145*
X07219Y06144*
X07221Y06143*
X07223Y06142*
X07225Y06141*
X07227Y0614*
X07229Y06139*
X07231Y06139*
X07233Y06138*
X07236Y06138*
X07238Y06138*
X07256Y06201D02*
D01*
X07253Y06223*
X07248Y06244*
X07243Y06265*
X07235Y06286*
X07226Y06306*
X07216Y06325*
X07205Y06344*
X07192Y06361*
X07178Y06378*
X07163Y06394*
X07147Y06408*
X07129Y06422*
X07127Y06423*
X07117Y06405D02*
D01*
X07117Y06405*
X07117Y06405*
X07117Y06405*
X07117Y06405*
X07117Y06406*
X07117Y06406*
X07063Y06438D02*
D01*
X07062Y06436*
X07061Y06433*
X07061Y06431*
X0706Y06429*
X0706Y06427*
X0706Y06425*
X0706Y06423*
X0706Y0642*
X0706Y06418*
X07061Y06416*
X07061Y06414*
X07062Y06412*
X07063Y0641*
X07064Y06408*
X07065Y06406*
X07066Y06404*
X07068Y06403*
X07069Y06401*
X07071Y064*
X07072Y06398*
X07074Y06397*
X07076Y06396*
X07078Y06395*
X0708Y06394*
X07082Y06393*
X07084Y06393*
X07087Y06392*
X07089Y06392*
X07091Y06392*
X07093Y06392*
X07095Y06392*
X07097Y06393*
X071Y06393*
X07102Y06394*
X07104Y06395*
X07106Y06396*
X07108Y06397*
X07109Y06398*
X07111Y06399*
X07113Y06401*
X07114Y06402*
X07116Y06404*
X07117Y06405*
X07063Y06438D02*
D01*
X07063Y06438*
X07063Y06438*
X07063Y06438*
X07063Y06438*
X07073Y06455D02*
D01*
X07053Y06463*
X07032Y0647*
X07011Y06475*
X06989Y06479*
X06968Y06482*
X06946Y06482*
X06924Y06482*
X06902Y0648*
X06881Y06476*
X06859Y06471*
X06839Y06464*
X06818Y06456*
X06816Y06455*
X06829Y06424D02*
D01*
X06829Y06426*
X06829Y06428*
X06829Y0643*
X06828Y06432*
X06827Y06434*
X06827Y06436*
X06826Y06438*
X06825Y06439*
X06771Y06408D02*
D01*
X06772Y06406*
X06773Y06404*
X06774Y06402*
X06776Y06401*
X06778Y06399*
X06779Y06398*
X06781Y06397*
X06783Y06396*
X06785Y06395*
X06787Y06394*
X06789Y06393*
X06791Y06393*
X06793Y06392*
X06796Y06392*
X06798Y06392*
X068Y06392*
X06802Y06392*
X06804Y06393*
X06807Y06393*
X06809Y06394*
X06811Y06395*
X06813Y06396*
X06815Y06397*
X06816Y06398*
X06818Y06399*
X0682Y06401*
X06821Y06402*
X06823Y06404*
X06824Y06406*
X06825Y06408*
X06826Y0641*
X06827Y06412*
X06828Y06414*
X06828Y06416*
X06829Y06418*
X06829Y0642*
X06829Y06422*
X06829Y06424*
X06762Y06423D02*
D01*
X06744Y0641*
X06728Y06395*
X06713Y0638*
X06699Y06363*
X06686Y06346*
X06674Y06327*
X06664Y06308*
X06655Y06288*
X06647Y06267*
X06641Y06246*
X06636Y06225*
X06633Y06203*
X06633Y06201*
X06683Y0617D02*
D01*
X06683Y06172*
X06682Y06174*
X06682Y06176*
X06681Y06178*
X06681Y0618*
X0668Y06182*
X06679Y06184*
X06678Y06186*
X06677Y06188*
X06675Y0619*
X06674Y06191*
X06672Y06193*
X06671Y06194*
X06669Y06196*
X06667Y06197*
X06665Y06198*
X06663Y06199*
X06661Y06199*
X06659Y062*
X06657Y06201*
X06654Y06201*
X06652Y06201*
X06651Y06201*
Y06138D02*
D01*
X06653Y06138*
X06656Y06138*
X06658Y06139*
X0666Y06139*
X06662Y0614*
X06664Y06141*
X06666Y06142*
X06668Y06143*
X0667Y06144*
X06671Y06145*
X06673Y06147*
X06675Y06148*
X06676Y0615*
X06677Y06152*
X06678Y06154*
X0668Y06156*
X0668Y06158*
X06681Y0616*
X06682Y06162*
X06682Y06164*
X06683Y06166*
X06683Y06168*
X06683Y0617*
X06633Y06138D02*
D01*
X06636Y06116*
X06641Y06095*
X06646Y06074*
X06654Y06053*
X06663Y06033*
X06673Y06014*
X06684Y05995*
X06697Y05978*
X06711Y05961*
X06726Y05945*
X06742Y05931*
X06745Y05929*
D01*
X06748Y05926*
X06751Y05923*
X06755Y05921*
X06758Y05918*
X06762Y05916*
X06762Y05916*
X06829Y05915D02*
D01*
X06829Y05918*
X06829Y0592*
X06829Y05922*
X06828Y05924*
X06827Y05926*
X06827Y05928*
X06826Y0593*
X06825Y05932*
X06823Y05934*
X06822Y05936*
X06821Y05937*
X06819Y05939*
X06817Y0594*
X06815Y05942*
X06814Y05943*
X06812Y05944*
X0681Y05945*
X06808Y05945*
X06805Y05946*
X06803Y05947*
X06801Y05947*
X06799Y05947*
X06797*
X06795Y05947*
X06792Y05947*
X0679Y05946*
X06788Y05945*
X06786Y05945*
X06784Y05944*
X06782Y05943*
X0678Y05942*
X06778Y0594*
X06777Y05939*
X06775Y05937*
X06774Y05936*
X06772Y05934*
X06771Y05932*
X06771Y05931*
X06825Y059D02*
D01*
X06826Y05902*
X06827Y05904*
X06828Y05906*
X06828Y05908*
X06829Y0591*
X06829Y05912*
X06829Y05914*
X06829Y05915*
X06678Y04242D02*
X07211D01*
Y05645D02*
Y04242D01*
X07064Y059D02*
X07211Y05645D01*
X07064Y059D02*
D01*
X07118Y05931D02*
D01*
X07127Y05916*
X07238Y06138D02*
X07256D01*
X07238Y06201D02*
X07256D01*
X07117Y06406D02*
X07127Y06423D01*
X07117Y06405D02*
D01*
X07063Y06438D02*
D01*
X07063Y06438D02*
D01*
X07073Y06455D01*
X06816D02*
X06825Y06439D01*
D01*
X06771Y06408D02*
D01*
X06762Y06423D02*
X06771Y06408D01*
X06633Y06201D02*
X06651D01*
X06633Y06138D02*
X06651D01*
X06762Y05916D02*
X06771Y05931D01*
X06678Y05645D02*
X06825Y059D01*
X06678Y05645D02*
Y04242D01*
G54D60*
X07063Y06437D03*
X05617Y06405D03*
X05563Y06437D03*
M02*