%FSTAX23Y23*%
%MOIN*%
%SFA1B1*%

%IPPOS*%
%ADD12C,0.010000*%
%ADD47C,0.007874*%
%LNpcb4-1*%
%LPD*%
G54D12*
X06684Y06724D02*
X06644D01*
Y06664*
X06684*
X06644Y06694D02*
X06664D01*
X06744Y06724D02*
Y06664D01*
X06714*
X06704Y06674*
Y06694*
X06714Y06704*
X06744*
X06784Y06644D02*
X06794D01*
X06804Y06654*
Y06704*
X06774*
X06764Y06694*
Y06674*
X06774Y06664*
X06804*
X06854D02*
X06834D01*
X06824Y06674*
Y06694*
X06834Y06704*
X06854*
X06864Y06694*
Y06684*
X06824*
X06944Y06664D02*
Y06724D01*
X06974*
X06984Y06714*
Y06694*
X06974Y06684*
X06944*
X07004Y06664D02*
X07024D01*
X07014*
Y06724*
X07004*
X07064Y06704D02*
X07084D01*
X07094Y06694*
Y06664*
X07064*
X07054Y06674*
X07064Y06684*
X07094*
X07124Y06714D02*
Y06704D01*
X07114*
X07134*
X07124*
Y06674*
X07134Y06664*
X07164D02*
X07184D01*
X07174*
Y06704*
X07164*
X07214Y06664D02*
Y06704D01*
X07244*
X07254Y06694*
Y06664*
X07294Y06644D02*
X07304D01*
X07314Y06654*
Y06704*
X07284*
X07274Y06694*
Y06674*
X07284Y06664*
X07314*
X05183Y06589D02*
X05143D01*
Y06529*
X05183*
X05143Y06559D02*
X05163D01*
X05243Y06589D02*
Y06529D01*
X05213*
X05203Y06539*
Y06559*
X05213Y06569*
X05243*
X05283Y06509D02*
X05293D01*
X05303Y06519*
Y06569*
X05273*
X05263Y06559*
Y06539*
X05273Y06529*
X05303*
X05353D02*
X05333D01*
X05323Y06539*
Y06559*
X05333Y06569*
X05353*
X05363Y06559*
Y06549*
X05323*
X05443Y06529D02*
Y06589D01*
X05473*
X05483Y06579*
Y06559*
X05473Y06549*
X05443*
X05503Y06529D02*
X05523D01*
X05513*
Y06589*
X05503*
X05563Y06569D02*
X05583D01*
X05593Y06559*
Y06529*
X05563*
X05553Y06539*
X05563Y06549*
X05593*
X05623Y06579D02*
Y06569D01*
X05613*
X05633*
X05623*
Y06539*
X05633Y06529*
X05663D02*
X05683D01*
X05673*
Y06569*
X05663*
X05713Y06529D02*
Y06569D01*
X05743*
X05753Y06559*
Y06529*
X05793Y06509D02*
X05803D01*
X05813Y06519*
Y06569*
X05783*
X05773Y06559*
Y06539*
X05783Y06529*
X05813*
X04535Y06986D02*
Y07741D01*
X0346Y06986D02*
X04535D01*
X03505Y07601D02*
X04185D01*
X0346Y07741D02*
X04535D01*
X0346Y06986D02*
Y07741D01*
X0351Y07625D02*
Y07665D01*
X03529*
X03536Y07658*
Y07645*
X03529Y07639*
X0351*
X03575Y07658D02*
X03569Y07665D01*
X03556*
X03549Y07658*
Y07632*
X03556Y07625*
X03569*
X03575Y07632*
X03588Y07665D02*
Y07625D01*
X03608*
X03615Y07632*
Y07639*
X03608Y07645*
X03588*
X03608*
X03615Y07652*
Y07658*
X03608Y07665*
X03588*
X03628Y07625D02*
Y07665D01*
X03641Y07652*
X03654Y07665*
Y07625*
X03674D02*
X03687D01*
X03693Y07632*
Y07645*
X03687Y07652*
X03674*
X03667Y07645*
Y07632*
X03674Y07625*
X03713Y07658D02*
Y07652D01*
X03706*
X0372*
X03713*
Y07632*
X0372Y07625*
X03746D02*
X03759D01*
X03765Y07632*
Y07645*
X03759Y07652*
X03746*
X03739Y07645*
Y07632*
X03746Y07625*
X03779Y07652D02*
Y07625D01*
Y07639*
X03785Y07645*
X03792Y07652*
X03798*
X03818D02*
X03831Y07625D01*
X03844Y07652*
X03877Y07625D02*
Y07665D01*
X03857Y07645*
X03884*
X03962Y07658D02*
X03956Y07665D01*
X03943*
X03936Y07658*
Y07652*
X03943Y07645*
X03956*
X03962Y07639*
Y07632*
X03956Y07625*
X03943*
X03936Y07632*
X03975Y07612D02*
Y07652D01*
X03995*
X04002Y07645*
Y07632*
X03995Y07625*
X03975*
X04034D02*
X04021D01*
X04015Y07632*
Y07645*
X04021Y07652*
X04034*
X04041Y07645*
Y07639*
X04015*
X0408Y07652D02*
X04061D01*
X04054Y07645*
Y07632*
X04061Y07625*
X0408*
X04093D02*
X04113D01*
X0412Y07632*
X04113Y07639*
X041*
X04093Y07645*
X041Y07652*
X0412*
X04133D02*
X04139D01*
Y07645*
X04133*
Y07652*
Y07632D02*
X04139D01*
Y07625*
X04133*
Y07632*
X0351Y07561D02*
X03536D01*
X03549Y0758D02*
X03562D01*
X03556*
Y07541*
X03549*
X03562*
X03582D02*
Y0758D01*
X03602*
X03608Y07574*
Y07561*
X03602Y07554*
X03582*
X03647Y07574D02*
X03641Y0758D01*
X03628*
X03621Y07574*
Y07548*
X03628Y07541*
X03641*
X03647Y07548*
X03726Y0758D02*
X03713Y07574D01*
X037Y07561*
Y07548*
X03706Y07541*
X0372*
X03726Y07548*
Y07554*
X0372Y07561*
X037*
X03739Y07574D02*
X03746Y0758D01*
X03759*
X03765Y07574*
Y07548*
X03759Y07541*
X03746*
X03739Y07548*
Y07574*
X03779Y07541D02*
X03792D01*
X03785*
Y0758*
X03779Y07574*
X03838Y07541D02*
X03811D01*
X03838Y07567*
Y07574*
X03831Y0758*
X03818*
X03811Y07574*
X03916D02*
X0391Y0758D01*
X03897*
X0389Y07574*
Y07548*
X03897Y07541*
X0391*
X03916Y07548*
X03929Y07541D02*
X03943D01*
X03936*
Y0758*
X03929*
X03969Y07567D02*
X03982D01*
X03989Y07561*
Y07541*
X03969*
X03962Y07548*
X03969Y07554*
X03989*
X04002Y07541D02*
X04021D01*
X04028Y07548*
X04021Y07554*
X04008*
X04002Y07561*
X04008Y07567*
X04028*
X04041Y07541D02*
X04061D01*
X04067Y07548*
X04061Y07554*
X04048*
X04041Y07561*
X04048Y07567*
X04067*
X0412Y07574D02*
X04126Y0758D01*
X04139*
X04146Y07574*
Y07567*
X04139Y07561*
X04133*
X04139*
X04146Y07554*
Y07548*
X04139Y07541*
X04126*
X0412Y07548*
X0351Y0749D02*
X03536D01*
X03549Y07509D02*
X03575D01*
X03562*
Y0747*
X03602Y07457D02*
X03608D01*
X03615Y07463*
Y07496*
X03595*
X03588Y0749*
Y07476*
X03595Y0747*
X03615*
X03628D02*
X03641D01*
X03634*
Y07509*
X03628Y07503*
X03661Y07509D02*
X03687D01*
Y07503*
X03661Y07476*
Y0747*
X037Y07503D02*
X03706Y07509D01*
X0372*
X03726Y07503*
Y07476*
X0372Y0747*
X03706*
X037Y07476*
Y07503*
X03805Y07509D02*
X03779D01*
Y0749*
X03792*
X03779*
Y0747*
X03818D02*
Y07509D01*
X03838*
X03844Y07503*
Y0749*
X03838Y07483*
X03818*
X03831D02*
X03844Y0747D01*
X03877D02*
Y07509D01*
X03857Y0749*
X03884*
X0351Y07405D02*
X03536D01*
X03549Y07418D02*
X03556Y07425D01*
X03569*
X03575Y07418*
Y07392*
X03569Y07386*
X03556*
X03549Y07392*
Y07418*
X03588Y07386D02*
Y07392D01*
X03595*
Y07386*
X03588*
X03647Y07425D02*
X03634Y07418D01*
X03621Y07405*
Y07392*
X03628Y07386*
X03641*
X03647Y07392*
Y07399*
X03641Y07405*
X03621*
X03661Y07386D02*
Y07412D01*
X03667*
X03674Y07405*
Y07386*
Y07405*
X0368Y07412*
X03687Y07405*
Y07386*
X037D02*
Y07412D01*
X03706*
X03713Y07405*
Y07386*
Y07405*
X0372Y07412*
X03726Y07405*
Y07386*
X03785Y07418D02*
Y07412D01*
X03779*
X03792*
X03785*
Y07392*
X03792Y07386*
X03811Y07425D02*
Y07386D01*
Y07405*
X03818Y07412*
X03831*
X03838Y07405*
Y07386*
X03851D02*
X03864D01*
X03857*
Y07412*
X03851*
X0391D02*
X0389D01*
X03884Y07405*
Y07392*
X0389Y07386*
X0391*
X03923D02*
Y07425D01*
Y07399D02*
X03943Y07412D01*
X03923Y07399D02*
X03943Y07386D01*
X03962D02*
Y07412D01*
X03982*
X03989Y07405*
Y07386*
X04021D02*
X04008D01*
X04002Y07392*
Y07405*
X04008Y07412*
X04021*
X04028Y07405*
Y07399*
X04002*
X04041Y07386D02*
X04061D01*
X04067Y07392*
X04061Y07399*
X04048*
X04041Y07405*
X04048Y07412*
X04067*
X0408Y07386D02*
X041D01*
X04107Y07392*
X041Y07399*
X04087*
X0408Y07405*
X04087Y07412*
X04107*
X0351Y07334D02*
X03536D01*
X03569Y07314D02*
Y07354D01*
X03549Y07334*
X03575*
X03588Y07314D02*
X03615Y07341D01*
X03647Y07314D02*
Y07354D01*
X03628Y07334*
X03654*
X03667Y07314D02*
Y07341D01*
X03674*
X0368Y07334*
Y07314*
Y07334*
X03687Y07341*
X03693Y07334*
Y07314*
X03706D02*
X0372D01*
X03713*
Y07341*
X03706*
X03739Y07314D02*
X03752D01*
X03746*
Y07354*
X03739*
X03811Y07314D02*
Y07354D01*
X03825Y07341*
X03838Y07354*
Y07314*
X03851D02*
X03864D01*
X03857*
Y07341*
X03851*
X03884Y07314D02*
Y07341D01*
X03903*
X0391Y07334*
Y07314*
X03962Y07354D02*
X03989D01*
X03975*
Y07314*
X04002Y07341D02*
Y07314D01*
Y07327*
X04008Y07334*
X04015Y07341*
X04021*
X04048D02*
X04061D01*
X04067Y07334*
Y07314*
X04048*
X04041Y07321*
X04048Y07327*
X04067*
X04107Y07341D02*
X04087D01*
X0408Y07334*
Y07321*
X04087Y07314*
X04107*
X0412D02*
Y07354D01*
Y07327D02*
X04139Y07341D01*
X0412Y07327D02*
X04139Y07314D01*
X04159D02*
X04185Y07341D01*
X04225Y07347D02*
X04218Y07354D01*
X04205*
X04198Y07347*
Y07341*
X04205Y07334*
X04218*
X04225Y07327*
Y07321*
X04218Y07314*
X04205*
X04198Y07321*
X04238Y07301D02*
Y07341D01*
X04257*
X04264Y07334*
Y07321*
X04257Y07314*
X04238*
X04284Y07341D02*
X04297D01*
X04303Y07334*
Y07314*
X04284*
X04277Y07321*
X04284Y07327*
X04303*
X04343Y07341D02*
X04323D01*
X04316Y07334*
Y07321*
X04323Y07314*
X04343*
X04356D02*
X04369D01*
X04362*
Y07341*
X04356*
X04389Y07314D02*
Y07341D01*
X04408*
X04415Y07334*
Y07314*
X04441Y07301D02*
X04448D01*
X04454Y07308*
Y07341*
X04435*
X04428Y07334*
Y07321*
X04435Y07314*
X04454*
X0351Y0725D02*
X03536D01*
X03549Y07263D02*
X03556Y07269D01*
X03569*
X03575Y07263*
Y07236*
X03569Y0723*
X03556*
X03549Y07236*
Y07263*
X03588Y0723D02*
Y07236D01*
X03595*
Y0723*
X03588*
X03647D02*
X03621D01*
X03647Y07256*
Y07263*
X03641Y07269*
X03628*
X03621Y07263*
X03661Y0723D02*
Y07256D01*
X03667*
X03674Y0725*
Y0723*
Y0725*
X0368Y07256*
X03687Y0725*
Y0723*
X037D02*
Y07256D01*
X03706*
X03713Y0725*
Y0723*
Y0725*
X0372Y07256*
X03726Y0725*
Y0723*
X03779D02*
Y07269D01*
X03792Y07256*
X03805Y07269*
Y0723*
X03818D02*
X03831D01*
X03825*
Y07256*
X03818*
X03851Y0723D02*
Y07256D01*
X0387*
X03877Y0725*
Y0723*
X03929Y07269D02*
Y0723D01*
Y0725*
X03956*
Y07269*
Y0723*
X03975D02*
X03989D01*
X03995Y07236*
Y0725*
X03989Y07256*
X03975*
X03969Y0725*
Y07236*
X03975Y0723*
X04008D02*
X04021D01*
X04015*
Y07269*
X04008*
X04061Y0723D02*
X04048D01*
X04041Y07236*
Y0725*
X04048Y07256*
X04061*
X04067Y0725*
Y07243*
X04041*
X04146Y07263D02*
X04139Y07269D01*
X04126*
X0412Y07263*
Y07256*
X04126Y0725*
X04139*
X04146Y07243*
Y07236*
X04139Y0723*
X04126*
X0412Y07236*
X04159Y0723D02*
X04172D01*
X04166*
Y07256*
X04159*
X04192D02*
X04218D01*
X04192Y0723*
X04218*
X04251D02*
X04238D01*
X04231Y07236*
Y0725*
X04238Y07256*
X04251*
X04257Y0725*
Y07243*
X04231*
X0351Y07178D02*
X03536D01*
X03549Y07159D02*
X03562D01*
X03556*
Y07198*
X03549Y07192*
X03588Y07159D02*
X03602D01*
X03608Y07165*
Y07178*
X03602Y07185*
X03588*
X03582Y07178*
Y07165*
X03588Y07159*
X03621Y07185D02*
X03647D01*
X03621Y07159*
X03647*
X03726Y07198D02*
X037D01*
Y07178*
X03713*
X037*
Y07159*
X03739D02*
X03752D01*
X03746*
Y07185*
X03739*
X03772Y07159D02*
Y07185D01*
X03792*
X03798Y07178*
Y07159*
X03811D02*
X03825D01*
X03818*
Y07185*
X03811*
X03844Y07159D02*
X03864D01*
X0387Y07165*
X03864Y07172*
X03851*
X03844Y07178*
X03851Y07185*
X0387*
X03884Y07198D02*
Y07159D01*
Y07178*
X0389Y07185*
X03903*
X0391Y07178*
Y07159*
X03943D02*
X03929D01*
X03923Y07165*
Y07178*
X03929Y07185*
X03943*
X03949Y07178*
Y07172*
X03923*
X03989Y07198D02*
Y07159D01*
X03969*
X03962Y07165*
Y07178*
X03969Y07185*
X03989*
X04067Y07192D02*
X04061Y07198D01*
X04048*
X04041Y07192*
Y07165*
X04048Y07159*
X04061*
X04067Y07165*
X04087Y07159D02*
X041D01*
X04107Y07165*
Y07178*
X041Y07185*
X04087*
X0408Y07178*
Y07165*
X04087Y07159*
X0412Y07146D02*
Y07185D01*
X04139*
X04146Y07178*
Y07165*
X04139Y07159*
X0412*
X04159Y07146D02*
Y07185D01*
X04179*
X04185Y07178*
Y07165*
X04179Y07159*
X04159*
X04218D02*
X04205D01*
X04198Y07165*
Y07178*
X04205Y07185*
X04218*
X04225Y07178*
Y07172*
X04198*
X04238Y07185D02*
Y07159D01*
Y07172*
X04244Y07178*
X04251Y07185*
X04257*
X0351Y07094D02*
X03536D01*
X03549Y07074D02*
X03562D01*
X03556*
Y07114*
X03549Y07107*
X03588Y07074D02*
X03602D01*
X03608Y07081*
Y07094*
X03602Y07101*
X03588*
X03582Y07094*
Y07081*
X03588Y07074*
X03621Y07101D02*
X03647D01*
X03621Y07074*
X03647*
X037Y07114D02*
X03713D01*
X03706*
Y07074*
X037*
X03713*
X03733D02*
Y07101D01*
X03752*
X03759Y07094*
Y07074*
X03772D02*
Y07101D01*
X03792*
X03798Y07094*
Y07074*
X03831D02*
X03818D01*
X03811Y07081*
Y07094*
X03818Y07101*
X03831*
X03838Y07094*
Y07087*
X03811*
X03851Y07101D02*
Y07074D01*
Y07087*
X03857Y07094*
X03864Y07101*
X0387*
X03956Y07107D02*
X03949Y07114D01*
X03936*
X03929Y07107*
Y07081*
X03936Y07074*
X03949*
X03956Y07081*
X03975Y07074D02*
X03989D01*
X03995Y07081*
Y07094*
X03989Y07101*
X03975*
X03969Y07094*
Y07081*
X03975Y07074*
X04008Y07061D02*
Y07101D01*
X04028*
X04034Y07094*
Y07081*
X04028Y07074*
X04008*
X04048Y07061D02*
Y07101D01*
X04067*
X04074Y07094*
Y07081*
X04067Y07074*
X04048*
X04107D02*
X04093D01*
X04087Y07081*
Y07094*
X04093Y07101*
X04107*
X04113Y07094*
Y07087*
X04087*
X04126Y07101D02*
Y07074D01*
Y07087*
X04133Y07094*
X04139Y07101*
X04146*
X06035Y06986D02*
Y07741D01*
X0496Y06986D02*
X06035D01*
X05005Y07601D02*
X05685D01*
X0496Y07741D02*
X06035D01*
X0496Y06986D02*
Y07741D01*
X0501Y07625D02*
Y07665D01*
X05029*
X05036Y07658*
Y07645*
X05029Y07639*
X0501*
X05075Y07658D02*
X05069Y07665D01*
X05056*
X05049Y07658*
Y07632*
X05056Y07625*
X05069*
X05075Y07632*
X05088Y07665D02*
Y07625D01*
X05108*
X05115Y07632*
Y07639*
X05108Y07645*
X05088*
X05108*
X05115Y07652*
Y07658*
X05108Y07665*
X05088*
X05128Y07625D02*
Y07665D01*
X05141Y07652*
X05154Y07665*
Y07625*
X05174D02*
X05187D01*
X05193Y07632*
Y07645*
X05187Y07652*
X05174*
X05167Y07645*
Y07632*
X05174Y07625*
X05213Y07658D02*
Y07652D01*
X05206*
X0522*
X05213*
Y07632*
X0522Y07625*
X05246D02*
X05259D01*
X05265Y07632*
Y07645*
X05259Y07652*
X05246*
X05239Y07645*
Y07632*
X05246Y07625*
X05279Y07652D02*
Y07625D01*
Y07639*
X05285Y07645*
X05292Y07652*
X05298*
X05318D02*
X05331Y07625D01*
X05344Y07652*
X05377Y07625D02*
Y07665D01*
X05357Y07645*
X05384*
X05462Y07658D02*
X05456Y07665D01*
X05443*
X05436Y07658*
Y07652*
X05443Y07645*
X05456*
X05462Y07639*
Y07632*
X05456Y07625*
X05443*
X05436Y07632*
X05475Y07612D02*
Y07652D01*
X05495*
X05502Y07645*
Y07632*
X05495Y07625*
X05475*
X05534D02*
X05521D01*
X05515Y07632*
Y07645*
X05521Y07652*
X05534*
X05541Y07645*
Y07639*
X05515*
X0558Y07652D02*
X05561D01*
X05554Y07645*
Y07632*
X05561Y07625*
X0558*
X05593D02*
X05613D01*
X0562Y07632*
X05613Y07639*
X056*
X05593Y07645*
X056Y07652*
X0562*
X05633D02*
X05639D01*
Y07645*
X05633*
Y07652*
Y07632D02*
X05639D01*
Y07625*
X05633*
Y07632*
X0501Y07561D02*
X05036D01*
X05049Y0758D02*
X05062D01*
X05056*
Y07541*
X05049*
X05062*
X05082D02*
Y0758D01*
X05102*
X05108Y07574*
Y07561*
X05102Y07554*
X05082*
X05147Y07574D02*
X05141Y0758D01*
X05128*
X05121Y07574*
Y07548*
X05128Y07541*
X05141*
X05147Y07548*
X05226Y0758D02*
X05213Y07574D01*
X052Y07561*
Y07548*
X05206Y07541*
X0522*
X05226Y07548*
Y07554*
X0522Y07561*
X052*
X05239Y07574D02*
X05246Y0758D01*
X05259*
X05265Y07574*
Y07548*
X05259Y07541*
X05246*
X05239Y07548*
Y07574*
X05279Y07541D02*
X05292D01*
X05285*
Y0758*
X05279Y07574*
X05338Y07541D02*
X05311D01*
X05338Y07567*
Y07574*
X05331Y0758*
X05318*
X05311Y07574*
X05416D02*
X0541Y0758D01*
X05397*
X0539Y07574*
Y07548*
X05397Y07541*
X0541*
X05416Y07548*
X05429Y07541D02*
X05443D01*
X05436*
Y0758*
X05429*
X05469Y07567D02*
X05482D01*
X05489Y07561*
Y07541*
X05469*
X05462Y07548*
X05469Y07554*
X05489*
X05502Y07541D02*
X05521D01*
X05528Y07548*
X05521Y07554*
X05508*
X05502Y07561*
X05508Y07567*
X05528*
X05541Y07541D02*
X05561D01*
X05567Y07548*
X05561Y07554*
X05548*
X05541Y07561*
X05548Y07567*
X05567*
X0562Y07574D02*
X05626Y0758D01*
X05639*
X05646Y07574*
Y07567*
X05639Y07561*
X05633*
X05639*
X05646Y07554*
Y07548*
X05639Y07541*
X05626*
X0562Y07548*
X0501Y0749D02*
X05036D01*
X05049Y07509D02*
X05075D01*
X05062*
Y0747*
X05102Y07457D02*
X05108D01*
X05115Y07463*
Y07496*
X05095*
X05088Y0749*
Y07476*
X05095Y0747*
X05115*
X05128D02*
X05141D01*
X05134*
Y07509*
X05128Y07503*
X05161Y07509D02*
X05187D01*
Y07503*
X05161Y07476*
Y0747*
X052Y07503D02*
X05206Y07509D01*
X0522*
X05226Y07503*
Y07476*
X0522Y0747*
X05206*
X052Y07476*
Y07503*
X05305Y07509D02*
X05279D01*
Y0749*
X05292*
X05279*
Y0747*
X05318D02*
Y07509D01*
X05338*
X05344Y07503*
Y0749*
X05338Y07483*
X05318*
X05331D02*
X05344Y0747D01*
X05377D02*
Y07509D01*
X05357Y0749*
X05384*
X0501Y07405D02*
X05036D01*
X05049Y07418D02*
X05056Y07425D01*
X05069*
X05075Y07418*
Y07392*
X05069Y07386*
X05056*
X05049Y07392*
Y07418*
X05088Y07386D02*
Y07392D01*
X05095*
Y07386*
X05088*
X05147Y07425D02*
X05134Y07418D01*
X05121Y07405*
Y07392*
X05128Y07386*
X05141*
X05147Y07392*
Y07399*
X05141Y07405*
X05121*
X05161Y07386D02*
Y07412D01*
X05167*
X05174Y07405*
Y07386*
Y07405*
X0518Y07412*
X05187Y07405*
Y07386*
X052D02*
Y07412D01*
X05206*
X05213Y07405*
Y07386*
Y07405*
X0522Y07412*
X05226Y07405*
Y07386*
X05285Y07418D02*
Y07412D01*
X05279*
X05292*
X05285*
Y07392*
X05292Y07386*
X05311Y07425D02*
Y07386D01*
Y07405*
X05318Y07412*
X05331*
X05338Y07405*
Y07386*
X05351D02*
X05364D01*
X05357*
Y07412*
X05351*
X0541D02*
X0539D01*
X05384Y07405*
Y07392*
X0539Y07386*
X0541*
X05423D02*
Y07425D01*
Y07399D02*
X05443Y07412D01*
X05423Y07399D02*
X05443Y07386D01*
X05462D02*
Y07412D01*
X05482*
X05489Y07405*
Y07386*
X05521D02*
X05508D01*
X05502Y07392*
Y07405*
X05508Y07412*
X05521*
X05528Y07405*
Y07399*
X05502*
X05541Y07386D02*
X05561D01*
X05567Y07392*
X05561Y07399*
X05548*
X05541Y07405*
X05548Y07412*
X05567*
X0558Y07386D02*
X056D01*
X05607Y07392*
X056Y07399*
X05587*
X0558Y07405*
X05587Y07412*
X05607*
X0501Y07334D02*
X05036D01*
X05069Y07314D02*
Y07354D01*
X05049Y07334*
X05075*
X05088Y07314D02*
X05115Y07341D01*
X05147Y07314D02*
Y07354D01*
X05128Y07334*
X05154*
X05167Y07314D02*
Y07341D01*
X05174*
X0518Y07334*
Y07314*
Y07334*
X05187Y07341*
X05193Y07334*
Y07314*
X05206D02*
X0522D01*
X05213*
Y07341*
X05206*
X05239Y07314D02*
X05252D01*
X05246*
Y07354*
X05239*
X05311Y07314D02*
Y07354D01*
X05325Y07341*
X05338Y07354*
Y07314*
X05351D02*
X05364D01*
X05357*
Y07341*
X05351*
X05384Y07314D02*
Y07341D01*
X05403*
X0541Y07334*
Y07314*
X05462Y07354D02*
X05489D01*
X05475*
Y07314*
X05502Y07341D02*
Y07314D01*
Y07327*
X05508Y07334*
X05515Y07341*
X05521*
X05548D02*
X05561D01*
X05567Y07334*
Y07314*
X05548*
X05541Y07321*
X05548Y07327*
X05567*
X05607Y07341D02*
X05587D01*
X0558Y07334*
Y07321*
X05587Y07314*
X05607*
X0562D02*
Y07354D01*
Y07327D02*
X05639Y07341D01*
X0562Y07327D02*
X05639Y07314D01*
X05659D02*
X05685Y07341D01*
X05725Y07347D02*
X05718Y07354D01*
X05705*
X05698Y07347*
Y07341*
X05705Y07334*
X05718*
X05725Y07327*
Y07321*
X05718Y07314*
X05705*
X05698Y07321*
X05738Y07301D02*
Y07341D01*
X05757*
X05764Y07334*
Y07321*
X05757Y07314*
X05738*
X05784Y07341D02*
X05797D01*
X05803Y07334*
Y07314*
X05784*
X05777Y07321*
X05784Y07327*
X05803*
X05843Y07341D02*
X05823D01*
X05816Y07334*
Y07321*
X05823Y07314*
X05843*
X05856D02*
X05869D01*
X05862*
Y07341*
X05856*
X05889Y07314D02*
Y07341D01*
X05908*
X05915Y07334*
Y07314*
X05941Y07301D02*
X05948D01*
X05954Y07308*
Y07341*
X05935*
X05928Y07334*
Y07321*
X05935Y07314*
X05954*
X0501Y0725D02*
X05036D01*
X05049Y07263D02*
X05056Y07269D01*
X05069*
X05075Y07263*
Y07236*
X05069Y0723*
X05056*
X05049Y07236*
Y07263*
X05088Y0723D02*
Y07236D01*
X05095*
Y0723*
X05088*
X05147D02*
X05121D01*
X05147Y07256*
Y07263*
X05141Y07269*
X05128*
X05121Y07263*
X05161Y0723D02*
Y07256D01*
X05167*
X05174Y0725*
Y0723*
Y0725*
X0518Y07256*
X05187Y0725*
Y0723*
X052D02*
Y07256D01*
X05206*
X05213Y0725*
Y0723*
Y0725*
X0522Y07256*
X05226Y0725*
Y0723*
X05279D02*
Y07269D01*
X05292Y07256*
X05305Y07269*
Y0723*
X05318D02*
X05331D01*
X05325*
Y07256*
X05318*
X05351Y0723D02*
Y07256D01*
X0537*
X05377Y0725*
Y0723*
X05429Y07269D02*
Y0723D01*
Y0725*
X05456*
Y07269*
Y0723*
X05475D02*
X05489D01*
X05495Y07236*
Y0725*
X05489Y07256*
X05475*
X05469Y0725*
Y07236*
X05475Y0723*
X05508D02*
X05521D01*
X05515*
Y07269*
X05508*
X05561Y0723D02*
X05548D01*
X05541Y07236*
Y0725*
X05548Y07256*
X05561*
X05567Y0725*
Y07243*
X05541*
X05646Y07263D02*
X05639Y07269D01*
X05626*
X0562Y07263*
Y07256*
X05626Y0725*
X05639*
X05646Y07243*
Y07236*
X05639Y0723*
X05626*
X0562Y07236*
X05659Y0723D02*
X05672D01*
X05666*
Y07256*
X05659*
X05692D02*
X05718D01*
X05692Y0723*
X05718*
X05751D02*
X05738D01*
X05731Y07236*
Y0725*
X05738Y07256*
X05751*
X05757Y0725*
Y07243*
X05731*
X0501Y07178D02*
X05036D01*
X05049Y07159D02*
X05062D01*
X05056*
Y07198*
X05049Y07192*
X05088Y07159D02*
X05102D01*
X05108Y07165*
Y07178*
X05102Y07185*
X05088*
X05082Y07178*
Y07165*
X05088Y07159*
X05121Y07185D02*
X05147D01*
X05121Y07159*
X05147*
X05226Y07198D02*
X052D01*
Y07178*
X05213*
X052*
Y07159*
X05239D02*
X05252D01*
X05246*
Y07185*
X05239*
X05272Y07159D02*
Y07185D01*
X05292*
X05298Y07178*
Y07159*
X05311D02*
X05325D01*
X05318*
Y07185*
X05311*
X05344Y07159D02*
X05364D01*
X0537Y07165*
X05364Y07172*
X05351*
X05344Y07178*
X05351Y07185*
X0537*
X05384Y07198D02*
Y07159D01*
Y07178*
X0539Y07185*
X05403*
X0541Y07178*
Y07159*
X05443D02*
X05429D01*
X05423Y07165*
Y07178*
X05429Y07185*
X05443*
X05449Y07178*
Y07172*
X05423*
X05489Y07198D02*
Y07159D01*
X05469*
X05462Y07165*
Y07178*
X05469Y07185*
X05489*
X05567Y07192D02*
X05561Y07198D01*
X05548*
X05541Y07192*
Y07165*
X05548Y07159*
X05561*
X05567Y07165*
X05587Y07159D02*
X056D01*
X05607Y07165*
Y07178*
X056Y07185*
X05587*
X0558Y07178*
Y07165*
X05587Y07159*
X0562Y07146D02*
Y07185D01*
X05639*
X05646Y07178*
Y07165*
X05639Y07159*
X0562*
X05659Y07146D02*
Y07185D01*
X05679*
X05685Y07178*
Y07165*
X05679Y07159*
X05659*
X05718D02*
X05705D01*
X05698Y07165*
Y07178*
X05705Y07185*
X05718*
X05725Y07178*
Y07172*
X05698*
X05738Y07185D02*
Y07159D01*
Y07172*
X05744Y07178*
X05751Y07185*
X05757*
X0501Y07094D02*
X05036D01*
X05049Y07074D02*
X05062D01*
X05056*
Y07114*
X05049Y07107*
X05088Y07074D02*
X05102D01*
X05108Y07081*
Y07094*
X05102Y07101*
X05088*
X05082Y07094*
Y07081*
X05088Y07074*
X05121Y07101D02*
X05147D01*
X05121Y07074*
X05147*
X052Y07114D02*
X05213D01*
X05206*
Y07074*
X052*
X05213*
X05233D02*
Y07101D01*
X05252*
X05259Y07094*
Y07074*
X05272D02*
Y07101D01*
X05292*
X05298Y07094*
Y07074*
X05331D02*
X05318D01*
X05311Y07081*
Y07094*
X05318Y07101*
X05331*
X05338Y07094*
Y07087*
X05311*
X05351Y07101D02*
Y07074D01*
Y07087*
X05357Y07094*
X05364Y07101*
X0537*
X05456Y07107D02*
X05449Y07114D01*
X05436*
X05429Y07107*
Y07081*
X05436Y07074*
X05449*
X05456Y07081*
X05475Y07074D02*
X05489D01*
X05495Y07081*
Y07094*
X05489Y07101*
X05475*
X05469Y07094*
Y07081*
X05475Y07074*
X05508Y07061D02*
Y07101D01*
X05528*
X05534Y07094*
Y07081*
X05528Y07074*
X05508*
X05548Y07061D02*
Y07101D01*
X05567*
X05574Y07094*
Y07081*
X05567Y07074*
X05548*
X05607D02*
X05593D01*
X05587Y07081*
Y07094*
X05593Y07101*
X05607*
X05613Y07094*
Y07087*
X05587*
X05626Y07101D02*
Y07074D01*
Y07087*
X05633Y07094*
X05639Y07101*
X05646*
X07535Y06986D02*
Y07741D01*
X0646Y06986D02*
X07535D01*
X06505Y07601D02*
X07185D01*
X0646Y07741D02*
X07535D01*
X0646Y06986D02*
Y07741D01*
X0651Y07625D02*
Y07665D01*
X06529*
X06536Y07658*
Y07645*
X06529Y07639*
X0651*
X06575Y07658D02*
X06569Y07665D01*
X06556*
X06549Y07658*
Y07632*
X06556Y07625*
X06569*
X06575Y07632*
X06588Y07665D02*
Y07625D01*
X06608*
X06615Y07632*
Y07639*
X06608Y07645*
X06588*
X06608*
X06615Y07652*
Y07658*
X06608Y07665*
X06588*
X06628Y07625D02*
Y07665D01*
X06641Y07652*
X06654Y07665*
Y07625*
X06674D02*
X06687D01*
X06693Y07632*
Y07645*
X06687Y07652*
X06674*
X06667Y07645*
Y07632*
X06674Y07625*
X06713Y07658D02*
Y07652D01*
X06706*
X0672*
X06713*
Y07632*
X0672Y07625*
X06746D02*
X06759D01*
X06765Y07632*
Y07645*
X06759Y07652*
X06746*
X06739Y07645*
Y07632*
X06746Y07625*
X06779Y07652D02*
Y07625D01*
Y07639*
X06785Y07645*
X06792Y07652*
X06798*
X06818D02*
X06831Y07625D01*
X06844Y07652*
X06877Y07625D02*
Y07665D01*
X06857Y07645*
X06884*
X06962Y07658D02*
X06956Y07665D01*
X06943*
X06936Y07658*
Y07652*
X06943Y07645*
X06956*
X06962Y07639*
Y07632*
X06956Y07625*
X06943*
X06936Y07632*
X06975Y07612D02*
Y07652D01*
X06995*
X07002Y07645*
Y07632*
X06995Y07625*
X06975*
X07034D02*
X07021D01*
X07015Y07632*
Y07645*
X07021Y07652*
X07034*
X07041Y07645*
Y07639*
X07015*
X0708Y07652D02*
X07061D01*
X07054Y07645*
Y07632*
X07061Y07625*
X0708*
X07093D02*
X07113D01*
X0712Y07632*
X07113Y07639*
X071*
X07093Y07645*
X071Y07652*
X0712*
X07133D02*
X07139D01*
Y07645*
X07133*
Y07652*
Y07632D02*
X07139D01*
Y07625*
X07133*
Y07632*
X0651Y07561D02*
X06536D01*
X06549Y0758D02*
X06562D01*
X06556*
Y07541*
X06549*
X06562*
X06582D02*
Y0758D01*
X06602*
X06608Y07574*
Y07561*
X06602Y07554*
X06582*
X06647Y07574D02*
X06641Y0758D01*
X06628*
X06621Y07574*
Y07548*
X06628Y07541*
X06641*
X06647Y07548*
X06726Y0758D02*
X06713Y07574D01*
X067Y07561*
Y07548*
X06706Y07541*
X0672*
X06726Y07548*
Y07554*
X0672Y07561*
X067*
X06739Y07574D02*
X06746Y0758D01*
X06759*
X06765Y07574*
Y07548*
X06759Y07541*
X06746*
X06739Y07548*
Y07574*
X06779Y07541D02*
X06792D01*
X06785*
Y0758*
X06779Y07574*
X06838Y07541D02*
X06811D01*
X06838Y07567*
Y07574*
X06831Y0758*
X06818*
X06811Y07574*
X06916D02*
X0691Y0758D01*
X06897*
X0689Y07574*
Y07548*
X06897Y07541*
X0691*
X06916Y07548*
X06929Y07541D02*
X06943D01*
X06936*
Y0758*
X06929*
X06969Y07567D02*
X06982D01*
X06989Y07561*
Y07541*
X06969*
X06962Y07548*
X06969Y07554*
X06989*
X07002Y07541D02*
X07021D01*
X07028Y07548*
X07021Y07554*
X07008*
X07002Y07561*
X07008Y07567*
X07028*
X07041Y07541D02*
X07061D01*
X07067Y07548*
X07061Y07554*
X07048*
X07041Y07561*
X07048Y07567*
X07067*
X0712Y07574D02*
X07126Y0758D01*
X07139*
X07146Y07574*
Y07567*
X07139Y07561*
X07133*
X07139*
X07146Y07554*
Y07548*
X07139Y07541*
X07126*
X0712Y07548*
X0651Y0749D02*
X06536D01*
X06549Y07509D02*
X06575D01*
X06562*
Y0747*
X06602Y07457D02*
X06608D01*
X06615Y07463*
Y07496*
X06595*
X06588Y0749*
Y07476*
X06595Y0747*
X06615*
X06628D02*
X06641D01*
X06634*
Y07509*
X06628Y07503*
X06661Y07509D02*
X06687D01*
Y07503*
X06661Y07476*
Y0747*
X067Y07503D02*
X06706Y07509D01*
X0672*
X06726Y07503*
Y07476*
X0672Y0747*
X06706*
X067Y07476*
Y07503*
X06805Y07509D02*
X06779D01*
Y0749*
X06792*
X06779*
Y0747*
X06818D02*
Y07509D01*
X06838*
X06844Y07503*
Y0749*
X06838Y07483*
X06818*
X06831D02*
X06844Y0747D01*
X06877D02*
Y07509D01*
X06857Y0749*
X06884*
X0651Y07405D02*
X06536D01*
X06549Y07418D02*
X06556Y07425D01*
X06569*
X06575Y07418*
Y07392*
X06569Y07386*
X06556*
X06549Y07392*
Y07418*
X06588Y07386D02*
Y07392D01*
X06595*
Y07386*
X06588*
X06647Y07425D02*
X06634Y07418D01*
X06621Y07405*
Y07392*
X06628Y07386*
X06641*
X06647Y07392*
Y07399*
X06641Y07405*
X06621*
X06661Y07386D02*
Y07412D01*
X06667*
X06674Y07405*
Y07386*
Y07405*
X0668Y07412*
X06687Y07405*
Y07386*
X067D02*
Y07412D01*
X06706*
X06713Y07405*
Y07386*
Y07405*
X0672Y07412*
X06726Y07405*
Y07386*
X06785Y07418D02*
Y07412D01*
X06779*
X06792*
X06785*
Y07392*
X06792Y07386*
X06811Y07425D02*
Y07386D01*
Y07405*
X06818Y07412*
X06831*
X06838Y07405*
Y07386*
X06851D02*
X06864D01*
X06857*
Y07412*
X06851*
X0691D02*
X0689D01*
X06884Y07405*
Y07392*
X0689Y07386*
X0691*
X06923D02*
Y07425D01*
Y07399D02*
X06943Y07412D01*
X06923Y07399D02*
X06943Y07386D01*
X06962D02*
Y07412D01*
X06982*
X06989Y07405*
Y07386*
X07021D02*
X07008D01*
X07002Y07392*
Y07405*
X07008Y07412*
X07021*
X07028Y07405*
Y07399*
X07002*
X07041Y07386D02*
X07061D01*
X07067Y07392*
X07061Y07399*
X07048*
X07041Y07405*
X07048Y07412*
X07067*
X0708Y07386D02*
X071D01*
X07107Y07392*
X071Y07399*
X07087*
X0708Y07405*
X07087Y07412*
X07107*
X0651Y07334D02*
X06536D01*
X06569Y07314D02*
Y07354D01*
X06549Y07334*
X06575*
X06588Y07314D02*
X06615Y07341D01*
X06647Y07314D02*
Y07354D01*
X06628Y07334*
X06654*
X06667Y07314D02*
Y07341D01*
X06674*
X0668Y07334*
Y07314*
Y07334*
X06687Y07341*
X06693Y07334*
Y07314*
X06706D02*
X0672D01*
X06713*
Y07341*
X06706*
X06739Y07314D02*
X06752D01*
X06746*
Y07354*
X06739*
X06811Y07314D02*
Y07354D01*
X06825Y07341*
X06838Y07354*
Y07314*
X06851D02*
X06864D01*
X06857*
Y07341*
X06851*
X06884Y07314D02*
Y07341D01*
X06903*
X0691Y07334*
Y07314*
X06962Y07354D02*
X06989D01*
X06975*
Y07314*
X07002Y07341D02*
Y07314D01*
Y07327*
X07008Y07334*
X07015Y07341*
X07021*
X07048D02*
X07061D01*
X07067Y07334*
Y07314*
X07048*
X07041Y07321*
X07048Y07327*
X07067*
X07107Y07341D02*
X07087D01*
X0708Y07334*
Y07321*
X07087Y07314*
X07107*
X0712D02*
Y07354D01*
Y07327D02*
X07139Y07341D01*
X0712Y07327D02*
X07139Y07314D01*
X07159D02*
X07185Y07341D01*
X07225Y07347D02*
X07218Y07354D01*
X07205*
X07198Y07347*
Y07341*
X07205Y07334*
X07218*
X07225Y07327*
Y07321*
X07218Y07314*
X07205*
X07198Y07321*
X07238Y07301D02*
Y07341D01*
X07257*
X07264Y07334*
Y07321*
X07257Y07314*
X07238*
X07284Y07341D02*
X07297D01*
X07303Y07334*
Y07314*
X07284*
X07277Y07321*
X07284Y07327*
X07303*
X07343Y07341D02*
X07323D01*
X07316Y07334*
Y07321*
X07323Y07314*
X07343*
X07356D02*
X07369D01*
X07362*
Y07341*
X07356*
X07389Y07314D02*
Y07341D01*
X07408*
X07415Y07334*
Y07314*
X07441Y07301D02*
X07448D01*
X07454Y07308*
Y07341*
X07435*
X07428Y07334*
Y07321*
X07435Y07314*
X07454*
X0651Y0725D02*
X06536D01*
X06549Y07263D02*
X06556Y07269D01*
X06569*
X06575Y07263*
Y07236*
X06569Y0723*
X06556*
X06549Y07236*
Y07263*
X06588Y0723D02*
Y07236D01*
X06595*
Y0723*
X06588*
X06647D02*
X06621D01*
X06647Y07256*
Y07263*
X06641Y07269*
X06628*
X06621Y07263*
X06661Y0723D02*
Y07256D01*
X06667*
X06674Y0725*
Y0723*
Y0725*
X0668Y07256*
X06687Y0725*
Y0723*
X067D02*
Y07256D01*
X06706*
X06713Y0725*
Y0723*
Y0725*
X0672Y07256*
X06726Y0725*
Y0723*
X06779D02*
Y07269D01*
X06792Y07256*
X06805Y07269*
Y0723*
X06818D02*
X06831D01*
X06825*
Y07256*
X06818*
X06851Y0723D02*
Y07256D01*
X0687*
X06877Y0725*
Y0723*
X06929Y07269D02*
Y0723D01*
Y0725*
X06956*
Y07269*
Y0723*
X06975D02*
X06989D01*
X06995Y07236*
Y0725*
X06989Y07256*
X06975*
X06969Y0725*
Y07236*
X06975Y0723*
X07008D02*
X07021D01*
X07015*
Y07269*
X07008*
X07061Y0723D02*
X07048D01*
X07041Y07236*
Y0725*
X07048Y07256*
X07061*
X07067Y0725*
Y07243*
X07041*
X07146Y07263D02*
X07139Y07269D01*
X07126*
X0712Y07263*
Y07256*
X07126Y0725*
X07139*
X07146Y07243*
Y07236*
X07139Y0723*
X07126*
X0712Y07236*
X07159Y0723D02*
X07172D01*
X07166*
Y07256*
X07159*
X07192D02*
X07218D01*
X07192Y0723*
X07218*
X07251D02*
X07238D01*
X07231Y07236*
Y0725*
X07238Y07256*
X07251*
X07257Y0725*
Y07243*
X07231*
X0651Y07178D02*
X06536D01*
X06549Y07159D02*
X06562D01*
X06556*
Y07198*
X06549Y07192*
X06588Y07159D02*
X06602D01*
X06608Y07165*
Y07178*
X06602Y07185*
X06588*
X06582Y07178*
Y07165*
X06588Y07159*
X06621Y07185D02*
X06647D01*
X06621Y07159*
X06647*
X06726Y07198D02*
X067D01*
Y07178*
X06713*
X067*
Y07159*
X06739D02*
X06752D01*
X06746*
Y07185*
X06739*
X06772Y07159D02*
Y07185D01*
X06792*
X06798Y07178*
Y07159*
X06811D02*
X06825D01*
X06818*
Y07185*
X06811*
X06844Y07159D02*
X06864D01*
X0687Y07165*
X06864Y07172*
X06851*
X06844Y07178*
X06851Y07185*
X0687*
X06884Y07198D02*
Y07159D01*
Y07178*
X0689Y07185*
X06903*
X0691Y07178*
Y07159*
X06943D02*
X06929D01*
X06923Y07165*
Y07178*
X06929Y07185*
X06943*
X06949Y07178*
Y07172*
X06923*
X06989Y07198D02*
Y07159D01*
X06969*
X06962Y07165*
Y07178*
X06969Y07185*
X06989*
X07067Y07192D02*
X07061Y07198D01*
X07048*
X07041Y07192*
Y07165*
X07048Y07159*
X07061*
X07067Y07165*
X07087Y07159D02*
X071D01*
X07107Y07165*
Y07178*
X071Y07185*
X07087*
X0708Y07178*
Y07165*
X07087Y07159*
X0712Y07146D02*
Y07185D01*
X07139*
X07146Y07178*
Y07165*
X07139Y07159*
X0712*
X07159Y07146D02*
Y07185D01*
X07179*
X07185Y07178*
Y07165*
X07179Y07159*
X07159*
X07218D02*
X07205D01*
X07198Y07165*
Y07178*
X07205Y07185*
X07218*
X07225Y07178*
Y07172*
X07198*
X07238Y07185D02*
Y07159D01*
Y07172*
X07244Y07178*
X07251Y07185*
X07257*
X0651Y07094D02*
X06536D01*
X06549Y07074D02*
X06562D01*
X06556*
Y07114*
X06549Y07107*
X06588Y07074D02*
X06602D01*
X06608Y07081*
Y07094*
X06602Y07101*
X06588*
X06582Y07094*
Y07081*
X06588Y07074*
X06621Y07101D02*
X06647D01*
X06621Y07074*
X06647*
X067Y07114D02*
X06713D01*
X06706*
Y07074*
X067*
X06713*
X06733D02*
Y07101D01*
X06752*
X06759Y07094*
Y07074*
X06772D02*
Y07101D01*
X06792*
X06798Y07094*
Y07074*
X06831D02*
X06818D01*
X06811Y07081*
Y07094*
X06818Y07101*
X06831*
X06838Y07094*
Y07087*
X06811*
X06851Y07101D02*
Y07074D01*
Y07087*
X06857Y07094*
X06864Y07101*
X0687*
X06956Y07107D02*
X06949Y07114D01*
X06936*
X06929Y07107*
Y07081*
X06936Y07074*
X06949*
X06956Y07081*
X06975Y07074D02*
X06989D01*
X06995Y07081*
Y07094*
X06989Y07101*
X06975*
X06969Y07094*
Y07081*
X06975Y07074*
X07008Y07061D02*
Y07101D01*
X07028*
X07034Y07094*
Y07081*
X07028Y07074*
X07008*
X07048Y07061D02*
Y07101D01*
X07067*
X07074Y07094*
Y07081*
X07067Y07074*
X07048*
X07107D02*
X07093D01*
X07087Y07081*
Y07094*
X07093Y07101*
X07107*
X07113Y07094*
Y07087*
X07087*
X07126Y07101D02*
Y07074D01*
Y07087*
X07133Y07094*
X07139Y07101*
X07146*
G54D47*
X06513Y06129D02*
D01*
X06517Y06099*
X06523Y06069*
X06531Y0604*
X06541Y06012*
X06553Y05984*
X06567Y05957*
X06583Y05931*
X066Y05906*
X06619Y05883*
X0664Y05861*
X06662Y05841*
X06686Y05822*
X06694Y05816*
X06513Y06129D02*
D01*
X06517Y06099*
X06523Y06069*
X06531Y0604*
X06541Y06012*
X06553Y05984*
X06567Y05957*
X06583Y05931*
X066Y05906*
X06619Y05883*
X0664Y05861*
X06662Y05841*
X06668Y05836*
X07376Y0621D02*
D01*
X07372Y0624*
X07366Y0627*
X07358Y06299*
X07348Y06327*
X07336Y06355*
X07322Y06382*
X07306Y06408*
X07289Y06432*
X07269Y06456*
X07249Y06478*
X07226Y06498*
X07203Y06517*
X07195Y06523*
X06694D02*
D01*
X0667Y06504*
X06647Y06484*
X06626Y06463*
X06606Y0644*
X06588Y06415*
X06572Y0639*
X06557Y06363*
X06545Y06336*
X06534Y06308*
X06525Y06279*
X06519Y06249*
X06514Y06219*
X06513Y0621*
X07065Y06438D02*
D01*
X07064Y06436*
X07064Y06434*
X07063Y06433*
X07062Y06431*
X07062Y06429*
X07062Y06427*
X07062Y06424*
Y06422*
X07062Y0642*
X07062Y06418*
X07062Y06416*
X07063Y06414*
X07064Y06412*
X07064Y0641*
X07065Y06409*
X07067Y06407*
X07068Y06405*
X07069Y06404*
X07071Y06402*
X07072Y06401*
X07074Y064*
X07075Y06398*
X07077Y06397*
X07079Y06396*
X07081Y06396*
X07083Y06395*
X07085Y06395*
X07087Y06394*
X07089Y06394*
X07091Y06394*
X07093Y06394*
X07095Y06394*
X07097Y06395*
X07099Y06395*
X07101Y06396*
X07103Y06396*
X07105Y06397*
X07107Y06398*
X07108Y064*
X0711Y06401*
X07112Y06402*
X07113Y06404*
X07114Y06405*
X07116Y06407*
X07117Y06409*
X06772D02*
D01*
X06773Y06407*
X06774Y06405*
X06776Y06404*
X06777Y06402*
X06779Y06401*
X0678Y064*
X06782Y06398*
X06784Y06397*
X06786Y06396*
X06788Y06396*
X0679Y06395*
X06792Y06395*
X06794Y06394*
X06796Y06394*
X06798Y06394*
X068Y06394*
X06802Y06394*
X06804Y06395*
X06806Y06395*
X06808Y06396*
X0681Y06396*
X06812Y06397*
X06813Y06398*
X06815Y064*
X06817Y06401*
X06818Y06402*
X0682Y06404*
X06821Y06405*
X06822Y06407*
X06823Y06409*
X06824Y0641*
X06825Y06412*
X06826Y06414*
X06826Y06416*
X06827Y06418*
X06827Y0642*
X06827Y06422*
Y06424*
X06827Y06427*
X06827Y06429*
X06826Y06431*
X06826Y06433*
X06825Y06434*
X06824Y06436*
X06823Y06438*
X07125Y06563D02*
D01*
X07097Y06575*
X07068Y06584*
X07039Y06592*
X07009Y06598*
X06979Y06601*
X06949Y06602*
X06919Y06602*
X06889Y06599*
X06859Y06594*
X0683Y06587*
X06801Y06578*
X06773Y06567*
X06764Y06563*
X06823Y05901D02*
D01*
X06824Y05902*
X06825Y05904*
X06826Y05906*
X06826Y05908*
X06827Y0591*
X06827Y05912*
X06827Y05914*
Y05916*
X06827Y05918*
X06827Y05921*
X06826Y05923*
X06826Y05925*
X06825Y05926*
X06824Y05928*
X06823Y0593*
X06822Y05932*
X06821Y05934*
X0682Y05935*
X06818Y05937*
X06817Y05938*
X06815Y05939*
X06813Y0594*
X06812Y05941*
X0681Y05942*
X06808Y05943*
X06806Y05944*
X06804Y05944*
X06802Y05945*
X068Y05945*
X06798Y05945*
X06796Y05945*
X06794Y05945*
X06792Y05944*
X0679Y05944*
X06788Y05943*
X06786Y05942*
X06784Y05941*
X06782Y0594*
X0678Y05939*
X06779Y05938*
X06777Y05937*
X06776Y05935*
X06774Y05934*
X06773Y05932*
X06772Y0593*
X07117D02*
D01*
X07116Y05932*
X07114Y05934*
X07113Y05935*
X07112Y05937*
X0711Y05938*
X07108Y05939*
X07107Y0594*
X07105Y05941*
X07103Y05942*
X07101Y05943*
X07099Y05944*
X07097Y05944*
X07095Y05945*
X07093Y05945*
X07091Y05945*
X07089Y05945*
X07087Y05945*
X07085Y05944*
X07083Y05944*
X07081Y05943*
X07079Y05942*
X07077Y05941*
X07075Y0594*
X07074Y05939*
X07072Y05938*
X07071Y05937*
X07069Y05935*
X07068Y05934*
X07067Y05932*
X07065Y0593*
X07064Y05928*
X07064Y05926*
X07063Y05925*
X07062Y05923*
X07062Y05921*
X07062Y05918*
X07062Y05916*
Y05914*
X07062Y05912*
X07062Y0591*
X07062Y05908*
X07063Y05906*
X07064Y05904*
X07064Y05902*
X07065Y05901*
X07195Y05816D02*
D01*
X07219Y05835*
X07242Y05855*
X07263Y05876*
X07283Y05899*
X07301Y05923*
X07317Y05949*
X07332Y05975*
X07344Y06003*
X07355Y06031*
X07363Y0606*
X0737Y0609*
X07375Y06119*
X07376Y06129*
X07221Y05836D02*
D01*
X07243Y05856*
X07265Y05878*
X07284Y05901*
X07302Y05925*
X07318Y05951*
X07333Y05977*
X07345Y06005*
X07356Y06033*
X07364Y06062*
X0737Y06092*
X07375Y06122*
X07376Y06129*
X06651Y0614D02*
D01*
X06653Y0614*
X06655Y0614*
X06657Y06141*
X06659Y06141*
X06661Y06142*
X06663Y06142*
X06665Y06143*
X06667Y06144*
X06668Y06146*
X0667Y06147*
X06672Y06148*
X06673Y0615*
X06674Y06151*
X06676Y06153*
X06677Y06155*
X06678Y06156*
X06678Y06158*
X06679Y0616*
X0668Y06162*
X0668Y06164*
X0668Y06166*
X06681Y06168*
Y0617*
X0668Y06172*
X0668Y06175*
X0668Y06177*
X06679Y06179*
X06678Y0618*
X06678Y06182*
X06677Y06184*
X06676Y06186*
X06674Y06188*
X06673Y06189*
X06672Y06191*
X0667Y06192*
X06668Y06193*
X06667Y06194*
X06665Y06195*
X06663Y06196*
X06661Y06197*
X06659Y06198*
X06657Y06198*
X06655Y06199*
X06653Y06199*
X06651Y06199*
X07238D02*
D01*
X07236Y06199*
X07234Y06199*
X07232Y06198*
X0723Y06198*
X07228Y06197*
X07226Y06196*
X07224Y06195*
X07222Y06194*
X0722Y06193*
X07219Y06192*
X07217Y06191*
X07216Y06189*
X07214Y06188*
X07213Y06186*
X07212Y06184*
X07211Y06182*
X0721Y0618*
X0721Y06179*
X07209Y06177*
X07209Y06175*
X07208Y06172*
X07208Y0617*
Y06168*
X07208Y06166*
X07209Y06164*
X07209Y06162*
X0721Y0616*
X0721Y06158*
X07211Y06156*
X07212Y06155*
X07213Y06153*
X07214Y06151*
X07216Y0615*
X07217Y06148*
X07219Y06147*
X0722Y06146*
X07222Y06144*
X07224Y06143*
X07226Y06142*
X07228Y06142*
X0723Y06141*
X07232Y06141*
X07234Y0614*
X07236Y0614*
X07238Y0614*
X05324Y05901D02*
D01*
X05325Y05902*
X05325Y05904*
X05326Y05906*
X05327Y05908*
X05327Y0591*
X05327Y05912*
X05328Y05914*
Y05916*
X05327Y05918*
X05327Y0592*
X05327Y05922*
X05326Y05924*
X05325Y05926*
X05325Y05928*
X05324Y0593*
X05323Y05932*
X05321Y05933*
X0532Y05935*
X05319Y05937*
X05317Y05938*
X05315Y05939*
X05314Y0594*
X05312Y05941*
X0531Y05942*
X05308Y05943*
X05306Y05944*
X05304Y05944*
X05302Y05945*
X053Y05945*
X05298Y05945*
X05296Y05945*
X05294Y05945*
X05292Y05944*
X0529Y05944*
X05288Y05943*
X05286Y05942*
X05284Y05941*
X05282Y0594*
X05281Y05939*
X05279Y05938*
X05278Y05937*
X05276Y05935*
X05275Y05933*
X05274Y05932*
X05272Y0593*
X05617D02*
D01*
X05616Y05932*
X05615Y05933*
X05613Y05935*
X05612Y05937*
X0561Y05938*
X05609Y05939*
X05607Y0594*
X05605Y05941*
X05603Y05942*
X05601Y05943*
X05599Y05944*
X05597Y05944*
X05595Y05945*
X05593Y05945*
X05591Y05945*
X05589Y05945*
X05587Y05945*
X05585Y05944*
X05583Y05944*
X05581Y05943*
X05579Y05942*
X05577Y05941*
X05576Y0594*
X05574Y05939*
X05572Y05938*
X05571Y05937*
X05569Y05935*
X05568Y05933*
X05567Y05932*
X05566Y0593*
X05565Y05928*
X05564Y05926*
X05563Y05924*
X05563Y05922*
X05562Y0592*
X05562Y05918*
X05562Y05916*
Y05914*
X05562Y05912*
X05562Y0591*
X05563Y05908*
X05563Y05906*
X05564Y05904*
X05565Y05902*
X05566Y05901*
X05627Y05912D02*
D01*
X05645Y05926*
X05661Y0594*
X05676Y05956*
X05691Y05973*
X05704Y0599*
X05716Y06009*
X05726Y06028*
X05735Y06048*
X05743Y06069*
X05749Y0609*
X05754Y06111*
X05758Y06133*
X05758Y0614*
X05131D02*
D01*
X05134Y06118*
X05138Y06096*
X05144Y06075*
X05151Y06054*
X0516Y06034*
X0517Y06015*
X05182Y05996*
X05194Y05978*
X05208Y05961*
X05223Y05945*
X0524Y0593*
X05257Y05916*
X05262Y05912*
X05131Y0614D02*
D01*
X05134Y06118*
X05138Y06096*
X05144Y06075*
X05151Y06054*
X0516Y06034*
X0517Y06015*
X05182Y05996*
X05194Y05978*
X05208Y05961*
X05223Y05945*
X0524Y0593*
X05244Y05927*
X05646D02*
D01*
X05662Y05942*
X05678Y05957*
X05692Y05974*
X05705Y05992*
X05717Y0601*
X05727Y0603*
X05736Y0605*
X05744Y0607*
X0575Y06091*
X05755Y06113*
X05758Y06135*
X05758Y0614*
X05151D02*
D01*
X05153Y0614*
X05155Y0614*
X05158Y0614*
X0516Y06141*
X05161Y06142*
X05163Y06142*
X05165Y06143*
X05167Y06144*
X05169Y06145*
X0517Y06147*
X05172Y06148*
X05173Y0615*
X05175Y06151*
X05176Y06153*
X05177Y06155*
X05178Y06156*
X05179Y06158*
X05179Y0616*
X0518Y06162*
X0518Y06164*
X05181Y06166*
X05181Y06168*
Y0617*
X05181Y06172*
X0518Y06174*
X0518Y06176*
X05179Y06178*
X05179Y0618*
X05178Y06182*
X05177Y06184*
X05176Y06186*
X05175Y06187*
X05173Y06189*
X05172Y06191*
X0517Y06192*
X05169Y06193*
X05167Y06194*
X05165Y06195*
X05163Y06196*
X05161Y06197*
X0516Y06198*
X05158Y06198*
X05155Y06199*
X05153Y06199*
X05151Y06199*
X05738D02*
D01*
X05736Y06199*
X05734Y06199*
X05732Y06198*
X0573Y06198*
X05728Y06197*
X05726Y06196*
X05724Y06195*
X05722Y06194*
X05721Y06193*
X05719Y06192*
X05717Y06191*
X05716Y06189*
X05715Y06187*
X05714Y06186*
X05712Y06184*
X05711Y06182*
X05711Y0618*
X0571Y06178*
X05709Y06176*
X05709Y06174*
X05709Y06172*
X05708Y0617*
Y06168*
X05709Y06166*
X05709Y06164*
X05709Y06162*
X0571Y0616*
X05711Y06158*
X05711Y06156*
X05712Y06155*
X05714Y06153*
X05715Y06151*
X05716Y0615*
X05717Y06148*
X05719Y06147*
X05721Y06145*
X05722Y06144*
X05724Y06143*
X05726Y06142*
X05728Y06142*
X0573Y06141*
X05732Y0614*
X05734Y0614*
X05736Y0614*
X05738Y0614*
X05262Y06426D02*
D01*
X05245Y06413*
X05228Y06398*
X05213Y06383*
X05199Y06366*
X05185Y06348*
X05174Y0633*
X05163Y0631*
X05154Y0629*
X05146Y0627*
X0514Y06249*
X05135Y06227*
X05132Y06206*
X05131Y06199*
X05758D02*
D01*
X05755Y06221*
X05751Y06242*
X05745Y06263*
X05738Y06284*
X05729Y06304*
X05719Y06324*
X05708Y06343*
X05695Y0636*
X05681Y06377*
X05666Y06393*
X0565Y06408*
X05633Y06422*
X05627Y06426*
X05566Y06438D02*
D01*
X05565Y06436*
X05564Y06434*
X05563Y06432*
X05563Y0643*
X05562Y06428*
X05562Y06426*
X05562Y06424*
Y06422*
X05562Y0642*
X05562Y06418*
X05563Y06416*
X05563Y06414*
X05564Y06412*
X05565Y0641*
X05566Y06409*
X05567Y06407*
X05568Y06405*
X05569Y06404*
X05571Y06402*
X05572Y06401*
X05574Y06399*
X05576Y06398*
X05577Y06397*
X05579Y06396*
X05581Y06396*
X05583Y06395*
X05585Y06394*
X05587Y06394*
X05589Y06394*
X05591Y06394*
X05593Y06394*
X05595Y06394*
X05597Y06394*
X05599Y06395*
X05601Y06396*
X05603Y06396*
X05605Y06397*
X05607Y06398*
X05609Y06399*
X0561Y06401*
X05612Y06402*
X05613Y06404*
X05615Y06405*
X05616Y06407*
X05617Y06409*
X05272D02*
D01*
X05274Y06407*
X05275Y06405*
X05276Y06404*
X05278Y06402*
X05279Y06401*
X05281Y06399*
X05282Y06398*
X05284Y06397*
X05286Y06396*
X05288Y06396*
X0529Y06395*
X05292Y06394*
X05294Y06394*
X05296Y06394*
X05298Y06394*
X053Y06394*
X05302Y06394*
X05304Y06394*
X05306Y06395*
X05308Y06396*
X0531Y06396*
X05312Y06397*
X05314Y06398*
X05315Y06399*
X05317Y06401*
X05319Y06402*
X0532Y06404*
X05321Y06405*
X05323Y06407*
X05324Y06409*
X05325Y0641*
X05325Y06412*
X05326Y06414*
X05327Y06416*
X05327Y06418*
X05327Y0642*
X05328Y06422*
Y06424*
X05327Y06426*
X05327Y06428*
X05327Y0643*
X05326Y06432*
X05325Y06434*
X05325Y06436*
X05324Y06438*
X05576Y06456D02*
D01*
X05556Y06464*
X05535Y06471*
X05513Y06477*
X05492Y06481*
X0547Y06483*
X05448Y06484*
X05426Y06484*
X05404Y06482*
X05383Y06478*
X05361Y06473*
X0534Y06466*
X0532Y06458*
X05313Y06456*
X06631Y0614D02*
X06651D01*
X06513Y06129D02*
X06631Y0614D01*
X07258Y06199D02*
X07376Y0621D01*
X07115Y06407D02*
X07127Y06426D01*
X06762D02*
X06772Y06409D01*
X07065Y06437D02*
X07076Y06456D01*
X06813D02*
X06823Y06438D01*
X06694Y06523D02*
X06762Y06426D01*
X06764Y06563D02*
X06813Y06456D01*
X07076D02*
X07125Y06563D01*
X07127Y06426D02*
X07195Y06523D01*
X06513Y0621D02*
X06631Y06199D01*
X07258Y0614D02*
X07376Y06129D01*
X07117Y0593D02*
X07127Y05913D01*
X06762D02*
X06772Y0593D01*
X06694Y05816D02*
X06762Y05913D01*
X07127D02*
X07195Y05816D01*
X07238Y0614D02*
X07258D01*
X06631D02*
X06651D01*
X07238D02*
X07258D01*
X06631Y06199D02*
X06651D01*
X07238D02*
X07258D01*
X05131Y0614D02*
X05151D01*
X05617Y0593D02*
X05627Y05912D01*
X05262D02*
X05272Y0593D01*
X05738Y0614D02*
X05758D01*
X05131D02*
X05151D01*
X05738D02*
X05758D01*
X05131Y06199D02*
X05151D01*
X05738D02*
X05758D01*
X05616Y06406D02*
X05627Y06426D01*
X05262D02*
X05272Y06409D01*
X05565Y06437D02*
X05576Y06456D01*
X05313D02*
X05324Y06438D01*
M02*