%FSTAX23Y23*%
%MOIN*%
%SFA1B1*%

%IPPOS*%
%ADD20R,0.025591X0.027559*%
%ADD22R,0.029134X0.030709*%
%ADD34C,0.106299*%
%ADD35R,0.070866X0.070866*%
%ADD39C,0.070866*%
%ADD42R,0.051181X0.023622*%
%ADD43C,0.015748*%
%ADD51C,0.023622*%
%ADD54C,0.114299*%
%ADD55R,0.078866X0.078866*%
%ADD56C,0.015905*%
%ADD57C,0.047370*%
%ADD58C,0.019842*%
%LNpcb4-1*%
%LPD*%
G36*
X0696Y06602D02*
X06991Y066D01*
X07022Y06596*
X07052Y06589*
X07082Y0658*
X07111Y0657*
X07122Y06565*
X07123Y0656*
X07064Y06439*
X07049Y06445*
X0702Y06454*
X0699Y06459*
X06959Y06462*
X06928Y06462*
X06897Y06459*
X06867Y06453*
X06838Y06444*
X06823Y06438*
X06766Y06559*
X06769Y06565*
X06778Y0657*
X06807Y0658*
X06837Y06589*
X06867Y06596*
X06898Y066*
X06929Y06602*
X0696*
G37*
G36*
X07208Y06514D02*
X07232Y06494D01*
X07254Y06472*
X07275Y06449*
X07294Y06425*
X07312Y06399*
X07327Y06373*
X07341Y06345*
X07352Y06316*
X07362Y06286*
X07369Y06256*
X07374Y06225*
X07375Y06214*
X07372Y0621*
X07238Y06201*
X07235Y06216*
X07228Y06246*
X07218Y06275*
X07205Y06303*
X0719Y0633*
X07172Y06355*
X07151Y06378*
X07129Y06399*
X07117Y06409*
X07192Y06518*
X07199Y0652*
X07208Y06514*
G37*
G36*
X06696Y0652D02*
X0677Y06408D01*
Y06408*
X06758Y06398*
X06736Y06377*
X06716Y06354*
X06698Y06328*
X06683Y06302*
X0667Y06274*
X0666Y06244*
X06653Y06214*
X06651Y06199*
X06518Y0621*
X06514Y06215*
X06515Y06225*
X0652Y06256*
X06527Y06286*
X06537Y06316*
X06548Y06345*
X06562Y06373*
X06577Y06399*
X06594Y06425*
X06614Y06449*
X06635Y06472*
X06657Y06494*
X06681Y06514*
X06691Y0652*
X06696Y0652*
G37*
G36*
X06651Y06138D02*
X06653Y06123D01*
X06661Y06093*
X06671Y06063*
X06683Y06035*
X06699Y06009*
X06717Y05984*
X06737Y05961*
X0676Y0594*
X06772Y0593*
X06696Y0582*
X0669Y05819*
X06681Y05825*
X06657Y05845*
X06635Y05866*
X06614Y05889*
X06594Y05914*
X06577Y05939*
X06562Y05966*
X06548Y05994*
X06537Y06023*
X06527Y06053*
X0652Y06083*
X06515Y06113*
X06514Y06125*
X06517Y06129*
X06651Y06138*
G37*
G36*
X07371Y06129D02*
X07375Y06124D01*
X07374Y06113*
X07369Y06083*
X07362Y06053*
X07352Y06023*
X07341Y05994*
X07327Y05966*
X07312Y05939*
X07294Y05914*
X07275Y05889*
X07254Y05866*
X07232Y05845*
X07208Y05825*
X07198Y05818*
X07193Y05819*
X07118Y05931*
X0713Y05941*
X07153Y05962*
X07173Y05985*
X07191Y0601*
X07206Y06037*
X07219Y06065*
X07229Y06095*
X07235Y06125*
X07238Y0614*
X07371Y06129*
G37*
G54D20*
X04059Y05648D03*
Y05685D03*
X05559Y05648D03*
Y05685D03*
X07059Y05648D03*
Y05685D03*
G54D22*
X03843Y05725D03*
Y05687D03*
X05343Y05725D03*
Y05687D03*
X06843Y05725D03*
Y05687D03*
G54D34*
X03945Y0617D03*
X05445D03*
X06945D03*
G54D35*
X03843Y058D03*
X03945D03*
X04046D03*
X04045Y04401D03*
X03945D03*
X03845D03*
X05343Y058D03*
X05445D03*
X05546D03*
X05545Y04401D03*
X05445D03*
X05345D03*
X06843Y058D03*
X06945D03*
X07046D03*
X07045Y04401D03*
X06945D03*
X06845D03*
G54D39*
X0375Y04801D03*
Y04901D03*
Y05001D03*
Y04701D03*
Y04601D03*
X0525Y04801D03*
Y04901D03*
Y05001D03*
Y04701D03*
Y04601D03*
X0675Y04801D03*
Y04901D03*
Y05001D03*
Y04701D03*
Y04601D03*
G54D42*
X03988Y05724D03*
Y05649D03*
X03906Y05686D03*
X05488Y05724D03*
Y05649D03*
X05406Y05686D03*
X06988Y05724D03*
Y05649D03*
X06906Y05686D03*
G54D43*
X05258Y06413D02*
D01*
X05242Y064*
X05226Y06385*
X05212Y06369*
X05198Y06353*
X05186Y06335*
X05175Y06316*
X05166Y06297*
X05157Y06278*
X0515Y06257*
X05145Y06236*
X05141Y06215*
X0514Y06209*
X05631Y05925D02*
D01*
X05648Y05939*
X05663Y05954*
X05678Y05969*
X05691Y05986*
X05703Y06004*
X05714Y06022*
X05724Y06041*
X05732Y06061*
X05739Y06081*
X05744Y06102*
X05748Y06123*
X05749Y0613*
G54D51*
X05561Y06449D02*
D01*
X05542Y06457*
X05521Y06463*
X05501Y06467*
X0548Y0647*
X05459Y06472*
X05437Y06472*
X05416Y06471*
X05395Y06468*
X05375Y06464*
X05354Y06459*
X05334Y06452*
X05328Y06449*
X05745Y06208D02*
D01*
X05742Y06229*
X05737Y0625*
X05731Y0627*
X05723Y06289*
X05714Y06309*
X05704Y06327*
X05692Y06345*
X05679Y06362*
X05665Y06377*
X0565Y06392*
X05634Y06406*
X05629Y0641*
X05144Y0613D02*
D01*
X05147Y0611*
X05152Y06089*
X05159Y06069*
X05166Y06049*
X05175Y0603*
X05186Y06011*
X05197Y05994*
X0521Y05977*
X05224Y05961*
X05239Y05946*
X05255Y05932*
X0526Y05929*
G54D54*
X06944Y06169D03*
X05445Y06169D03*
G54D55*
X07046Y058D03*
X06944D03*
X06843D03*
G54D56*
X05156Y06221D03*
Y06117D03*
X05255Y05949D03*
X05497Y05873D03*
X05393D03*
X05634Y05947D03*
X05732Y06118D03*
Y06221D03*
X05634Y06391D03*
X05544Y06445D03*
X05346Y06445D03*
X05255Y06393D03*
X05399Y06246D03*
X05351Y06171D03*
X05398Y06091D03*
X05493Y06087D03*
X0554Y06168D03*
X05493Y06254D03*
G54D57*
X05148Y05621D03*
Y04282D03*
Y04361D03*
Y0444D03*
Y04519D03*
Y04597D03*
Y04676D03*
Y04755D03*
Y04834D03*
Y04912D03*
Y04991D03*
Y0507D03*
Y05149D03*
Y05227D03*
Y05306D03*
Y05385D03*
Y05464D03*
Y05542D03*
Y05621D03*
X06648Y05621D03*
Y04283D03*
Y04362D03*
Y0444D03*
Y04519D03*
Y04598D03*
Y04677D03*
Y04755D03*
Y04834D03*
Y04913D03*
Y04992D03*
Y0507D03*
Y05149D03*
Y05228D03*
Y05307D03*
Y05385D03*
Y05464D03*
Y05543D03*
Y05621D03*
X05741Y04264D03*
Y05602D03*
Y05524D03*
Y05445D03*
Y05366D03*
Y05287D03*
Y05209D03*
Y0513D03*
Y05051D03*
Y04972D03*
Y04894D03*
Y04815D03*
Y04736D03*
Y04657D03*
Y04579D03*
Y045D03*
Y04421D03*
Y04343D03*
Y04264D03*
X0424D03*
Y04343D03*
Y04421D03*
Y045D03*
Y04579D03*
Y04657D03*
Y04736D03*
Y04815D03*
Y04894D03*
Y04972D03*
Y05051D03*
Y0513D03*
Y05209D03*
Y05287D03*
Y05366D03*
Y05445D03*
Y05524D03*
Y05602D03*
Y04264D03*
G54D58*
X07227Y06006D03*
X07248Y05994D03*
X07268Y05982D03*
X07289Y05971D03*
X0727Y05941D03*
X07251Y05955D03*
X07212Y05982D03*
X07231Y05968D03*
X07175Y05938D03*
X07192Y05922D03*
X07209Y05905D03*
X07226Y05888D03*
X072Y05865D03*
X07185Y05883D03*
X0717Y05901D03*
X07154Y05919D03*
X0714Y05936D03*
X0716Y05954D03*
X07194Y05995D03*
X07208Y06018D03*
X07178Y05974D03*
X07195Y05959D03*
X07213Y05944D03*
X07231Y05929D03*
X07249Y05914D03*
X07305Y06001D03*
X07283Y06011D03*
X07262Y06021D03*
X07241Y06031D03*
X0722Y06041D03*
X07231Y06066D03*
X07251Y06058D03*
X07274Y0605D03*
X07296Y06041D03*
X07318Y06033D03*
X06944Y06567D03*
Y06543D03*
Y0652D03*
Y06496D03*
X06944Y06474D03*
X07238Y06091D03*
X0726Y06085D03*
X07283Y06079D03*
X07306Y06073D03*
X07328Y06066D03*
X07336Y061D03*
X07313Y06104D03*
X07289Y06109D03*
X07266Y06113D03*
X07244Y06117D03*
X0684Y06455D03*
X06833Y06476D03*
X06825Y06499D03*
X06816Y06521D03*
X06808Y06543D03*
X06841Y06554D03*
X06848Y06531D03*
X06854Y06508D03*
X0686Y06485D03*
X06865Y06463D03*
X06875Y06561D03*
X06879Y06538D03*
X06884Y06514D03*
X06888Y06491D03*
X06891Y06469D03*
X06918Y06473D03*
X06916Y06495D03*
X06914Y06518D03*
X06912Y06542D03*
X0691Y06566D03*
X07013Y06561D03*
X07009Y06538D03*
X07005Y06514D03*
X07001Y06491D03*
X06997Y06469D03*
X06944Y06474D03*
X06971Y06473D03*
X07023Y06463D03*
X07048Y06456D03*
X07056Y06476D03*
X07064Y06499D03*
X07072Y06521D03*
X0708Y06543D03*
X07047Y06554D03*
X07041Y06531D03*
X07035Y06508D03*
X07029Y06485D03*
X06975Y06518D03*
X06973Y06495D03*
X06977Y06542D03*
X06979Y06566D03*
X06944Y06567D03*
Y06543D03*
Y0652D03*
Y06496D03*
X06645Y06222D03*
X06623Y06226D03*
X06599Y0623D03*
X06576Y06234D03*
X06553Y06238D03*
X0656Y06272D03*
X06583Y06266D03*
X06606Y0626D03*
X06629Y06254D03*
X0665Y06248D03*
X06571Y06305D03*
X06593Y06297D03*
X06615Y06289D03*
X06637Y06281D03*
X06658Y06273D03*
X06668Y06298D03*
X06648Y06308D03*
X06627Y06317D03*
X06605Y06327D03*
X06584Y06337D03*
X0664Y06425D03*
X06658Y0641D03*
X06676Y06395D03*
X06694Y06379D03*
X06711Y06365D03*
X06681Y06321D03*
X06695Y06344D03*
X06729Y06384D03*
X06748Y06402D03*
X06734Y0642D03*
X06719Y06438D03*
X06704Y06456D03*
X06689Y06474D03*
X06663Y06451D03*
X0668Y06434D03*
X06697Y06417D03*
X06713Y064D03*
X06657Y0637D03*
X06677Y06357D03*
X06638Y06384D03*
X06619Y06397D03*
X066Y06368D03*
X0662Y06356D03*
X06641Y06345D03*
X06661Y06333D03*
X0714Y06403D03*
X07154Y0642D03*
X0717Y06438D03*
X07185Y06456D03*
X072Y06474D03*
X07226Y06451D03*
X07209Y06434D03*
X07192Y06417D03*
X07175Y064D03*
X07159Y06385D03*
X07249Y06425D03*
X07231Y0641D03*
X07213Y06395D03*
X07195Y06379D03*
X07177Y06365D03*
X07194Y06344D03*
X07212Y06357D03*
X07231Y0637D03*
X07251Y06384D03*
X0727Y06397D03*
X07318Y06305D03*
X07296Y06297D03*
X07274Y06289D03*
X07251Y06281D03*
X0723Y06274D03*
X07208Y06322D03*
X0722Y06298D03*
X07238Y06249D03*
X07244Y06223D03*
X07266Y06226D03*
X07289Y0623D03*
X07313Y06234D03*
X07336Y06238D03*
X07328Y06272D03*
X07306Y06266D03*
X07283Y0626D03*
X0726Y06254D03*
X07262Y06317D03*
X07241Y06308D03*
X07283Y06327D03*
X07305Y06337D03*
X07289Y06368D03*
X07268Y06356D03*
X07248Y06345D03*
X07227Y06333D03*
X06749Y05936D03*
X06734Y05919D03*
X06719Y05901D03*
X06704Y05883D03*
X06689Y05865D03*
X06663Y05888D03*
X0668Y05905D03*
X06697Y05922D03*
X06713Y05938D03*
X06729Y05954D03*
X0664Y05914D03*
X06658Y05929D03*
X06676Y05944D03*
X06694Y05959D03*
X06711Y05974D03*
X06695Y05995D03*
X06677Y05982D03*
X06657Y05968D03*
X06638Y05955D03*
X06619Y05941D03*
X06571Y06033D03*
X06593Y06041D03*
X06615Y0605D03*
X06637Y06058D03*
X06658Y06065D03*
X06681Y06017D03*
X06669Y0604D03*
X0665Y0609D03*
X06645Y06116D03*
X06623Y06113D03*
X06599Y06109D03*
X06576Y06104D03*
X06553Y061D03*
X0656Y06066D03*
X06583Y06073D03*
X06606Y06079D03*
X06629Y06085D03*
X06627Y06021D03*
X06648Y06031D03*
X06605Y06011D03*
X06584Y06001D03*
X066Y05971D03*
X0662Y05982D03*
X06641Y05994D03*
X06661Y06006D03*
M02*