M48
;Layer_Color=9474304
;FILE_FORMAT=4:4
METRIC,LZ
;TYPE=PLATED
T1F00S00C0.2000
T2F00S00C0.3000
T3F00S00C1.0000
T4F00S00C1.0200
T5F00S00C2.0000
%
T01
X00371425Y0031519
X00366425Y0032319
X00371425Y0033119
X00376425Y0032319
X00378061Y0064171
X00383229Y00638439
X00399854Y00664663
X00383478Y0068955
X00378061Y0068671
X0036908Y0071706
X00339338Y00715321
X0033909Y0070921
X00308316Y00716607
X00300119Y0068671
X00294951Y00689981
X00278326Y00663757
X00294702Y0063887
X00300119Y0064171
X00307227Y00610997
X00338842Y00613099
X0033909Y0061921
X00368701Y0061276
X0037331Y00424915
Y00413915
Y00402915
Y00391915
X0036231
X0035131
X0034031
Y00402915
X0035131
X0036231
Y00413915
X0035131
X0034031
Y00424915
X0035131
X0036231
T02
X00282215Y00180581
X00289215
X00296215
X00303215
X00310215
X00317215
X00313715Y00187581
X00306715
X00299715
X00292715
X00285715
X00282215Y00194581
X00289215
X00296215
X00303215
X00310215
X00317215
X00299715Y00201581
X00292715
X00285715
X00282215Y00208581
X00289215
X00296215
X00292715Y00215581
X00287422Y00221084
X00296215Y00236581
X00303215
X00310215
X00306715Y00243581
X00299715
X00296215Y00250581
X00303215
X00310215
X00306715Y00257581
X00299715
X00303215Y00264581
X00310215
X00306715Y00271581
X00303215Y00278581
X00282215
X00303215Y00306581
X00299715Y00327581
X00303215Y00334581
Y00348581
X00299715Y00355581
X00303215Y00362581
X00324336Y00361636
X00331825Y0036465
X00330703Y00352772
X00358918Y00351749
Y00358749
X003631Y00367191
X00356685Y0037133
X0037135Y0035665
X00333867Y0030948
X00325998Y0030076
X00352215Y00264581
X00359215
X00369715Y00271581
X00366215Y00250581
X00373215
Y00194581
Y00180581
X00366215
X00359215
X00362715Y00187581
X00359215Y00194581
X003256Y00231447
X00380215Y00208581
X00376715Y00201581
X00380215Y00194581
Y00180581
X00387215
X00394215
X00401215
X00399562Y00238071
X00401215Y00250581
X00401299Y00259629
X00383715Y00271581
X00401215Y00292581
Y00306581
Y00320581
Y00334581
Y00376581
Y00390581
X00393895Y00408165
X00398232Y00414891
X00393895Y00421165
X00398232Y00427903
X00401215Y00446581
X00387438Y00446806
X00378963
X00383456Y00439019
X0037874Y00473998
X00376715Y00481581
X00383715
X00392688
X00387215Y00488581
X00380215
X00381415Y00524781
X00388615
X00392215Y00531981
X00385015
X00379004
X00381415Y00539181
X00388615
X00385015Y00546381
X00377815
X00381415Y00553581
X00374215
X00367015
X00344506Y00538958
X0034375Y0052366
Y0051266
X0035475
Y0052366
X00334495Y0053218
X00328842Y00514995
X00327644Y00504376
X00327415Y00488781
X00334615
X00341815
X00349015
X00357481
X00357605Y00481581
X00369715Y00481581
X00366215Y00488581
X00373215
X00369715Y00495581
X00366215Y00502581
X003465Y00497225
X00337385Y00497256
X00338215Y00481581
X00345415
X00340654Y00473112
X0032882Y00473487
X00331015Y00481581
X00323815
X00316615
X00309415
X00313015Y00488781
X00320215
X00316391Y00474009
X0030492Y00472988
X0029225Y00473628
X00294412Y00441857
X00294778Y0042954
X00294223Y00417268
X00290811Y00403039
X00282215Y00404581
X00285715Y00397581
X00282215Y00390581
X00290635Y00389318
X00285715Y00383581
X00305619Y00409917
X00350435Y004455
X00370352Y00445368
X00365472Y00473998
X00352835
X00303659Y00512854
X00303085Y0052451
X00302699Y00536829
X00296215Y00558581
X00299715Y00565581
T03
X00289595Y00265925
Y00291325
Y00316725
Y00342125
Y00367525
T04
X0031369Y0021493
X0033909
X0036449
X0036479Y00570311
X0033909
X0031339
T05
X0033909Y0066421
M30
