G04*
G04 #@! TF.GenerationSoftware,Altium Limited,Altium Designer,21.0.9 (235)*
G04*
G04 Layer_Color=16711935*
%FSAX44Y44*%
%MOMM*%
G71*
G04*
G04 #@! TF.SameCoordinates,C9C275F4-687D-4123-80A0-9C6E5F070257*
G04*
G04*
G04 #@! TF.FilePolarity,Positive*
G04*
G01*
G75*
%ADD10C,0.1000*%
D10*
X01809827Y01667157D02*
G03*
X01718173Y01667157I-00045827J-00100000D01*
G01*
X01733245Y01498889D02*
G03*
X01720255Y01506389I-00006495J00003750D01*
G01*
X01654484Y01556845D02*
G03*
X01700311Y01477471I00109516J00010312D01*
G01*
X01827689D02*
G03*
X01873515Y01556845I-00063689J00089687D01*
G01*
X01838500Y01574658D02*
G03*
X01838500Y01559657I00000000J-00007500D01*
G01*
X01834239Y01482502D02*
G03*
X01873515Y01556845I-00070239J00084655D01*
G01*
X01700311Y01656844D02*
G03*
X01654484Y01577470I00063689J-00089687D01*
G01*
X01689500Y01559657D02*
G03*
X01689500Y01574658I00000000J00007500D01*
G01*
X01654484Y01556845D02*
G03*
X01693761Y01482502I00109516J00010312D01*
G01*
X01720255Y01627926D02*
G03*
X01733245Y01635426I00006495J00003750D01*
G01*
X01873515Y01577470D02*
G03*
X01827689Y01656844I-00109516J-00010312D01*
G01*
X01794755Y01635426D02*
G03*
X01807745Y01627926I00006495J-00003750D01*
G01*
Y01506389D02*
G03*
X01794755Y01498889I-00006495J-00003750D01*
G01*
X01426821Y01506354D02*
G03*
X01413831Y01498854I-00006495J-00003750D01*
G01*
Y01635392D02*
G03*
X01426821Y01627892I00006495J-00003750D01*
G01*
X01462724Y01574623D02*
G03*
X01429395Y01632350I-00079648J-00007500D01*
G01*
X01416405Y01639850D02*
G03*
X01349747Y01639850I-00033329J-00072727D01*
G01*
X01339331Y01627892D02*
G03*
X01352321Y01635392I00006495J00003750D01*
G01*
X01303428Y01559623D02*
G03*
X01331993Y01505556I00079648J00007500D01*
G01*
X01308576Y01559623D02*
G03*
X01308576Y01574623I00000000J00007500D01*
G01*
X01336757Y01632350D02*
G03*
X01303428Y01574623I00046319J-00065227D01*
G01*
X01434159Y01505556D02*
G03*
X01462724Y01559623I-00051083J00061567D01*
G01*
X01457576Y01574623D02*
G03*
X01457576Y01559623I00000000J-00007500D01*
G01*
X01429395Y01501896D02*
G03*
X01462724Y01559623I-00046319J00065227D01*
G01*
X01303428D02*
G03*
X01336757Y01501896I00079648J00007500D01*
G01*
X01352321Y01498854D02*
G03*
X01339331Y01506354I-00006495J00003750D01*
G01*
X01807745Y01506388D02*
G03*
X01794754Y01498888I-00006495J-00003750D01*
G01*
Y01635426D02*
G03*
X01807745Y01627926I00006495J-00003750D01*
G01*
X01843647Y01574657D02*
G03*
X01810319Y01632384I-00079648J-00007500D01*
G01*
X01797328Y01639884D02*
G03*
X01730671Y01639884I-00033329J-00072727D01*
G01*
X01720254Y01627926D02*
G03*
X01733245Y01635426I00006495J00003750D01*
G01*
X01684352Y01559657D02*
G03*
X01712917Y01505590I00079648J00007500D01*
G01*
X01689500Y01559657D02*
G03*
X01689500Y01574657I00000000J00007500D01*
G01*
X01717681Y01632384D02*
G03*
X01684352Y01574657I00046319J-00065227D01*
G01*
X01815083Y01505590D02*
G03*
X01843647Y01559657I-00051083J00061567D01*
G01*
X01838500Y01574657D02*
G03*
X01838500Y01559657I00000000J-00007500D01*
G01*
X01810319Y01501930D02*
G03*
X01843647Y01559657I-00046319J00065227D01*
G01*
X01684352D02*
G03*
X01717681Y01501930I00079648J00007500D01*
G01*
X01733245Y01498888D02*
G03*
X01720254Y01506388I-00006495J00003750D01*
G01*
X01426821Y01506354D02*
G03*
X01413831Y01498854I-00006495J-00003750D01*
G01*
Y01635392D02*
G03*
X01426821Y01627892I00006495J-00003750D01*
G01*
X01462724Y01574623D02*
G03*
X01429395Y01632350I-00079648J-00007500D01*
G01*
X01416405Y01639850D02*
G03*
X01349747Y01639850I-00033329J-00072727D01*
G01*
X01339331Y01627892D02*
G03*
X01352321Y01635392I00006495J00003750D01*
G01*
X01303428Y01559623D02*
G03*
X01331993Y01505556I00079648J00007500D01*
G01*
X01308576Y01559623D02*
G03*
X01308576Y01574623I00000000J00007500D01*
G01*
X01336757Y01632350D02*
G03*
X01303428Y01574623I00046319J-00065227D01*
G01*
X01434159Y01505556D02*
G03*
X01462724Y01559623I-00051083J00061567D01*
G01*
X01457576Y01574623D02*
G03*
X01457576Y01559623I00000000J-00007500D01*
G01*
X01429395Y01501896D02*
G03*
X01462724Y01559623I-00046319J00065227D01*
G01*
X01303428D02*
G03*
X01336757Y01501896I00079648J00007500D01*
G01*
X01352321Y01498854D02*
G03*
X01339331Y01506354I-00006495J00003750D01*
G01*
X00970925Y01498739D02*
G03*
X00957935Y01506239I-00006495J00003750D01*
G01*
X00922032Y01559508D02*
G03*
X00955361Y01501781I00079648J00007500D01*
G01*
X01047999D02*
G03*
X01081328Y01559508I-00046319J00065227D01*
G01*
X01076180Y01574508D02*
G03*
X01076180Y01559508I00000000J-00007500D01*
G01*
X01052763Y01505441D02*
G03*
X01081328Y01559508I-00051083J00061567D01*
G01*
X00955361Y01632235D02*
G03*
X00922032Y01574508I00046319J-00065227D01*
G01*
X00927180Y01559508D02*
G03*
X00927180Y01574508I00000000J00007500D01*
G01*
X00922032Y01559508D02*
G03*
X00950597Y01505441I00079648J00007500D01*
G01*
X00957935Y01627777D02*
G03*
X00970925Y01635277I00006495J00003750D01*
G01*
X01035009Y01639735D02*
G03*
X00968351Y01639735I-00033329J-00072727D01*
G01*
X01081328Y01574508D02*
G03*
X01047999Y01632235I-00079648J-00007500D01*
G01*
X01032435Y01635277D02*
G03*
X01045425Y01627777I00006495J-00003750D01*
G01*
Y01506239D02*
G03*
X01032435Y01498739I-00006495J-00003750D01*
G01*
X01451306Y01433946D02*
X01696127D01*
X01451306Y01077157D02*
X01696127D01*
X01070025Y01077156D02*
X01314846D01*
X01069910Y01433830D02*
X01314731D01*
X01700311Y01477471D02*
X01717681Y01501931D01*
X01810319D02*
X01827689Y01477471D01*
X01843648Y01559657D02*
X01873515Y01556845D01*
X01843648Y01574658D02*
X01873515Y01577470D01*
X01810319Y01632384D02*
X01827689Y01656844D01*
X01797328Y01639884D02*
X01809827Y01667157D01*
X01718173D02*
X01730671Y01639884D01*
X01700311Y01656844D02*
X01717681Y01632384D01*
X01654484Y01577470D02*
X01684352Y01574658D01*
X01654484Y01556845D02*
X01684352Y01559657D01*
X01717681Y01501931D02*
X01720255Y01506389D01*
X01838500Y01559657D02*
X01843648D01*
X01684352D02*
X01689500D01*
X01838500Y01574658D02*
X01843648D01*
X01838500Y01559657D02*
X01843648D01*
X01684352Y01574658D02*
X01689500D01*
X01684352Y01559657D02*
X01689500D01*
X01717681Y01632384D02*
X01720255Y01627926D01*
X01730671Y01639884D02*
X01733245Y01635426D01*
X01807434Y01627387D02*
X01810319Y01632384D01*
X01794568Y01635102D02*
X01797328Y01639884D01*
X01807745Y01506389D02*
X01810319Y01501931D01*
X01426821Y01506354D02*
X01429395Y01501896D01*
X01413644Y01635068D02*
X01416405Y01639850D01*
X01426510Y01627353D02*
X01429395Y01632350D01*
X01349747Y01639850D02*
X01352321Y01635392D01*
X01336757Y01632350D02*
X01339331Y01627892D01*
X01303428Y01559623D02*
X01308576D01*
X01303428Y01574623D02*
X01308576D01*
X01457576Y01559623D02*
X01462724D01*
X01457576Y01574623D02*
X01462724D01*
X01303428Y01559623D02*
X01308576D01*
X01457576D02*
X01462724D01*
X01336757Y01501896D02*
X01339331Y01506354D01*
X01695770Y01077190D02*
X01832230D01*
X01832230Y01433980D02*
X01832230Y01077190D01*
X01794754Y01498888D02*
X01832230Y01433980D01*
X01807745Y01506388D02*
X01810319Y01501930D01*
X01794567Y01635102D02*
X01797328Y01639884D01*
X01807433Y01627387D02*
X01810319Y01632384D01*
X01730671Y01639884D02*
X01733245Y01635426D01*
X01717681Y01632384D02*
X01720254Y01627926D01*
X01684352Y01559657D02*
X01689500D01*
X01684352Y01574657D02*
X01689500D01*
X01838500Y01559657D02*
X01843647D01*
X01838500Y01574657D02*
X01843647D01*
X01684352Y01559657D02*
X01689500D01*
X01838500D02*
X01843647D01*
X01717681Y01501930D02*
X01720254Y01506388D01*
X01695770Y01433979D02*
X01733245Y01498888D01*
X01314846Y01077156D02*
X01451306D01*
X01413831Y01498854D02*
X01451306Y01433946D01*
X01426821Y01506354D02*
X01429395Y01501896D01*
X01413644Y01635068D02*
X01416405Y01639850D01*
X01426510Y01627353D02*
X01429395Y01632350D01*
X01349747Y01639850D02*
X01352321Y01635392D01*
X01336757Y01632350D02*
X01339331Y01627892D01*
X01303428Y01559623D02*
X01308576D01*
X01303428Y01574623D02*
X01308576D01*
X01457576Y01559623D02*
X01462724D01*
X01457576Y01574623D02*
X01462724D01*
X01303428Y01559623D02*
X01308576D01*
X01457576D02*
X01462724D01*
X01336757Y01501896D02*
X01339331Y01506354D01*
X01314846Y01433945D02*
X01352321Y01498854D01*
X00933450Y01433830D02*
X00970925Y01498739D01*
X00955361Y01501781D02*
X00957935Y01506239D01*
X01076180Y01559508D02*
X01081328D01*
X00922032D02*
X00927180D01*
X01076180Y01574508D02*
X01081328D01*
X01076180Y01559508D02*
X01081328D01*
X00922032Y01574508D02*
X00927180D01*
X00922032Y01559508D02*
X00927180D01*
X00955361Y01632235D02*
X00957935Y01627777D01*
X00968351Y01639735D02*
X00970925Y01635277D01*
X01045114Y01627238D02*
X01047999Y01632235D01*
X01032247Y01634953D02*
X01035009Y01639735D01*
X00933450Y01433830D02*
X00933450Y01077041D01*
X01045425Y01506239D02*
X01047999Y01501781D01*
X01032435Y01498739D02*
X01069910Y01433830D01*
X00933450Y01077041D02*
X01069910D01*
X01045775Y01506411D02*
G03*
X01032785Y01498911I-00006495J-00003750D01*
G01*
Y01635449D02*
G03*
X01045775Y01627949I00006495J-00003750D01*
G01*
X01081678Y01574680D02*
G03*
X01048349Y01632407I-00079648J-00007500D01*
G01*
X01035359Y01639907D02*
G03*
X00968701Y01639907I-00033329J-00072727D01*
G01*
X00958285Y01627949D02*
G03*
X00971275Y01635449I00006495J00003750D01*
G01*
X00922382Y01559680D02*
G03*
X00950947Y01505613I00079648J00007500D01*
G01*
X00927530Y01559680D02*
G03*
X00927530Y01574680I00000000J00007500D01*
G01*
X00955711Y01632407D02*
G03*
X00922382Y01574680I00046319J-00065227D01*
G01*
X01053113Y01505613D02*
G03*
X01081678Y01559680I-00051083J00061567D01*
G01*
X01076530Y01574680D02*
G03*
X01076530Y01559680I00000000J-00007500D01*
G01*
X01048349Y01501953D02*
G03*
X01081678Y01559680I-00046319J00065227D01*
G01*
X00922382D02*
G03*
X00955711Y01501953I00079648J00007500D01*
G01*
X00971275Y01498911D02*
G03*
X00958285Y01506411I-00006495J00003750D01*
G01*
X00933800Y01077213D02*
X01070260D01*
X01070260Y01434003D02*
X01070260Y01077213D01*
X01032785Y01498911D02*
X01070260Y01434003D01*
X01045775Y01506411D02*
X01048349Y01501953D01*
X00933800Y01434002D02*
X00933800Y01077213D01*
X01032598Y01635125D02*
X01035359Y01639907D01*
X01045464Y01627410D02*
X01048349Y01632407D01*
X00968701Y01639907D02*
X00971275Y01635449D01*
X00955711Y01632407D02*
X00958285Y01627949D01*
X00922382Y01559680D02*
X00927530D01*
X00922382Y01574680D02*
X00927530D01*
X01076530Y01559680D02*
X01081678D01*
X01076530Y01574680D02*
X01081678D01*
X00922382Y01559680D02*
X00927530D01*
X01076530D02*
X01081678D01*
X00955711Y01501953D02*
X00958285Y01506411D01*
X00933800Y01434002D02*
X00971275Y01498911D01*
X01045795Y01227782D02*
Y01232780D01*
X01044795Y01233780D01*
X01042796D01*
X01041796Y01232780D01*
Y01227782D01*
X01039797Y01228782D02*
X01038797Y01227782D01*
X01036798D01*
X01035798Y01228782D01*
Y01229781D01*
X01036798Y01230781D01*
X01037797D01*
X01036798D01*
X01035798Y01231781D01*
Y01232780D01*
X01036798Y01233780D01*
X01038797D01*
X01039797Y01232780D01*
X01426775Y01506411D02*
G03*
X01413785Y01498911I-00006495J-00003750D01*
G01*
Y01635449D02*
G03*
X01426775Y01627949I00006495J-00003750D01*
G01*
X01462678Y01574680D02*
G03*
X01429349Y01632407I-00079648J-00007500D01*
G01*
X01416359Y01639907D02*
G03*
X01349701Y01639907I-00033329J-00072727D01*
G01*
X01339285Y01627949D02*
G03*
X01352275Y01635449I00006495J00003750D01*
G01*
X01303382Y01559680D02*
G03*
X01331947Y01505613I00079648J00007500D01*
G01*
X01308530Y01559680D02*
G03*
X01308530Y01574680I00000000J00007500D01*
G01*
X01336711Y01632407D02*
G03*
X01303382Y01574680I00046319J-00065227D01*
G01*
X01434113Y01505613D02*
G03*
X01462678Y01559680I-00051083J00061567D01*
G01*
X01457530Y01574680D02*
G03*
X01457530Y01559680I00000000J-00007500D01*
G01*
X01429349Y01501953D02*
G03*
X01462678Y01559680I-00046319J00065227D01*
G01*
X01303382D02*
G03*
X01336711Y01501953I00079648J00007500D01*
G01*
X01352275Y01498911D02*
G03*
X01339285Y01506411I-00006495J00003750D01*
G01*
X01314800Y01077213D02*
X01451260D01*
X01451260Y01434003D02*
X01451260Y01077213D01*
X01413785Y01498911D02*
X01451260Y01434003D01*
X01426775Y01506411D02*
X01429349Y01501953D01*
X01314800Y01434002D02*
X01314800Y01077213D01*
X01413598Y01635125D02*
X01416359Y01639907D01*
X01426464Y01627410D02*
X01429349Y01632407D01*
X01349701Y01639907D02*
X01352275Y01635449D01*
X01336711Y01632407D02*
X01339285Y01627949D01*
X01303382Y01559680D02*
X01308530D01*
X01303382Y01574680D02*
X01308530D01*
X01457530Y01559680D02*
X01462678D01*
X01457530Y01574680D02*
X01462678D01*
X01303382Y01559680D02*
X01308530D01*
X01457530D02*
X01462678D01*
X01336711Y01501953D02*
X01339285Y01506411D01*
X01314800Y01434002D02*
X01352275Y01498911D01*
X01426795Y01227782D02*
Y01232780D01*
X01425795Y01233780D01*
X01423796D01*
X01422796Y01232780D01*
Y01227782D01*
X01420797Y01228782D02*
X01419797Y01227782D01*
X01417798D01*
X01416798Y01228782D01*
Y01229781D01*
X01417798Y01230781D01*
X01418797D01*
X01417798D01*
X01416798Y01231781D01*
Y01232780D01*
X01417798Y01233780D01*
X01419797D01*
X01420797Y01232780D01*
X01807775Y01506411D02*
G03*
X01794785Y01498911I-00006495J-00003750D01*
G01*
Y01635449D02*
G03*
X01807775Y01627949I00006495J-00003750D01*
G01*
X01843678Y01574680D02*
G03*
X01810349Y01632407I-00079648J-00007500D01*
G01*
X01797359Y01639907D02*
G03*
X01730701Y01639907I-00033329J-00072727D01*
G01*
X01720285Y01627949D02*
G03*
X01733275Y01635449I00006495J00003750D01*
G01*
X01684382Y01559680D02*
G03*
X01712947Y01505613I00079648J00007500D01*
G01*
X01689530Y01559680D02*
G03*
X01689530Y01574680I00000000J00007500D01*
G01*
X01717711Y01632407D02*
G03*
X01684382Y01574680I00046319J-00065227D01*
G01*
X01815113Y01505613D02*
G03*
X01843678Y01559680I-00051083J00061567D01*
G01*
X01838530Y01574680D02*
G03*
X01838530Y01559680I00000000J-00007500D01*
G01*
X01810349Y01501953D02*
G03*
X01843678Y01559680I-00046319J00065227D01*
G01*
X01684382D02*
G03*
X01717711Y01501953I00079648J00007500D01*
G01*
X01733275Y01498911D02*
G03*
X01720285Y01506411I-00006495J00003750D01*
G01*
X01695800Y01077213D02*
X01832260D01*
X01832260Y01434003D02*
X01832260Y01077213D01*
X01794785Y01498911D02*
X01832260Y01434003D01*
X01807775Y01506411D02*
X01810349Y01501953D01*
X01695800Y01434002D02*
X01695800Y01077213D01*
X01794598Y01635125D02*
X01797359Y01639907D01*
X01807464Y01627410D02*
X01810349Y01632407D01*
X01730701Y01639907D02*
X01733275Y01635449D01*
X01717711Y01632407D02*
X01720285Y01627949D01*
X01684382Y01559680D02*
X01689530D01*
X01684382Y01574680D02*
X01689530D01*
X01838530Y01559680D02*
X01843678D01*
X01838530Y01574680D02*
X01843678D01*
X01684382Y01559680D02*
X01689530D01*
X01838530D02*
X01843678D01*
X01717711Y01501953D02*
X01720285Y01506411D01*
X01695800Y01434002D02*
X01733275Y01498911D01*
X01807795Y01227782D02*
Y01232780D01*
X01806795Y01233780D01*
X01804796D01*
X01803796Y01232780D01*
Y01227782D01*
X01801797Y01228782D02*
X01800797Y01227782D01*
X01798798D01*
X01797798Y01228782D01*
Y01229781D01*
X01798798Y01230781D01*
X01799797D01*
X01798798D01*
X01797798Y01231781D01*
Y01232780D01*
X01798798Y01233780D01*
X01800797D01*
X01801797Y01232780D01*
M02*
