G04*
G04 #@! TF.GenerationSoftware,Altium Limited,Altium Designer,21.0.9 (235)*
G04*
G04 Layer_Color=65280*
%FSAX44Y44*%
%MOMM*%
G71*
G04*
G04 #@! TF.SameCoordinates,C9C275F4-687D-4123-80A0-9C6E5F070257*
G04*
G04*
G04 #@! TF.FilePolarity,Positive*
G04*
G01*
G75*
%ADD12C,0.2540*%
%ADD47C,0.2000*%
D12*
X01697867Y01707959D02*
X01687711D01*
Y01692724D01*
X01697867D01*
X01687711Y01700341D02*
X01692789D01*
X01713103Y01707959D02*
Y01692724D01*
X01705485D01*
X01702946Y01695263D01*
Y01700341D01*
X01705485Y01702880D01*
X01713103D01*
X01723259Y01687645D02*
X01725798D01*
X01728338Y01690184D01*
Y01702880D01*
X01720720D01*
X01718181Y01700341D01*
Y01695263D01*
X01720720Y01692724D01*
X01728338D01*
X01741034D02*
X01735955D01*
X01733416Y01695263D01*
Y01700341D01*
X01735955Y01702880D01*
X01741034D01*
X01743573Y01700341D01*
Y01697802D01*
X01733416D01*
X01763886Y01692724D02*
Y01707959D01*
X01771504D01*
X01774043Y01705420D01*
Y01700341D01*
X01771504Y01697802D01*
X01763886D01*
X01779121Y01692724D02*
X01784200D01*
X01781660D01*
Y01707959D01*
X01779121D01*
X01794356Y01702880D02*
X01799435D01*
X01801974Y01700341D01*
Y01692724D01*
X01794356D01*
X01791817Y01695263D01*
X01794356Y01697802D01*
X01801974D01*
X01809591Y01705420D02*
Y01702880D01*
X01807052D01*
X01812131D01*
X01809591D01*
Y01695263D01*
X01812131Y01692724D01*
X01819748D02*
X01824826D01*
X01822287D01*
Y01702880D01*
X01819748D01*
X01832444Y01692724D02*
Y01702880D01*
X01840061D01*
X01842601Y01700341D01*
Y01692724D01*
X01852757Y01687645D02*
X01855297D01*
X01857836Y01690184D01*
Y01702880D01*
X01850218D01*
X01847679Y01700341D01*
Y01695263D01*
X01850218Y01692724D01*
X01857836D01*
X01316644Y01673760D02*
X01306487D01*
Y01658524D01*
X01316644D01*
X01306487Y01666142D02*
X01311565D01*
X01331879Y01673760D02*
Y01658524D01*
X01324261D01*
X01321722Y01661064D01*
Y01666142D01*
X01324261Y01668681D01*
X01331879D01*
X01342035Y01653446D02*
X01344574D01*
X01347114Y01655985D01*
Y01668681D01*
X01339496D01*
X01336957Y01666142D01*
Y01661064D01*
X01339496Y01658524D01*
X01347114D01*
X01359810D02*
X01354731D01*
X01352192Y01661064D01*
Y01666142D01*
X01354731Y01668681D01*
X01359810D01*
X01362349Y01666142D01*
Y01663603D01*
X01352192D01*
X01382662Y01658524D02*
Y01673760D01*
X01390280D01*
X01392819Y01671220D01*
Y01666142D01*
X01390280Y01663603D01*
X01382662D01*
X01397897Y01658524D02*
X01402976D01*
X01400436D01*
Y01673760D01*
X01397897D01*
X01413132Y01668681D02*
X01418211D01*
X01420750Y01666142D01*
Y01658524D01*
X01413132D01*
X01410593Y01661064D01*
X01413132Y01663603D01*
X01420750D01*
X01428367Y01671220D02*
Y01668681D01*
X01425828D01*
X01430907D01*
X01428367D01*
Y01661064D01*
X01430907Y01658524D01*
X01438524D02*
X01443602D01*
X01441063D01*
Y01668681D01*
X01438524D01*
X01451220Y01658524D02*
Y01668681D01*
X01458837D01*
X01461377Y01666142D01*
Y01658524D01*
X01471533Y01653446D02*
X01474073D01*
X01476612Y01655985D01*
Y01668681D01*
X01468994D01*
X01466455Y01666142D01*
Y01661064D01*
X01468994Y01658524D01*
X01476612D01*
X01151934Y01774630D02*
Y01966400D01*
X00878884Y01774630D02*
X01151934D01*
X00890313Y01930840D02*
X01063034D01*
X00878884Y01966400D02*
X01151934D01*
X00878884Y01774630D02*
Y01966400D01*
X00891583Y01936987D02*
Y01946983D01*
X00896582D01*
X00898248Y01945317D01*
Y01941985D01*
X00896582Y01940319D01*
X00891583D01*
X00908245Y01945317D02*
X00906579Y01946983D01*
X00903246D01*
X00901580Y01945317D01*
Y01938653D01*
X00903246Y01936987D01*
X00906579D01*
X00908245Y01938653D01*
X00911577Y01946983D02*
Y01936987D01*
X00916575D01*
X00918242Y01938653D01*
Y01940319D01*
X00916575Y01941985D01*
X00911577D01*
X00916575D01*
X00918242Y01943651D01*
Y01945317D01*
X00916575Y01946983D01*
X00911577D01*
X00921574Y01936987D02*
Y01946983D01*
X00924906Y01943651D01*
X00928238Y01946983D01*
Y01936987D01*
X00933237D02*
X00936569D01*
X00938235Y01938653D01*
Y01941985D01*
X00936569Y01943651D01*
X00933237D01*
X00931571Y01941985D01*
Y01938653D01*
X00933237Y01936987D01*
X00943233Y01945317D02*
Y01943651D01*
X00941567D01*
X00944900D01*
X00943233D01*
Y01938653D01*
X00944900Y01936987D01*
X00951564D02*
X00954896D01*
X00956562Y01938653D01*
Y01941985D01*
X00954896Y01943651D01*
X00951564D01*
X00949898Y01941985D01*
Y01938653D01*
X00951564Y01936987D01*
X00959895Y01943651D02*
Y01936987D01*
Y01940319D01*
X00961561Y01941985D01*
X00963227Y01943651D01*
X00964893D01*
X00969892D02*
X00973224Y01936987D01*
X00976556Y01943651D01*
X00984887Y01936987D02*
Y01946983D01*
X00979888Y01941985D01*
X00986553D01*
X01006546Y01945317D02*
X01004880Y01946983D01*
X01001548D01*
X00999882Y01945317D01*
Y01943651D01*
X01001548Y01941985D01*
X01004880D01*
X01006546Y01940319D01*
Y01938653D01*
X01004880Y01936987D01*
X01001548D01*
X00999882Y01938653D01*
X01009879Y01933654D02*
Y01943651D01*
X01014877D01*
X01016543Y01941985D01*
Y01938653D01*
X01014877Y01936987D01*
X01009879D01*
X01024874D02*
X01021542D01*
X01019875Y01938653D01*
Y01941985D01*
X01021542Y01943651D01*
X01024874D01*
X01026540Y01941985D01*
Y01940319D01*
X01019875D01*
X01036537Y01943651D02*
X01031538D01*
X01029872Y01941985D01*
Y01938653D01*
X01031538Y01936987D01*
X01036537D01*
X01039869D02*
X01044867D01*
X01046534Y01938653D01*
X01044867Y01940319D01*
X01041535D01*
X01039869Y01941985D01*
X01041535Y01943651D01*
X01046534D01*
X01049866D02*
X01051532D01*
Y01941985D01*
X01049866D01*
Y01943651D01*
Y01938653D02*
X01051532D01*
Y01936987D01*
X01049866D01*
Y01938653D01*
X00891583Y01920561D02*
X00898248D01*
X00901580Y01925559D02*
X00904912D01*
X00903246D01*
Y01915562D01*
X00901580D01*
X00904912D01*
X00909911D02*
Y01925559D01*
X00914909D01*
X00916575Y01923893D01*
Y01920561D01*
X00914909Y01918895D01*
X00909911D01*
X00926572Y01923893D02*
X00924906Y01925559D01*
X00921574D01*
X00919908Y01923893D01*
Y01917228D01*
X00921574Y01915562D01*
X00924906D01*
X00926572Y01917228D01*
X00946566Y01925559D02*
X00943233Y01923893D01*
X00939901Y01920561D01*
Y01917228D01*
X00941567Y01915562D01*
X00944900D01*
X00946566Y01917228D01*
Y01918895D01*
X00944900Y01920561D01*
X00939901D01*
X00949898Y01923893D02*
X00951564Y01925559D01*
X00954896D01*
X00956562Y01923893D01*
Y01917228D01*
X00954896Y01915562D01*
X00951564D01*
X00949898Y01917228D01*
Y01923893D01*
X00959895Y01915562D02*
X00963227D01*
X00961561D01*
Y01925559D01*
X00959895Y01923893D01*
X00974890Y01915562D02*
X00968225D01*
X00974890Y01922227D01*
Y01923893D01*
X00973224Y01925559D01*
X00969892D01*
X00968225Y01923893D01*
X00994883D02*
X00993217Y01925559D01*
X00989885D01*
X00988219Y01923893D01*
Y01917228D01*
X00989885Y01915562D01*
X00993217D01*
X00994883Y01917228D01*
X00998216Y01915562D02*
X01001548D01*
X00999882D01*
Y01925559D01*
X00998216D01*
X01008213Y01922227D02*
X01011545D01*
X01013211Y01920561D01*
Y01915562D01*
X01008213D01*
X01006546Y01917228D01*
X01008213Y01918895D01*
X01013211D01*
X01016543Y01915562D02*
X01021542D01*
X01023208Y01917228D01*
X01021542Y01918895D01*
X01018209D01*
X01016543Y01920561D01*
X01018209Y01922227D01*
X01023208D01*
X01026540Y01915562D02*
X01031538D01*
X01033204Y01917228D01*
X01031538Y01918895D01*
X01028206D01*
X01026540Y01920561D01*
X01028206Y01922227D01*
X01033204D01*
X01046534Y01923893D02*
X01048200Y01925559D01*
X01051532D01*
X01053198Y01923893D01*
Y01922227D01*
X01051532Y01920561D01*
X01049866D01*
X01051532D01*
X01053198Y01918895D01*
Y01917228D01*
X01051532Y01915562D01*
X01048200D01*
X01046534Y01917228D01*
X00891583Y01902469D02*
X00898248D01*
X00901580Y01907467D02*
X00908245D01*
X00904912D01*
Y01897470D01*
X00914909Y01894138D02*
X00916575D01*
X00918242Y01895804D01*
Y01904135D01*
X00913243D01*
X00911577Y01902469D01*
Y01899136D01*
X00913243Y01897470D01*
X00918242D01*
X00921574D02*
X00924906D01*
X00923240D01*
Y01907467D01*
X00921574Y01905801D01*
X00929904Y01907467D02*
X00936569D01*
Y01905801D01*
X00929904Y01899136D01*
Y01897470D01*
X00939901Y01905801D02*
X00941567Y01907467D01*
X00944900D01*
X00946566Y01905801D01*
Y01899136D01*
X00944900Y01897470D01*
X00941567D01*
X00939901Y01899136D01*
Y01905801D01*
X00966559Y01907467D02*
X00959895D01*
Y01902469D01*
X00963227D01*
X00959895D01*
Y01897470D01*
X00969892D02*
Y01907467D01*
X00974890D01*
X00976556Y01905801D01*
Y01902469D01*
X00974890Y01900802D01*
X00969892D01*
X00973224D02*
X00976556Y01897470D01*
X00984887D02*
Y01907467D01*
X00979888Y01902469D01*
X00986553D01*
X00891583Y01881044D02*
X00898248D01*
X00901580Y01884376D02*
X00903246Y01886042D01*
X00906579D01*
X00908245Y01884376D01*
Y01877712D01*
X00906579Y01876046D01*
X00903246D01*
X00901580Y01877712D01*
Y01884376D01*
X00911577Y01876046D02*
Y01877712D01*
X00913243D01*
Y01876046D01*
X00911577D01*
X00926572Y01886042D02*
X00923240Y01884376D01*
X00919908Y01881044D01*
Y01877712D01*
X00921574Y01876046D01*
X00924906D01*
X00926572Y01877712D01*
Y01879378D01*
X00924906Y01881044D01*
X00919908D01*
X00929904Y01876046D02*
Y01882710D01*
X00931571D01*
X00933237Y01881044D01*
Y01876046D01*
Y01881044D01*
X00934903Y01882710D01*
X00936569Y01881044D01*
Y01876046D01*
X00939901D02*
Y01882710D01*
X00941567D01*
X00943233Y01881044D01*
Y01876046D01*
Y01881044D01*
X00944900Y01882710D01*
X00946566Y01881044D01*
Y01876046D01*
X00961561Y01884376D02*
Y01882710D01*
X00959895D01*
X00963227D01*
X00961561D01*
Y01877712D01*
X00963227Y01876046D01*
X00968225Y01886042D02*
Y01876046D01*
Y01881044D01*
X00969892Y01882710D01*
X00973224D01*
X00974890Y01881044D01*
Y01876046D01*
X00978222D02*
X00981554D01*
X00979888D01*
Y01882710D01*
X00978222D01*
X00993217D02*
X00988219D01*
X00986553Y01881044D01*
Y01877712D01*
X00988219Y01876046D01*
X00993217D01*
X00996550D02*
Y01886042D01*
Y01879378D02*
X01001548Y01882710D01*
X00996550Y01879378D02*
X01001548Y01876046D01*
X01006546D02*
Y01882710D01*
X01011545D01*
X01013211Y01881044D01*
Y01876046D01*
X01021542D02*
X01018209D01*
X01016543Y01877712D01*
Y01881044D01*
X01018209Y01882710D01*
X01021542D01*
X01023208Y01881044D01*
Y01879378D01*
X01016543D01*
X01026540Y01876046D02*
X01031538D01*
X01033204Y01877712D01*
X01031538Y01879378D01*
X01028206D01*
X01026540Y01881044D01*
X01028206Y01882710D01*
X01033204D01*
X01036537Y01876046D02*
X01041535D01*
X01043201Y01877712D01*
X01041535Y01879378D01*
X01038203D01*
X01036537Y01881044D01*
X01038203Y01882710D01*
X01043201D01*
X00891583Y01862952D02*
X00898248D01*
X00906579Y01857953D02*
Y01867950D01*
X00901580Y01862952D01*
X00908245D01*
X00911577Y01857953D02*
X00918242Y01864618D01*
X00926572Y01857953D02*
Y01867950D01*
X00921574Y01862952D01*
X00928238D01*
X00931571Y01857953D02*
Y01864618D01*
X00933237D01*
X00934903Y01862952D01*
Y01857953D01*
Y01862952D01*
X00936569Y01864618D01*
X00938235Y01862952D01*
Y01857953D01*
X00941567D02*
X00944900D01*
X00943233D01*
Y01864618D01*
X00941567D01*
X00949898Y01857953D02*
X00953230D01*
X00951564D01*
Y01867950D01*
X00949898D01*
X00968225Y01857953D02*
Y01867950D01*
X00971558Y01864618D01*
X00974890Y01867950D01*
Y01857953D01*
X00978222D02*
X00981554D01*
X00979888D01*
Y01864618D01*
X00978222D01*
X00986553Y01857953D02*
Y01864618D01*
X00991551D01*
X00993217Y01862952D01*
Y01857953D01*
X01006546Y01867950D02*
X01013211D01*
X01009879D01*
Y01857953D01*
X01016543Y01864618D02*
Y01857953D01*
Y01861286D01*
X01018209Y01862952D01*
X01019875Y01864618D01*
X01021542D01*
X01028206D02*
X01031538D01*
X01033204Y01862952D01*
Y01857953D01*
X01028206D01*
X01026540Y01859620D01*
X01028206Y01861286D01*
X01033204D01*
X01043201Y01864618D02*
X01038203D01*
X01036537Y01862952D01*
Y01859620D01*
X01038203Y01857953D01*
X01043201D01*
X01046534D02*
Y01867950D01*
Y01861286D02*
X01051532Y01864618D01*
X01046534Y01861286D02*
X01051532Y01857953D01*
X01056530D02*
X01063195Y01864618D01*
X01073192Y01866284D02*
X01071525Y01867950D01*
X01068193D01*
X01066527Y01866284D01*
Y01864618D01*
X01068193Y01862952D01*
X01071525D01*
X01073192Y01861286D01*
Y01859620D01*
X01071525Y01857953D01*
X01068193D01*
X01066527Y01859620D01*
X01076524Y01854621D02*
Y01864618D01*
X01081522D01*
X01083188Y01862952D01*
Y01859620D01*
X01081522Y01857953D01*
X01076524D01*
X01088187Y01864618D02*
X01091519D01*
X01093185Y01862952D01*
Y01857953D01*
X01088187D01*
X01086521Y01859620D01*
X01088187Y01861286D01*
X01093185D01*
X01103182Y01864618D02*
X01098184D01*
X01096517Y01862952D01*
Y01859620D01*
X01098184Y01857953D01*
X01103182D01*
X01106514D02*
X01109846D01*
X01108180D01*
Y01864618D01*
X01106514D01*
X01114845Y01857953D02*
Y01864618D01*
X01119843D01*
X01121509Y01862952D01*
Y01857953D01*
X01128174Y01854621D02*
X01129840D01*
X01131506Y01856287D01*
Y01864618D01*
X01126508D01*
X01124842Y01862952D01*
Y01859620D01*
X01126508Y01857953D01*
X01131506D01*
X00891583Y01841528D02*
X00898248D01*
X00901580Y01844860D02*
X00903246Y01846526D01*
X00906579D01*
X00908245Y01844860D01*
Y01838195D01*
X00906579Y01836529D01*
X00903246D01*
X00901580Y01838195D01*
Y01844860D01*
X00911577Y01836529D02*
Y01838195D01*
X00913243D01*
Y01836529D01*
X00911577D01*
X00926572D02*
X00919908D01*
X00926572Y01843194D01*
Y01844860D01*
X00924906Y01846526D01*
X00921574D01*
X00919908Y01844860D01*
X00929904Y01836529D02*
Y01843194D01*
X00931571D01*
X00933237Y01841528D01*
Y01836529D01*
Y01841528D01*
X00934903Y01843194D01*
X00936569Y01841528D01*
Y01836529D01*
X00939901D02*
Y01843194D01*
X00941567D01*
X00943233Y01841528D01*
Y01836529D01*
Y01841528D01*
X00944900Y01843194D01*
X00946566Y01841528D01*
Y01836529D01*
X00959895D02*
Y01846526D01*
X00963227Y01843194D01*
X00966559Y01846526D01*
Y01836529D01*
X00969892D02*
X00973224D01*
X00971558D01*
Y01843194D01*
X00969892D01*
X00978222Y01836529D02*
Y01843194D01*
X00983221D01*
X00984887Y01841528D01*
Y01836529D01*
X00998216Y01846526D02*
Y01836529D01*
Y01841528D01*
X01004880D01*
Y01846526D01*
Y01836529D01*
X01009879D02*
X01013211D01*
X01014877Y01838195D01*
Y01841528D01*
X01013211Y01843194D01*
X01009879D01*
X01008213Y01841528D01*
Y01838195D01*
X01009879Y01836529D01*
X01018209D02*
X01021542D01*
X01019875D01*
Y01846526D01*
X01018209D01*
X01031538Y01836529D02*
X01028206D01*
X01026540Y01838195D01*
Y01841528D01*
X01028206Y01843194D01*
X01031538D01*
X01033204Y01841528D01*
Y01839861D01*
X01026540D01*
X01053198Y01844860D02*
X01051532Y01846526D01*
X01048200D01*
X01046534Y01844860D01*
Y01843194D01*
X01048200Y01841528D01*
X01051532D01*
X01053198Y01839861D01*
Y01838195D01*
X01051532Y01836529D01*
X01048200D01*
X01046534Y01838195D01*
X01056530Y01836529D02*
X01059863D01*
X01058196D01*
Y01843194D01*
X01056530D01*
X01064861D02*
X01071525D01*
X01064861Y01836529D01*
X01071525D01*
X01079856D02*
X01076524D01*
X01074858Y01838195D01*
Y01841528D01*
X01076524Y01843194D01*
X01079856D01*
X01081522Y01841528D01*
Y01839861D01*
X01074858D01*
X00891583Y01823435D02*
X00898248D01*
X00901580Y01818437D02*
X00904912D01*
X00903246D01*
Y01828434D01*
X00901580Y01826768D01*
X00911577Y01818437D02*
X00914909D01*
X00916575Y01820103D01*
Y01823435D01*
X00914909Y01825101D01*
X00911577D01*
X00909911Y01823435D01*
Y01820103D01*
X00911577Y01818437D01*
X00919908Y01825101D02*
X00926572D01*
X00919908Y01818437D01*
X00926572D01*
X00946566Y01828434D02*
X00939901D01*
Y01823435D01*
X00943233D01*
X00939901D01*
Y01818437D01*
X00949898D02*
X00953230D01*
X00951564D01*
Y01825101D01*
X00949898D01*
X00958229Y01818437D02*
Y01825101D01*
X00963227D01*
X00964893Y01823435D01*
Y01818437D01*
X00968225D02*
X00971558D01*
X00969892D01*
Y01825101D01*
X00968225D01*
X00976556Y01818437D02*
X00981554D01*
X00983221Y01820103D01*
X00981554Y01821769D01*
X00978222D01*
X00976556Y01823435D01*
X00978222Y01825101D01*
X00983221D01*
X00986553Y01828434D02*
Y01818437D01*
Y01823435D01*
X00988219Y01825101D01*
X00991551D01*
X00993217Y01823435D01*
Y01818437D01*
X01001548D02*
X00998216D01*
X00996550Y01820103D01*
Y01823435D01*
X00998216Y01825101D01*
X01001548D01*
X01003214Y01823435D01*
Y01821769D01*
X00996550D01*
X01013211Y01828434D02*
Y01818437D01*
X01008213D01*
X01006546Y01820103D01*
Y01823435D01*
X01008213Y01825101D01*
X01013211D01*
X01033204Y01826768D02*
X01031538Y01828434D01*
X01028206D01*
X01026540Y01826768D01*
Y01820103D01*
X01028206Y01818437D01*
X01031538D01*
X01033204Y01820103D01*
X01038203Y01818437D02*
X01041535D01*
X01043201Y01820103D01*
Y01823435D01*
X01041535Y01825101D01*
X01038203D01*
X01036537Y01823435D01*
Y01820103D01*
X01038203Y01818437D01*
X01046534Y01815105D02*
Y01825101D01*
X01051532D01*
X01053198Y01823435D01*
Y01820103D01*
X01051532Y01818437D01*
X01046534D01*
X01056530Y01815105D02*
Y01825101D01*
X01061529D01*
X01063195Y01823435D01*
Y01820103D01*
X01061529Y01818437D01*
X01056530D01*
X01071525D02*
X01068193D01*
X01066527Y01820103D01*
Y01823435D01*
X01068193Y01825101D01*
X01071525D01*
X01073192Y01823435D01*
Y01821769D01*
X01066527D01*
X01076524Y01825101D02*
Y01818437D01*
Y01821769D01*
X01078190Y01823435D01*
X01079856Y01825101D01*
X01081522D01*
X00891583Y01802011D02*
X00898248D01*
X00901580Y01797013D02*
X00904912D01*
X00903246D01*
Y01807009D01*
X00901580Y01805343D01*
X00911577Y01797013D02*
X00914909D01*
X00916575Y01798679D01*
Y01802011D01*
X00914909Y01803677D01*
X00911577D01*
X00909911Y01802011D01*
Y01798679D01*
X00911577Y01797013D01*
X00919908Y01803677D02*
X00926572D01*
X00919908Y01797013D01*
X00926572D01*
X00939901Y01807009D02*
X00943233D01*
X00941567D01*
Y01797013D01*
X00939901D01*
X00943233D01*
X00948232D02*
Y01803677D01*
X00953230D01*
X00954896Y01802011D01*
Y01797013D01*
X00958229D02*
Y01803677D01*
X00963227D01*
X00964893Y01802011D01*
Y01797013D01*
X00973224D02*
X00969892D01*
X00968225Y01798679D01*
Y01802011D01*
X00969892Y01803677D01*
X00973224D01*
X00974890Y01802011D01*
Y01800345D01*
X00968225D01*
X00978222Y01803677D02*
Y01797013D01*
Y01800345D01*
X00979888Y01802011D01*
X00981554Y01803677D01*
X00983221D01*
X01004880Y01805343D02*
X01003214Y01807009D01*
X00999882D01*
X00998216Y01805343D01*
Y01798679D01*
X00999882Y01797013D01*
X01003214D01*
X01004880Y01798679D01*
X01009879Y01797013D02*
X01013211D01*
X01014877Y01798679D01*
Y01802011D01*
X01013211Y01803677D01*
X01009879D01*
X01008213Y01802011D01*
Y01798679D01*
X01009879Y01797013D01*
X01018209Y01793680D02*
Y01803677D01*
X01023208D01*
X01024874Y01802011D01*
Y01798679D01*
X01023208Y01797013D01*
X01018209D01*
X01028206Y01793680D02*
Y01803677D01*
X01033204D01*
X01034871Y01802011D01*
Y01798679D01*
X01033204Y01797013D01*
X01028206D01*
X01043201D02*
X01039869D01*
X01038203Y01798679D01*
Y01802011D01*
X01039869Y01803677D01*
X01043201D01*
X01044867Y01802011D01*
Y01800345D01*
X01038203D01*
X01048200Y01803677D02*
Y01797013D01*
Y01800345D01*
X01049866Y01802011D01*
X01051532Y01803677D01*
X01053198D01*
X01532934Y01774630D02*
Y01966400D01*
X01259883Y01774630D02*
X01532934D01*
X01271313Y01930840D02*
X01444034D01*
X01259883Y01966400D02*
X01532934D01*
X01259883Y01774630D02*
Y01966400D01*
X01272583Y01936987D02*
Y01946983D01*
X01277582D01*
X01279248Y01945317D01*
Y01941985D01*
X01277582Y01940319D01*
X01272583D01*
X01289245Y01945317D02*
X01287579Y01946983D01*
X01284246D01*
X01282580Y01945317D01*
Y01938653D01*
X01284246Y01936987D01*
X01287579D01*
X01289245Y01938653D01*
X01292577Y01946983D02*
Y01936987D01*
X01297575D01*
X01299241Y01938653D01*
Y01940319D01*
X01297575Y01941985D01*
X01292577D01*
X01297575D01*
X01299241Y01943651D01*
Y01945317D01*
X01297575Y01946983D01*
X01292577D01*
X01302574Y01936987D02*
Y01946983D01*
X01305906Y01943651D01*
X01309238Y01946983D01*
Y01936987D01*
X01314237D02*
X01317569D01*
X01319235Y01938653D01*
Y01941985D01*
X01317569Y01943651D01*
X01314237D01*
X01312571Y01941985D01*
Y01938653D01*
X01314237Y01936987D01*
X01324234Y01945317D02*
Y01943651D01*
X01322567D01*
X01325900D01*
X01324234D01*
Y01938653D01*
X01325900Y01936987D01*
X01332564D02*
X01335896D01*
X01337563Y01938653D01*
Y01941985D01*
X01335896Y01943651D01*
X01332564D01*
X01330898Y01941985D01*
Y01938653D01*
X01332564Y01936987D01*
X01340895Y01943651D02*
Y01936987D01*
Y01940319D01*
X01342561Y01941985D01*
X01344227Y01943651D01*
X01345893D01*
X01350892D02*
X01354224Y01936987D01*
X01357556Y01943651D01*
X01365887Y01936987D02*
Y01946983D01*
X01360888Y01941985D01*
X01367553D01*
X01387546Y01945317D02*
X01385880Y01946983D01*
X01382548D01*
X01380882Y01945317D01*
Y01943651D01*
X01382548Y01941985D01*
X01385880D01*
X01387546Y01940319D01*
Y01938653D01*
X01385880Y01936987D01*
X01382548D01*
X01380882Y01938653D01*
X01390879Y01933654D02*
Y01943651D01*
X01395877D01*
X01397543Y01941985D01*
Y01938653D01*
X01395877Y01936987D01*
X01390879D01*
X01405874D02*
X01402542D01*
X01400876Y01938653D01*
Y01941985D01*
X01402542Y01943651D01*
X01405874D01*
X01407540Y01941985D01*
Y01940319D01*
X01400876D01*
X01417537Y01943651D02*
X01412538D01*
X01410872Y01941985D01*
Y01938653D01*
X01412538Y01936987D01*
X01417537D01*
X01420869D02*
X01425867D01*
X01427534Y01938653D01*
X01425867Y01940319D01*
X01422535D01*
X01420869Y01941985D01*
X01422535Y01943651D01*
X01427534D01*
X01430866D02*
X01432532D01*
Y01941985D01*
X01430866D01*
Y01943651D01*
Y01938653D02*
X01432532D01*
Y01936987D01*
X01430866D01*
Y01938653D01*
X01272583Y01920561D02*
X01279248D01*
X01282580Y01925559D02*
X01285912D01*
X01284246D01*
Y01915562D01*
X01282580D01*
X01285912D01*
X01290911D02*
Y01925559D01*
X01295909D01*
X01297575Y01923893D01*
Y01920561D01*
X01295909Y01918895D01*
X01290911D01*
X01307572Y01923893D02*
X01305906Y01925559D01*
X01302574D01*
X01300908Y01923893D01*
Y01917228D01*
X01302574Y01915562D01*
X01305906D01*
X01307572Y01917228D01*
X01327566Y01925559D02*
X01324234Y01923893D01*
X01320901Y01920561D01*
Y01917228D01*
X01322567Y01915562D01*
X01325900D01*
X01327566Y01917228D01*
Y01918895D01*
X01325900Y01920561D01*
X01320901D01*
X01330898Y01923893D02*
X01332564Y01925559D01*
X01335896D01*
X01337563Y01923893D01*
Y01917228D01*
X01335896Y01915562D01*
X01332564D01*
X01330898Y01917228D01*
Y01923893D01*
X01340895Y01915562D02*
X01344227D01*
X01342561D01*
Y01925559D01*
X01340895Y01923893D01*
X01355890Y01915562D02*
X01349225D01*
X01355890Y01922227D01*
Y01923893D01*
X01354224Y01925559D01*
X01350892D01*
X01349225Y01923893D01*
X01375883D02*
X01374217Y01925559D01*
X01370885D01*
X01369219Y01923893D01*
Y01917228D01*
X01370885Y01915562D01*
X01374217D01*
X01375883Y01917228D01*
X01379216Y01915562D02*
X01382548D01*
X01380882D01*
Y01925559D01*
X01379216D01*
X01389213Y01922227D02*
X01392545D01*
X01394211Y01920561D01*
Y01915562D01*
X01389213D01*
X01387546Y01917228D01*
X01389213Y01918895D01*
X01394211D01*
X01397543Y01915562D02*
X01402542D01*
X01404208Y01917228D01*
X01402542Y01918895D01*
X01399209D01*
X01397543Y01920561D01*
X01399209Y01922227D01*
X01404208D01*
X01407540Y01915562D02*
X01412538D01*
X01414205Y01917228D01*
X01412538Y01918895D01*
X01409206D01*
X01407540Y01920561D01*
X01409206Y01922227D01*
X01414205D01*
X01427534Y01923893D02*
X01429200Y01925559D01*
X01432532D01*
X01434198Y01923893D01*
Y01922227D01*
X01432532Y01920561D01*
X01430866D01*
X01432532D01*
X01434198Y01918895D01*
Y01917228D01*
X01432532Y01915562D01*
X01429200D01*
X01427534Y01917228D01*
X01272583Y01902469D02*
X01279248D01*
X01282580Y01907467D02*
X01289245D01*
X01285912D01*
Y01897470D01*
X01295909Y01894138D02*
X01297575D01*
X01299241Y01895804D01*
Y01904135D01*
X01294243D01*
X01292577Y01902469D01*
Y01899136D01*
X01294243Y01897470D01*
X01299241D01*
X01302574D02*
X01305906D01*
X01304240D01*
Y01907467D01*
X01302574Y01905801D01*
X01310905Y01907467D02*
X01317569D01*
Y01905801D01*
X01310905Y01899136D01*
Y01897470D01*
X01320901Y01905801D02*
X01322567Y01907467D01*
X01325900D01*
X01327566Y01905801D01*
Y01899136D01*
X01325900Y01897470D01*
X01322567D01*
X01320901Y01899136D01*
Y01905801D01*
X01347559Y01907467D02*
X01340895D01*
Y01902469D01*
X01344227D01*
X01340895D01*
Y01897470D01*
X01350892D02*
Y01907467D01*
X01355890D01*
X01357556Y01905801D01*
Y01902469D01*
X01355890Y01900802D01*
X01350892D01*
X01354224D02*
X01357556Y01897470D01*
X01365887D02*
Y01907467D01*
X01360888Y01902469D01*
X01367553D01*
X01272583Y01881044D02*
X01279248D01*
X01282580Y01884376D02*
X01284246Y01886042D01*
X01287579D01*
X01289245Y01884376D01*
Y01877712D01*
X01287579Y01876046D01*
X01284246D01*
X01282580Y01877712D01*
Y01884376D01*
X01292577Y01876046D02*
Y01877712D01*
X01294243D01*
Y01876046D01*
X01292577D01*
X01307572Y01886042D02*
X01304240Y01884376D01*
X01300908Y01881044D01*
Y01877712D01*
X01302574Y01876046D01*
X01305906D01*
X01307572Y01877712D01*
Y01879378D01*
X01305906Y01881044D01*
X01300908D01*
X01310905Y01876046D02*
Y01882710D01*
X01312571D01*
X01314237Y01881044D01*
Y01876046D01*
Y01881044D01*
X01315903Y01882710D01*
X01317569Y01881044D01*
Y01876046D01*
X01320901D02*
Y01882710D01*
X01322567D01*
X01324234Y01881044D01*
Y01876046D01*
Y01881044D01*
X01325900Y01882710D01*
X01327566Y01881044D01*
Y01876046D01*
X01342561Y01884376D02*
Y01882710D01*
X01340895D01*
X01344227D01*
X01342561D01*
Y01877712D01*
X01344227Y01876046D01*
X01349225Y01886042D02*
Y01876046D01*
Y01881044D01*
X01350892Y01882710D01*
X01354224D01*
X01355890Y01881044D01*
Y01876046D01*
X01359222D02*
X01362554D01*
X01360888D01*
Y01882710D01*
X01359222D01*
X01374217D02*
X01369219D01*
X01367553Y01881044D01*
Y01877712D01*
X01369219Y01876046D01*
X01374217D01*
X01377550D02*
Y01886042D01*
Y01879378D02*
X01382548Y01882710D01*
X01377550Y01879378D02*
X01382548Y01876046D01*
X01387546D02*
Y01882710D01*
X01392545D01*
X01394211Y01881044D01*
Y01876046D01*
X01402542D02*
X01399209D01*
X01397543Y01877712D01*
Y01881044D01*
X01399209Y01882710D01*
X01402542D01*
X01404208Y01881044D01*
Y01879378D01*
X01397543D01*
X01407540Y01876046D02*
X01412538D01*
X01414205Y01877712D01*
X01412538Y01879378D01*
X01409206D01*
X01407540Y01881044D01*
X01409206Y01882710D01*
X01414205D01*
X01417537Y01876046D02*
X01422535D01*
X01424201Y01877712D01*
X01422535Y01879378D01*
X01419203D01*
X01417537Y01881044D01*
X01419203Y01882710D01*
X01424201D01*
X01272583Y01862952D02*
X01279248D01*
X01287579Y01857953D02*
Y01867950D01*
X01282580Y01862952D01*
X01289245D01*
X01292577Y01857953D02*
X01299241Y01864618D01*
X01307572Y01857953D02*
Y01867950D01*
X01302574Y01862952D01*
X01309238D01*
X01312571Y01857953D02*
Y01864618D01*
X01314237D01*
X01315903Y01862952D01*
Y01857953D01*
Y01862952D01*
X01317569Y01864618D01*
X01319235Y01862952D01*
Y01857953D01*
X01322567D02*
X01325900D01*
X01324234D01*
Y01864618D01*
X01322567D01*
X01330898Y01857953D02*
X01334230D01*
X01332564D01*
Y01867950D01*
X01330898D01*
X01349225Y01857953D02*
Y01867950D01*
X01352558Y01864618D01*
X01355890Y01867950D01*
Y01857953D01*
X01359222D02*
X01362554D01*
X01360888D01*
Y01864618D01*
X01359222D01*
X01367553Y01857953D02*
Y01864618D01*
X01372551D01*
X01374217Y01862952D01*
Y01857953D01*
X01387546Y01867950D02*
X01394211D01*
X01390879D01*
Y01857953D01*
X01397543Y01864618D02*
Y01857953D01*
Y01861286D01*
X01399209Y01862952D01*
X01400876Y01864618D01*
X01402542D01*
X01409206D02*
X01412538D01*
X01414205Y01862952D01*
Y01857953D01*
X01409206D01*
X01407540Y01859620D01*
X01409206Y01861286D01*
X01414205D01*
X01424201Y01864618D02*
X01419203D01*
X01417537Y01862952D01*
Y01859620D01*
X01419203Y01857953D01*
X01424201D01*
X01427534D02*
Y01867950D01*
Y01861286D02*
X01432532Y01864618D01*
X01427534Y01861286D02*
X01432532Y01857953D01*
X01437530D02*
X01444195Y01864618D01*
X01454192Y01866284D02*
X01452525Y01867950D01*
X01449193D01*
X01447527Y01866284D01*
Y01864618D01*
X01449193Y01862952D01*
X01452525D01*
X01454192Y01861286D01*
Y01859620D01*
X01452525Y01857953D01*
X01449193D01*
X01447527Y01859620D01*
X01457524Y01854621D02*
Y01864618D01*
X01462522D01*
X01464188Y01862952D01*
Y01859620D01*
X01462522Y01857953D01*
X01457524D01*
X01469187Y01864618D02*
X01472519D01*
X01474185Y01862952D01*
Y01857953D01*
X01469187D01*
X01467521Y01859620D01*
X01469187Y01861286D01*
X01474185D01*
X01484182Y01864618D02*
X01479184D01*
X01477517Y01862952D01*
Y01859620D01*
X01479184Y01857953D01*
X01484182D01*
X01487514D02*
X01490847D01*
X01489180D01*
Y01864618D01*
X01487514D01*
X01495845Y01857953D02*
Y01864618D01*
X01500843D01*
X01502509Y01862952D01*
Y01857953D01*
X01509174Y01854621D02*
X01510840D01*
X01512506Y01856287D01*
Y01864618D01*
X01507508D01*
X01505842Y01862952D01*
Y01859620D01*
X01507508Y01857953D01*
X01512506D01*
X01272583Y01841528D02*
X01279248D01*
X01282580Y01844860D02*
X01284246Y01846526D01*
X01287579D01*
X01289245Y01844860D01*
Y01838195D01*
X01287579Y01836529D01*
X01284246D01*
X01282580Y01838195D01*
Y01844860D01*
X01292577Y01836529D02*
Y01838195D01*
X01294243D01*
Y01836529D01*
X01292577D01*
X01307572D02*
X01300908D01*
X01307572Y01843194D01*
Y01844860D01*
X01305906Y01846526D01*
X01302574D01*
X01300908Y01844860D01*
X01310905Y01836529D02*
Y01843194D01*
X01312571D01*
X01314237Y01841528D01*
Y01836529D01*
Y01841528D01*
X01315903Y01843194D01*
X01317569Y01841528D01*
Y01836529D01*
X01320901D02*
Y01843194D01*
X01322567D01*
X01324234Y01841528D01*
Y01836529D01*
Y01841528D01*
X01325900Y01843194D01*
X01327566Y01841528D01*
Y01836529D01*
X01340895D02*
Y01846526D01*
X01344227Y01843194D01*
X01347559Y01846526D01*
Y01836529D01*
X01350892D02*
X01354224D01*
X01352558D01*
Y01843194D01*
X01350892D01*
X01359222Y01836529D02*
Y01843194D01*
X01364221D01*
X01365887Y01841528D01*
Y01836529D01*
X01379216Y01846526D02*
Y01836529D01*
Y01841528D01*
X01385880D01*
Y01846526D01*
Y01836529D01*
X01390879D02*
X01394211D01*
X01395877Y01838195D01*
Y01841528D01*
X01394211Y01843194D01*
X01390879D01*
X01389213Y01841528D01*
Y01838195D01*
X01390879Y01836529D01*
X01399209D02*
X01402542D01*
X01400876D01*
Y01846526D01*
X01399209D01*
X01412538Y01836529D02*
X01409206D01*
X01407540Y01838195D01*
Y01841528D01*
X01409206Y01843194D01*
X01412538D01*
X01414205Y01841528D01*
Y01839861D01*
X01407540D01*
X01434198Y01844860D02*
X01432532Y01846526D01*
X01429200D01*
X01427534Y01844860D01*
Y01843194D01*
X01429200Y01841528D01*
X01432532D01*
X01434198Y01839861D01*
Y01838195D01*
X01432532Y01836529D01*
X01429200D01*
X01427534Y01838195D01*
X01437530Y01836529D02*
X01440863D01*
X01439196D01*
Y01843194D01*
X01437530D01*
X01445861D02*
X01452525D01*
X01445861Y01836529D01*
X01452525D01*
X01460856D02*
X01457524D01*
X01455858Y01838195D01*
Y01841528D01*
X01457524Y01843194D01*
X01460856D01*
X01462522Y01841528D01*
Y01839861D01*
X01455858D01*
X01272583Y01823435D02*
X01279248D01*
X01282580Y01818437D02*
X01285912D01*
X01284246D01*
Y01828434D01*
X01282580Y01826768D01*
X01292577Y01818437D02*
X01295909D01*
X01297575Y01820103D01*
Y01823435D01*
X01295909Y01825101D01*
X01292577D01*
X01290911Y01823435D01*
Y01820103D01*
X01292577Y01818437D01*
X01300908Y01825101D02*
X01307572D01*
X01300908Y01818437D01*
X01307572D01*
X01327566Y01828434D02*
X01320901D01*
Y01823435D01*
X01324234D01*
X01320901D01*
Y01818437D01*
X01330898D02*
X01334230D01*
X01332564D01*
Y01825101D01*
X01330898D01*
X01339229Y01818437D02*
Y01825101D01*
X01344227D01*
X01345893Y01823435D01*
Y01818437D01*
X01349225D02*
X01352558D01*
X01350892D01*
Y01825101D01*
X01349225D01*
X01357556Y01818437D02*
X01362554D01*
X01364221Y01820103D01*
X01362554Y01821769D01*
X01359222D01*
X01357556Y01823435D01*
X01359222Y01825101D01*
X01364221D01*
X01367553Y01828434D02*
Y01818437D01*
Y01823435D01*
X01369219Y01825101D01*
X01372551D01*
X01374217Y01823435D01*
Y01818437D01*
X01382548D02*
X01379216D01*
X01377550Y01820103D01*
Y01823435D01*
X01379216Y01825101D01*
X01382548D01*
X01384214Y01823435D01*
Y01821769D01*
X01377550D01*
X01394211Y01828434D02*
Y01818437D01*
X01389213D01*
X01387546Y01820103D01*
Y01823435D01*
X01389213Y01825101D01*
X01394211D01*
X01414205Y01826768D02*
X01412538Y01828434D01*
X01409206D01*
X01407540Y01826768D01*
Y01820103D01*
X01409206Y01818437D01*
X01412538D01*
X01414205Y01820103D01*
X01419203Y01818437D02*
X01422535D01*
X01424201Y01820103D01*
Y01823435D01*
X01422535Y01825101D01*
X01419203D01*
X01417537Y01823435D01*
Y01820103D01*
X01419203Y01818437D01*
X01427534Y01815105D02*
Y01825101D01*
X01432532D01*
X01434198Y01823435D01*
Y01820103D01*
X01432532Y01818437D01*
X01427534D01*
X01437530Y01815105D02*
Y01825101D01*
X01442529D01*
X01444195Y01823435D01*
Y01820103D01*
X01442529Y01818437D01*
X01437530D01*
X01452525D02*
X01449193D01*
X01447527Y01820103D01*
Y01823435D01*
X01449193Y01825101D01*
X01452525D01*
X01454192Y01823435D01*
Y01821769D01*
X01447527D01*
X01457524Y01825101D02*
Y01818437D01*
Y01821769D01*
X01459190Y01823435D01*
X01460856Y01825101D01*
X01462522D01*
X01272583Y01802011D02*
X01279248D01*
X01282580Y01797013D02*
X01285912D01*
X01284246D01*
Y01807009D01*
X01282580Y01805343D01*
X01292577Y01797013D02*
X01295909D01*
X01297575Y01798679D01*
Y01802011D01*
X01295909Y01803677D01*
X01292577D01*
X01290911Y01802011D01*
Y01798679D01*
X01292577Y01797013D01*
X01300908Y01803677D02*
X01307572D01*
X01300908Y01797013D01*
X01307572D01*
X01320901Y01807009D02*
X01324234D01*
X01322567D01*
Y01797013D01*
X01320901D01*
X01324234D01*
X01329232D02*
Y01803677D01*
X01334230D01*
X01335896Y01802011D01*
Y01797013D01*
X01339229D02*
Y01803677D01*
X01344227D01*
X01345893Y01802011D01*
Y01797013D01*
X01354224D02*
X01350892D01*
X01349225Y01798679D01*
Y01802011D01*
X01350892Y01803677D01*
X01354224D01*
X01355890Y01802011D01*
Y01800345D01*
X01349225D01*
X01359222Y01803677D02*
Y01797013D01*
Y01800345D01*
X01360888Y01802011D01*
X01362554Y01803677D01*
X01364221D01*
X01385880Y01805343D02*
X01384214Y01807009D01*
X01380882D01*
X01379216Y01805343D01*
Y01798679D01*
X01380882Y01797013D01*
X01384214D01*
X01385880Y01798679D01*
X01390879Y01797013D02*
X01394211D01*
X01395877Y01798679D01*
Y01802011D01*
X01394211Y01803677D01*
X01390879D01*
X01389213Y01802011D01*
Y01798679D01*
X01390879Y01797013D01*
X01399209Y01793680D02*
Y01803677D01*
X01404208D01*
X01405874Y01802011D01*
Y01798679D01*
X01404208Y01797013D01*
X01399209D01*
X01409206Y01793680D02*
Y01803677D01*
X01414205D01*
X01415871Y01802011D01*
Y01798679D01*
X01414205Y01797013D01*
X01409206D01*
X01424201D02*
X01420869D01*
X01419203Y01798679D01*
Y01802011D01*
X01420869Y01803677D01*
X01424201D01*
X01425867Y01802011D01*
Y01800345D01*
X01419203D01*
X01429200Y01803677D02*
Y01797013D01*
Y01800345D01*
X01430866Y01802011D01*
X01432532Y01803677D01*
X01434198D01*
X01913934Y01774630D02*
Y01966400D01*
X01640883Y01774630D02*
X01913934D01*
X01652314Y01930840D02*
X01825034D01*
X01640883Y01966400D02*
X01913934D01*
X01640883Y01774630D02*
Y01966400D01*
X01653584Y01936987D02*
Y01946983D01*
X01658582D01*
X01660248Y01945317D01*
Y01941985D01*
X01658582Y01940319D01*
X01653584D01*
X01670245Y01945317D02*
X01668579Y01946983D01*
X01665246D01*
X01663580Y01945317D01*
Y01938653D01*
X01665246Y01936987D01*
X01668579D01*
X01670245Y01938653D01*
X01673577Y01946983D02*
Y01936987D01*
X01678575D01*
X01680242Y01938653D01*
Y01940319D01*
X01678575Y01941985D01*
X01673577D01*
X01678575D01*
X01680242Y01943651D01*
Y01945317D01*
X01678575Y01946983D01*
X01673577D01*
X01683574Y01936987D02*
Y01946983D01*
X01686906Y01943651D01*
X01690238Y01946983D01*
Y01936987D01*
X01695237D02*
X01698569D01*
X01700235Y01938653D01*
Y01941985D01*
X01698569Y01943651D01*
X01695237D01*
X01693571Y01941985D01*
Y01938653D01*
X01695237Y01936987D01*
X01705233Y01945317D02*
Y01943651D01*
X01703567D01*
X01706900D01*
X01705233D01*
Y01938653D01*
X01706900Y01936987D01*
X01713564D02*
X01716896D01*
X01718562Y01938653D01*
Y01941985D01*
X01716896Y01943651D01*
X01713564D01*
X01711898Y01941985D01*
Y01938653D01*
X01713564Y01936987D01*
X01721895Y01943651D02*
Y01936987D01*
Y01940319D01*
X01723561Y01941985D01*
X01725227Y01943651D01*
X01726893D01*
X01731892D02*
X01735224Y01936987D01*
X01738556Y01943651D01*
X01746887Y01936987D02*
Y01946983D01*
X01741888Y01941985D01*
X01748553D01*
X01768546Y01945317D02*
X01766880Y01946983D01*
X01763548D01*
X01761882Y01945317D01*
Y01943651D01*
X01763548Y01941985D01*
X01766880D01*
X01768546Y01940319D01*
Y01938653D01*
X01766880Y01936987D01*
X01763548D01*
X01761882Y01938653D01*
X01771879Y01933654D02*
Y01943651D01*
X01776877D01*
X01778543Y01941985D01*
Y01938653D01*
X01776877Y01936987D01*
X01771879D01*
X01786874D02*
X01783542D01*
X01781875Y01938653D01*
Y01941985D01*
X01783542Y01943651D01*
X01786874D01*
X01788540Y01941985D01*
Y01940319D01*
X01781875D01*
X01798537Y01943651D02*
X01793538D01*
X01791872Y01941985D01*
Y01938653D01*
X01793538Y01936987D01*
X01798537D01*
X01801869D02*
X01806867D01*
X01808533Y01938653D01*
X01806867Y01940319D01*
X01803535D01*
X01801869Y01941985D01*
X01803535Y01943651D01*
X01808533D01*
X01811866D02*
X01813532D01*
Y01941985D01*
X01811866D01*
Y01943651D01*
Y01938653D02*
X01813532D01*
Y01936987D01*
X01811866D01*
Y01938653D01*
X01653584Y01920561D02*
X01660248D01*
X01663580Y01925559D02*
X01666913D01*
X01665246D01*
Y01915562D01*
X01663580D01*
X01666913D01*
X01671911D02*
Y01925559D01*
X01676909D01*
X01678575Y01923893D01*
Y01920561D01*
X01676909Y01918895D01*
X01671911D01*
X01688572Y01923893D02*
X01686906Y01925559D01*
X01683574D01*
X01681908Y01923893D01*
Y01917228D01*
X01683574Y01915562D01*
X01686906D01*
X01688572Y01917228D01*
X01708566Y01925559D02*
X01705233Y01923893D01*
X01701901Y01920561D01*
Y01917228D01*
X01703567Y01915562D01*
X01706900D01*
X01708566Y01917228D01*
Y01918895D01*
X01706900Y01920561D01*
X01701901D01*
X01711898Y01923893D02*
X01713564Y01925559D01*
X01716896D01*
X01718562Y01923893D01*
Y01917228D01*
X01716896Y01915562D01*
X01713564D01*
X01711898Y01917228D01*
Y01923893D01*
X01721895Y01915562D02*
X01725227D01*
X01723561D01*
Y01925559D01*
X01721895Y01923893D01*
X01736890Y01915562D02*
X01730225D01*
X01736890Y01922227D01*
Y01923893D01*
X01735224Y01925559D01*
X01731892D01*
X01730225Y01923893D01*
X01756884D02*
X01755217Y01925559D01*
X01751885D01*
X01750219Y01923893D01*
Y01917228D01*
X01751885Y01915562D01*
X01755217D01*
X01756884Y01917228D01*
X01760216Y01915562D02*
X01763548D01*
X01761882D01*
Y01925559D01*
X01760216D01*
X01770213Y01922227D02*
X01773545D01*
X01775211Y01920561D01*
Y01915562D01*
X01770213D01*
X01768546Y01917228D01*
X01770213Y01918895D01*
X01775211D01*
X01778543Y01915562D02*
X01783542D01*
X01785208Y01917228D01*
X01783542Y01918895D01*
X01780209D01*
X01778543Y01920561D01*
X01780209Y01922227D01*
X01785208D01*
X01788540Y01915562D02*
X01793538D01*
X01795204Y01917228D01*
X01793538Y01918895D01*
X01790206D01*
X01788540Y01920561D01*
X01790206Y01922227D01*
X01795204D01*
X01808533Y01923893D02*
X01810200Y01925559D01*
X01813532D01*
X01815198Y01923893D01*
Y01922227D01*
X01813532Y01920561D01*
X01811866D01*
X01813532D01*
X01815198Y01918895D01*
Y01917228D01*
X01813532Y01915562D01*
X01810200D01*
X01808533Y01917228D01*
X01653584Y01902469D02*
X01660248D01*
X01663580Y01907467D02*
X01670245D01*
X01666913D01*
Y01897470D01*
X01676909Y01894138D02*
X01678575D01*
X01680242Y01895804D01*
Y01904135D01*
X01675243D01*
X01673577Y01902469D01*
Y01899136D01*
X01675243Y01897470D01*
X01680242D01*
X01683574D02*
X01686906D01*
X01685240D01*
Y01907467D01*
X01683574Y01905801D01*
X01691904Y01907467D02*
X01698569D01*
Y01905801D01*
X01691904Y01899136D01*
Y01897470D01*
X01701901Y01905801D02*
X01703567Y01907467D01*
X01706900D01*
X01708566Y01905801D01*
Y01899136D01*
X01706900Y01897470D01*
X01703567D01*
X01701901Y01899136D01*
Y01905801D01*
X01728559Y01907467D02*
X01721895D01*
Y01902469D01*
X01725227D01*
X01721895D01*
Y01897470D01*
X01731892D02*
Y01907467D01*
X01736890D01*
X01738556Y01905801D01*
Y01902469D01*
X01736890Y01900802D01*
X01731892D01*
X01735224D02*
X01738556Y01897470D01*
X01746887D02*
Y01907467D01*
X01741888Y01902469D01*
X01748553D01*
X01653584Y01881044D02*
X01660248D01*
X01663580Y01884376D02*
X01665246Y01886042D01*
X01668579D01*
X01670245Y01884376D01*
Y01877712D01*
X01668579Y01876046D01*
X01665246D01*
X01663580Y01877712D01*
Y01884376D01*
X01673577Y01876046D02*
Y01877712D01*
X01675243D01*
Y01876046D01*
X01673577D01*
X01688572Y01886042D02*
X01685240Y01884376D01*
X01681908Y01881044D01*
Y01877712D01*
X01683574Y01876046D01*
X01686906D01*
X01688572Y01877712D01*
Y01879378D01*
X01686906Y01881044D01*
X01681908D01*
X01691904Y01876046D02*
Y01882710D01*
X01693571D01*
X01695237Y01881044D01*
Y01876046D01*
Y01881044D01*
X01696903Y01882710D01*
X01698569Y01881044D01*
Y01876046D01*
X01701901D02*
Y01882710D01*
X01703567D01*
X01705233Y01881044D01*
Y01876046D01*
Y01881044D01*
X01706900Y01882710D01*
X01708566Y01881044D01*
Y01876046D01*
X01723561Y01884376D02*
Y01882710D01*
X01721895D01*
X01725227D01*
X01723561D01*
Y01877712D01*
X01725227Y01876046D01*
X01730225Y01886042D02*
Y01876046D01*
Y01881044D01*
X01731892Y01882710D01*
X01735224D01*
X01736890Y01881044D01*
Y01876046D01*
X01740222D02*
X01743555D01*
X01741888D01*
Y01882710D01*
X01740222D01*
X01755217D02*
X01750219D01*
X01748553Y01881044D01*
Y01877712D01*
X01750219Y01876046D01*
X01755217D01*
X01758550D02*
Y01886042D01*
Y01879378D02*
X01763548Y01882710D01*
X01758550Y01879378D02*
X01763548Y01876046D01*
X01768546D02*
Y01882710D01*
X01773545D01*
X01775211Y01881044D01*
Y01876046D01*
X01783542D02*
X01780209D01*
X01778543Y01877712D01*
Y01881044D01*
X01780209Y01882710D01*
X01783542D01*
X01785208Y01881044D01*
Y01879378D01*
X01778543D01*
X01788540Y01876046D02*
X01793538D01*
X01795204Y01877712D01*
X01793538Y01879378D01*
X01790206D01*
X01788540Y01881044D01*
X01790206Y01882710D01*
X01795204D01*
X01798537Y01876046D02*
X01803535D01*
X01805201Y01877712D01*
X01803535Y01879378D01*
X01800203D01*
X01798537Y01881044D01*
X01800203Y01882710D01*
X01805201D01*
X01653584Y01862952D02*
X01660248D01*
X01668579Y01857953D02*
Y01867950D01*
X01663580Y01862952D01*
X01670245D01*
X01673577Y01857953D02*
X01680242Y01864618D01*
X01688572Y01857953D02*
Y01867950D01*
X01683574Y01862952D01*
X01690238D01*
X01693571Y01857953D02*
Y01864618D01*
X01695237D01*
X01696903Y01862952D01*
Y01857953D01*
Y01862952D01*
X01698569Y01864618D01*
X01700235Y01862952D01*
Y01857953D01*
X01703567D02*
X01706900D01*
X01705233D01*
Y01864618D01*
X01703567D01*
X01711898Y01857953D02*
X01715230D01*
X01713564D01*
Y01867950D01*
X01711898D01*
X01730225Y01857953D02*
Y01867950D01*
X01733558Y01864618D01*
X01736890Y01867950D01*
Y01857953D01*
X01740222D02*
X01743555D01*
X01741888D01*
Y01864618D01*
X01740222D01*
X01748553Y01857953D02*
Y01864618D01*
X01753551D01*
X01755217Y01862952D01*
Y01857953D01*
X01768546Y01867950D02*
X01775211D01*
X01771879D01*
Y01857953D01*
X01778543Y01864618D02*
Y01857953D01*
Y01861286D01*
X01780209Y01862952D01*
X01781875Y01864618D01*
X01783542D01*
X01790206D02*
X01793538D01*
X01795204Y01862952D01*
Y01857953D01*
X01790206D01*
X01788540Y01859620D01*
X01790206Y01861286D01*
X01795204D01*
X01805201Y01864618D02*
X01800203D01*
X01798537Y01862952D01*
Y01859620D01*
X01800203Y01857953D01*
X01805201D01*
X01808533D02*
Y01867950D01*
Y01861286D02*
X01813532Y01864618D01*
X01808533Y01861286D02*
X01813532Y01857953D01*
X01818530D02*
X01825195Y01864618D01*
X01835192Y01866284D02*
X01833526Y01867950D01*
X01830193D01*
X01828527Y01866284D01*
Y01864618D01*
X01830193Y01862952D01*
X01833526D01*
X01835192Y01861286D01*
Y01859620D01*
X01833526Y01857953D01*
X01830193D01*
X01828527Y01859620D01*
X01838524Y01854621D02*
Y01864618D01*
X01843522D01*
X01845188Y01862952D01*
Y01859620D01*
X01843522Y01857953D01*
X01838524D01*
X01850187Y01864618D02*
X01853519D01*
X01855185Y01862952D01*
Y01857953D01*
X01850187D01*
X01848521Y01859620D01*
X01850187Y01861286D01*
X01855185D01*
X01865182Y01864618D02*
X01860184D01*
X01858517Y01862952D01*
Y01859620D01*
X01860184Y01857953D01*
X01865182D01*
X01868514D02*
X01871846D01*
X01870180D01*
Y01864618D01*
X01868514D01*
X01876845Y01857953D02*
Y01864618D01*
X01881843D01*
X01883509Y01862952D01*
Y01857953D01*
X01890174Y01854621D02*
X01891840D01*
X01893506Y01856287D01*
Y01864618D01*
X01888508D01*
X01886842Y01862952D01*
Y01859620D01*
X01888508Y01857953D01*
X01893506D01*
X01653584Y01841528D02*
X01660248D01*
X01663580Y01844860D02*
X01665246Y01846526D01*
X01668579D01*
X01670245Y01844860D01*
Y01838195D01*
X01668579Y01836529D01*
X01665246D01*
X01663580Y01838195D01*
Y01844860D01*
X01673577Y01836529D02*
Y01838195D01*
X01675243D01*
Y01836529D01*
X01673577D01*
X01688572D02*
X01681908D01*
X01688572Y01843194D01*
Y01844860D01*
X01686906Y01846526D01*
X01683574D01*
X01681908Y01844860D01*
X01691904Y01836529D02*
Y01843194D01*
X01693571D01*
X01695237Y01841528D01*
Y01836529D01*
Y01841528D01*
X01696903Y01843194D01*
X01698569Y01841528D01*
Y01836529D01*
X01701901D02*
Y01843194D01*
X01703567D01*
X01705233Y01841528D01*
Y01836529D01*
Y01841528D01*
X01706900Y01843194D01*
X01708566Y01841528D01*
Y01836529D01*
X01721895D02*
Y01846526D01*
X01725227Y01843194D01*
X01728559Y01846526D01*
Y01836529D01*
X01731892D02*
X01735224D01*
X01733558D01*
Y01843194D01*
X01731892D01*
X01740222Y01836529D02*
Y01843194D01*
X01745221D01*
X01746887Y01841528D01*
Y01836529D01*
X01760216Y01846526D02*
Y01836529D01*
Y01841528D01*
X01766880D01*
Y01846526D01*
Y01836529D01*
X01771879D02*
X01775211D01*
X01776877Y01838195D01*
Y01841528D01*
X01775211Y01843194D01*
X01771879D01*
X01770213Y01841528D01*
Y01838195D01*
X01771879Y01836529D01*
X01780209D02*
X01783542D01*
X01781875D01*
Y01846526D01*
X01780209D01*
X01793538Y01836529D02*
X01790206D01*
X01788540Y01838195D01*
Y01841528D01*
X01790206Y01843194D01*
X01793538D01*
X01795204Y01841528D01*
Y01839861D01*
X01788540D01*
X01815198Y01844860D02*
X01813532Y01846526D01*
X01810200D01*
X01808533Y01844860D01*
Y01843194D01*
X01810200Y01841528D01*
X01813532D01*
X01815198Y01839861D01*
Y01838195D01*
X01813532Y01836529D01*
X01810200D01*
X01808533Y01838195D01*
X01818530Y01836529D02*
X01821863D01*
X01820197D01*
Y01843194D01*
X01818530D01*
X01826861D02*
X01833526D01*
X01826861Y01836529D01*
X01833526D01*
X01841856D02*
X01838524D01*
X01836858Y01838195D01*
Y01841528D01*
X01838524Y01843194D01*
X01841856D01*
X01843522Y01841528D01*
Y01839861D01*
X01836858D01*
X01653584Y01823435D02*
X01660248D01*
X01663580Y01818437D02*
X01666913D01*
X01665246D01*
Y01828434D01*
X01663580Y01826768D01*
X01673577Y01818437D02*
X01676909D01*
X01678575Y01820103D01*
Y01823435D01*
X01676909Y01825101D01*
X01673577D01*
X01671911Y01823435D01*
Y01820103D01*
X01673577Y01818437D01*
X01681908Y01825101D02*
X01688572D01*
X01681908Y01818437D01*
X01688572D01*
X01708566Y01828434D02*
X01701901D01*
Y01823435D01*
X01705233D01*
X01701901D01*
Y01818437D01*
X01711898D02*
X01715230D01*
X01713564D01*
Y01825101D01*
X01711898D01*
X01720229Y01818437D02*
Y01825101D01*
X01725227D01*
X01726893Y01823435D01*
Y01818437D01*
X01730225D02*
X01733558D01*
X01731892D01*
Y01825101D01*
X01730225D01*
X01738556Y01818437D02*
X01743555D01*
X01745221Y01820103D01*
X01743555Y01821769D01*
X01740222D01*
X01738556Y01823435D01*
X01740222Y01825101D01*
X01745221D01*
X01748553Y01828434D02*
Y01818437D01*
Y01823435D01*
X01750219Y01825101D01*
X01753551D01*
X01755217Y01823435D01*
Y01818437D01*
X01763548D02*
X01760216D01*
X01758550Y01820103D01*
Y01823435D01*
X01760216Y01825101D01*
X01763548D01*
X01765214Y01823435D01*
Y01821769D01*
X01758550D01*
X01775211Y01828434D02*
Y01818437D01*
X01770213D01*
X01768546Y01820103D01*
Y01823435D01*
X01770213Y01825101D01*
X01775211D01*
X01795204Y01826768D02*
X01793538Y01828434D01*
X01790206D01*
X01788540Y01826768D01*
Y01820103D01*
X01790206Y01818437D01*
X01793538D01*
X01795204Y01820103D01*
X01800203Y01818437D02*
X01803535D01*
X01805201Y01820103D01*
Y01823435D01*
X01803535Y01825101D01*
X01800203D01*
X01798537Y01823435D01*
Y01820103D01*
X01800203Y01818437D01*
X01808533Y01815105D02*
Y01825101D01*
X01813532D01*
X01815198Y01823435D01*
Y01820103D01*
X01813532Y01818437D01*
X01808533D01*
X01818530Y01815105D02*
Y01825101D01*
X01823529D01*
X01825195Y01823435D01*
Y01820103D01*
X01823529Y01818437D01*
X01818530D01*
X01833526D02*
X01830193D01*
X01828527Y01820103D01*
Y01823435D01*
X01830193Y01825101D01*
X01833526D01*
X01835192Y01823435D01*
Y01821769D01*
X01828527D01*
X01838524Y01825101D02*
Y01818437D01*
Y01821769D01*
X01840190Y01823435D01*
X01841856Y01825101D01*
X01843522D01*
X01653584Y01802011D02*
X01660248D01*
X01663580Y01797013D02*
X01666913D01*
X01665246D01*
Y01807009D01*
X01663580Y01805343D01*
X01673577Y01797013D02*
X01676909D01*
X01678575Y01798679D01*
Y01802011D01*
X01676909Y01803677D01*
X01673577D01*
X01671911Y01802011D01*
Y01798679D01*
X01673577Y01797013D01*
X01681908Y01803677D02*
X01688572D01*
X01681908Y01797013D01*
X01688572D01*
X01701901Y01807009D02*
X01705233D01*
X01703567D01*
Y01797013D01*
X01701901D01*
X01705233D01*
X01710232D02*
Y01803677D01*
X01715230D01*
X01716896Y01802011D01*
Y01797013D01*
X01720229D02*
Y01803677D01*
X01725227D01*
X01726893Y01802011D01*
Y01797013D01*
X01735224D02*
X01731892D01*
X01730225Y01798679D01*
Y01802011D01*
X01731892Y01803677D01*
X01735224D01*
X01736890Y01802011D01*
Y01800345D01*
X01730225D01*
X01740222Y01803677D02*
Y01797013D01*
Y01800345D01*
X01741888Y01802011D01*
X01743555Y01803677D01*
X01745221D01*
X01766880Y01805343D02*
X01765214Y01807009D01*
X01761882D01*
X01760216Y01805343D01*
Y01798679D01*
X01761882Y01797013D01*
X01765214D01*
X01766880Y01798679D01*
X01771879Y01797013D02*
X01775211D01*
X01776877Y01798679D01*
Y01802011D01*
X01775211Y01803677D01*
X01771879D01*
X01770213Y01802011D01*
Y01798679D01*
X01771879Y01797013D01*
X01780209Y01793680D02*
Y01803677D01*
X01785208D01*
X01786874Y01802011D01*
Y01798679D01*
X01785208Y01797013D01*
X01780209D01*
X01790206Y01793680D02*
Y01803677D01*
X01795204D01*
X01796871Y01802011D01*
Y01798679D01*
X01795204Y01797013D01*
X01790206D01*
X01805201D02*
X01801869D01*
X01800203Y01798679D01*
Y01802011D01*
X01801869Y01803677D01*
X01805201D01*
X01806867Y01802011D01*
Y01800345D01*
X01800203D01*
X01810200Y01803677D02*
Y01797013D01*
Y01800345D01*
X01811866Y01802011D01*
X01813532Y01803677D01*
X01815198D01*
D47*
X01654484Y01556845D02*
G03*
X01700311Y01477471I00109516J00010312D01*
G01*
X01654484Y01556845D02*
G03*
X01693761Y01482502I00109516J00010312D01*
G01*
X01873515Y01577470D02*
G03*
X01827689Y01656844I-00109516J-00010312D01*
G01*
X01700311Y01656844D02*
G03*
X01654484Y01577470I00063689J-00089687D01*
G01*
X01794755Y01635426D02*
G03*
X01807745Y01627926I00006495J-00003750D01*
G01*
X01720255D02*
G03*
X01733245Y01635426I00006495J00003750D01*
G01*
X01809827Y01667157D02*
G03*
X01718173Y01667157I-00045827J-00100000D01*
G01*
X01733245Y01498889D02*
G03*
X01720255Y01506389I-00006495J00003750D01*
G01*
X01807745D02*
G03*
X01794755Y01498889I-00006495J-00003750D01*
G01*
X01827689Y01477471D02*
G03*
X01873515Y01556845I-00063689J00089687D01*
G01*
X01834239Y01482502D02*
G03*
X01873515Y01556845I-00070239J00084655D01*
G01*
X01689500Y01559657D02*
G03*
X01689500Y01574658I00000000J00007500D01*
G01*
X01838500D02*
G03*
X01838500Y01559657I00000000J-00007500D01*
G01*
X01352321Y01498854D02*
G03*
X01339331Y01506354I-00006495J00003750D01*
G01*
X01426821D02*
G03*
X01413831Y01498854I-00006495J-00003750D01*
G01*
X01429395Y01501896D02*
G03*
X01462724Y01559623I-00046319J00065227D01*
G01*
X01303428D02*
G03*
X01336757Y01501896I00079648J00007500D01*
G01*
X01303428Y01559623D02*
G03*
X01331993Y01505556I00079648J00007500D01*
G01*
X01434159D02*
G03*
X01462724Y01559623I-00051083J00061567D01*
G01*
X01308576D02*
G03*
X01308576Y01574623I00000000J00007500D01*
G01*
X01457576D02*
G03*
X01457576Y01559623I00000000J-00007500D01*
G01*
X01336757Y01632350D02*
G03*
X01303428Y01574623I00046319J-00065227D01*
G01*
X01462724D02*
G03*
X01429395Y01632350I-00079648J-00007500D01*
G01*
X01413831Y01635392D02*
G03*
X01426821Y01627892I00006495J-00003750D01*
G01*
X01339331D02*
G03*
X01352321Y01635392I00006495J00003750D01*
G01*
X01416405Y01639850D02*
G03*
X01349747Y01639850I-00033329J-00072727D01*
G01*
X01684352Y01559657D02*
X01689500D01*
X01654484Y01556845D02*
X01684352Y01559657D01*
X01843648Y01574658D02*
X01873515Y01577470D01*
X01807434Y01627387D02*
X01810319Y01632384D01*
X01717681D02*
X01720255Y01627926D01*
X01794568Y01635102D02*
X01797328Y01639884D01*
X01730671D02*
X01733245Y01635426D01*
X01700311Y01656844D02*
X01717681Y01632384D01*
X01718173Y01667157D02*
X01730671Y01639884D01*
X01797328D02*
X01809827Y01667157D01*
X01810319Y01632384D02*
X01827689Y01656844D01*
X01654484Y01577470D02*
X01684352Y01574658D01*
X01843648Y01559657D02*
X01873515Y01556845D01*
X01807745Y01506389D02*
X01810319Y01501931D01*
X01717681D02*
X01720255Y01506389D01*
X01700311Y01477471D02*
X01717681Y01501931D01*
X01810319D02*
X01827689Y01477471D01*
X01838500Y01559657D02*
X01843648D01*
X01684352D02*
X01689500D01*
X01838500D02*
X01843648D01*
X01684352Y01574658D02*
X01689500D01*
X01838500D02*
X01843648D01*
X01303428Y01559623D02*
X01308576D01*
X01426821Y01506354D02*
X01429395Y01501896D01*
X01336757D02*
X01339331Y01506354D01*
X01457576Y01559623D02*
X01462724D01*
X01303428D02*
X01308576D01*
X01457576D02*
X01462724D01*
X01303428Y01574623D02*
X01308576D01*
X01457576D02*
X01462724D01*
X01426510Y01627353D02*
X01429395Y01632350D01*
X01336757D02*
X01339331Y01627892D01*
X01413644Y01635068D02*
X01416405Y01639850D01*
X01349747D02*
X01352321Y01635392D01*
M02*
