G04*
G04 #@! TF.GenerationSoftware,Altium Limited,Altium Designer,21.0.9 (235)*
G04*
G04 Layer_Color=8388736*
%FSAX44Y44*%
%MOMM*%
G71*
G04*
G04 #@! TF.SameCoordinates,C9C275F4-687D-4123-80A0-9C6E5F070257*
G04*
G04*
G04 #@! TF.FilePolarity,Negative*
G04*
G01*
G75*
%ADD15R,4.1800X4.1800*%
%ADD16O,0.3000X0.7000*%
%ADD17O,0.7000X0.3000*%
G04:AMPARAMS|DCode=18|XSize=1.2571mm|YSize=0.3758mm|CornerRadius=0.1879mm|HoleSize=0mm|Usage=FLASHONLY|Rotation=90.000|XOffset=0mm|YOffset=0mm|HoleType=Round|Shape=RoundedRectangle|*
%AMROUNDEDRECTD18*
21,1,1.2571,0.0000,0,0,90.0*
21,1,0.8813,0.3758,0,0,90.0*
1,1,0.3758,0.0000,0.4406*
1,1,0.3758,0.0000,-0.4406*
1,1,0.3758,0.0000,-0.4406*
1,1,0.3758,0.0000,0.4406*
%
%ADD18ROUNDEDRECTD18*%
%ADD19R,0.3758X1.2571*%
%ADD20R,0.6500X0.7000*%
%ADD21R,0.7000X0.6500*%
%ADD22R,0.7400X0.7800*%
%ADD23R,0.7500X0.6000*%
%ADD24R,2.6000X1.3500*%
%ADD25R,1.3250X0.8250*%
%ADD28R,0.8000X0.8000*%
%ADD29R,0.7800X0.7400*%
%ADD30R,0.8250X1.3250*%
%ADD31R,0.3000X0.6300*%
%ADD32R,0.6300X0.3000*%
%ADD33R,1.8500X1.8500*%
%ADD34C,2.7000*%
%ADD35R,1.8000X1.8000*%
%ADD38C,0.5000*%
%ADD39C,1.8000*%
%ADD43C,0.4000*%
%ADD51C,0.6000*%
G04:AMPARAMS|DCode=52|XSize=2.2016mm|YSize=1.7016mm|CornerRadius=0.0988mm|HoleSize=0mm|Usage=FLASHONLY|Rotation=90.000|XOffset=0mm|YOffset=0mm|HoleType=Round|Shape=RoundedRectangle|*
%AMROUNDEDRECTD52*
21,1,2.2016,1.5040,0,0,90.0*
21,1,2.0040,1.7016,0,0,90.0*
1,1,0.1976,0.7520,1.0020*
1,1,0.1976,0.7520,-1.0020*
1,1,0.1976,-0.7520,-1.0020*
1,1,0.1976,-0.7520,1.0020*
%
%ADD52ROUNDEDRECTD52*%
G04:AMPARAMS|DCode=53|XSize=0.4516mm|YSize=0.7016mm|CornerRadius=0.1016mm|HoleSize=0mm|Usage=FLASHONLY|Rotation=90.000|XOffset=0mm|YOffset=0mm|HoleType=Round|Shape=RoundedRectangle|*
%AMROUNDEDRECTD53*
21,1,0.4516,0.4985,0,0,90.0*
21,1,0.2485,0.7016,0,0,90.0*
1,1,0.2031,0.2493,0.1243*
1,1,0.2031,0.2493,-0.1243*
1,1,0.2031,-0.2493,-0.1243*
1,1,0.2031,-0.2493,0.1243*
%
%ADD53ROUNDEDRECTD53*%
%ADD54C,2.9032*%
%ADD55R,2.0032X2.0032*%
%ADD56C,0.4040*%
%ADD57C,1.2032*%
%ADD58C,0.5040*%
G36*
X01767941Y01677158D02*
X01775802Y01676594D01*
X01783602Y01675468D01*
X01791303Y01673788D01*
X01798863Y01671561D01*
X01806244Y01668799D01*
X01808999Y01667536D01*
X01809424Y01666340D01*
X01794318Y01635678D01*
X01794318Y01635678D01*
X01790660Y01637080D01*
X01783158Y01639333D01*
X01775471Y01640837D01*
X01767673Y01641577D01*
X01759841Y01641544D01*
X01752049Y01640741D01*
X01744375Y01639173D01*
X01736892Y01636858D01*
X01733245Y01635426D01*
X01718718Y01666010D01*
X01719328Y01667686D01*
X01721755Y01668799D01*
X01729137Y01671561D01*
X01736697Y01673788D01*
X01744397Y01675469D01*
X01752198Y01676594D01*
X01760059Y01677158D01*
X01767941Y01677158D01*
D02*
G37*
G36*
X01830902Y01654563D02*
X01836985Y01649552D01*
X01842693Y01644118D01*
X01847999Y01638289D01*
X01852873Y01632096D01*
X01857292Y01625570D01*
X01861233Y01618745D01*
X01864675Y01611655D01*
X01867601Y01604337D01*
X01869996Y01596828D01*
X01871848Y01589167D01*
X01873146Y01581393D01*
X01873430Y01578377D01*
X01872607Y01577410D01*
X01838500Y01575161D01*
X01837884Y01579030D01*
X01836085Y01586654D01*
X01833544Y01594063D01*
X01830285Y01601186D01*
X01826341Y01607953D01*
X01821749Y01614299D01*
X01816555Y01620161D01*
X01810808Y01625484D01*
X01807745Y01627926D01*
X01826968Y01655799D01*
X01828724Y01656109D01*
X01830902Y01654563D01*
D02*
G37*
G36*
X01700818Y01656087D02*
X01719818Y01627675D01*
Y01627674D01*
X01716776Y01625207D01*
X01711073Y01619837D01*
X01705927Y01613932D01*
X01701388Y01607548D01*
X01697499Y01600749D01*
X01694300Y01593599D01*
X01691820Y01586169D01*
X01690083Y01578531D01*
X01689500Y01574658D01*
X01655750Y01577368D01*
X01654603Y01578735D01*
X01654854Y01581393D01*
X01656152Y01589167D01*
X01658004Y01596828D01*
X01660398Y01604337D01*
X01663324Y01611655D01*
X01666767Y01618745D01*
X01670707Y01625570D01*
X01675126Y01632096D01*
X01680001Y01638289D01*
X01685307Y01644118D01*
X01691015Y01649552D01*
X01697098Y01654563D01*
X01699568Y01656317D01*
X01700818Y01656087D01*
D02*
G37*
G36*
X01689500Y01559154D02*
X01690115Y01555285D01*
X01691915Y01547661D01*
X01694456Y01540252D01*
X01697714Y01533129D01*
X01701659Y01526362D01*
X01706250Y01520016D01*
X01711445Y01514153D01*
X01717192Y01508831D01*
X01720255Y01506389D01*
X01701032Y01478516D01*
X01699276Y01478206D01*
X01697098Y01479752D01*
X01691015Y01484763D01*
X01685306Y01490197D01*
X01680001Y01496026D01*
X01675126Y01502219D01*
X01670707Y01508745D01*
X01666767Y01515570D01*
X01663325Y01522660D01*
X01660399Y01529978D01*
X01658004Y01537487D01*
X01656152Y01545148D01*
X01654854Y01552922D01*
X01654570Y01555938D01*
X01655393Y01556905D01*
X01689500Y01559154D01*
X01689500Y01559154D01*
D02*
G37*
G36*
X01872250Y01556947D02*
X01873397Y01555580D01*
X01873146Y01552922D01*
X01871848Y01545148D01*
X01869996Y01537487D01*
X01867601Y01529978D01*
X01864675Y01522660D01*
X01861233Y01515570D01*
X01857292Y01508745D01*
X01852873Y01502219D01*
X01847999Y01496026D01*
X01842693Y01490197D01*
X01836985Y01484764D01*
X01830902Y01479752D01*
X01828431Y01477998D01*
X01827182Y01478228D01*
X01808181Y01506641D01*
X01811224Y01509108D01*
X01816927Y01514478D01*
X01822073Y01520383D01*
X01826612Y01526767D01*
X01830500Y01533566D01*
X01833700Y01540716D01*
X01836180Y01548146D01*
X01837916Y01555784D01*
X01838500Y01559657D01*
X01872250Y01556947D01*
D02*
G37*
D15*
X01019750Y01311385D02*
D03*
X01400750D02*
D03*
X01781750D02*
D03*
D16*
X01000250Y01341385D02*
D03*
X01006750D02*
D03*
X01013250D02*
D03*
X01019750D02*
D03*
X01026250D02*
D03*
X01032750D02*
D03*
X01039250D02*
D03*
Y01281385D02*
D03*
X01032750D02*
D03*
X01026250D02*
D03*
X01019750D02*
D03*
X01013250D02*
D03*
X01006750D02*
D03*
X01000250D02*
D03*
X01381250Y01341385D02*
D03*
X01387750D02*
D03*
X01394250D02*
D03*
X01400750D02*
D03*
X01407250D02*
D03*
X01413750D02*
D03*
X01420250D02*
D03*
Y01281385D02*
D03*
X01413750D02*
D03*
X01407250D02*
D03*
X01400750D02*
D03*
X01394250D02*
D03*
X01387750D02*
D03*
X01381250D02*
D03*
X01762250Y01341385D02*
D03*
X01768750D02*
D03*
X01775250D02*
D03*
X01781750D02*
D03*
X01788250D02*
D03*
X01794750D02*
D03*
X01801250D02*
D03*
Y01281385D02*
D03*
X01794750D02*
D03*
X01788250D02*
D03*
X01781750D02*
D03*
X01775250D02*
D03*
X01768750D02*
D03*
X01762250D02*
D03*
D17*
X01049750Y01330885D02*
D03*
Y01324385D02*
D03*
Y01317885D02*
D03*
Y01311385D02*
D03*
Y01304885D02*
D03*
Y01298385D02*
D03*
Y01291885D02*
D03*
X00989750D02*
D03*
Y01298385D02*
D03*
Y01304885D02*
D03*
Y01311385D02*
D03*
Y01317885D02*
D03*
Y01324385D02*
D03*
Y01330885D02*
D03*
X01430750D02*
D03*
Y01324385D02*
D03*
Y01317885D02*
D03*
Y01311385D02*
D03*
Y01304885D02*
D03*
Y01298385D02*
D03*
Y01291885D02*
D03*
X01370750D02*
D03*
Y01298385D02*
D03*
Y01304885D02*
D03*
Y01311385D02*
D03*
Y01317885D02*
D03*
Y01324385D02*
D03*
Y01330885D02*
D03*
X01811750D02*
D03*
Y01324385D02*
D03*
Y01317885D02*
D03*
Y01311385D02*
D03*
Y01304885D02*
D03*
Y01298385D02*
D03*
Y01291885D02*
D03*
X01751750D02*
D03*
Y01298385D02*
D03*
Y01304885D02*
D03*
Y01311385D02*
D03*
Y01317885D02*
D03*
Y01324385D02*
D03*
Y01330885D02*
D03*
D18*
X01055529Y01141165D02*
D03*
X01060529Y01129155D02*
D03*
X01436529Y01141165D02*
D03*
X01441529Y01129155D02*
D03*
X01817529Y01141165D02*
D03*
X01822529Y01129155D02*
D03*
D19*
X01050529D02*
D03*
X01431529D02*
D03*
X01812529D02*
D03*
D20*
X00979693Y01255336D02*
D03*
Y01264836D02*
D03*
X00988932Y01197364D02*
D03*
Y01187864D02*
D03*
X00976630Y01187635D02*
D03*
Y01197135D02*
D03*
X01048750Y01152601D02*
D03*
Y01162101D02*
D03*
X00991635Y01359497D02*
D03*
Y01368997D02*
D03*
X01003469D02*
D03*
Y01359497D02*
D03*
X00954432Y01359717D02*
D03*
Y01369217D02*
D03*
X00966678Y01368998D02*
D03*
Y01359498D02*
D03*
X01360693Y01255336D02*
D03*
Y01264836D02*
D03*
X01369932Y01197364D02*
D03*
Y01187864D02*
D03*
X01357630Y01187635D02*
D03*
Y01197135D02*
D03*
X01429750Y01152601D02*
D03*
Y01162101D02*
D03*
X01372635Y01359497D02*
D03*
Y01368997D02*
D03*
X01384469D02*
D03*
Y01359497D02*
D03*
X01335432Y01359717D02*
D03*
Y01369217D02*
D03*
X01347678Y01368998D02*
D03*
Y01359498D02*
D03*
X01741693Y01255336D02*
D03*
Y01264836D02*
D03*
X01750932Y01197364D02*
D03*
Y01187864D02*
D03*
X01738630Y01187635D02*
D03*
Y01197135D02*
D03*
X01810750Y01152601D02*
D03*
Y01162101D02*
D03*
X01753635Y01359497D02*
D03*
Y01368997D02*
D03*
X01765470D02*
D03*
Y01359497D02*
D03*
X01716432Y01359717D02*
D03*
Y01369217D02*
D03*
X01728678Y01368998D02*
D03*
Y01359498D02*
D03*
D21*
X01060679Y01103438D02*
D03*
X01051179D02*
D03*
X01060679Y01113790D02*
D03*
X01051179D02*
D03*
X01001932Y01198910D02*
D03*
Y01185410D02*
D03*
X00964678Y01332385D02*
D03*
X00974178D02*
D03*
X00974123Y01320113D02*
D03*
X00964623D02*
D03*
X00983185Y01415824D02*
D03*
X00973684D02*
D03*
X00983110Y01427480D02*
D03*
X00973610D02*
D03*
X01441679Y01103438D02*
D03*
X01432179D02*
D03*
X01441679Y01113790D02*
D03*
X01432179D02*
D03*
X01382932Y01198910D02*
D03*
Y01185410D02*
D03*
X01345678Y01332385D02*
D03*
X01355178D02*
D03*
X01355123Y01320113D02*
D03*
X01345623D02*
D03*
X01364185Y01415824D02*
D03*
X01354684D02*
D03*
X01364110Y01427480D02*
D03*
X01354610D02*
D03*
X01822679Y01103438D02*
D03*
X01813179D02*
D03*
X01822679Y01113790D02*
D03*
X01813179D02*
D03*
X01763932Y01198910D02*
D03*
Y01185410D02*
D03*
X01726678Y01332385D02*
D03*
X01736178D02*
D03*
X01736123Y01320113D02*
D03*
X01726623D02*
D03*
X01745184Y01415824D02*
D03*
X01735685D02*
D03*
X01745110Y01427480D02*
D03*
X01735610D02*
D03*
D22*
X00950390Y01141394D02*
D03*
Y01131594D02*
D03*
X01052779Y01192160D02*
D03*
Y01182360D02*
D03*
X01040640Y01192160D02*
D03*
Y01182360D02*
D03*
X00979206Y01359619D02*
D03*
Y01369419D02*
D03*
X01015650Y01359708D02*
D03*
Y01369508D02*
D03*
X01028287Y01359708D02*
D03*
Y01369508D02*
D03*
X01041555Y01359708D02*
D03*
Y01369508D02*
D03*
X01331390Y01141394D02*
D03*
Y01131594D02*
D03*
X01433779Y01192160D02*
D03*
Y01182360D02*
D03*
X01421640Y01192160D02*
D03*
Y01182360D02*
D03*
X01360206Y01359619D02*
D03*
Y01369419D02*
D03*
X01396650Y01359708D02*
D03*
Y01369508D02*
D03*
X01409287Y01359708D02*
D03*
Y01369508D02*
D03*
X01422555Y01359708D02*
D03*
Y01369508D02*
D03*
X01712390Y01141394D02*
D03*
Y01131594D02*
D03*
X01814779Y01192160D02*
D03*
Y01182360D02*
D03*
X01802640Y01192160D02*
D03*
Y01182360D02*
D03*
X01741206Y01359619D02*
D03*
Y01369419D02*
D03*
X01777650Y01359708D02*
D03*
Y01369508D02*
D03*
X01790287Y01359708D02*
D03*
Y01369508D02*
D03*
X01803555Y01359708D02*
D03*
Y01369508D02*
D03*
D23*
X01013890Y01153160D02*
D03*
X01035890Y01162660D02*
D03*
Y01143660D02*
D03*
X01394890Y01153160D02*
D03*
X01416890Y01162660D02*
D03*
Y01143660D02*
D03*
X01775890Y01153160D02*
D03*
X01797890Y01162660D02*
D03*
Y01143660D02*
D03*
D24*
X00993099Y01168744D02*
D03*
Y01144244D02*
D03*
X01374099Y01168744D02*
D03*
Y01144244D02*
D03*
X01755099Y01168744D02*
D03*
Y01144244D02*
D03*
D25*
X01020687Y01192614D02*
D03*
Y01176614D02*
D03*
X00996932Y01235910D02*
D03*
Y01219910D02*
D03*
X01401687Y01192614D02*
D03*
Y01176614D02*
D03*
X01377932Y01235910D02*
D03*
Y01219910D02*
D03*
X01782687Y01192614D02*
D03*
Y01176614D02*
D03*
X01758932Y01235910D02*
D03*
Y01219910D02*
D03*
D28*
X00976535Y01292163D02*
D03*
X00961535D02*
D03*
X00976711Y01305884D02*
D03*
X00961711D02*
D03*
X01357535Y01292163D02*
D03*
X01342535D02*
D03*
X01357711Y01305884D02*
D03*
X01342711D02*
D03*
X01738535Y01292163D02*
D03*
X01723535D02*
D03*
X01738711Y01305884D02*
D03*
X01723711D02*
D03*
D29*
X00974112Y01344702D02*
D03*
X00964312D02*
D03*
X01011650Y01267495D02*
D03*
X01001850D02*
D03*
X01011650Y01254495D02*
D03*
X01001850D02*
D03*
X01041400Y01402457D02*
D03*
X01051200D02*
D03*
X01041400Y01416130D02*
D03*
X01051200D02*
D03*
X00982683Y01403639D02*
D03*
X00972883D02*
D03*
X00983124Y01439799D02*
D03*
X00973324D02*
D03*
X01355112Y01344702D02*
D03*
X01345312D02*
D03*
X01392650Y01267495D02*
D03*
X01382850D02*
D03*
X01392650Y01254495D02*
D03*
X01382850D02*
D03*
X01422400Y01402457D02*
D03*
X01432200D02*
D03*
X01422400Y01416130D02*
D03*
X01432200D02*
D03*
X01363683Y01403639D02*
D03*
X01353883D02*
D03*
X01364124Y01439799D02*
D03*
X01354324D02*
D03*
X01736112Y01344702D02*
D03*
X01726312D02*
D03*
X01773650Y01267495D02*
D03*
X01763850D02*
D03*
X01773650Y01254495D02*
D03*
X01763850D02*
D03*
X01803400Y01402457D02*
D03*
X01813200D02*
D03*
X01803400Y01416130D02*
D03*
X01813200D02*
D03*
X01744684Y01403639D02*
D03*
X01734883D02*
D03*
X01745124Y01439799D02*
D03*
X01735324D02*
D03*
D30*
X01057750Y01259495D02*
D03*
X01041750D02*
D03*
X01438750D02*
D03*
X01422750D02*
D03*
X01819750D02*
D03*
X01803750D02*
D03*
D31*
X01004690Y01407280D02*
D03*
X01009690D02*
D03*
X01014690D02*
D03*
X01019690D02*
D03*
Y01434980D02*
D03*
X01014690D02*
D03*
X01009690D02*
D03*
X01004690D02*
D03*
X01385690Y01407280D02*
D03*
X01390690D02*
D03*
X01395690D02*
D03*
X01400690D02*
D03*
Y01434980D02*
D03*
X01395690D02*
D03*
X01390690D02*
D03*
X01385690D02*
D03*
X01766690Y01407280D02*
D03*
X01771690D02*
D03*
X01776690D02*
D03*
X01781690D02*
D03*
Y01434980D02*
D03*
X01776690D02*
D03*
X01771690D02*
D03*
X01766690D02*
D03*
D32*
X01026040Y01413630D02*
D03*
Y01418630D02*
D03*
Y01423630D02*
D03*
Y01428630D02*
D03*
X00998340D02*
D03*
Y01423630D02*
D03*
Y01418630D02*
D03*
Y01413630D02*
D03*
X01407040D02*
D03*
Y01418630D02*
D03*
Y01423630D02*
D03*
Y01428630D02*
D03*
X01379340D02*
D03*
Y01423630D02*
D03*
Y01418630D02*
D03*
Y01413630D02*
D03*
X01788040D02*
D03*
Y01418630D02*
D03*
Y01423630D02*
D03*
Y01428630D02*
D03*
X01760340D02*
D03*
Y01423630D02*
D03*
Y01418630D02*
D03*
Y01413630D02*
D03*
D33*
X01012190Y01421130D02*
D03*
X01393190D02*
D03*
X01774190D02*
D03*
D34*
X01002030Y01567180D02*
D03*
X01383030D02*
D03*
X01764030D02*
D03*
D35*
X00976330Y01473281D02*
D03*
X01002030D02*
D03*
X01027730D02*
D03*
X01027430Y01117900D02*
D03*
X01002030D02*
D03*
X00976630D02*
D03*
X01357330Y01473281D02*
D03*
X01383030D02*
D03*
X01408730D02*
D03*
X01408430Y01117900D02*
D03*
X01383030D02*
D03*
X01357630D02*
D03*
X01738330Y01473281D02*
D03*
X01764030D02*
D03*
X01789730D02*
D03*
X01789430Y01117900D02*
D03*
X01764030D02*
D03*
X01738630D02*
D03*
D38*
X01039365Y01226160D02*
D03*
X01034365Y01218160D02*
D03*
X01029365Y01226160D02*
D03*
X01034365Y01234160D02*
D03*
X01420365Y01226160D02*
D03*
X01415365Y01218160D02*
D03*
X01410365Y01226160D02*
D03*
X01415365Y01234160D02*
D03*
X01801365Y01226160D02*
D03*
X01796365Y01218160D02*
D03*
X01791365Y01226160D02*
D03*
X01796365Y01234160D02*
D03*
D39*
X00952535Y01219695D02*
D03*
Y01245095D02*
D03*
Y01270495D02*
D03*
Y01194295D02*
D03*
Y01168895D02*
D03*
X01333535Y01219695D02*
D03*
Y01245095D02*
D03*
Y01270495D02*
D03*
Y01194295D02*
D03*
Y01168895D02*
D03*
X01714535Y01219695D02*
D03*
Y01245095D02*
D03*
Y01270495D02*
D03*
Y01194295D02*
D03*
Y01168895D02*
D03*
D43*
X01430412Y01505129D02*
G03*
X01460422Y01557044I-00047336J00061995D01*
G01*
D51*
X01336347Y01628323D02*
G03*
X01306722Y01577074I00046729J-00061200D01*
G01*
X01306711Y01557255D02*
G03*
X01336282Y01505974I00076365J00009868D01*
G01*
X01459441Y01576992D02*
G03*
X01429870Y01628273I-00076365J-00009868D01*
G01*
X01412712Y01638192D02*
G03*
X01353516Y01638223I-00029636J-00071068D01*
G01*
D52*
X01034365Y01226160D02*
D03*
X01415365D02*
D03*
X01796365D02*
D03*
D53*
X01020365Y01216660D02*
D03*
Y01226160D02*
D03*
Y01235660D02*
D03*
X01048365D02*
D03*
Y01226160D02*
D03*
Y01216660D02*
D03*
X01401365D02*
D03*
Y01226160D02*
D03*
Y01235660D02*
D03*
X01429365D02*
D03*
Y01226160D02*
D03*
Y01216660D02*
D03*
X01782365D02*
D03*
Y01226160D02*
D03*
Y01235660D02*
D03*
X01810365D02*
D03*
Y01226160D02*
D03*
Y01216660D02*
D03*
D54*
X01764000Y01567157D02*
D03*
X01383076Y01567123D02*
D03*
D55*
X01789700Y01473259D02*
D03*
X01764000D02*
D03*
X01738300D02*
D03*
D56*
X01309827Y01580293D02*
D03*
Y01553920D02*
D03*
X01334787Y01511164D02*
D03*
X01396322Y01491992D02*
D03*
X01369830D02*
D03*
X01431259Y01510560D02*
D03*
X01456141Y01553999D02*
D03*
Y01580216D02*
D03*
X01431133Y01623349D02*
D03*
X01408272Y01637053D02*
D03*
X01358066Y01637243D02*
D03*
X01334937Y01623904D02*
D03*
X01371457Y01586512D02*
D03*
X01359253Y01567486D02*
D03*
X01371251Y01547216D02*
D03*
X01395436Y01546121D02*
D03*
X01407174Y01566854D02*
D03*
X01395436Y01588611D02*
D03*
D57*
X01307791Y01427863D02*
D03*
Y01087863D02*
D03*
Y01107863D02*
D03*
Y01127863D02*
D03*
Y01147863D02*
D03*
Y01167863D02*
D03*
Y01187863D02*
D03*
Y01207863D02*
D03*
Y01227863D02*
D03*
Y01247863D02*
D03*
Y01267863D02*
D03*
Y01287863D02*
D03*
Y01307863D02*
D03*
Y01327863D02*
D03*
Y01347863D02*
D03*
Y01367863D02*
D03*
Y01387863D02*
D03*
Y01407863D02*
D03*
Y01427863D02*
D03*
X01688830Y01427978D02*
D03*
Y01087978D02*
D03*
Y01107978D02*
D03*
Y01127978D02*
D03*
Y01147978D02*
D03*
Y01167978D02*
D03*
Y01187978D02*
D03*
Y01207978D02*
D03*
Y01227978D02*
D03*
Y01247978D02*
D03*
Y01267978D02*
D03*
Y01287978D02*
D03*
Y01307978D02*
D03*
Y01327978D02*
D03*
Y01347978D02*
D03*
Y01367978D02*
D03*
Y01387978D02*
D03*
Y01407978D02*
D03*
Y01427978D02*
D03*
X01458246Y01083124D02*
D03*
Y01423124D02*
D03*
Y01403124D02*
D03*
Y01383124D02*
D03*
Y01363124D02*
D03*
Y01343124D02*
D03*
Y01323124D02*
D03*
Y01303124D02*
D03*
Y01283124D02*
D03*
Y01263124D02*
D03*
Y01243124D02*
D03*
Y01223124D02*
D03*
Y01203124D02*
D03*
Y01183124D02*
D03*
Y01163124D02*
D03*
Y01143124D02*
D03*
Y01123124D02*
D03*
Y01103124D02*
D03*
Y01083124D02*
D03*
X01076965Y01083124D02*
D03*
Y01103124D02*
D03*
Y01123124D02*
D03*
Y01143124D02*
D03*
Y01163124D02*
D03*
Y01183124D02*
D03*
Y01203124D02*
D03*
Y01223124D02*
D03*
Y01243124D02*
D03*
Y01263124D02*
D03*
Y01283124D02*
D03*
Y01303124D02*
D03*
Y01323124D02*
D03*
Y01343124D02*
D03*
Y01363124D02*
D03*
Y01383124D02*
D03*
Y01403124D02*
D03*
Y01423124D02*
D03*
Y01083124D02*
D03*
D58*
X01835880Y01525658D02*
D03*
X01841076Y01522658D02*
D03*
X01846272Y01519657D02*
D03*
X01851469Y01516658D02*
D03*
X01846734Y01509226D02*
D03*
X01841819Y01512668D02*
D03*
X01831989Y01519551D02*
D03*
X01836904Y01516109D02*
D03*
X01822690Y01508468D02*
D03*
X01826932Y01504225D02*
D03*
X01831175Y01499982D02*
D03*
X01835418Y01495740D02*
D03*
X01828922Y01489787D02*
D03*
X01825065Y01494383D02*
D03*
X01821208Y01498980D02*
D03*
X01817351Y01503576D02*
D03*
X01813761Y01507994D02*
D03*
X01818728Y01512556D02*
D03*
X01827378Y01522889D02*
D03*
X01830995Y01528581D02*
D03*
X01823278Y01517533D02*
D03*
X01827582Y01513806D02*
D03*
X01832178Y01509949D02*
D03*
X01836774Y01506093D02*
D03*
X01841370Y01502236D02*
D03*
X01855537Y01524473D02*
D03*
X01850099Y01527009D02*
D03*
X01844661Y01529545D02*
D03*
X01839223Y01532080D02*
D03*
X01834102Y01534567D02*
D03*
X01836676Y01540800D02*
D03*
X01841994Y01538770D02*
D03*
X01847633Y01536718D02*
D03*
X01853271Y01534666D02*
D03*
X01858909Y01532614D02*
D03*
X01764000Y01668158D02*
D03*
Y01662157D02*
D03*
Y01656158D02*
D03*
Y01650158D02*
D03*
X01763911Y01644465D02*
D03*
X01838697Y01547235D02*
D03*
X01844172Y01545676D02*
D03*
X01849967Y01544123D02*
D03*
X01855763Y01542570D02*
D03*
X01861558Y01541017D02*
D03*
X01863466Y01549619D02*
D03*
X01857557Y01550661D02*
D03*
X01851648Y01551703D02*
D03*
X01845739Y01552745D02*
D03*
X01840149Y01553821D02*
D03*
X01737475Y01639773D02*
D03*
X01735612Y01645152D02*
D03*
X01733560Y01650790D02*
D03*
X01731508Y01656428D02*
D03*
X01729456Y01662066D02*
D03*
X01737859Y01664716D02*
D03*
X01739412Y01658920D02*
D03*
X01740965Y01653125D02*
D03*
X01742518Y01647329D02*
D03*
X01743905Y01641808D02*
D03*
X01746461Y01666623D02*
D03*
X01747503Y01660714D02*
D03*
X01748545Y01654805D02*
D03*
X01749587Y01648897D02*
D03*
X01750488Y01643275D02*
D03*
X01757173Y01644163D02*
D03*
X01756766Y01649842D02*
D03*
X01756243Y01655819D02*
D03*
X01755720Y01661796D02*
D03*
X01755197Y01667773D02*
D03*
X01781538Y01666623D02*
D03*
X01780497Y01660714D02*
D03*
X01779455Y01654805D02*
D03*
X01778413Y01648897D02*
D03*
X01777336Y01643306D02*
D03*
X01763911Y01644465D02*
D03*
X01770649Y01644179D02*
D03*
X01783923Y01641854D02*
D03*
X01790357Y01639834D02*
D03*
X01792388Y01645152D02*
D03*
X01794440Y01650790D02*
D03*
X01796492Y01656428D02*
D03*
X01798544Y01662066D02*
D03*
X01790141Y01664716D02*
D03*
X01788588Y01658920D02*
D03*
X01787035Y01653125D02*
D03*
X01785482Y01647329D02*
D03*
X01771757Y01655819D02*
D03*
X01771234Y01649842D02*
D03*
X01772280Y01661796D02*
D03*
X01772803Y01667773D02*
D03*
X01764000Y01668158D02*
D03*
Y01662157D02*
D03*
Y01656158D02*
D03*
Y01650157D02*
D03*
X01687851Y01580494D02*
D03*
X01682261Y01581570D02*
D03*
X01676352Y01582612D02*
D03*
X01670443Y01583654D02*
D03*
X01664534Y01584696D02*
D03*
X01666441Y01593298D02*
D03*
X01672237Y01591745D02*
D03*
X01678033Y01590192D02*
D03*
X01683828Y01588640D02*
D03*
X01689303Y01587080D02*
D03*
X01669091Y01601702D02*
D03*
X01674729Y01599650D02*
D03*
X01680367Y01597597D02*
D03*
X01686005Y01595545D02*
D03*
X01691324Y01593515D02*
D03*
X01693898Y01599749D02*
D03*
X01688776Y01602235D02*
D03*
X01683338Y01604771D02*
D03*
X01677901Y01607306D02*
D03*
X01672463Y01609842D02*
D03*
X01686629Y01632079D02*
D03*
X01691226Y01628222D02*
D03*
X01695822Y01624366D02*
D03*
X01700418Y01620509D02*
D03*
X01704721Y01616782D02*
D03*
X01697005Y01605734D02*
D03*
X01700622Y01611427D02*
D03*
X01709272Y01621759D02*
D03*
X01714239Y01626322D02*
D03*
X01710648Y01630739D02*
D03*
X01706792Y01635336D02*
D03*
X01702935Y01639932D02*
D03*
X01699078Y01644528D02*
D03*
X01692582Y01638575D02*
D03*
X01696825Y01634333D02*
D03*
X01701067Y01630090D02*
D03*
X01705310Y01625847D02*
D03*
X01691095Y01618206D02*
D03*
X01696010Y01614764D02*
D03*
X01686181Y01621647D02*
D03*
X01681266Y01625089D02*
D03*
X01676531Y01617657D02*
D03*
X01681727Y01614658D02*
D03*
X01686924Y01611658D02*
D03*
X01692120Y01608658D02*
D03*
X01813624Y01626436D02*
D03*
X01817351Y01630739D02*
D03*
X01821208Y01635336D02*
D03*
X01825065Y01639932D02*
D03*
X01828922Y01644528D02*
D03*
X01835418Y01638575D02*
D03*
X01831175Y01634333D02*
D03*
X01826932Y01630090D02*
D03*
X01822690Y01625847D02*
D03*
X01818602Y01621885D02*
D03*
X01841370Y01632079D02*
D03*
X01836774Y01628222D02*
D03*
X01832178Y01624366D02*
D03*
X01827582Y01620509D02*
D03*
X01823164Y01616918D02*
D03*
X01827276Y01611573D02*
D03*
X01831990Y01614764D02*
D03*
X01836904Y01618206D02*
D03*
X01841819Y01621647D02*
D03*
X01846734Y01625089D02*
D03*
X01858909Y01601702D02*
D03*
X01853271Y01599650D02*
D03*
X01847633Y01597597D02*
D03*
X01841994Y01595545D02*
D03*
X01836615Y01593682D02*
D03*
X01830906Y01605889D02*
D03*
X01834027Y01599910D02*
D03*
X01838651Y01587252D02*
D03*
X01840118Y01580670D02*
D03*
X01845739Y01581570D02*
D03*
X01851648Y01582612D02*
D03*
X01857557Y01583654D02*
D03*
X01863466Y01584696D02*
D03*
X01861558Y01593298D02*
D03*
X01855763Y01591745D02*
D03*
X01849967Y01590192D02*
D03*
X01844172Y01588640D02*
D03*
X01844661Y01604771D02*
D03*
X01839223Y01602235D02*
D03*
X01850099Y01607306D02*
D03*
X01855537Y01609842D02*
D03*
X01851469Y01617657D02*
D03*
X01846272Y01614657D02*
D03*
X01841076Y01611658D02*
D03*
X01835880Y01608658D02*
D03*
X01714376Y01507879D02*
D03*
X01710648Y01503576D02*
D03*
X01706792Y01498980D02*
D03*
X01702935Y01494383D02*
D03*
X01699078Y01489787D02*
D03*
X01692582Y01495740D02*
D03*
X01696825Y01499982D02*
D03*
X01701067Y01504225D02*
D03*
X01705310Y01508468D02*
D03*
X01709398Y01512430D02*
D03*
X01686629Y01502236D02*
D03*
X01691226Y01506093D02*
D03*
X01695822Y01509949D02*
D03*
X01700418Y01513806D02*
D03*
X01704836Y01517397D02*
D03*
X01700724Y01522743D02*
D03*
X01696010Y01519551D02*
D03*
X01691095Y01516109D02*
D03*
X01686181Y01512668D02*
D03*
X01681266Y01509226D02*
D03*
X01669091Y01532614D02*
D03*
X01674729Y01534666D02*
D03*
X01680367Y01536718D02*
D03*
X01686005Y01538770D02*
D03*
X01691385Y01540633D02*
D03*
X01697094Y01528427D02*
D03*
X01693973Y01534405D02*
D03*
X01689349Y01547063D02*
D03*
X01687882Y01553645D02*
D03*
X01682261Y01552745D02*
D03*
X01676352Y01551703D02*
D03*
X01670443Y01550661D02*
D03*
X01664534Y01549619D02*
D03*
X01666441Y01541017D02*
D03*
X01672237Y01542570D02*
D03*
X01678033Y01544123D02*
D03*
X01683828Y01545676D02*
D03*
X01683338Y01529545D02*
D03*
X01688776Y01532080D02*
D03*
X01677901Y01527009D02*
D03*
X01672463Y01524473D02*
D03*
X01676531Y01516658D02*
D03*
X01681727Y01519658D02*
D03*
X01686924Y01522658D02*
D03*
X01692120Y01525658D02*
D03*
X01036250Y01294885D02*
D03*
X01025250D02*
D03*
X01014250D02*
D03*
X01003250D02*
D03*
X01036250Y01305885D02*
D03*
X01025250D02*
D03*
X01014250D02*
D03*
X01003250D02*
D03*
X01036250Y01316885D02*
D03*
X01025250D02*
D03*
X01014250D02*
D03*
X01003250D02*
D03*
X01036250Y01327885D02*
D03*
X01025250D02*
D03*
X01014250D02*
D03*
X01003250D02*
D03*
X01006690Y01415630D02*
D03*
Y01426630D02*
D03*
X01017690Y01415630D02*
D03*
Y01426630D02*
D03*
X01417250Y01294885D02*
D03*
X01406250D02*
D03*
X01395250D02*
D03*
X01384250D02*
D03*
X01417250Y01305885D02*
D03*
X01406250D02*
D03*
X01395250D02*
D03*
X01384250D02*
D03*
X01417250Y01316885D02*
D03*
X01406250D02*
D03*
X01395250D02*
D03*
X01384250D02*
D03*
X01417250Y01327885D02*
D03*
X01406250D02*
D03*
X01395250D02*
D03*
X01384250D02*
D03*
X01387690Y01415630D02*
D03*
Y01426630D02*
D03*
X01398690Y01415630D02*
D03*
Y01426630D02*
D03*
X01798250Y01294885D02*
D03*
X01787250D02*
D03*
X01776250D02*
D03*
X01765250D02*
D03*
X01798250Y01305885D02*
D03*
X01787250D02*
D03*
X01776250D02*
D03*
X01765250D02*
D03*
X01798250Y01316885D02*
D03*
X01787250D02*
D03*
X01776250D02*
D03*
X01765250D02*
D03*
X01798250Y01327885D02*
D03*
X01787250D02*
D03*
X01776250D02*
D03*
X01765250D02*
D03*
X01768690Y01415630D02*
D03*
Y01426630D02*
D03*
X01779690Y01415630D02*
D03*
Y01426630D02*
D03*
M02*
