G04*
G04 #@! TF.GenerationSoftware,Altium Limited,Altium Designer,21.0.9 (235)*
G04*
G04 Layer_Color=32768*
%FSAX44Y44*%
%MOMM*%
G71*
G04*
G04 #@! TF.SameCoordinates,C9C275F4-687D-4123-80A0-9C6E5F070257*
G04*
G04*
G04 #@! TF.FilePolarity,Positive*
G04*
G01*
G75*
%ADD10C,0.1000*%
%ADD59C,0.0500*%
D10*
X01019750Y01306385D02*
Y01316385D01*
X01014750Y01311385D02*
X01024750D01*
X00979693Y01257336D02*
Y01262836D01*
X00976943Y01260086D02*
X00982443D01*
X01053179Y01103438D02*
X01058679D01*
X01055929Y01100688D02*
Y01106188D01*
X01053179Y01113790D02*
X01058679D01*
X01055929Y01111040D02*
Y01116540D01*
X01031194Y01436610D02*
Y01442110D01*
X01028444Y01439360D02*
X01033944D01*
X00973330Y01449404D02*
X00979330D01*
X00976330Y01446404D02*
Y01452404D01*
X00947390Y01136494D02*
X00953390D01*
X00950390Y01133494D02*
Y01139494D01*
X00988932Y01189864D02*
Y01195364D01*
X00986182Y01192614D02*
X00991682D01*
X00976630Y01189635D02*
Y01195135D01*
X00973880Y01192385D02*
X00979380D01*
X01024890Y01148160D02*
Y01158160D01*
X01019890Y01153160D02*
X01029890D01*
X01048750Y01154601D02*
Y01160101D01*
X01046000Y01157351D02*
X01051500D01*
X00999432Y01192160D02*
X01004432D01*
X01001932Y01189660D02*
Y01194660D01*
X01049779Y01187260D02*
X01055779D01*
X01052779Y01184260D02*
Y01190260D01*
X01037640Y01187260D02*
X01043640D01*
X01040640Y01184260D02*
Y01190260D01*
X00988099Y01156494D02*
X00998099D01*
X00993099Y01151494D02*
Y01161494D01*
X01029365Y01226160D02*
X01039365D01*
X01034365Y01221160D02*
Y01231160D01*
X00966535Y01292163D02*
X00971535D01*
X00969035Y01289663D02*
Y01294663D01*
X00991635Y01361497D02*
Y01366997D01*
X00988885Y01364247D02*
X00994385D01*
X01003469Y01361497D02*
Y01366997D01*
X01000720Y01364247D02*
X01006219D01*
X00976206Y01364519D02*
X00982206D01*
X00979206Y01361519D02*
Y01367519D01*
X00966678Y01332385D02*
X00972178D01*
X00969428Y01329635D02*
Y01335135D01*
X00969212Y01341702D02*
Y01347702D01*
X00966212Y01344702D02*
X00972212D01*
X01012650Y01364608D02*
X01018650D01*
X01015650Y01361608D02*
Y01367608D01*
X00966623Y01320113D02*
X00972123D01*
X00969373Y01317363D02*
Y01322863D01*
X00954432Y01361717D02*
Y01367217D01*
X00951682Y01364467D02*
X00957182D01*
X00966678Y01361498D02*
Y01366998D01*
X00963928Y01364248D02*
X00969428D01*
X01025287Y01364608D02*
X01031287D01*
X01028287Y01361608D02*
Y01367608D01*
X01038555Y01364608D02*
X01044555D01*
X01041555Y01361608D02*
Y01367608D01*
X01006750Y01264495D02*
Y01270495D01*
X01003750Y01267495D02*
X01009750D01*
X01006750Y01251495D02*
Y01257495D01*
X01003750Y01254495D02*
X01009750D01*
X01046300Y01399457D02*
Y01405457D01*
X01043300Y01402457D02*
X01049300D01*
X01046300Y01413130D02*
Y01419130D01*
X01043300Y01416130D02*
X01049300D01*
X00977783Y01400639D02*
Y01406639D01*
X00974783Y01403639D02*
X00980783D01*
X00975685Y01415824D02*
X00981184D01*
X00978435Y01413074D02*
Y01418574D01*
X00978224Y01436799D02*
Y01442800D01*
X00975224Y01439799D02*
X00981224D01*
X00975610Y01427480D02*
X00981110D01*
X00978360Y01424730D02*
Y01430230D01*
X00997640Y01444404D02*
X01007640D01*
X01002640Y01439404D02*
Y01449404D01*
X00966711Y01305884D02*
X00971711D01*
X00969211Y01303384D02*
Y01308384D01*
X01012190Y01416130D02*
Y01426130D01*
X01007190Y01421130D02*
X01017190D01*
X01400750Y01306385D02*
Y01316385D01*
X01395750Y01311385D02*
X01405750D01*
X01360693Y01257336D02*
Y01262836D01*
X01357943Y01260086D02*
X01363443D01*
X01434179Y01103438D02*
X01439679D01*
X01436929Y01100688D02*
Y01106188D01*
X01434179Y01113790D02*
X01439679D01*
X01436929Y01111040D02*
Y01116540D01*
X01412194Y01436610D02*
Y01442110D01*
X01409444Y01439360D02*
X01414944D01*
X01354330Y01449404D02*
X01360330D01*
X01357330Y01446404D02*
Y01452404D01*
X01328390Y01136494D02*
X01334390D01*
X01331390Y01133494D02*
Y01139494D01*
X01369932Y01189864D02*
Y01195364D01*
X01367182Y01192614D02*
X01372682D01*
X01357630Y01189635D02*
Y01195135D01*
X01354880Y01192385D02*
X01360380D01*
X01405890Y01148160D02*
Y01158160D01*
X01400890Y01153160D02*
X01410890D01*
X01429750Y01154601D02*
Y01160101D01*
X01427000Y01157351D02*
X01432500D01*
X01380432Y01192160D02*
X01385432D01*
X01382932Y01189660D02*
Y01194660D01*
X01430779Y01187260D02*
X01436779D01*
X01433779Y01184260D02*
Y01190260D01*
X01418640Y01187260D02*
X01424640D01*
X01421640Y01184260D02*
Y01190260D01*
X01369099Y01156494D02*
X01379099D01*
X01374099Y01151494D02*
Y01161494D01*
X01410365Y01226160D02*
X01420365D01*
X01415365Y01221160D02*
Y01231160D01*
X01347535Y01292163D02*
X01352535D01*
X01350035Y01289663D02*
Y01294663D01*
X01372635Y01361497D02*
Y01366997D01*
X01369885Y01364247D02*
X01375385D01*
X01384469Y01361497D02*
Y01366997D01*
X01381720Y01364247D02*
X01387220D01*
X01357206Y01364519D02*
X01363206D01*
X01360206Y01361519D02*
Y01367519D01*
X01347678Y01332385D02*
X01353178D01*
X01350428Y01329635D02*
Y01335135D01*
X01350212Y01341702D02*
Y01347702D01*
X01347212Y01344702D02*
X01353212D01*
X01393650Y01364608D02*
X01399650D01*
X01396650Y01361608D02*
Y01367608D01*
X01347623Y01320113D02*
X01353123D01*
X01350373Y01317363D02*
Y01322863D01*
X01335432Y01361717D02*
Y01367217D01*
X01332682Y01364467D02*
X01338182D01*
X01347678Y01361498D02*
Y01366998D01*
X01344928Y01364248D02*
X01350428D01*
X01406287Y01364608D02*
X01412287D01*
X01409287Y01361608D02*
Y01367608D01*
X01419555Y01364608D02*
X01425555D01*
X01422555Y01361608D02*
Y01367608D01*
X01387750Y01264495D02*
Y01270495D01*
X01384750Y01267495D02*
X01390750D01*
X01387750Y01251495D02*
Y01257495D01*
X01384750Y01254495D02*
X01390750D01*
X01427300Y01399457D02*
Y01405457D01*
X01424300Y01402457D02*
X01430300D01*
X01427300Y01413130D02*
Y01419130D01*
X01424300Y01416130D02*
X01430300D01*
X01358783Y01400639D02*
Y01406639D01*
X01355783Y01403639D02*
X01361783D01*
X01356685Y01415824D02*
X01362184D01*
X01359435Y01413074D02*
Y01418574D01*
X01359224Y01436799D02*
Y01442800D01*
X01356224Y01439799D02*
X01362224D01*
X01356610Y01427480D02*
X01362110D01*
X01359360Y01424730D02*
Y01430230D01*
X01378640Y01444404D02*
X01388640D01*
X01383640Y01439404D02*
Y01449404D01*
X01347711Y01305884D02*
X01352711D01*
X01350211Y01303384D02*
Y01308384D01*
X01393190Y01416130D02*
Y01426130D01*
X01388190Y01421130D02*
X01398190D01*
X01781750Y01306385D02*
Y01316385D01*
X01776750Y01311385D02*
X01786750D01*
X01741693Y01257336D02*
Y01262836D01*
X01738943Y01260086D02*
X01744443D01*
X01815179Y01103438D02*
X01820679D01*
X01817929Y01100688D02*
Y01106188D01*
X01815179Y01113790D02*
X01820679D01*
X01817929Y01111040D02*
Y01116540D01*
X01793194Y01436610D02*
Y01442110D01*
X01790444Y01439360D02*
X01795944D01*
X01735330Y01449404D02*
X01741330D01*
X01738330Y01446404D02*
Y01452404D01*
X01709390Y01136494D02*
X01715390D01*
X01712390Y01133494D02*
Y01139494D01*
X01750932Y01189864D02*
Y01195364D01*
X01748182Y01192614D02*
X01753682D01*
X01738630Y01189635D02*
Y01195135D01*
X01735880Y01192385D02*
X01741380D01*
X01786890Y01148160D02*
Y01158160D01*
X01781890Y01153160D02*
X01791890D01*
X01810750Y01154601D02*
Y01160101D01*
X01808000Y01157351D02*
X01813500D01*
X01761432Y01192160D02*
X01766432D01*
X01763932Y01189660D02*
Y01194660D01*
X01811779Y01187260D02*
X01817779D01*
X01814779Y01184260D02*
Y01190260D01*
X01799640Y01187260D02*
X01805640D01*
X01802640Y01184260D02*
Y01190260D01*
X01750099Y01156494D02*
X01760099D01*
X01755099Y01151494D02*
Y01161494D01*
X01791365Y01226160D02*
X01801365D01*
X01796365Y01221160D02*
Y01231160D01*
X01728535Y01292163D02*
X01733535D01*
X01731035Y01289663D02*
Y01294663D01*
X01753635Y01361497D02*
Y01366997D01*
X01750885Y01364247D02*
X01756385D01*
X01765470Y01361497D02*
Y01366997D01*
X01762720Y01364247D02*
X01768219D01*
X01738206Y01364519D02*
X01744206D01*
X01741206Y01361519D02*
Y01367519D01*
X01728678Y01332385D02*
X01734178D01*
X01731428Y01329635D02*
Y01335135D01*
X01731212Y01341702D02*
Y01347702D01*
X01728212Y01344702D02*
X01734212D01*
X01774650Y01364608D02*
X01780650D01*
X01777650Y01361608D02*
Y01367608D01*
X01728623Y01320113D02*
X01734123D01*
X01731373Y01317363D02*
Y01322863D01*
X01716432Y01361717D02*
Y01367217D01*
X01713682Y01364467D02*
X01719182D01*
X01728678Y01361498D02*
Y01366998D01*
X01725928Y01364248D02*
X01731428D01*
X01787287Y01364608D02*
X01793287D01*
X01790287Y01361608D02*
Y01367608D01*
X01800555Y01364608D02*
X01806555D01*
X01803555Y01361608D02*
Y01367608D01*
X01768750Y01264495D02*
Y01270495D01*
X01765750Y01267495D02*
X01771750D01*
X01768750Y01251495D02*
Y01257495D01*
X01765750Y01254495D02*
X01771750D01*
X01808300Y01399457D02*
Y01405457D01*
X01805300Y01402457D02*
X01811300D01*
X01808300Y01413130D02*
Y01419130D01*
X01805300Y01416130D02*
X01811300D01*
X01739783Y01400639D02*
Y01406639D01*
X01736783Y01403639D02*
X01742784D01*
X01737684Y01415824D02*
X01743185D01*
X01740435Y01413074D02*
Y01418574D01*
X01740224Y01436799D02*
Y01442800D01*
X01737224Y01439799D02*
X01743224D01*
X01737610Y01427480D02*
X01743110D01*
X01740360Y01424730D02*
Y01430230D01*
X01759640Y01444404D02*
X01769640D01*
X01764640Y01439404D02*
Y01449404D01*
X01728711Y01305884D02*
X01733711D01*
X01731211Y01303384D02*
Y01308384D01*
X01774190Y01416130D02*
Y01426130D01*
X01769190Y01421130D02*
X01779190D01*
D59*
X00983750Y01275385D02*
X01055750D01*
X00983750Y01347385D02*
X01055750D01*
Y01275385D02*
Y01347385D01*
X00983750Y01275385D02*
Y01347385D01*
X00974193Y01249586D02*
X00985193D01*
X00974193Y01270586D02*
X00985193D01*
X00974193Y01249586D02*
Y01270586D01*
X00985193Y01249586D02*
Y01270586D01*
X01066429Y01097938D02*
Y01108938D01*
X01045429Y01097938D02*
Y01108938D01*
Y01097938D02*
X01066429D01*
X01045429Y01108938D02*
X01066429D01*
Y01108290D02*
Y01119290D01*
X01045429Y01108290D02*
Y01119290D01*
Y01108290D02*
X01066429D01*
X01045429Y01119290D02*
X01066429D01*
X01025694Y01428860D02*
X01036694D01*
X01025694Y01449860D02*
X01036694D01*
Y01428860D02*
Y01449860D01*
X01025694Y01428860D02*
Y01449860D01*
X00970330Y01438404D02*
Y01460404D01*
X00982330Y01438404D02*
Y01460404D01*
X00970330D02*
X00982330D01*
X00970330Y01438404D02*
X00982330D01*
X00956390Y01125494D02*
Y01147494D01*
X00944390Y01125494D02*
Y01147494D01*
X00956390D01*
X00944390Y01125494D02*
X00956390D01*
X00983432Y01203114D02*
X00994432D01*
X00983432Y01182114D02*
X00994432D01*
Y01203114D01*
X00983432Y01182114D02*
Y01203114D01*
X00971130Y01181885D02*
X00982130D01*
X00971130Y01202885D02*
X00982130D01*
X00971130Y01181885D02*
Y01202885D01*
X00982130Y01181885D02*
Y01202885D01*
X01009140Y01169160D02*
X01040640D01*
X01009140Y01137160D02*
X01040640D01*
X01009140D02*
Y01169160D01*
X01040640Y01137160D02*
Y01169160D01*
X01043250Y01146851D02*
X01054250D01*
X01043250Y01167851D02*
X01054250D01*
X01043250Y01146851D02*
Y01167851D01*
X01054250Y01146851D02*
Y01167851D01*
X00996932Y01181160D02*
X01006932D01*
Y01203160D01*
X00996932D02*
X01006932D01*
X00996932Y01181160D02*
Y01203160D01*
X01058779Y01176260D02*
Y01198260D01*
X01046779Y01176260D02*
Y01198260D01*
X01058779D01*
X01046779Y01176260D02*
X01058779D01*
X01046640D02*
Y01198260D01*
X01034640Y01176260D02*
Y01198260D01*
X01046640D01*
X01034640Y01176260D02*
X01046640D01*
X01007599Y01136494D02*
Y01176494D01*
X00978599Y01136494D02*
Y01176494D01*
X01007599D01*
X00978599Y01136494D02*
X01007599D01*
X01014865Y01208160D02*
X01053865D01*
X01014865D02*
Y01244160D01*
X01053865D01*
Y01208160D02*
Y01244160D01*
X00981535Y01287163D02*
Y01297163D01*
X00956535Y01287163D02*
X00981535D01*
X00956535Y01297163D02*
X00981535D01*
X00956535Y01287163D02*
Y01297163D01*
X00986135Y01353747D02*
X00997135D01*
X00986135Y01374747D02*
X00997135D01*
X00986135Y01353747D02*
Y01374747D01*
X00997135Y01353747D02*
Y01374747D01*
X00997970D02*
X01008969D01*
X00997970Y01353747D02*
X01008969D01*
Y01374747D01*
X00997970Y01353747D02*
Y01374747D01*
X00973206Y01353519D02*
Y01375519D01*
X00985206Y01353519D02*
Y01375519D01*
X00973206Y01353519D02*
X00985206D01*
X00973206Y01375519D02*
X00985206D01*
X00958928Y01326885D02*
Y01337885D01*
X00979928Y01326885D02*
Y01337885D01*
X00958928D02*
X00979928D01*
X00958928Y01326885D02*
X00979928D01*
X00958212Y01338702D02*
X00980212D01*
X00958212Y01350702D02*
X00980212D01*
Y01338702D02*
Y01350702D01*
X00958212Y01338702D02*
Y01350702D01*
X01009650Y01353608D02*
Y01375608D01*
X01021650Y01353608D02*
Y01375608D01*
X01009650Y01353608D02*
X01021650D01*
X01009650Y01375608D02*
X01021650D01*
X00979873Y01314613D02*
Y01325613D01*
X00958873Y01314613D02*
Y01325613D01*
Y01314613D02*
X00979873D01*
X00958873Y01325613D02*
X00979873D01*
X00948932Y01353967D02*
X00959932D01*
X00948932Y01374967D02*
X00959932D01*
X00948932Y01353967D02*
Y01374967D01*
X00959932Y01353967D02*
Y01374967D01*
X00961178Y01374748D02*
X00972178D01*
X00961178Y01353748D02*
X00972178D01*
Y01374748D01*
X00961178Y01353748D02*
Y01374748D01*
X01022287Y01353608D02*
Y01375608D01*
X01034287Y01353608D02*
Y01375608D01*
X01022287Y01353608D02*
X01034287D01*
X01022287Y01375608D02*
X01034287D01*
X01035555Y01353608D02*
Y01375608D01*
X01047555Y01353608D02*
Y01375608D01*
X01035555Y01353608D02*
X01047555D01*
X01035555Y01375608D02*
X01047555D01*
X00995750Y01261495D02*
X01017750D01*
X00995750Y01273495D02*
X01017750D01*
Y01261495D02*
Y01273495D01*
X00995750Y01261495D02*
Y01273495D01*
Y01248495D02*
X01017750D01*
X00995750Y01260495D02*
X01017750D01*
Y01248495D02*
Y01260495D01*
X00995750Y01248495D02*
Y01260495D01*
X01035300Y01408457D02*
X01057300D01*
X01035300Y01396457D02*
X01057300D01*
X01035300D02*
Y01408457D01*
X01057300Y01396457D02*
Y01408457D01*
X01035300Y01422130D02*
X01057300D01*
X01035300Y01410130D02*
X01057300D01*
X01035300D02*
Y01422130D01*
X01057300Y01410130D02*
Y01422130D01*
X00966784Y01397639D02*
X00988783D01*
X00966784Y01409639D02*
X00988783D01*
Y01397639D02*
Y01409639D01*
X00966784Y01397639D02*
Y01409639D01*
X00988934Y01410324D02*
Y01421324D01*
X00967934Y01410324D02*
Y01421324D01*
Y01410324D02*
X00988934D01*
X00967934Y01421324D02*
X00988934D01*
X00967224Y01433799D02*
X00989224D01*
X00967224Y01445800D02*
X00989224D01*
Y01433799D02*
Y01445800D01*
X00967224Y01433799D02*
Y01445800D01*
X00988860Y01421980D02*
Y01432980D01*
X00967860Y01421980D02*
Y01432980D01*
Y01421980D02*
X00988860D01*
X00967860Y01432980D02*
X00988860D01*
X01021890Y01426904D02*
Y01461904D01*
X00983390Y01426904D02*
Y01461904D01*
X01021890D01*
X00983390Y01426904D02*
X01021890D01*
X00981711Y01300884D02*
Y01310884D01*
X00956711Y01300884D02*
X00981711D01*
X00956711Y01310884D02*
X00981711D01*
X00956711Y01300884D02*
Y01310884D01*
X00990940Y01399880D02*
X01033440D01*
X00990940Y01442380D02*
X01033440D01*
X00990940Y01399880D02*
Y01442380D01*
X01033440Y01399880D02*
Y01442380D01*
X01364750Y01275385D02*
X01436750D01*
X01364750Y01347385D02*
X01436750D01*
Y01275385D02*
Y01347385D01*
X01364750Y01275385D02*
Y01347385D01*
X01355193Y01249586D02*
X01366193D01*
X01355193Y01270586D02*
X01366193D01*
X01355193Y01249586D02*
Y01270586D01*
X01366193Y01249586D02*
Y01270586D01*
X01447429Y01097938D02*
Y01108938D01*
X01426429Y01097938D02*
Y01108938D01*
Y01097938D02*
X01447429D01*
X01426429Y01108938D02*
X01447429D01*
Y01108290D02*
Y01119290D01*
X01426429Y01108290D02*
Y01119290D01*
Y01108290D02*
X01447429D01*
X01426429Y01119290D02*
X01447429D01*
X01406694Y01428860D02*
X01417694D01*
X01406694Y01449860D02*
X01417694D01*
Y01428860D02*
Y01449860D01*
X01406694Y01428860D02*
Y01449860D01*
X01351330Y01438404D02*
Y01460404D01*
X01363330Y01438404D02*
Y01460404D01*
X01351330D02*
X01363330D01*
X01351330Y01438404D02*
X01363330D01*
X01337390Y01125494D02*
Y01147494D01*
X01325390Y01125494D02*
Y01147494D01*
X01337390D01*
X01325390Y01125494D02*
X01337390D01*
X01364432Y01203114D02*
X01375432D01*
X01364432Y01182114D02*
X01375432D01*
Y01203114D01*
X01364432Y01182114D02*
Y01203114D01*
X01352130Y01181885D02*
X01363130D01*
X01352130Y01202885D02*
X01363130D01*
X01352130Y01181885D02*
Y01202885D01*
X01363130Y01181885D02*
Y01202885D01*
X01390140Y01169160D02*
X01421640D01*
X01390140Y01137160D02*
X01421640D01*
X01390140D02*
Y01169160D01*
X01421640Y01137160D02*
Y01169160D01*
X01424250Y01146851D02*
X01435250D01*
X01424250Y01167851D02*
X01435250D01*
X01424250Y01146851D02*
Y01167851D01*
X01435250Y01146851D02*
Y01167851D01*
X01377932Y01181160D02*
X01387932D01*
Y01203160D01*
X01377932D02*
X01387932D01*
X01377932Y01181160D02*
Y01203160D01*
X01439779Y01176260D02*
Y01198260D01*
X01427779Y01176260D02*
Y01198260D01*
X01439779D01*
X01427779Y01176260D02*
X01439779D01*
X01427640D02*
Y01198260D01*
X01415640Y01176260D02*
Y01198260D01*
X01427640D01*
X01415640Y01176260D02*
X01427640D01*
X01388599Y01136494D02*
Y01176494D01*
X01359599Y01136494D02*
Y01176494D01*
X01388599D01*
X01359599Y01136494D02*
X01388599D01*
X01395865Y01208160D02*
X01434865D01*
X01395865D02*
Y01244160D01*
X01434865D01*
Y01208160D02*
Y01244160D01*
X01362535Y01287163D02*
Y01297163D01*
X01337535Y01287163D02*
X01362535D01*
X01337535Y01297163D02*
X01362535D01*
X01337535Y01287163D02*
Y01297163D01*
X01367135Y01353747D02*
X01378135D01*
X01367135Y01374747D02*
X01378135D01*
X01367135Y01353747D02*
Y01374747D01*
X01378135Y01353747D02*
Y01374747D01*
X01378970D02*
X01389969D01*
X01378970Y01353747D02*
X01389969D01*
Y01374747D01*
X01378970Y01353747D02*
Y01374747D01*
X01354206Y01353519D02*
Y01375519D01*
X01366206Y01353519D02*
Y01375519D01*
X01354206Y01353519D02*
X01366206D01*
X01354206Y01375519D02*
X01366206D01*
X01339928Y01326885D02*
Y01337885D01*
X01360928Y01326885D02*
Y01337885D01*
X01339928D02*
X01360928D01*
X01339928Y01326885D02*
X01360928D01*
X01339212Y01338702D02*
X01361212D01*
X01339212Y01350702D02*
X01361212D01*
Y01338702D02*
Y01350702D01*
X01339212Y01338702D02*
Y01350702D01*
X01390650Y01353608D02*
Y01375608D01*
X01402650Y01353608D02*
Y01375608D01*
X01390650Y01353608D02*
X01402650D01*
X01390650Y01375608D02*
X01402650D01*
X01360873Y01314613D02*
Y01325613D01*
X01339873Y01314613D02*
Y01325613D01*
Y01314613D02*
X01360873D01*
X01339873Y01325613D02*
X01360873D01*
X01329932Y01353967D02*
X01340932D01*
X01329932Y01374967D02*
X01340932D01*
X01329932Y01353967D02*
Y01374967D01*
X01340932Y01353967D02*
Y01374967D01*
X01342178Y01374748D02*
X01353178D01*
X01342178Y01353748D02*
X01353178D01*
Y01374748D01*
X01342178Y01353748D02*
Y01374748D01*
X01403287Y01353608D02*
Y01375608D01*
X01415287Y01353608D02*
Y01375608D01*
X01403287Y01353608D02*
X01415287D01*
X01403287Y01375608D02*
X01415287D01*
X01416555Y01353608D02*
Y01375608D01*
X01428555Y01353608D02*
Y01375608D01*
X01416555Y01353608D02*
X01428555D01*
X01416555Y01375608D02*
X01428555D01*
X01376750Y01261495D02*
X01398750D01*
X01376750Y01273495D02*
X01398750D01*
Y01261495D02*
Y01273495D01*
X01376750Y01261495D02*
Y01273495D01*
Y01248495D02*
X01398750D01*
X01376750Y01260495D02*
X01398750D01*
Y01248495D02*
Y01260495D01*
X01376750Y01248495D02*
Y01260495D01*
X01416300Y01408457D02*
X01438300D01*
X01416300Y01396457D02*
X01438300D01*
X01416300D02*
Y01408457D01*
X01438300Y01396457D02*
Y01408457D01*
X01416300Y01422130D02*
X01438300D01*
X01416300Y01410130D02*
X01438300D01*
X01416300D02*
Y01422130D01*
X01438300Y01410130D02*
Y01422130D01*
X01347784Y01397639D02*
X01369783D01*
X01347784Y01409639D02*
X01369783D01*
Y01397639D02*
Y01409639D01*
X01347784Y01397639D02*
Y01409639D01*
X01369935Y01410324D02*
Y01421324D01*
X01348934Y01410324D02*
Y01421324D01*
Y01410324D02*
X01369935D01*
X01348934Y01421324D02*
X01369935D01*
X01348224Y01433799D02*
X01370224D01*
X01348224Y01445800D02*
X01370224D01*
Y01433799D02*
Y01445800D01*
X01348224Y01433799D02*
Y01445800D01*
X01369860Y01421980D02*
Y01432980D01*
X01348860Y01421980D02*
Y01432980D01*
Y01421980D02*
X01369860D01*
X01348860Y01432980D02*
X01369860D01*
X01402890Y01426904D02*
Y01461904D01*
X01364390Y01426904D02*
Y01461904D01*
X01402890D01*
X01364390Y01426904D02*
X01402890D01*
X01362711Y01300884D02*
Y01310884D01*
X01337711Y01300884D02*
X01362711D01*
X01337711Y01310884D02*
X01362711D01*
X01337711Y01300884D02*
Y01310884D01*
X01371940Y01399880D02*
X01414440D01*
X01371940Y01442380D02*
X01414440D01*
X01371940Y01399880D02*
Y01442380D01*
X01414440Y01399880D02*
Y01442380D01*
X01745750Y01275385D02*
X01817750D01*
X01745750Y01347385D02*
X01817750D01*
Y01275385D02*
Y01347385D01*
X01745750Y01275385D02*
Y01347385D01*
X01736193Y01249586D02*
X01747193D01*
X01736193Y01270586D02*
X01747193D01*
X01736193Y01249586D02*
Y01270586D01*
X01747193Y01249586D02*
Y01270586D01*
X01828429Y01097938D02*
Y01108938D01*
X01807429Y01097938D02*
Y01108938D01*
Y01097938D02*
X01828429D01*
X01807429Y01108938D02*
X01828429D01*
Y01108290D02*
Y01119290D01*
X01807429Y01108290D02*
Y01119290D01*
Y01108290D02*
X01828429D01*
X01807429Y01119290D02*
X01828429D01*
X01787694Y01428860D02*
X01798694D01*
X01787694Y01449860D02*
X01798694D01*
Y01428860D02*
Y01449860D01*
X01787694Y01428860D02*
Y01449860D01*
X01732330Y01438404D02*
Y01460404D01*
X01744330Y01438404D02*
Y01460404D01*
X01732330D02*
X01744330D01*
X01732330Y01438404D02*
X01744330D01*
X01718390Y01125494D02*
Y01147494D01*
X01706390Y01125494D02*
Y01147494D01*
X01718390D01*
X01706390Y01125494D02*
X01718390D01*
X01745432Y01203114D02*
X01756432D01*
X01745432Y01182114D02*
X01756432D01*
Y01203114D01*
X01745432Y01182114D02*
Y01203114D01*
X01733130Y01181885D02*
X01744130D01*
X01733130Y01202885D02*
X01744130D01*
X01733130Y01181885D02*
Y01202885D01*
X01744130Y01181885D02*
Y01202885D01*
X01771140Y01169160D02*
X01802640D01*
X01771140Y01137160D02*
X01802640D01*
X01771140D02*
Y01169160D01*
X01802640Y01137160D02*
Y01169160D01*
X01805250Y01146851D02*
X01816250D01*
X01805250Y01167851D02*
X01816250D01*
X01805250Y01146851D02*
Y01167851D01*
X01816250Y01146851D02*
Y01167851D01*
X01758932Y01181160D02*
X01768932D01*
Y01203160D01*
X01758932D02*
X01768932D01*
X01758932Y01181160D02*
Y01203160D01*
X01820779Y01176260D02*
Y01198260D01*
X01808779Y01176260D02*
Y01198260D01*
X01820779D01*
X01808779Y01176260D02*
X01820779D01*
X01808640D02*
Y01198260D01*
X01796640Y01176260D02*
Y01198260D01*
X01808640D01*
X01796640Y01176260D02*
X01808640D01*
X01769599Y01136494D02*
Y01176494D01*
X01740599Y01136494D02*
Y01176494D01*
X01769599D01*
X01740599Y01136494D02*
X01769599D01*
X01776865Y01208160D02*
X01815865D01*
X01776865D02*
Y01244160D01*
X01815865D01*
Y01208160D02*
Y01244160D01*
X01743535Y01287163D02*
Y01297163D01*
X01718535Y01287163D02*
X01743535D01*
X01718535Y01297163D02*
X01743535D01*
X01718535Y01287163D02*
Y01297163D01*
X01748135Y01353747D02*
X01759135D01*
X01748135Y01374747D02*
X01759135D01*
X01748135Y01353747D02*
Y01374747D01*
X01759135Y01353747D02*
Y01374747D01*
X01759969D02*
X01770970D01*
X01759969Y01353747D02*
X01770970D01*
Y01374747D01*
X01759969Y01353747D02*
Y01374747D01*
X01735206Y01353519D02*
Y01375519D01*
X01747206Y01353519D02*
Y01375519D01*
X01735206Y01353519D02*
X01747206D01*
X01735206Y01375519D02*
X01747206D01*
X01720928Y01326885D02*
Y01337885D01*
X01741928Y01326885D02*
Y01337885D01*
X01720928D02*
X01741928D01*
X01720928Y01326885D02*
X01741928D01*
X01720212Y01338702D02*
X01742212D01*
X01720212Y01350702D02*
X01742212D01*
Y01338702D02*
Y01350702D01*
X01720212Y01338702D02*
Y01350702D01*
X01771650Y01353608D02*
Y01375608D01*
X01783650Y01353608D02*
Y01375608D01*
X01771650Y01353608D02*
X01783650D01*
X01771650Y01375608D02*
X01783650D01*
X01741873Y01314613D02*
Y01325613D01*
X01720873Y01314613D02*
Y01325613D01*
Y01314613D02*
X01741873D01*
X01720873Y01325613D02*
X01741873D01*
X01710932Y01353967D02*
X01721932D01*
X01710932Y01374967D02*
X01721932D01*
X01710932Y01353967D02*
Y01374967D01*
X01721932Y01353967D02*
Y01374967D01*
X01723178Y01374748D02*
X01734178D01*
X01723178Y01353748D02*
X01734178D01*
Y01374748D01*
X01723178Y01353748D02*
Y01374748D01*
X01784287Y01353608D02*
Y01375608D01*
X01796287Y01353608D02*
Y01375608D01*
X01784287Y01353608D02*
X01796287D01*
X01784287Y01375608D02*
X01796287D01*
X01797555Y01353608D02*
Y01375608D01*
X01809555Y01353608D02*
Y01375608D01*
X01797555Y01353608D02*
X01809555D01*
X01797555Y01375608D02*
X01809555D01*
X01757750Y01261495D02*
X01779750D01*
X01757750Y01273495D02*
X01779750D01*
Y01261495D02*
Y01273495D01*
X01757750Y01261495D02*
Y01273495D01*
Y01248495D02*
X01779750D01*
X01757750Y01260495D02*
X01779750D01*
Y01248495D02*
Y01260495D01*
X01757750Y01248495D02*
Y01260495D01*
X01797300Y01408457D02*
X01819300D01*
X01797300Y01396457D02*
X01819300D01*
X01797300D02*
Y01408457D01*
X01819300Y01396457D02*
Y01408457D01*
X01797300Y01422130D02*
X01819300D01*
X01797300Y01410130D02*
X01819300D01*
X01797300D02*
Y01422130D01*
X01819300Y01410130D02*
Y01422130D01*
X01728784Y01397639D02*
X01750783D01*
X01728784Y01409639D02*
X01750783D01*
Y01397639D02*
Y01409639D01*
X01728784Y01397639D02*
Y01409639D01*
X01750934Y01410324D02*
Y01421324D01*
X01729935Y01410324D02*
Y01421324D01*
Y01410324D02*
X01750934D01*
X01729935Y01421324D02*
X01750934D01*
X01729224Y01433799D02*
X01751224D01*
X01729224Y01445800D02*
X01751224D01*
Y01433799D02*
Y01445800D01*
X01729224Y01433799D02*
Y01445800D01*
X01750860Y01421980D02*
Y01432980D01*
X01729860Y01421980D02*
Y01432980D01*
Y01421980D02*
X01750860D01*
X01729860Y01432980D02*
X01750860D01*
X01783890Y01426904D02*
Y01461904D01*
X01745390Y01426904D02*
Y01461904D01*
X01783890D01*
X01745390Y01426904D02*
X01783890D01*
X01743711Y01300884D02*
Y01310884D01*
X01718711Y01300884D02*
X01743711D01*
X01718711Y01310884D02*
X01743711D01*
X01718711Y01300884D02*
Y01310884D01*
X01752940Y01399880D02*
X01795440D01*
X01752940Y01442380D02*
X01795440D01*
X01752940Y01399880D02*
Y01442380D01*
X01795440Y01399880D02*
Y01442380D01*
M02*
