M48
;Layer_Color=9474304
;FILE_FORMAT=4:4
METRIC,LZ
;TYPE=PLATED
T1F00S00C0.2000
T2F00S00C0.3000
T3F00S00C0.7112
T4F00S00C1.0000
T5F00S00C1.0200
T6F00S00C2.0000
%
T01
X01796365Y0121816
X01791365Y0122616
X01801365
X01796365Y0123416
X0179825Y01294885
X0178725
X0177625
X0176525
Y01305885
X0177625
X0178725
X0179825
Y01316885
X0178725
X0177625
X0176525
Y01327885
X0177625
X0178725
X0179825
X01793641Y0151573
X01793611Y01515708
X01763782Y01516069
X01763752Y01516047
X01764Y01522157
X0176403Y0152218
X0177636Y01546155
X01752175Y0154725
X01725059Y0154468
X01725029Y01544657
X01719642Y0154184
X01719612Y01541817
X01732137Y01513945
X01732167Y01513967
X01740177Y0156752
X01752381Y01586546
X01788098Y01566889
X01802971Y01544657
X01803001Y0154468
X01808139Y01541387
X01808169Y01541409
X01824764Y0156761
X01824794Y01567633
X01703266Y01566727
X01703235Y01566705
X01456141Y01553999
X0144384Y01567576
X01443794Y01567633
X01456141Y01580216
X01407174Y01566854
X01395436Y01546121
X01371251Y01547216
X01344059Y0154468
X01344105Y01544623
X01338642Y0154184
X01338689Y01541783
X01334787Y01511164
X01351213Y01513911
X01351167Y01513967
X01382828Y01516012
X01382782Y01516069
X01383076Y01522123
X0138303Y0152218
X01412641Y0151573
X01412687Y01515673
X01431259Y0151056
X01427215Y01541353
X01427169Y01541409
X01422047Y01544623
X01422001Y0154468
X01396322Y01491992
X0136983
X01359253Y01567486
X01371457Y01586512
X01309827Y01580293
X01322266Y01566727
X01322312Y0156667
X01309827Y0155392
X0138425Y01327885
Y01316885
Y01305885
Y01294885
X0139525
X0140625
X0141725
Y01305885
X0140625
X0139525
Y01316885
X0140625
X0141725
Y01327885
X0140625
X0139525
X01415365Y0123416
X01410365Y0122616
X01420365
X01415365Y0121816
X01034365
X01029365Y0122616
X01039365
X01034365Y0123416
X0103625Y01294885
X0102525
X0101425
X0100325
Y01305885
X0101425
X0102525
X0103625
Y01316885
X0102525
X0101425
X0100325
Y01327885
X0101425
X0102525
X0103625
X01031641Y0151573
X01001782Y01516069
X0100203Y0152218
X00970167Y01513967
X00963059Y0154468
X00957642Y0154184
X00941266Y01566727
X01041001Y0154468
X01046169Y01541409
X01062794Y01567633
X01046418Y0159252
X01041001Y0158968
X0103202Y0162003
X01002278Y01618291
X0100203Y0161218
X00971256Y01619577
X00963059Y0158968
X00957891Y01592951
X01338891
X01338937Y01592894
X01344059Y0158968
X01344105Y01589623
X01352302Y0161952
X01352256Y01619577
X01334937Y01623904
X01358066Y01637243
X01383278Y01618291
X01383324Y01618234
X0138303Y0161218
X01383076Y01612123
X01395436Y01588611
X01422047Y01589623
X01422001Y0158968
X01427464Y01592464
X01427418Y0159252
X01431133Y01623349
X0141302Y0162003
X01413066Y01619973
X01408272Y01637053
X01733226Y01619555
X01733256Y01619577
X01764248Y01618268
X01764278Y01618291
X0176403Y0161218
X01764Y01612158
X0177636Y01588645
X01802971Y01589658
X01803001Y0158968
X01808387Y01592498
X01808418Y0159252
X0179402Y0162003
X0179399Y01620008
X01725059Y0158968
X01725029Y01589658
X01719891Y01592951
X01719861Y01592928
T02
X00945155Y01083551
X00952155
X00959155
X00966155
X00973155
X00980155
X00976655Y01090551
X00969655
X00962655
X00955655
X00948655
X00945155Y01097551
X00952155
X00959155
X00966155
X00973155
X00980155
X00962655Y01104551
X00955655
X00948655
X00945155Y01111551
X00952155
X00959155
X00955655Y01118551
X00950362Y01124054
X00959155Y01139551
X00966155
X00973155
X00969655Y01146551
X00962655
X00959155Y01153551
X00966155
X00973155
X00969655Y01160551
X00962655
X00966155Y01167551
X00973155
X00969655Y01174551
X00966155Y01181551
X00945155
X01015155Y01167551
X01022155
X01032655Y01174551
X01046655
X01064239Y01162599
X01064155Y01153551
X01062502Y0114104
X01036155Y01153551
X01029155
X01043155Y01111551
X01039655Y01104551
X01036155Y01097551
X01043155
Y01083551
X01050155
X01057155
X01064155
X01036155
X01029155
X01022155
X01025655Y01090551
X01022155Y01097551
X0098854Y01134417
X01331362Y01124054
X01336655Y01118551
X01333155Y01111551
X01340155
X01343655Y01104551
X01336655
X01329655
X01326155Y01111551
Y01097551
X01333155
X01340155
X01347155
X01354155
X01361155
X01357655Y01090551
X01350655
X01343655
X01336655
X01329655
X01326155Y01083551
X01333155
X01340155
X01347155
X01354155
X01361155
X01403155
X01410155
X01417155
X01424155
X01431155
X01438155
X01445155
X01424155Y01097551
X01417155
X01420655Y01104551
X01424155Y01111551
X01403155Y01097551
X01406655Y01090551
X01410155Y01153551
X01417155
X01413655Y01174551
X01427655
X01445239Y01162599
X01445155Y01153551
X01443502Y0114104
X01403155Y01167551
X01396155
X01354155
X01347155
X01350655Y01174551
X01347155Y01181551
X01326155
X01343655Y01160551
X01350655
X01347155Y01153551
X01354155
X01350655Y01146551
X01343655
X01340155Y01153551
Y01139551
X01347155
X01354155
X0136954Y01134417
X01712362Y01124054
X01717655Y01118551
X01714155Y01111551
X01721155
X01724655Y01104551
X01717655
X01710655
X01707155Y01111551
Y01097551
X01714155
X01721155
X01728155
X01735155
X01742155
X01738655Y01090551
X01731655
X01724655
X01717655
X01710655
X01707155Y01083551
X01714155
X01721155
X01728155
X01735155
X01742155
X01784155
X01791155
X01798155
X01805155
X01812155
X01819155
X01826155
X01805155Y01097551
X01798155
X01801655Y01104551
X01805155Y01111551
X01784155Y01097551
X01787655Y01090551
X01791155Y01153551
X01798155
X01794655Y01174551
X01808655
X01826239Y01162599
X01826155Y01153551
X01824502Y0114104
X01784155Y01167551
X01777155
X01735155
X01728155
X01731655Y01174551
X01728155Y01181551
X01707155
X01724655Y01160551
X01731655
X01728155Y01153551
X01735155
X01731655Y01146551
X01724655
X01721155Y01153551
Y01139551
X01728155
X01735155
X0175054Y01134417
X01750938Y0120373
X01758807Y01212449
X01728155Y01209551
X01724655Y01230551
X01728155Y01237551
Y01251551
X01724655Y01258551
X01728155Y01265551
X01749276Y01264605
X01756765Y0126762
X01755643Y01255742
X01783858Y01254718
Y01261719
X0178804Y01270161
X01781625Y012743
X0179629Y0125962
X01826155Y01279551
Y01293551
X01818835Y01311135
X01823172Y01317861
X01818835Y01324135
X01823172Y01330873
X01826155Y01349551
X01812378Y01349776
X01803903
X01795292Y01348338
X01808396Y01341989
X01775375Y0134847
X01777775Y01376968
X01782545Y01384551
X01782421Y01391751
X01773955
X01766755
X01759555
X01752355
X01745155
X01737955
X01734355Y01384551
X01741555
X01748755
X01755955
X01763155
X01770355
X01765594Y01376082
X0175376Y01376457
X01741331Y01376979
X0172986Y01375958
X0171719Y01376598
X01719352Y01344827
X01719718Y0133251
X01719163Y01320238
X01715751Y01306009
X01707155Y01307551
X01710655Y01300551
X01707155Y01293551
X01715575Y01292288
X01710655Y01286551
X01730559Y01312887
X01728599Y01415824
X01728025Y0142748
X01727639Y01439799
X01721155Y01461551
X01724655Y01468551
X01699078Y01489787
X01702935Y01494383
X01706792Y0149898
X01710648Y01503576
X01714376Y01507879
X01709398Y0151243
X0170531Y01508468
X01701067Y01504225
X01696825Y01499982
X01692582Y0149574
X01691226Y01506093
X01695822Y01509949
X01700418Y01513806
X01704836Y01517397
X01700724Y01522743
X0169601Y01519551
X01691095Y01516109
X01686181Y01512668
X01681266Y01509226
X01681727Y01519658
X01686924Y01522658
X0169212Y01525658
X01697094Y01528427
X01693973Y01534405
X01688776Y0153208
X01683338Y01529545
X01677901Y01527009
X01672463Y01524473
X01669091Y01532614
X01674729Y01534666
X01680367Y01536718
X01686005Y0153877
X01691385Y01540633
X01689349Y01547063
X01683828Y01545676
X01678033Y01544123
X01672237Y0154257
X01666441Y01541017
X01664534Y01549619
X01670443Y01550661
X01676352Y01551703
X01682261Y01552745
X01687882Y01553645
X01687851Y01580494
X01682261Y0158157
X01676352Y01582612
X01670443Y01583654
X01664534Y01584696
X01689303Y0158708
X01676531Y01516658
X01686629Y01502236
X01817351Y01503576
X01813761Y01507994
X0182269Y01508468
X01818728Y01512556
X01823278Y01517533
X01827582Y01513806
X01832178Y01509949
X01836774Y01506093
X0184137Y01502236
X01841819Y01512668
X01836904Y01516109
X01831989Y01519551
X01827378Y01522889
X01830995Y01528581
X0183588Y01525658
X01841076Y01522658
X01846272Y01519657
X01851469Y01516658
X01850099Y01527009
X01844661Y01529545
X01839223Y0153208
X01834102Y01534567
X01836676Y015408
X01841994Y0153877
X01847633Y01536718
X01853271Y01534666
X01858909Y01532614
X01861558Y01541017
X01855763Y0154257
X01849967Y01544123
X01844172Y01545676
X01838697Y01547235
X01840149Y01553821
X01845739Y01552745
X01851648Y01551703
X01857557Y01550661
X01863466Y01549619
X01855537Y01524473
X01846734Y01509226
X01831175Y01499982
X01835418Y0149574
X01825065Y01494383
X01821208Y0149898
X01826932Y01504225
X01828922Y01489787
X01806355Y01456551
X01799155
X01791955
X01802755Y01449351
X01809955
X01806355Y01442151
X01813555
X01817155Y01434951
X01809955
X01803944
X01806355Y01427751
X01813555
X0177969Y0142663
X0176869
Y0141563
X0177969
X01791155Y01405551
X01794655Y01398551
X01791155Y01391551
X01798155
X01805155
X01812155
X01808655Y01384551
X01801655
X01794655
X01790412Y01376968
X0180368
X01817628Y01384551
X0177144Y01400195
X01762325Y01400226
X01752584Y01407346
X01753782Y01417965
X01759435Y0143515
X01769446Y01441928
X01840118Y0158067
X01845739Y0158157
X01851648Y01582612
X01857557Y01583654
X01863466Y01584696
X01838651Y01587252
X01826155Y01237551
Y01223551
Y01209551
Y01195551
X01445155
Y01209551
Y01223551
Y01237551
Y01279551
Y01293551
X01437835Y01311135
X01442172Y01317861
X01437835Y01324135
X01442172Y01330873
X01445155Y01349551
X01431378Y01349776
X01422903
X01414292Y01348338
X01427396Y01341989
X01394375Y0134847
X01396775Y01376968
X01401545Y01384551
X01401421Y01391751
X01392955
X01385755
X01378555
X01371355
X01364155
X01356955
X01353355Y01384551
X01360555
X01367755
X01374955
X01382155
X01389355
X01384595Y01376082
X0137276Y01376457
X01360331Y01376979
X0134886Y01375958
X0133619Y01376598
X01338352Y01344827
X01338717Y0133251
X01338163Y01320238
X01334751Y01306009
X01326155Y01307551
X01329655Y01300551
X01326155Y01293551
X01334575Y01292288
X01329655Y01286551
X01347155Y01265551
X01343655Y01258551
X01347155Y01251551
Y01237551
X01343655Y01230551
X01347155Y01209551
X01369938Y0120373
X01377807Y01212449
X01374643Y01255742
X01375765Y0126762
X01368276Y01264605
X01402858Y01261719
Y01254718
X0141529Y0125962
X0140704Y01270161
X01400625Y012743
X01349559Y01312887
X01347599Y01415824
X01347025Y0142748
X01346639Y01439799
X01340155Y01461551
X01343655Y01468551
X01378435Y0143515
X01388446Y01441928
X0138769Y0142663
Y0141563
X0139869
Y0142663
X01425355Y01427751
X01432555
X01436155Y01434951
X01428955
X01422944
X01425355Y01442151
X01432555
X01428955Y01449351
X01421755
X01418155Y01456551
X01410955
X01425355
X01424155Y01391551
X01431155
X01427655Y01384551
X01420655
X01413655
X01410155Y01391551
X01417155
X01413655Y01398551
X01410155Y01405551
X0139044Y01400195
X01381325Y01400226
X01371584Y01407346
X01372782Y01417965
X01409412Y01376968
X0142268
X01436628Y01384551
X01055628
X01046655
X01039655
X01032655
X01029155Y01391551
X01036155
X01043155
X01050155
X0104168Y01376968
X01028412
X01015775
X01020545Y01384551
X01020421Y01391751
X01011955
X01004755
X00997555
X00990355
X00983155
X00975955
X00972355Y01384551
X00979555
X00986755
X00993955
X01001155
X01008355
X01003595Y01376082
X0099176Y01376457
X00979331Y01376979
X0096786Y01375958
X0095519Y01376598
X00957352Y01344827
X00957718Y0133251
X00957163Y01320238
X00953751Y01306009
X00945155Y01307551
X00948655Y01300551
X00945155Y01293551
X00953575Y01292288
X00948655Y01286551
X00966155Y01265551
X00962655Y01258551
X00966155Y01251551
Y01237551
X00962655Y01230551
X00966155Y01209551
X00988938Y0120373
X00996807Y01212449
X00993643Y01255742
X00994765Y0126762
X00987276Y01264605
X01021858Y01261719
Y01254718
X0103429Y0125962
X0102604Y01270161
X01019625Y012743
X01064155Y01279551
Y01293551
X01056835Y01311135
X01061172Y01317861
X01056835Y01324135
X01061172Y01330873
X01064155Y01349551
X01050378Y01349776
X01041903
X01033292Y01348338
X01046396Y01341989
X01013375Y0134847
X0100944Y01400195
X01000325Y01400226
X00990584Y01407346
X00991782Y01417965
X0100669Y0141563
Y0142663
X0101769
Y0141563
X01029155Y01405551
X01032655Y01398551
X01044355Y01427751
X01051555
X01055155Y01434951
X01047955
X01041944
X01044355Y01442151
X01051555
X01047955Y01449351
X01040755
X01037155Y01456551
X01029955
X01044355
X01007446Y01441928
X00997435Y0143515
X00965639Y01439799
X00966025Y0142748
X00966599Y01415824
X00959155Y01461551
X00962655Y01468551
X00968559Y01312887
X01064155Y01237551
Y01223551
Y01209551
Y01195551
X01666441Y01593298
X01672237Y01591745
X01678033Y01590192
X01683828Y0158864
X01686005Y01595545
X01691324Y01593515
X01693898Y01599749
X01688776Y01602235
X01683338Y01604771
X01677901Y01607306
X01672463Y01609842
X01669091Y01601702
X01674729Y0159965
X01680367Y01597597
X01681727Y01614658
X01676531Y01617657
X01681266Y01625089
X01686181Y01621647
X01691095Y01618206
X0169601Y01614764
X01700622Y01611427
X01700418Y01620509
X01704721Y01616782
X01709272Y01621759
X0170531Y01625847
X01701067Y0163009
X01696825Y01634333
X01692582Y01638575
X01702935Y01639932
X01706792Y01635336
X01710648Y01630739
X01714239Y01626322
X01695822Y01624366
X01691226Y01628222
X01686629Y01632079
X01686924Y01611658
X0169212Y01608658
X01697005Y01605734
X01699078Y01644528
X01735612Y01645152
X01737475Y01639773
X01743905Y01641808
X01742518Y01647329
X01740965Y01653125
X01739412Y0165892
X01737859Y01664716
X01746461Y01666623
X01747503Y01660714
X01748545Y01654805
X01749587Y01648897
X01750488Y01643275
X01757173Y01644163
X01756766Y01649842
X01756243Y01655819
X0175572Y01661796
X01755197Y01667773
X01764Y01668158
Y01662157
Y01656158
Y01656158
Y01650158
Y01650157
X01763911Y01644465
Y01644465
X01770649Y01644179
X01771234Y01649842
X01771757Y01655819
X0177228Y01661796
X01772803Y01667773
X01781538Y01666623
X01780497Y01660714
X01779455Y01654805
X01778413Y01648897
X01777336Y01643306
X01783923Y01641854
X01785482Y01647329
X01787035Y01653125
X01788588Y0165892
X01790141Y01664716
X01798544Y01662066
X01796492Y01656428
X0179444Y0165079
X01792388Y01645152
X01790357Y01639834
X01825065Y01639932
X01828922Y01644528
X01831175Y01634333
X01826932Y0163009
X0182269Y01625847
X01818602Y01621885
X01813624Y01626436
X01817351Y01630739
X01821208Y01635336
X01835418Y01638575
X01836774Y01628222
X01832178Y01624366
X01827582Y01620509
X01823164Y01616918
X01827276Y01611573
X0183199Y01614764
X01836904Y01618206
X01841819Y01621647
X01846734Y01625089
X01846272Y01614657
X01841076Y01611658
X0183588Y01608658
X01830906Y01605889
X01834027Y0159991
X01839223Y01602235
X01844661Y01604771
X01850099Y01607306
X01855537Y01609842
X01858909Y01601702
X01853271Y0159965
X01847633Y01597597
X01841994Y01595545
X01836615Y01593682
X01844172Y0158864
X01849967Y01590192
X01855763Y01591745
X01861558Y01593298
X01851469Y01617657
X0184137Y01632079
X0173356Y0165079
X01731508Y01656428
X01729456Y01662066
T03
X01076965Y01083124
Y01103124
Y01123124
Y01143124
Y01163124
Y01183124
X01307791Y01187863
Y01167863
Y01147863
Y01127863
Y01107863
Y01087863
X01458246Y01083124
Y01103124
Y01123124
Y01143124
Y01163124
Y01183124
X0168883Y01187978
Y01167978
Y01147978
Y01127978
Y01107978
Y01087978
Y01207978
Y01227978
Y01247978
Y01267978
Y01287978
Y01307978
Y01327978
Y01347978
Y01367978
Y01387978
Y01407978
Y01427978
X01458246Y01423124
Y01403124
Y01383124
Y01363124
Y01343124
Y01323124
Y01303124
Y01283124
Y01263124
Y01243124
Y01223124
Y01203124
X01307791Y01207863
Y01227863
Y01247863
Y01267863
Y01287863
Y01307863
Y01327863
Y01347863
Y01367863
Y01387863
Y01407863
Y01427863
X01076965Y01423124
Y01403124
Y01383124
Y01363124
Y01343124
Y01323124
Y01303124
Y01283124
Y01263124
Y01243124
Y01223124
Y01203124
T04
X00952535Y01168895
X01333535
X01714535
Y01194295
Y01219695
Y01245095
Y01270495
X01333535
Y01245095
Y01219695
Y01194295
X00952535
Y01219695
Y01245095
Y01270495
T05
X0097663Y011179
X0100203
X0102743
X0135763
X0138303
X0140843
X0173863
X0176403
X0178943
X017897Y01473259
X0178973Y01473281
X0176403
X01764Y01473259
X0173833Y01473281
X017383Y01473259
X0140873Y01473281
X0138303
X0135733
X0102773
X0100203
X0097633
T06
X01764Y01567157
X0176403Y0156718
X0138303
X01383076Y01567123
X0100203Y0156718
M30
