G04*
G04 #@! TF.GenerationSoftware,Altium Limited,Altium Designer,21.0.9 (235)*
G04*
G04 Layer_Color=8421504*
%FSAX44Y44*%
%MOMM*%
G71*
G04*
G04 #@! TF.SameCoordinates,C9C275F4-687D-4123-80A0-9C6E5F070257*
G04*
G04*
G04 #@! TF.FilePolarity,Positive*
G04*
G01*
G75*
%ADD15R,4.1800X4.1800*%
%ADD16O,0.3000X0.7000*%
%ADD17O,0.7000X0.3000*%
G04:AMPARAMS|DCode=18|XSize=1.2571mm|YSize=0.3758mm|CornerRadius=0.1879mm|HoleSize=0mm|Usage=FLASHONLY|Rotation=90.000|XOffset=0mm|YOffset=0mm|HoleType=Round|Shape=RoundedRectangle|*
%AMROUNDEDRECTD18*
21,1,1.2571,0.0000,0,0,90.0*
21,1,0.8813,0.3758,0,0,90.0*
1,1,0.3758,0.0000,0.4406*
1,1,0.3758,0.0000,-0.4406*
1,1,0.3758,0.0000,-0.4406*
1,1,0.3758,0.0000,0.4406*
%
%ADD18ROUNDEDRECTD18*%
%ADD19R,0.3758X1.2571*%
%ADD20R,0.6500X0.7000*%
%ADD21R,0.7000X0.6500*%
%ADD22R,0.7400X0.7800*%
%ADD23R,0.7500X0.6000*%
%ADD24R,2.6000X1.3500*%
%ADD25R,1.3250X0.8250*%
%ADD28R,0.8000X0.8000*%
%ADD29R,0.7800X0.7400*%
%ADD30R,0.8250X1.3250*%
%ADD31R,0.3000X0.6300*%
%ADD32R,0.6300X0.3000*%
%ADD33R,1.8500X1.8500*%
%ADD49R,0.7000X0.3500*%
%ADD50R,1.5200X2.0000*%
D15*
X01019750Y01311385D02*
D03*
X01400750D02*
D03*
X01781750D02*
D03*
D16*
X01000250Y01341385D02*
D03*
X01006750D02*
D03*
X01013250D02*
D03*
X01019750D02*
D03*
X01026250D02*
D03*
X01032750D02*
D03*
X01039250D02*
D03*
Y01281385D02*
D03*
X01032750D02*
D03*
X01026250D02*
D03*
X01019750D02*
D03*
X01013250D02*
D03*
X01006750D02*
D03*
X01000250D02*
D03*
X01381250Y01341385D02*
D03*
X01387750D02*
D03*
X01394250D02*
D03*
X01400750D02*
D03*
X01407250D02*
D03*
X01413750D02*
D03*
X01420250D02*
D03*
Y01281385D02*
D03*
X01413750D02*
D03*
X01407250D02*
D03*
X01400750D02*
D03*
X01394250D02*
D03*
X01387750D02*
D03*
X01381250D02*
D03*
X01762250Y01341385D02*
D03*
X01768750D02*
D03*
X01775250D02*
D03*
X01781750D02*
D03*
X01788250D02*
D03*
X01794750D02*
D03*
X01801250D02*
D03*
Y01281385D02*
D03*
X01794750D02*
D03*
X01788250D02*
D03*
X01781750D02*
D03*
X01775250D02*
D03*
X01768750D02*
D03*
X01762250D02*
D03*
D17*
X01049750Y01330885D02*
D03*
Y01324385D02*
D03*
Y01317885D02*
D03*
Y01311385D02*
D03*
Y01304885D02*
D03*
Y01298385D02*
D03*
Y01291885D02*
D03*
X00989750D02*
D03*
Y01298385D02*
D03*
Y01304885D02*
D03*
Y01311385D02*
D03*
Y01317885D02*
D03*
Y01324385D02*
D03*
Y01330885D02*
D03*
X01430750D02*
D03*
Y01324385D02*
D03*
Y01317885D02*
D03*
Y01311385D02*
D03*
Y01304885D02*
D03*
Y01298385D02*
D03*
Y01291885D02*
D03*
X01370750D02*
D03*
Y01298385D02*
D03*
Y01304885D02*
D03*
Y01311385D02*
D03*
Y01317885D02*
D03*
Y01324385D02*
D03*
Y01330885D02*
D03*
X01811750D02*
D03*
Y01324385D02*
D03*
Y01317885D02*
D03*
Y01311385D02*
D03*
Y01304885D02*
D03*
Y01298385D02*
D03*
Y01291885D02*
D03*
X01751750D02*
D03*
Y01298385D02*
D03*
Y01304885D02*
D03*
Y01311385D02*
D03*
Y01317885D02*
D03*
Y01324385D02*
D03*
Y01330885D02*
D03*
D18*
X01055529Y01141165D02*
D03*
X01060529Y01129155D02*
D03*
X01436529Y01141165D02*
D03*
X01441529Y01129155D02*
D03*
X01817529Y01141165D02*
D03*
X01822529Y01129155D02*
D03*
D19*
X01050529D02*
D03*
X01431529D02*
D03*
X01812529D02*
D03*
D20*
X00979693Y01255336D02*
D03*
Y01264836D02*
D03*
X00988932Y01197364D02*
D03*
Y01187864D02*
D03*
X00976630Y01187635D02*
D03*
Y01197135D02*
D03*
X01048750Y01152601D02*
D03*
Y01162101D02*
D03*
X00991635Y01359497D02*
D03*
Y01368997D02*
D03*
X01003469D02*
D03*
Y01359497D02*
D03*
X00954432Y01359717D02*
D03*
Y01369217D02*
D03*
X00966678Y01368998D02*
D03*
Y01359498D02*
D03*
X01360693Y01255336D02*
D03*
Y01264836D02*
D03*
X01369932Y01197364D02*
D03*
Y01187864D02*
D03*
X01357630Y01187635D02*
D03*
Y01197135D02*
D03*
X01429750Y01152601D02*
D03*
Y01162101D02*
D03*
X01372635Y01359497D02*
D03*
Y01368997D02*
D03*
X01384469D02*
D03*
Y01359497D02*
D03*
X01335432Y01359717D02*
D03*
Y01369217D02*
D03*
X01347678Y01368998D02*
D03*
Y01359498D02*
D03*
X01741693Y01255336D02*
D03*
Y01264836D02*
D03*
X01750932Y01197364D02*
D03*
Y01187864D02*
D03*
X01738630Y01187635D02*
D03*
Y01197135D02*
D03*
X01810750Y01152601D02*
D03*
Y01162101D02*
D03*
X01753635Y01359497D02*
D03*
Y01368997D02*
D03*
X01765470D02*
D03*
Y01359497D02*
D03*
X01716432Y01359717D02*
D03*
Y01369217D02*
D03*
X01728678Y01368998D02*
D03*
Y01359498D02*
D03*
D21*
X01060679Y01103438D02*
D03*
X01051179D02*
D03*
X01060679Y01113790D02*
D03*
X01051179D02*
D03*
X01001932Y01198910D02*
D03*
Y01185410D02*
D03*
X00964678Y01332385D02*
D03*
X00974178D02*
D03*
X00974123Y01320113D02*
D03*
X00964623D02*
D03*
X00983185Y01415824D02*
D03*
X00973684D02*
D03*
X00983110Y01427480D02*
D03*
X00973610D02*
D03*
X01441679Y01103438D02*
D03*
X01432179D02*
D03*
X01441679Y01113790D02*
D03*
X01432179D02*
D03*
X01382932Y01198910D02*
D03*
Y01185410D02*
D03*
X01345678Y01332385D02*
D03*
X01355178D02*
D03*
X01355123Y01320113D02*
D03*
X01345623D02*
D03*
X01364185Y01415824D02*
D03*
X01354684D02*
D03*
X01364110Y01427480D02*
D03*
X01354610D02*
D03*
X01822679Y01103438D02*
D03*
X01813179D02*
D03*
X01822679Y01113790D02*
D03*
X01813179D02*
D03*
X01763932Y01198910D02*
D03*
Y01185410D02*
D03*
X01726678Y01332385D02*
D03*
X01736178D02*
D03*
X01736123Y01320113D02*
D03*
X01726623D02*
D03*
X01745184Y01415824D02*
D03*
X01735685D02*
D03*
X01745110Y01427480D02*
D03*
X01735610D02*
D03*
D22*
X00950390Y01141394D02*
D03*
Y01131594D02*
D03*
X01052779Y01192160D02*
D03*
Y01182360D02*
D03*
X01040640Y01192160D02*
D03*
Y01182360D02*
D03*
X00979206Y01359619D02*
D03*
Y01369419D02*
D03*
X01015650Y01359708D02*
D03*
Y01369508D02*
D03*
X01028287Y01359708D02*
D03*
Y01369508D02*
D03*
X01041555Y01359708D02*
D03*
Y01369508D02*
D03*
X01331390Y01141394D02*
D03*
Y01131594D02*
D03*
X01433779Y01192160D02*
D03*
Y01182360D02*
D03*
X01421640Y01192160D02*
D03*
Y01182360D02*
D03*
X01360206Y01359619D02*
D03*
Y01369419D02*
D03*
X01396650Y01359708D02*
D03*
Y01369508D02*
D03*
X01409287Y01359708D02*
D03*
Y01369508D02*
D03*
X01422555Y01359708D02*
D03*
Y01369508D02*
D03*
X01712390Y01141394D02*
D03*
Y01131594D02*
D03*
X01814779Y01192160D02*
D03*
Y01182360D02*
D03*
X01802640Y01192160D02*
D03*
Y01182360D02*
D03*
X01741206Y01359619D02*
D03*
Y01369419D02*
D03*
X01777650Y01359708D02*
D03*
Y01369508D02*
D03*
X01790287Y01359708D02*
D03*
Y01369508D02*
D03*
X01803555Y01359708D02*
D03*
Y01369508D02*
D03*
D23*
X01013890Y01153160D02*
D03*
X01035890Y01162660D02*
D03*
Y01143660D02*
D03*
X01394890Y01153160D02*
D03*
X01416890Y01162660D02*
D03*
Y01143660D02*
D03*
X01775890Y01153160D02*
D03*
X01797890Y01162660D02*
D03*
Y01143660D02*
D03*
D24*
X00993099Y01168744D02*
D03*
Y01144244D02*
D03*
X01374099Y01168744D02*
D03*
Y01144244D02*
D03*
X01755099Y01168744D02*
D03*
Y01144244D02*
D03*
D25*
X01020687Y01192614D02*
D03*
Y01176614D02*
D03*
X00996932Y01235910D02*
D03*
Y01219910D02*
D03*
X01401687Y01192614D02*
D03*
Y01176614D02*
D03*
X01377932Y01235910D02*
D03*
Y01219910D02*
D03*
X01782687Y01192614D02*
D03*
Y01176614D02*
D03*
X01758932Y01235910D02*
D03*
Y01219910D02*
D03*
D28*
X00976535Y01292163D02*
D03*
X00961535D02*
D03*
X00976711Y01305884D02*
D03*
X00961711D02*
D03*
X01357535Y01292163D02*
D03*
X01342535D02*
D03*
X01357711Y01305884D02*
D03*
X01342711D02*
D03*
X01738535Y01292163D02*
D03*
X01723535D02*
D03*
X01738711Y01305884D02*
D03*
X01723711D02*
D03*
D29*
X00974112Y01344702D02*
D03*
X00964312D02*
D03*
X01011650Y01267495D02*
D03*
X01001850D02*
D03*
X01011650Y01254495D02*
D03*
X01001850D02*
D03*
X01041400Y01402457D02*
D03*
X01051200D02*
D03*
X01041400Y01416130D02*
D03*
X01051200D02*
D03*
X00982683Y01403639D02*
D03*
X00972883D02*
D03*
X00983124Y01439799D02*
D03*
X00973324D02*
D03*
X01355112Y01344702D02*
D03*
X01345312D02*
D03*
X01392650Y01267495D02*
D03*
X01382850D02*
D03*
X01392650Y01254495D02*
D03*
X01382850D02*
D03*
X01422400Y01402457D02*
D03*
X01432200D02*
D03*
X01422400Y01416130D02*
D03*
X01432200D02*
D03*
X01363683Y01403639D02*
D03*
X01353883D02*
D03*
X01364124Y01439799D02*
D03*
X01354324D02*
D03*
X01736112Y01344702D02*
D03*
X01726312D02*
D03*
X01773650Y01267495D02*
D03*
X01763850D02*
D03*
X01773650Y01254495D02*
D03*
X01763850D02*
D03*
X01803400Y01402457D02*
D03*
X01813200D02*
D03*
X01803400Y01416130D02*
D03*
X01813200D02*
D03*
X01744684Y01403639D02*
D03*
X01734883D02*
D03*
X01745124Y01439799D02*
D03*
X01735324D02*
D03*
D30*
X01057750Y01259495D02*
D03*
X01041750D02*
D03*
X01438750D02*
D03*
X01422750D02*
D03*
X01819750D02*
D03*
X01803750D02*
D03*
D31*
X01004690Y01407280D02*
D03*
X01009690D02*
D03*
X01014690D02*
D03*
X01019690D02*
D03*
Y01434980D02*
D03*
X01014690D02*
D03*
X01009690D02*
D03*
X01004690D02*
D03*
X01385690Y01407280D02*
D03*
X01390690D02*
D03*
X01395690D02*
D03*
X01400690D02*
D03*
Y01434980D02*
D03*
X01395690D02*
D03*
X01390690D02*
D03*
X01385690D02*
D03*
X01766690Y01407280D02*
D03*
X01771690D02*
D03*
X01776690D02*
D03*
X01781690D02*
D03*
Y01434980D02*
D03*
X01776690D02*
D03*
X01771690D02*
D03*
X01766690D02*
D03*
D32*
X01026040Y01413630D02*
D03*
Y01418630D02*
D03*
Y01423630D02*
D03*
Y01428630D02*
D03*
X00998340D02*
D03*
Y01423630D02*
D03*
Y01418630D02*
D03*
Y01413630D02*
D03*
X01407040D02*
D03*
Y01418630D02*
D03*
Y01423630D02*
D03*
Y01428630D02*
D03*
X01379340D02*
D03*
Y01423630D02*
D03*
Y01418630D02*
D03*
Y01413630D02*
D03*
X01788040D02*
D03*
Y01418630D02*
D03*
Y01423630D02*
D03*
Y01428630D02*
D03*
X01760340D02*
D03*
Y01423630D02*
D03*
Y01418630D02*
D03*
Y01413630D02*
D03*
D33*
X01012190Y01421130D02*
D03*
X01393190D02*
D03*
X01774190D02*
D03*
D49*
X01049865Y01216659D02*
D03*
Y01226160D02*
D03*
X01049864Y01235660D02*
D03*
X01018864D02*
D03*
X01018865Y01226160D02*
D03*
Y01216659D02*
D03*
X01430865D02*
D03*
Y01226160D02*
D03*
X01430864Y01235660D02*
D03*
X01399864D02*
D03*
X01399865Y01226160D02*
D03*
Y01216659D02*
D03*
X01811865D02*
D03*
Y01226160D02*
D03*
X01811864Y01235660D02*
D03*
X01780864D02*
D03*
X01780865Y01226160D02*
D03*
Y01216659D02*
D03*
D50*
X01034366Y01226160D02*
D03*
X01415366D02*
D03*
X01796366D02*
D03*
M02*
