G04*
G04 #@! TF.GenerationSoftware,Altium Limited,Altium Designer,21.0.9 (235)*
G04*
G04 Layer_Color=16711935*
%FSAX44Y44*%
%MOMM*%
G71*
G04*
G04 #@! TF.SameCoordinates,C9C275F4-687D-4123-80A0-9C6E5F070257*
G04*
G04*
G04 #@! TF.FilePolarity,Positive*
G04*
G01*
G75*
%ADD10C,0.1000*%
D10*
X01003750Y01332385D02*
G03*
X01003750Y01332385I-00005000J00000000D01*
G01*
X01045865Y01219660D02*
G03*
X01045865Y01219660I-00005000J00000000D01*
G01*
X01010440Y01414380D02*
G03*
X01010440Y01414380I-00005000J00000000D01*
G01*
X00989750Y01281385D02*
X01049750D01*
X00989750Y01341385D02*
X01049750D01*
Y01281385D02*
Y01341385D01*
X00989750Y01281385D02*
Y01341385D01*
X00976943Y01254836D02*
X00982443D01*
X00976943Y01265336D02*
X00982443D01*
X00976943Y01254836D02*
Y01265336D01*
X00982443Y01254836D02*
Y01265336D01*
X01061179Y01100688D02*
Y01106188D01*
X01050679Y01100688D02*
Y01106188D01*
Y01100688D02*
X01061179D01*
X01050679Y01106188D02*
X01061179D01*
Y01111040D02*
Y01116540D01*
X01050679Y01111040D02*
Y01116540D01*
Y01111040D02*
X01061179D01*
X01050679Y01116540D02*
X01061179D01*
X01028444Y01434110D02*
X01033944D01*
X01028444Y01444610D02*
X01033944D01*
Y01434110D02*
Y01444610D01*
X01028444Y01434110D02*
Y01444610D01*
X00973330Y01443904D02*
Y01454904D01*
X00979330Y01443904D02*
Y01454904D01*
X00973330D02*
X00979330D01*
X00973330Y01443904D02*
X00979330D01*
X00953390Y01130994D02*
Y01141994D01*
X00947390Y01130994D02*
Y01141994D01*
X00953390D01*
X00947390Y01130994D02*
X00953390D01*
X00986182Y01197864D02*
X00991682D01*
X00986182Y01187364D02*
X00991682D01*
Y01197864D01*
X00986182Y01187364D02*
Y01197864D01*
X00973880Y01187135D02*
X00979380D01*
X00973880Y01197635D02*
X00979380D01*
X00973880Y01187135D02*
Y01197635D01*
X00979380Y01187135D02*
Y01197635D01*
X01017890Y01168160D02*
X01031890D01*
X01017890Y01138160D02*
X01031890D01*
X01017890D02*
Y01168160D01*
X01031890Y01138160D02*
Y01168160D01*
X01046000Y01152101D02*
X01051500D01*
X01046000Y01162601D02*
X01051500D01*
X01046000Y01152101D02*
Y01162601D01*
X01051500Y01152101D02*
Y01162601D01*
X00997932Y01200160D02*
X01005932D01*
Y01184160D02*
Y01200160D01*
X00997932Y01184160D02*
X01005932D01*
X00997932D02*
Y01200160D01*
X01055779Y01181760D02*
Y01192760D01*
X01049779Y01181760D02*
Y01192760D01*
X01055779D01*
X01049779Y01181760D02*
X01055779D01*
X01043640D02*
Y01192760D01*
X01037640Y01181760D02*
Y01192760D01*
X01043640D01*
X01037640Y01181760D02*
X01043640D01*
X01006599Y01138994D02*
Y01173994D01*
X00979599Y01138994D02*
Y01173994D01*
X01006599D01*
X00979599Y01138994D02*
X01006599D01*
X01049865Y01210660D02*
Y01241660D01*
X01018865Y01210660D02*
Y01241660D01*
X01049865D01*
X01018865Y01210660D02*
X01049865D01*
X00961035Y01288163D02*
X00977035D01*
X00961035Y01296163D02*
X00977035D01*
Y01288163D02*
Y01296163D01*
X00961035Y01288163D02*
Y01296163D01*
X00988885Y01358997D02*
X00994385D01*
X00988885Y01369497D02*
X00994385D01*
X00988885Y01358997D02*
Y01369497D01*
X00994385Y01358997D02*
Y01369497D01*
X01000720D02*
X01006219D01*
X01000720Y01358997D02*
X01006219D01*
Y01369497D01*
X01000720Y01358997D02*
Y01369497D01*
X00976206Y01359019D02*
Y01370019D01*
X00982206Y01359019D02*
Y01370019D01*
X00976206Y01359019D02*
X00982206D01*
X00976206Y01370019D02*
X00982206D01*
X00964178Y01329635D02*
Y01335135D01*
X00974678Y01329635D02*
Y01335135D01*
X00964178D02*
X00974678D01*
X00964178Y01329635D02*
X00974678D01*
X00963712Y01341702D02*
X00974712D01*
X00963712Y01347702D02*
X00974712D01*
Y01341702D02*
Y01347702D01*
X00963712Y01341702D02*
Y01347702D01*
X01012650Y01359108D02*
Y01370108D01*
X01018650Y01359108D02*
Y01370108D01*
X01012650Y01359108D02*
X01018650D01*
X01012650Y01370108D02*
X01018650D01*
X00974623Y01317363D02*
Y01322863D01*
X00964123Y01317363D02*
Y01322863D01*
Y01317363D02*
X00974623D01*
X00964123Y01322863D02*
X00974623D01*
X00951682Y01359217D02*
X00957182D01*
X00951682Y01369717D02*
X00957182D01*
X00951682Y01359217D02*
Y01369717D01*
X00957182Y01359217D02*
Y01369717D01*
X00963928Y01369498D02*
X00969428D01*
X00963928Y01358998D02*
X00969428D01*
Y01369498D01*
X00963928Y01358998D02*
Y01369498D01*
X01025287Y01359108D02*
Y01370108D01*
X01031287Y01359108D02*
Y01370108D01*
X01025287Y01359108D02*
X01031287D01*
X01025287Y01370108D02*
X01031287D01*
X01038555Y01359108D02*
Y01370108D01*
X01044555Y01359108D02*
Y01370108D01*
X01038555Y01359108D02*
X01044555D01*
X01038555Y01370108D02*
X01044555D01*
X01001250Y01264495D02*
X01012250D01*
X01001250Y01270495D02*
X01012250D01*
Y01264495D02*
Y01270495D01*
X01001250Y01264495D02*
Y01270495D01*
Y01251495D02*
X01012250D01*
X01001250Y01257495D02*
X01012250D01*
Y01251495D02*
Y01257495D01*
X01001250Y01251495D02*
Y01257495D01*
X01040800Y01405457D02*
X01051800D01*
X01040800Y01399457D02*
X01051800D01*
X01040800D02*
Y01405457D01*
X01051800Y01399457D02*
Y01405457D01*
X01040800Y01419130D02*
X01051800D01*
X01040800Y01413130D02*
X01051800D01*
X01040800D02*
Y01419130D01*
X01051800Y01413130D02*
Y01419130D01*
X00972283Y01400639D02*
X00983283D01*
X00972283Y01406639D02*
X00983283D01*
Y01400639D02*
Y01406639D01*
X00972283Y01400639D02*
Y01406639D01*
X00983684Y01413074D02*
Y01418574D01*
X00973185Y01413074D02*
Y01418574D01*
Y01413074D02*
X00983684D01*
X00973185Y01418574D02*
X00983684D01*
X00972724Y01436799D02*
X00983724D01*
X00972724Y01442800D02*
X00983724D01*
Y01436799D02*
Y01442800D01*
X00972724Y01436799D02*
Y01442800D01*
X00983610Y01424730D02*
Y01430230D01*
X00973110Y01424730D02*
Y01430230D01*
Y01424730D02*
X00983610D01*
X00973110Y01430230D02*
X00983610D01*
X01009640Y01429204D02*
Y01459604D01*
X00995640Y01429204D02*
Y01459604D01*
X01009640D01*
X00995640Y01429204D02*
X01009640D01*
X00961211Y01301884D02*
X00977211D01*
X00961211Y01309884D02*
X00977211D01*
Y01301884D02*
Y01309884D01*
X00961211Y01301884D02*
Y01309884D01*
X00996440Y01405380D02*
X01027940D01*
X00996440Y01436880D02*
X01027940D01*
X00996440Y01405380D02*
Y01436880D01*
X01027940Y01405380D02*
Y01436880D01*
X01384750Y01332385D02*
G03*
X01384750Y01332385I-00005000J00000000D01*
G01*
X01426865Y01219660D02*
G03*
X01426865Y01219660I-00005000J00000000D01*
G01*
X01391440Y01414380D02*
G03*
X01391440Y01414380I-00005000J00000000D01*
G01*
X01370750Y01281385D02*
X01430750D01*
X01370750Y01341385D02*
X01430750D01*
Y01281385D02*
Y01341385D01*
X01370750Y01281385D02*
Y01341385D01*
X01357943Y01254836D02*
X01363443D01*
X01357943Y01265336D02*
X01363443D01*
X01357943Y01254836D02*
Y01265336D01*
X01363443Y01254836D02*
Y01265336D01*
X01442179Y01100688D02*
Y01106188D01*
X01431679Y01100688D02*
Y01106188D01*
Y01100688D02*
X01442179D01*
X01431679Y01106188D02*
X01442179D01*
Y01111040D02*
Y01116540D01*
X01431679Y01111040D02*
Y01116540D01*
Y01111040D02*
X01442179D01*
X01431679Y01116540D02*
X01442179D01*
X01409444Y01434110D02*
X01414944D01*
X01409444Y01444610D02*
X01414944D01*
Y01434110D02*
Y01444610D01*
X01409444Y01434110D02*
Y01444610D01*
X01354330Y01443904D02*
Y01454904D01*
X01360330Y01443904D02*
Y01454904D01*
X01354330D02*
X01360330D01*
X01354330Y01443904D02*
X01360330D01*
X01334390Y01130994D02*
Y01141994D01*
X01328390Y01130994D02*
Y01141994D01*
X01334390D01*
X01328390Y01130994D02*
X01334390D01*
X01367182Y01197864D02*
X01372682D01*
X01367182Y01187364D02*
X01372682D01*
Y01197864D01*
X01367182Y01187364D02*
Y01197864D01*
X01354880Y01187135D02*
X01360380D01*
X01354880Y01197635D02*
X01360380D01*
X01354880Y01187135D02*
Y01197635D01*
X01360380Y01187135D02*
Y01197635D01*
X01398890Y01168160D02*
X01412890D01*
X01398890Y01138160D02*
X01412890D01*
X01398890D02*
Y01168160D01*
X01412890Y01138160D02*
Y01168160D01*
X01427000Y01152101D02*
X01432500D01*
X01427000Y01162601D02*
X01432500D01*
X01427000Y01152101D02*
Y01162601D01*
X01432500Y01152101D02*
Y01162601D01*
X01378932Y01200160D02*
X01386932D01*
Y01184160D02*
Y01200160D01*
X01378932Y01184160D02*
X01386932D01*
X01378932D02*
Y01200160D01*
X01436779Y01181760D02*
Y01192760D01*
X01430779Y01181760D02*
Y01192760D01*
X01436779D01*
X01430779Y01181760D02*
X01436779D01*
X01424640D02*
Y01192760D01*
X01418640Y01181760D02*
Y01192760D01*
X01424640D01*
X01418640Y01181760D02*
X01424640D01*
X01387599Y01138994D02*
Y01173994D01*
X01360599Y01138994D02*
Y01173994D01*
X01387599D01*
X01360599Y01138994D02*
X01387599D01*
X01430865Y01210660D02*
Y01241660D01*
X01399865Y01210660D02*
Y01241660D01*
X01430865D01*
X01399865Y01210660D02*
X01430865D01*
X01342035Y01288163D02*
X01358035D01*
X01342035Y01296163D02*
X01358035D01*
Y01288163D02*
Y01296163D01*
X01342035Y01288163D02*
Y01296163D01*
X01369885Y01358997D02*
X01375385D01*
X01369885Y01369497D02*
X01375385D01*
X01369885Y01358997D02*
Y01369497D01*
X01375385Y01358997D02*
Y01369497D01*
X01381720D02*
X01387220D01*
X01381720Y01358997D02*
X01387220D01*
Y01369497D01*
X01381720Y01358997D02*
Y01369497D01*
X01357206Y01359019D02*
Y01370019D01*
X01363206Y01359019D02*
Y01370019D01*
X01357206Y01359019D02*
X01363206D01*
X01357206Y01370019D02*
X01363206D01*
X01345178Y01329635D02*
Y01335135D01*
X01355678Y01329635D02*
Y01335135D01*
X01345178D02*
X01355678D01*
X01345178Y01329635D02*
X01355678D01*
X01344712Y01341702D02*
X01355712D01*
X01344712Y01347702D02*
X01355712D01*
Y01341702D02*
Y01347702D01*
X01344712Y01341702D02*
Y01347702D01*
X01393650Y01359108D02*
Y01370108D01*
X01399650Y01359108D02*
Y01370108D01*
X01393650Y01359108D02*
X01399650D01*
X01393650Y01370108D02*
X01399650D01*
X01355623Y01317363D02*
Y01322863D01*
X01345123Y01317363D02*
Y01322863D01*
Y01317363D02*
X01355623D01*
X01345123Y01322863D02*
X01355623D01*
X01332682Y01359217D02*
X01338182D01*
X01332682Y01369717D02*
X01338182D01*
X01332682Y01359217D02*
Y01369717D01*
X01338182Y01359217D02*
Y01369717D01*
X01344928Y01369498D02*
X01350428D01*
X01344928Y01358998D02*
X01350428D01*
Y01369498D01*
X01344928Y01358998D02*
Y01369498D01*
X01406287Y01359108D02*
Y01370108D01*
X01412287Y01359108D02*
Y01370108D01*
X01406287Y01359108D02*
X01412287D01*
X01406287Y01370108D02*
X01412287D01*
X01419555Y01359108D02*
Y01370108D01*
X01425555Y01359108D02*
Y01370108D01*
X01419555Y01359108D02*
X01425555D01*
X01419555Y01370108D02*
X01425555D01*
X01382250Y01264495D02*
X01393250D01*
X01382250Y01270495D02*
X01393250D01*
Y01264495D02*
Y01270495D01*
X01382250Y01264495D02*
Y01270495D01*
Y01251495D02*
X01393250D01*
X01382250Y01257495D02*
X01393250D01*
Y01251495D02*
Y01257495D01*
X01382250Y01251495D02*
Y01257495D01*
X01421800Y01405457D02*
X01432800D01*
X01421800Y01399457D02*
X01432800D01*
X01421800D02*
Y01405457D01*
X01432800Y01399457D02*
Y01405457D01*
X01421800Y01419130D02*
X01432800D01*
X01421800Y01413130D02*
X01432800D01*
X01421800D02*
Y01419130D01*
X01432800Y01413130D02*
Y01419130D01*
X01353284Y01400639D02*
X01364283D01*
X01353284Y01406639D02*
X01364283D01*
Y01400639D02*
Y01406639D01*
X01353284Y01400639D02*
Y01406639D01*
X01364684Y01413074D02*
Y01418574D01*
X01354185Y01413074D02*
Y01418574D01*
Y01413074D02*
X01364684D01*
X01354185Y01418574D02*
X01364684D01*
X01353724Y01436799D02*
X01364724D01*
X01353724Y01442800D02*
X01364724D01*
Y01436799D02*
Y01442800D01*
X01353724Y01436799D02*
Y01442800D01*
X01364610Y01424730D02*
Y01430230D01*
X01354110Y01424730D02*
Y01430230D01*
Y01424730D02*
X01364610D01*
X01354110Y01430230D02*
X01364610D01*
X01390640Y01429204D02*
Y01459604D01*
X01376640Y01429204D02*
Y01459604D01*
X01390640D01*
X01376640Y01429204D02*
X01390640D01*
X01342211Y01301884D02*
X01358211D01*
X01342211Y01309884D02*
X01358211D01*
Y01301884D02*
Y01309884D01*
X01342211Y01301884D02*
Y01309884D01*
X01377440Y01405380D02*
X01408940D01*
X01377440Y01436880D02*
X01408940D01*
X01377440Y01405380D02*
Y01436880D01*
X01408940Y01405380D02*
Y01436880D01*
X01765750Y01332385D02*
G03*
X01765750Y01332385I-00005000J00000000D01*
G01*
X01807865Y01219660D02*
G03*
X01807865Y01219660I-00005000J00000000D01*
G01*
X01772440Y01414380D02*
G03*
X01772440Y01414380I-00005000J00000000D01*
G01*
X01751750Y01281385D02*
X01811750D01*
X01751750Y01341385D02*
X01811750D01*
Y01281385D02*
Y01341385D01*
X01751750Y01281385D02*
Y01341385D01*
X01738943Y01254836D02*
X01744443D01*
X01738943Y01265336D02*
X01744443D01*
X01738943Y01254836D02*
Y01265336D01*
X01744443Y01254836D02*
Y01265336D01*
X01823179Y01100688D02*
Y01106188D01*
X01812679Y01100688D02*
Y01106188D01*
Y01100688D02*
X01823179D01*
X01812679Y01106188D02*
X01823179D01*
Y01111040D02*
Y01116540D01*
X01812679Y01111040D02*
Y01116540D01*
Y01111040D02*
X01823179D01*
X01812679Y01116540D02*
X01823179D01*
X01790444Y01434110D02*
X01795944D01*
X01790444Y01444610D02*
X01795944D01*
Y01434110D02*
Y01444610D01*
X01790444Y01434110D02*
Y01444610D01*
X01735330Y01443904D02*
Y01454904D01*
X01741330Y01443904D02*
Y01454904D01*
X01735330D02*
X01741330D01*
X01735330Y01443904D02*
X01741330D01*
X01715390Y01130994D02*
Y01141994D01*
X01709390Y01130994D02*
Y01141994D01*
X01715390D01*
X01709390Y01130994D02*
X01715390D01*
X01748182Y01197864D02*
X01753682D01*
X01748182Y01187364D02*
X01753682D01*
Y01197864D01*
X01748182Y01187364D02*
Y01197864D01*
X01735880Y01187135D02*
X01741380D01*
X01735880Y01197635D02*
X01741380D01*
X01735880Y01187135D02*
Y01197635D01*
X01741380Y01187135D02*
Y01197635D01*
X01779890Y01168160D02*
X01793890D01*
X01779890Y01138160D02*
X01793890D01*
X01779890D02*
Y01168160D01*
X01793890Y01138160D02*
Y01168160D01*
X01808000Y01152101D02*
X01813500D01*
X01808000Y01162601D02*
X01813500D01*
X01808000Y01152101D02*
Y01162601D01*
X01813500Y01152101D02*
Y01162601D01*
X01759932Y01200160D02*
X01767932D01*
Y01184160D02*
Y01200160D01*
X01759932Y01184160D02*
X01767932D01*
X01759932D02*
Y01200160D01*
X01817779Y01181760D02*
Y01192760D01*
X01811779Y01181760D02*
Y01192760D01*
X01817779D01*
X01811779Y01181760D02*
X01817779D01*
X01805640D02*
Y01192760D01*
X01799640Y01181760D02*
Y01192760D01*
X01805640D01*
X01799640Y01181760D02*
X01805640D01*
X01768599Y01138994D02*
Y01173994D01*
X01741599Y01138994D02*
Y01173994D01*
X01768599D01*
X01741599Y01138994D02*
X01768599D01*
X01811865Y01210660D02*
Y01241660D01*
X01780865Y01210660D02*
Y01241660D01*
X01811865D01*
X01780865Y01210660D02*
X01811865D01*
X01723035Y01288163D02*
X01739035D01*
X01723035Y01296163D02*
X01739035D01*
Y01288163D02*
Y01296163D01*
X01723035Y01288163D02*
Y01296163D01*
X01750885Y01358997D02*
X01756385D01*
X01750885Y01369497D02*
X01756385D01*
X01750885Y01358997D02*
Y01369497D01*
X01756385Y01358997D02*
Y01369497D01*
X01762720D02*
X01768219D01*
X01762720Y01358997D02*
X01768219D01*
Y01369497D01*
X01762720Y01358997D02*
Y01369497D01*
X01738206Y01359019D02*
Y01370019D01*
X01744206Y01359019D02*
Y01370019D01*
X01738206Y01359019D02*
X01744206D01*
X01738206Y01370019D02*
X01744206D01*
X01726178Y01329635D02*
Y01335135D01*
X01736678Y01329635D02*
Y01335135D01*
X01726178D02*
X01736678D01*
X01726178Y01329635D02*
X01736678D01*
X01725712Y01341702D02*
X01736712D01*
X01725712Y01347702D02*
X01736712D01*
Y01341702D02*
Y01347702D01*
X01725712Y01341702D02*
Y01347702D01*
X01774650Y01359108D02*
Y01370108D01*
X01780650Y01359108D02*
Y01370108D01*
X01774650Y01359108D02*
X01780650D01*
X01774650Y01370108D02*
X01780650D01*
X01736623Y01317363D02*
Y01322863D01*
X01726123Y01317363D02*
Y01322863D01*
Y01317363D02*
X01736623D01*
X01726123Y01322863D02*
X01736623D01*
X01713682Y01359217D02*
X01719182D01*
X01713682Y01369717D02*
X01719182D01*
X01713682Y01359217D02*
Y01369717D01*
X01719182Y01359217D02*
Y01369717D01*
X01725928Y01369498D02*
X01731428D01*
X01725928Y01358998D02*
X01731428D01*
Y01369498D01*
X01725928Y01358998D02*
Y01369498D01*
X01787287Y01359108D02*
Y01370108D01*
X01793287Y01359108D02*
Y01370108D01*
X01787287Y01359108D02*
X01793287D01*
X01787287Y01370108D02*
X01793287D01*
X01800555Y01359108D02*
Y01370108D01*
X01806555Y01359108D02*
Y01370108D01*
X01800555Y01359108D02*
X01806555D01*
X01800555Y01370108D02*
X01806555D01*
X01763250Y01264495D02*
X01774250D01*
X01763250Y01270495D02*
X01774250D01*
Y01264495D02*
Y01270495D01*
X01763250Y01264495D02*
Y01270495D01*
Y01251495D02*
X01774250D01*
X01763250Y01257495D02*
X01774250D01*
Y01251495D02*
Y01257495D01*
X01763250Y01251495D02*
Y01257495D01*
X01802800Y01405457D02*
X01813800D01*
X01802800Y01399457D02*
X01813800D01*
X01802800D02*
Y01405457D01*
X01813800Y01399457D02*
Y01405457D01*
X01802800Y01419130D02*
X01813800D01*
X01802800Y01413130D02*
X01813800D01*
X01802800D02*
Y01419130D01*
X01813800Y01413130D02*
Y01419130D01*
X01734283Y01400639D02*
X01745284D01*
X01734283Y01406639D02*
X01745284D01*
Y01400639D02*
Y01406639D01*
X01734283Y01400639D02*
Y01406639D01*
X01745685Y01413074D02*
Y01418574D01*
X01735184Y01413074D02*
Y01418574D01*
Y01413074D02*
X01745685D01*
X01735184Y01418574D02*
X01745685D01*
X01734724Y01436799D02*
X01745724D01*
X01734724Y01442800D02*
X01745724D01*
Y01436799D02*
Y01442800D01*
X01734724Y01436799D02*
Y01442800D01*
X01745610Y01424730D02*
Y01430230D01*
X01735110Y01424730D02*
Y01430230D01*
Y01424730D02*
X01745610D01*
X01735110Y01430230D02*
X01745610D01*
X01771640Y01429204D02*
Y01459604D01*
X01757640Y01429204D02*
Y01459604D01*
X01771640D01*
X01757640Y01429204D02*
X01771640D01*
X01723211Y01301884D02*
X01739211D01*
X01723211Y01309884D02*
X01739211D01*
Y01301884D02*
Y01309884D01*
X01723211Y01301884D02*
Y01309884D01*
X01758440Y01405380D02*
X01789940D01*
X01758440Y01436880D02*
X01789940D01*
X01758440Y01405380D02*
Y01436880D01*
X01789940Y01405380D02*
Y01436880D01*
M02*
