G04*
G04 #@! TF.GenerationSoftware,Altium Limited,Altium Designer,21.0.9 (235)*
G04*
G04 Layer_Color=16711935*
%FSAX44Y44*%
%MOMM*%
G71*
G04*
G04 #@! TF.SameCoordinates,C9C275F4-687D-4123-80A0-9C6E5F070257*
G04*
G04*
G04 #@! TF.FilePolarity,Positive*
G04*
G01*
G75*
%ADD10C,0.1000*%
%ADD60C,0.1000*%
D10*
X01070025Y01077660D02*
G03*
X01069704Y01077545I00000000J-00000504D01*
G01*
X01451306Y01077660D02*
G03*
X01451285Y01077660I00000000J-00000504D01*
G01*
X01695770Y01077694D02*
G03*
X01695589Y01077660I00000000J-00000504D01*
G01*
X01795385Y01508085D02*
G03*
X01794318Y01498636I00005865J-00005446D01*
G01*
X01808181Y01506641D02*
G03*
X01795385Y01508085I-00006931J-00004002D01*
G01*
X01810478Y01502664D02*
G03*
X01814761Y01505978I-00046478J00064494D01*
G01*
D02*
G03*
X01843092Y01559153I-00050761J00061179D01*
G01*
X01832635Y01572604D02*
G03*
X01838500Y01559153I00005865J-00005446D01*
G01*
X01838500Y01575161D02*
G03*
X01832635Y01572604I00000000J-00008004D01*
G01*
X01838519Y01575161D02*
G03*
X01838500Y01575161I-00000019J-00000503D01*
G01*
D02*
G03*
X01838480Y01575161I00000000J-00000504D01*
G01*
X01843092Y01575161D02*
G03*
X01810477Y01631651I-00079092J-00008004D01*
G01*
X01807803Y01627044D02*
G03*
X01807870Y01627135I-00000369J00000343D01*
G01*
X01807732Y01626981D02*
G03*
X01807803Y01627044I-00000298J00000406D01*
G01*
X01807115Y01626230D02*
G03*
X01807732Y01626981I-00005865J00005446D01*
G01*
X01794082Y01635238D02*
G03*
X01807115Y01626230I00007167J-00003562D01*
G01*
X01794131Y01635354D02*
G03*
X01794082Y01635238I00000436J-00000252D01*
G01*
X01796614Y01639655D02*
G03*
X01731385Y01639655I-00032615J-00072498D01*
G01*
X01733681Y01635678D02*
G03*
X01733670Y01635697I-00000436J-00000252D01*
G01*
X01733692Y01635659D02*
G03*
X01733681Y01635678I-00000447J-00000233D01*
G01*
X01734754Y01631676D02*
G03*
X01733681Y01635678I-00008004J00000000D01*
G01*
X01732615Y01626230D02*
G03*
X01734754Y01631676I-00005865J00005446D01*
G01*
X01719818Y01627674D02*
G03*
X01732615Y01626230I00006931J00004002D01*
G01*
X01717522Y01631651D02*
G03*
X01684907Y01575161I00046478J-00064494D01*
G01*
X01689500D02*
G03*
X01689481Y01575161I00000000J-00000504D01*
G01*
X01689520Y01575161D02*
G03*
X01689500Y01575161I-00000020J-00000503D01*
G01*
X01697504Y01567157D02*
G03*
X01689500Y01575161I-00008004J00000000D01*
G01*
X01695365Y01561711D02*
G03*
X01697504Y01567157I-00005865J00005446D01*
G01*
X01689500Y01559153D02*
G03*
X01695365Y01561711I00000000J00008004D01*
G01*
X01684907Y01559153D02*
G03*
X01713238Y01505978I00079092J00008004D01*
G01*
D02*
G03*
X01717522Y01502663I00050761J00061179D01*
G01*
X01719818Y01506640D02*
G03*
X01719813Y01506632I00000436J-00000252D01*
G01*
X01719823Y01506649D02*
G03*
X01719818Y01506640I00000431J-00000261D01*
G01*
X01720885Y01508085D02*
G03*
X01719818Y01506640I00005865J-00005446D01*
G01*
X01734754Y01502639D02*
G03*
X01720885Y01508085I-00008004J00000000D01*
G01*
X01733681Y01498636D02*
G03*
X01734753Y01502638I-00006931J00004002D01*
G01*
X01696631Y01433946D02*
G03*
X01696517Y01434265I-00000504J00000000D01*
G01*
X01696127Y01433442D02*
G03*
X01696631Y01433946I00000000J00000504D01*
G01*
X01450870Y01433694D02*
G03*
X01451306Y01433442I00000436J00000252D01*
G01*
X01413394Y01498602D02*
G03*
X01413397Y01498598I00000436J00000252D01*
G01*
X01424766Y01509264D02*
G03*
X01413394Y01498602I-00004440J-00006660D01*
G01*
X01427258Y01506606D02*
G03*
X01424766Y01509264I-00006931J-00004002D01*
G01*
X01427258Y01506606D02*
G03*
X01427254Y01506613I-00000436J-00000252D01*
G01*
X01429554Y01502629D02*
G03*
X01433837Y01505944I-00046478J00064494D01*
G01*
D02*
G03*
X01433830Y01505937I00000322J-00000388D01*
G01*
X01433837Y01505944D02*
G03*
X01462168Y01559119I-00050761J00061179D01*
G01*
X01457569Y01559120D02*
G03*
X01457576Y01559119I00000007J00000504D01*
G01*
D02*
G03*
X01457583Y01559120I00000000J00000504D01*
G01*
X01453136Y01560464D02*
G03*
X01457576Y01559119I00004440J00006660D01*
G01*
X01457576Y01575127D02*
G03*
X01453136Y01560464I00000000J-00008004D01*
G01*
X01457576Y01575127D02*
G03*
X01457569Y01575127I00000000J-00000504D01*
G01*
X01457583D02*
G03*
X01457576Y01575127I-00000007J-00000504D01*
G01*
X01462168D02*
G03*
X01429554Y01631617I-00079092J-00008004D01*
G01*
X01426808Y01626947D02*
G03*
X01426946Y01627101I-00000298J00000406D01*
G01*
X01415886Y01624983D02*
G03*
X01426808Y01626947I00004440J00006660D01*
G01*
X01413159Y01635204D02*
G03*
X01415886Y01624983I00007167J-00003562D01*
G01*
X01413159Y01635205D02*
G03*
X01413159Y01635204I00007167J-00003563D01*
G01*
X01413207Y01635320D02*
G03*
X01413159Y01635204I00000436J-00000252D01*
G01*
X01415691Y01639621D02*
G03*
X01350461Y01639621I-00032615J-00072498D01*
G01*
X01353830Y01631642D02*
G03*
X01352758Y01635644I-00008004J00000000D01*
G01*
X01341386Y01624983D02*
G03*
X01353830Y01631642I00004440J00006660D01*
G01*
X01338895Y01627640D02*
G03*
X01341386Y01624983I00006931J00004002D01*
G01*
X01336598Y01631617D02*
G03*
X01303984Y01575127I00046478J-00064494D01*
G01*
X01308576D02*
G03*
X01308569Y01575127I00000000J-00000504D01*
G01*
X01308583D02*
G03*
X01308576Y01575127I-00000007J-00000504D01*
G01*
X01313016Y01573783D02*
G03*
X01308576Y01575127I-00004440J-00006660D01*
G01*
X01316580Y01567123D02*
G03*
X01313016Y01573783I-00008004J00000000D01*
G01*
X01308576Y01559119D02*
G03*
X01316580Y01567123I00000000J00008004D01*
G01*
X01303984Y01559119D02*
G03*
X01332315Y01505944I00079092J00008004D01*
G01*
X01332319Y01505941D02*
G03*
X01332315Y01505944I-00000326J-00000384D01*
G01*
D02*
G03*
X01336598Y01502629I00050761J00061179D01*
G01*
X01338895Y01506606D02*
G03*
X01338890Y01506599I00000436J-00000252D01*
G01*
X01338900Y01506615D02*
G03*
X01338895Y01506606I00000431J-00000261D01*
G01*
X01350266Y01509264D02*
G03*
X01338895Y01506606I-00004440J-00006660D01*
G01*
X01353830Y01502604D02*
G03*
X01350266Y01509264I-00008004J00000000D01*
G01*
X01352758Y01498602D02*
G03*
X01353830Y01502604I-00006931J00004002D01*
G01*
X01315140Y01433536D02*
G03*
X01315282Y01433693I-00000294J00000409D01*
G01*
X01314731Y01433327D02*
G03*
X01315140Y01433536I00000000J00000504D01*
G01*
X01069474Y01433578D02*
G03*
X01069910Y01433327I00000436J00000252D01*
G01*
X01045862Y01506491D02*
G03*
X01031999Y01498487I-00006931J-00004002D01*
G01*
X01048158Y01502514D02*
G03*
X01052441Y01505828I-00046478J00064494D01*
G01*
D02*
G03*
X01080772Y01559004I-00050761J00061179D01*
G01*
X01076180Y01575012D02*
G03*
X01076180Y01559004I00000000J-00008004D01*
G01*
X01080772Y01575012D02*
G03*
X01048158Y01631502I-00079092J-00008004D01*
G01*
X01045412Y01626831D02*
G03*
X01045550Y01626986I-00000298J00000406D01*
G01*
X01031763Y01635089D02*
G03*
X01045412Y01626831I00007167J-00003562D01*
G01*
X01031811Y01635204D02*
G03*
X01031763Y01635089I00000436J-00000252D01*
G01*
X01034295Y01639506D02*
G03*
X00969065Y01639506I-00032615J-00072498D01*
G01*
X00972434Y01631527D02*
G03*
X00971361Y01635529I-00008004J00000000D01*
G01*
X00957498Y01627525D02*
G03*
X00972434Y01631527I00006931J00004002D01*
G01*
X00955202Y01631502D02*
G03*
X00922588Y01575012I00046478J-00064494D01*
G01*
X00935184Y01567008D02*
G03*
X00927180Y01575012I-00008004J00000000D01*
G01*
Y01559004D02*
G03*
X00935184Y01567008I00000000J00008004D01*
G01*
X00922588Y01559004D02*
G03*
X00950919Y01505828I00079092J00008004D01*
G01*
D02*
G03*
X00955202Y01502514I00050761J00061179D01*
G01*
X00972434Y01502489D02*
G03*
X00957498Y01506491I-00008004J00000000D01*
G01*
X00971361Y01498487D02*
G03*
X00972434Y01502489I-00006931J00004002D01*
G01*
X00933954Y01077545D02*
X01069704D01*
X01070025Y01077660D02*
X01451285D01*
X01451306Y01077660D02*
X01695589D01*
X01695770Y01077694D02*
X01831726D01*
X01831726Y01433845D02*
X01831726Y01077694D01*
X01794318Y01498636D02*
X01831726Y01433845D01*
X01794318Y01498636D02*
X01794318Y01498636D01*
X01808181Y01506641D02*
X01808181Y01506641D01*
X01810478Y01502664D01*
X01838500Y01559153D02*
X01843092D01*
X01838500Y01575161D02*
X01838519D01*
X01838480Y01575161D02*
X01838500Y01575161D01*
X01838500Y01575161D02*
X01843092D01*
X01807870Y01627135D02*
X01810477Y01631651D01*
X01794082Y01635238D02*
X01794082Y01635238D01*
X01794131Y01635354D02*
X01794131D01*
X01794131D02*
X01796614Y01639655D01*
X01731385Y01639655D02*
X01733681Y01635678D01*
X01733681D02*
X01733681D01*
X01733670Y01635697D02*
X01733681Y01635678D01*
X01733692Y01635659D01*
X01733681Y01635678D02*
X01733681D01*
X01719818Y01627674D02*
X01719818Y01627674D01*
X01717522Y01631651D02*
X01719818Y01627674D01*
X01684907Y01575161D02*
X01684907Y01575161D01*
X01684907Y01575161D02*
X01689481D01*
X01689500Y01575161D02*
X01689520Y01575161D01*
X01684907Y01559153D02*
X01713238Y01505978D01*
X01719813Y01506632D02*
X01719818Y01506640D01*
X01719818Y01506641D02*
X01719823Y01506649D01*
X01719818Y01506640D02*
X01719823Y01506649D01*
X01734753Y01502638D02*
X01734754Y01502639D01*
X01733676Y01498628D02*
X01733681Y01498636D01*
X01696517Y01434265D02*
X01733676Y01498628D01*
X01451306Y01433442D02*
X01696127D01*
X01450870Y01433694D02*
X01450870D01*
X01413397Y01498598D02*
X01450870Y01433694D01*
X01413395Y01498602D02*
X01413397Y01498598D01*
X01413395Y01498602D02*
X01413397Y01498598D01*
X01413394Y01498602D02*
X01413394D01*
X01424766Y01509264D02*
X01424766D01*
X01427254Y01506613D02*
X01427258Y01506606D01*
X01427258Y01506606D02*
X01427258Y01506606D01*
X01427258Y01506606D02*
X01427260Y01506602D01*
X01429554Y01502629D01*
X01429554Y01502629D01*
X01429554Y01502629D01*
X01429554Y01502629D02*
X01429554Y01502629D01*
X01433830Y01505937D02*
X01433837Y01505944D01*
X01457569Y01559120D02*
X01462168Y01559119D01*
X01457576D02*
X01457583Y01559120D01*
X01457576D02*
X01457576Y01559119D01*
X01457576Y01559120D02*
X01462168D01*
Y01559119D02*
Y01559120D01*
X01457576Y01559119D02*
X01462168D01*
X01453136Y01560464D02*
X01453136D01*
X01457569Y01575127D02*
X01457576Y01575127D01*
X01462168Y01575127D01*
X01457583D02*
X01462168D01*
X01457576Y01575127D02*
X01462168D01*
X01429554Y01631617D02*
Y01631617D01*
X01426946Y01627101D02*
X01429554Y01631617D01*
X01426808Y01626947D02*
X01426808Y01626947D01*
X01415886Y01624983D02*
X01415886D01*
X01413159Y01635204D02*
X01413159Y01635205D01*
X01413159Y01635204D02*
X01413159Y01635204D01*
X01413207Y01635320D02*
X01413207D01*
X01413207D02*
X01415691Y01639621D01*
X01350461Y01639621D02*
X01352758Y01635644D01*
X01352758Y01635644D02*
X01352758Y01635644D01*
X01353830Y01631642D02*
X01353830Y01631642D01*
X01338895Y01627640D02*
X01338895Y01627640D01*
X01336598Y01631617D02*
X01338895Y01627640D01*
X01303984Y01575127D02*
X01308569Y01575127D01*
X01303984Y01575127D02*
X01308576D01*
X01303984Y01575127D02*
Y01575127D01*
Y01575127D02*
X01308583D01*
X01313016Y01573783D02*
X01313016D01*
X01303984Y01559119D02*
X01308576D01*
X01332315Y01505944D02*
X01332319Y01505941D01*
X01336598Y01502629D02*
X01338895Y01506606D01*
X01338895Y01506606D01*
X01338890Y01506599D02*
X01338895Y01506606D01*
X01338895Y01506606D02*
X01338900Y01506615D01*
X01353830Y01502604D02*
X01353830Y01502604D01*
X01315282Y01433693D02*
X01352758Y01498602D01*
X01069910Y01433327D02*
X01314731D01*
X01069474Y01433578D02*
X01069474D01*
X01031998Y01498487D02*
X01069474Y01433578D01*
X01031998Y01498487D02*
X01031999Y01498487D01*
X01045862Y01506491D02*
X01045862Y01506491D01*
X01048158Y01502514D01*
X01076180Y01559004D02*
X01080772D01*
X01076180Y01575012D02*
X01080772D01*
X01045550Y01626986D02*
X01048158Y01631502D01*
X01045412Y01626831D02*
X01045412Y01626831D01*
X01031763Y01635089D02*
X01031763Y01635089D01*
X01031811Y01635204D02*
X01031811D01*
X01031811D02*
X01034295Y01639506D01*
X00969065D02*
X00971361Y01635529D01*
X00971361Y01635529D02*
X00971361Y01635529D01*
X00957498Y01627525D02*
X00957498Y01627525D01*
X00955202Y01631502D02*
X00957498Y01627525D01*
X00922588Y01575012D02*
X00927180D01*
X00922588Y01559004D02*
X00927180D01*
X00955202Y01502514D02*
X00957498Y01506491D01*
X00957498Y01506491D01*
X00933954Y01433695D02*
X00971361Y01498487D01*
X00933954Y01433695D02*
X00933954Y01077545D01*
X01046211Y01506663D02*
G03*
X01032348Y01498659I-00006931J-00004002D01*
G01*
X01048508Y01502686D02*
G03*
X01052791Y01506001I-00046478J00064494D01*
G01*
D02*
G03*
X01081122Y01559176I-00050761J00061179D01*
G01*
X01076530Y01575184D02*
G03*
X01076530Y01559176I00000000J-00008004D01*
G01*
X01081122Y01575184D02*
G03*
X01048508Y01631674I-00079092J-00008004D01*
G01*
X01045762Y01627003D02*
G03*
X01045900Y01627158I-00000298J00000406D01*
G01*
X01032113Y01635261D02*
G03*
X01045762Y01627003I00007167J-00003562D01*
G01*
X01032161Y01635376D02*
G03*
X01032113Y01635261I00000436J-00000252D01*
G01*
X01034645Y01639678D02*
G03*
X00969415Y01639678I-00032615J-00072498D01*
G01*
X00972784Y01631699D02*
G03*
X00971712Y01635701I-00008004J00000000D01*
G01*
X00957849Y01627697D02*
G03*
X00972784Y01631699I00006931J00004002D01*
G01*
X00955552Y01631674D02*
G03*
X00922938Y01575184I00046478J-00064494D01*
G01*
X00935534Y01567180D02*
G03*
X00927530Y01575184I-00008004J00000000D01*
G01*
Y01559176D02*
G03*
X00935534Y01567180I00000000J00008004D01*
G01*
X00922938Y01559176D02*
G03*
X00951269Y01506001I00079092J00008004D01*
G01*
D02*
G03*
X00955552Y01502686I00050761J00061179D01*
G01*
X00972784Y01502661D02*
G03*
X00957849Y01506663I-00008004J00000000D01*
G01*
X00971712Y01498659D02*
G03*
X00972784Y01502661I-00006931J00004002D01*
G01*
X00934304Y01077717D02*
X01069756D01*
X01069756Y01433867D02*
X01069756Y01077717D01*
X01032348Y01498659D02*
X01069756Y01433867D01*
X01032348Y01498659D02*
X01032348Y01498659D01*
X01046211Y01506663D02*
X01046211Y01506663D01*
X01048508Y01502686D01*
X01076530Y01559176D02*
X01081122D01*
X01076530Y01575184D02*
X01081122D01*
X01045900Y01627158D02*
X01048508Y01631674D01*
X01045762Y01627003D02*
X01045762Y01627003D01*
X01032113Y01635261D02*
X01032113Y01635261D01*
X01032161Y01635376D02*
X01032161D01*
X01032161D02*
X01034645Y01639678D01*
X00969415D02*
X00971712Y01635701D01*
X00971712Y01635701D02*
X00971712Y01635701D01*
X00957849Y01627697D02*
X00957849Y01627697D01*
X00955552Y01631674D02*
X00957849Y01627697D01*
X00922938Y01575184D02*
X00927530D01*
X00922938Y01559176D02*
X00927530D01*
X00955552Y01502686D02*
X00957849Y01506663D01*
X00957849Y01506663D01*
X00934304Y01433867D02*
X00971712Y01498659D01*
X00934304Y01433867D02*
X00934304Y01077717D01*
X01427211Y01506663D02*
G03*
X01413349Y01498659I-00006931J-00004002D01*
G01*
X01429508Y01502686D02*
G03*
X01433791Y01506001I-00046478J00064494D01*
G01*
D02*
G03*
X01462122Y01559176I-00050761J00061179D01*
G01*
X01457530Y01575184D02*
G03*
X01457530Y01559176I00000000J-00008004D01*
G01*
X01462122Y01575184D02*
G03*
X01429508Y01631674I-00079092J-00008004D01*
G01*
X01426762Y01627003D02*
G03*
X01426900Y01627158I-00000298J00000406D01*
G01*
X01413113Y01635261D02*
G03*
X01426762Y01627003I00007167J-00003562D01*
G01*
X01413161Y01635376D02*
G03*
X01413113Y01635261I00000436J-00000252D01*
G01*
X01415645Y01639678D02*
G03*
X01350415Y01639678I-00032615J-00072498D01*
G01*
X01353784Y01631699D02*
G03*
X01352711Y01635701I-00008004J00000000D01*
G01*
X01338849Y01627697D02*
G03*
X01353784Y01631699I00006931J00004002D01*
G01*
X01336552Y01631674D02*
G03*
X01303938Y01575184I00046478J-00064494D01*
G01*
X01316534Y01567180D02*
G03*
X01308530Y01575184I-00008004J00000000D01*
G01*
Y01559176D02*
G03*
X01316534Y01567180I00000000J00008004D01*
G01*
X01303938Y01559176D02*
G03*
X01332269Y01506001I00079092J00008004D01*
G01*
D02*
G03*
X01336552Y01502686I00050761J00061179D01*
G01*
X01353784Y01502661D02*
G03*
X01338849Y01506663I-00008004J00000000D01*
G01*
X01352711Y01498659D02*
G03*
X01353784Y01502661I-00006931J00004002D01*
G01*
X01315304Y01077717D02*
X01450756D01*
X01450756Y01433867D02*
X01450756Y01077717D01*
X01413349Y01498659D02*
X01450756Y01433867D01*
X01413349Y01498659D02*
X01413349Y01498659D01*
X01427211Y01506663D02*
X01427211Y01506663D01*
X01429508Y01502686D01*
X01457530Y01559176D02*
X01462122D01*
X01457530Y01575184D02*
X01462122D01*
X01426900Y01627158D02*
X01429508Y01631674D01*
X01426762Y01627003D02*
X01426762Y01627003D01*
X01413113Y01635261D02*
X01413113Y01635261D01*
X01413161Y01635376D02*
X01413161D01*
X01413161D02*
X01415645Y01639678D01*
X01350415D02*
X01352711Y01635701D01*
X01352711Y01635701D02*
X01352711Y01635701D01*
X01338849Y01627697D02*
X01338849Y01627697D01*
X01336552Y01631674D02*
X01338849Y01627697D01*
X01303938Y01575184D02*
X01308530D01*
X01303938Y01559176D02*
X01308530D01*
X01336552Y01502686D02*
X01338849Y01506663D01*
X01338849Y01506663D01*
X01315304Y01433867D02*
X01352711Y01498659D01*
X01315304Y01433867D02*
X01315304Y01077717D01*
X01808212Y01506663D02*
G03*
X01794348Y01498659I-00006931J-00004002D01*
G01*
X01810508Y01502686D02*
G03*
X01814791Y01506001I-00046478J00064494D01*
G01*
D02*
G03*
X01843122Y01559176I-00050761J00061179D01*
G01*
X01838530Y01575184D02*
G03*
X01838530Y01559176I00000000J-00008004D01*
G01*
X01843122Y01575184D02*
G03*
X01810508Y01631674I-00079092J-00008004D01*
G01*
X01807762Y01627003D02*
G03*
X01807900Y01627158I-00000298J00000406D01*
G01*
X01794113Y01635261D02*
G03*
X01807762Y01627003I00007167J-00003562D01*
G01*
X01794161Y01635376D02*
G03*
X01794113Y01635261I00000436J-00000252D01*
G01*
X01796645Y01639678D02*
G03*
X01731415Y01639678I-00032615J-00072498D01*
G01*
X01734784Y01631699D02*
G03*
X01733712Y01635701I-00008004J00000000D01*
G01*
X01719848Y01627697D02*
G03*
X01734784Y01631699I00006931J00004002D01*
G01*
X01717552Y01631674D02*
G03*
X01684938Y01575184I00046478J-00064494D01*
G01*
X01697534Y01567180D02*
G03*
X01689530Y01575184I-00008004J00000000D01*
G01*
Y01559176D02*
G03*
X01697534Y01567180I00000000J00008004D01*
G01*
X01684938Y01559176D02*
G03*
X01713269Y01506001I00079092J00008004D01*
G01*
D02*
G03*
X01717552Y01502686I00050761J00061179D01*
G01*
X01734784Y01502661D02*
G03*
X01719848Y01506663I-00008004J00000000D01*
G01*
X01733712Y01498659D02*
G03*
X01734784Y01502661I-00006931J00004002D01*
G01*
X01696304Y01077717D02*
X01831756D01*
X01831756Y01433867D02*
X01831756Y01077717D01*
X01794348Y01498659D02*
X01831756Y01433867D01*
X01794348Y01498659D02*
X01794348Y01498659D01*
X01808212Y01506663D02*
X01808212Y01506663D01*
X01810508Y01502686D01*
X01838530Y01559176D02*
X01843122D01*
X01838530Y01575184D02*
X01843122D01*
X01807900Y01627158D02*
X01810508Y01631674D01*
X01807762Y01627003D02*
X01807762Y01627003D01*
X01794113Y01635261D02*
X01794113Y01635261D01*
X01794161Y01635376D02*
X01794161D01*
X01794161D02*
X01796645Y01639678D01*
X01731415D02*
X01733712Y01635701D01*
X01733712Y01635701D02*
X01733712Y01635701D01*
X01719848Y01627697D02*
X01719848Y01627697D01*
X01717552Y01631674D02*
X01719848Y01627697D01*
X01684938Y01575184D02*
X01689530D01*
X01684938Y01559176D02*
X01689530D01*
X01717552Y01502686D02*
X01719848Y01506663D01*
X01719848Y01506663D01*
X01696304Y01433867D02*
X01733712Y01498659D01*
X01696304Y01433867D02*
X01696304Y01077717D01*
D60*
X01794082Y01635238D02*
D03*
X01426808Y01626947D02*
D03*
X01413159Y01635204D02*
D03*
M02*
